<svg xmlns="http://www.w3.org/2000/svg" xmlns:xlink="http://www.w3.org/1999/xlink" viewBox="0 0 688 688"><defs><path id="b" fill="#1ea1a6" d="M266.43 358.07c3.76-11.9 20.18-26.91 34.02-22.55 7.8 2.45 4.67 31.2 4.67 31.2s-25.3 1.93-38.69-8.64Z"/></defs><defs><mask id="a" width="191.95" height="185.87" x="209.44" y="419.81" maskUnits="userSpaceOnUse"><path fill="#fff" stroke-width="0" d="M352.98 497.08c6.97 40.32-19.27 78.51-58.6 85.32-39.34 6.8-76.88-20.37-83.85-60.68-5.87-33.94 12.51-62.21 41.94-74.36 5.53-2.28 11.45-4 17.67-5.07 3.18-.55 6.35-.92 9.48-1.1 35.57-2.13 66.94 18.86 73.35 55.91Z"/></mask></defs><path fill="#f5f5f5" d="M564.5 356.33c-123.33-70.91-323.28-70.91-446.61 0-123.33 70.91-123.33 185.88 0 256.79 123.33 70.91 323.28 70.91 446.61 0 123.32-70.91 123.32-185.88 0-256.79Z"/><path fill="#e0e0e0" d="M483.79 519.63c31.13 0 56.37-14.57 56.37-32.55s-25.24-32.55-56.37-32.55-56.37 14.57-56.37 32.55 25.24 32.55 56.37 32.55Zm-67.25 24.42c-22.52-2.07-41.68-.64-56.89 2.51-2.02-14.36-13.8-28.43-35.33-39.41-47.53-24.23-124.6-24.23-172.13 0s-47.53 63.51 0 87.74c47.53 24.23 124.6 24.23 172.13 0 5.35-2.73 10.1-5.65 14.25-8.72 15.23 3.44 32.13 5.29 47.48 4.85l1.64.55c13.55 4.33 27.93 6.53 40 6.53 10.49 0 19.24-1.66 24.21-5.03a13.1 13.1 0 0 0 1.48-1.15c6.5.2 13.55.46 20.99-1.03 10.77-2.17 16.07-6.91 15.77-12.55-.77-14.25-42.11-31.39-73.59-34.29Zm-29.91 42.41c-9.24-3.4-14.17-8.03-13.62-12.9.73-6.42 10.2-12.19 21.57-13.14 1.57-.13 3.17-.19 4.78-.19 8.76 0 17.74 1.86 23.46 4.61a25 25 0 0 0-7.45 1.25c-3.4 1.17-4.97 3.89-4.1 7.11.66 2.42 2.71 5.08 5.94 7.62-7.95 3.51-18.72 5.27-30.56 5.64Zm36.99-17.15c1.62 0 3.29.14 4.97.41l.13.38c.67 2.4-1.85 5.39-6.99 8.4-3.54-2.37-5.66-4.74-6.13-6.48-.15-.54-.31-1.15 1.22-1.68a21.03 21.03 0 0 1 6.8-1.03Zm-24.6 20.74c8.37-1.08 15.87-3.02 21.8-5.96l.7-.36c5.92 3.43 14.09 6.31 23.88 7.57-9.92 3.54-28.27 3.03-46.38-1.25Zm52.43-2.7c-10.56-.6-19.17-3.24-25.32-6.31 4.9-3.3 7.31-6.74 7.2-10.27a40.73 40.73 0 0 1 13.34 6.45c3.64 2.79 5.63 5.76 5.46 8.12a4.25 4.25 0 0 1-.69 2.02Zm22.02-.87c-6.11 1.23-11.86.98-17.18 1 .2-.66.3-1.28.33-1.83.28-3.96-2.28-8.22-7.2-12.01-4.67-3.59-11.31-6.6-18.09-7.99-6.03-7.52-24.45-10.77-37.14-9.72-13.65 1.14-24.68 8.5-25.66 17.12-.37 3.25.49 8.55 7.83 13.39a202.05 202.05 0 0 1-33.23-3.92c11.21-9.68 16.81-20.58 16.82-31.47 14.84-3.14 33.74-4.58 56.16-2.52 32.95 3.03 68.98 20.23 69.51 30.05.16 2.93-4.26 6.31-12.16 7.9Z"/><path fill="#ebebeb" d="m188.74 81.48-15.76 9.1c.08-.7.13-1.4.13-2.09v-4.57c0-8.13-5.71-11.42-12.75-7.36a24.72 24.72 0 0 0-7.6 7.31c-1.15-10.22-9.17-14.03-18.91-8.4-10.53 6.08-19.07 20.87-19.07 33.03v6.83c0 3.15.58 5.8 1.61 7.92l-13.1 7.56c-3.9 2.25-7.07 7.74-7.07 12.24s3.16 6.34 7.07 4.08l85.43-49.33c3.9-2.25 7.07-7.74 7.07-12.24s-3.17-6.34-7.07-4.08Zm64.06 27.22-10.05 5.8c.05-.45.08-.89.08-1.33v-2.91c0-5.18-3.64-7.28-8.13-4.69a15.61 15.61 0 0 0-4.84 4.66c-.73-6.52-5.85-8.94-12.06-5.36-6.71 3.88-12.16 13.3-12.16 21.06v4.36c0 2.01.37 3.7 1.03 5.05l-8.35 4.82c-2.49 1.44-4.51 4.93-4.51 7.81s2.02 4.04 4.51 2.6l54.47-31.45c2.49-1.44 4.51-4.93 4.51-7.81s-2.02-4.04-4.51-2.6Z"/><path fill="#27debf" d="M474.99 482.06c-1.42-15.58-.31-31.82 2.83-48.16 3.66-19.01 14.57-34.47 27.62-41.63 4.54-2.49 14-5.16 20.19.42 5.91 5.33 2.74 13.91-4.47 22.71-14.22 17.37-28.24 31.91-32.08 54.69l-1.59 16.9-12.49-4.93Z"/><path d="M474.99 482.06c-1.42-15.58-.31-31.82 2.83-48.16 3.66-19.01 14.57-34.47 27.62-41.63 4.54-2.49 14-5.16 20.19.42 5.91 5.33 2.74 13.91-4.47 22.71-14.22 17.37-28.24 31.91-32.08 54.69l-1.59 16.9-12.49-4.93Z" opacity=".2"/><path fill="#fff" d="M479.38 479.92a.71.71 0 0 1-.71-.71c0-22.01 4.66-41.08 14.26-58.28 6.34-11.37 14.09-19.62 23.71-25.23.33-.2.77-.08.97.25.2.34.08.77-.25.97-9.39 5.48-16.97 13.56-23.18 24.7-9.48 16.99-14.08 35.83-14.08 57.59 0 .39-.32.71-.71.71Z"/><path fill="#23aca3" d="M494.82 489.97c-.05-5.4 3.61-15.42 11.45-25.11 8.67-10.73 21.42-18.25 22.87-25.03 1.74-8.15-5.73-12.1-16.81-8.19-13.32 4.7-26.44 23.01-24.85 55.35l7.34 2.98Z"/><path fill="#fff" d="M491.63 485.17a.66.66 0 0 0 .43-.59c1.63-28.65 18.19-43.36 27-47.26.34-.15.5-.55.35-.89-.15-.34-.53-.5-.89-.34-9.74 4.3-26.14 19.17-27.8 48.42-.02.37.26.69.64.71.1 0 .19-.01.28-.04Z"/><path fill="#455a64" d="M426.17 591.35c-12.08 0-26.45-2.2-40-6.53-.56-.18-1.11-.36-1.64-.55-22.63.64-48.68-3.67-67.69-10.76l1.57-4.21c15.65 5.83 36.81 9.76 56.46 10.39-7.34-4.84-8.2-10.14-7.83-13.39.98-8.61 12.01-15.97 25.66-17.12 12.68-1.06 31.11 2.19 37.14 9.72 6.77 1.39 13.42 4.4 18.09 7.99 4.92 3.78 7.48 8.05 7.2 12.01a9 9 0 0 1-.33 1.83c5.32-.02 11.07.23 17.18-1 7.89-1.59 12.32-4.97 12.16-7.9-.53-9.82-36.56-27.02-69.51-30.05-43.9-4.04-74.37 5.35-87.12 14.63l-2.64-3.64c13.38-9.73 45.03-19.62 90.17-15.47 31.48 2.9 72.82 20.04 73.59 34.29.3 5.64-4.99 10.38-15.76 12.55-7.43 1.49-14.49 1.23-20.99 1.03-.44.39-.93.78-1.48 1.15-4.97 3.37-13.72 5.03-24.21 5.03Zm-28.66-8.05c18.11 4.28 36.45 4.79 46.38 1.25-9.78-1.25-17.96-4.14-23.88-7.57l-.71.35c-5.93 2.95-13.42 4.89-21.79 5.96Zm27.11-9.01c6.15 3.08 14.76 5.71 25.32 6.31.41-.63.64-1.3.69-2.02.17-2.37-1.82-5.33-5.46-8.12a40.78 40.78 0 0 0-13.35-6.45c.11 3.54-2.3 6.98-7.2 10.27Zm-26.78-20.81c-1.61 0-3.21.06-4.78.2-11.36.95-20.84 6.73-21.56 13.14-.55 4.87 4.38 9.5 13.62 12.9 11.85-.37 22.61-2.13 30.56-5.64-3.23-2.54-5.28-5.2-5.94-7.62-.87-3.22.7-5.94 4.1-7.11 2.3-.79 4.83-1.18 7.45-1.25-5.71-2.74-14.69-4.61-23.45-4.61Zm24.27 9.08c-2.42 0-4.74.32-6.8 1.03-1.53.53-1.37 1.14-1.22 1.68.47 1.73 2.58 4.11 6.13 6.48 5.14-3.01 7.66-6 6.99-8.4-.03-.13-.08-.25-.13-.38-1.68-.26-3.35-.4-4.97-.4Z"/><path fill="#37474f" d="M439.11 585.8c2.94.74 6.89 1.33 9.32 1.65a17.05 17.05 0 0 0 3.42-2.28s-4.41-.22-7.98-.63c-1.42.51-3.03.92-4.76 1.26Zm-22.43-7.28c.9-.38 1.78-.77 2.62-1.19l.7-.35s-1.8-.91-4.33-2.91c-1.07.47-2.19.9-3.35 1.31a18.51 18.51 0 0 0 4.36 3.14Zm10.52-15.18c.21.77.1 1.6-.33 2.47 1.84.24 3.38.72 4.43 1.13.36-.97.55-1.95.52-2.94 0 0-2.25-.79-4.75-1.05l.13.38Zm-57.8 16.08a33 33 0 0 0 6.87 4.86c2.79.06 5.54.06 8.25-.02 0 0-6.35-2.43-9.67-4.58-1.8-.06-3.63-.15-5.45-.27Zm-44.55-26.65 2.64 3.64c5.03-3.66 12.84-7.34 23.13-10.2.52-1.69.91-3.33 1.15-4.92-12.08 3.11-21.19 7.31-26.92 11.48Zm7.11 20.76a144.14 144.14 0 0 1-13.57-4.22l-1.57 4.21c3.38 1.26 7 2.43 10.77 3.5a61.28 61.28 0 0 0 4.37-3.49Z"/><path fill="#455a64" d="M244.87 383.04h-.09c-17.1-.65-33.28-13.34-48.92-25.62-13.38-10.5-26.01-20.41-36.82-20.41a2.25 2.25 0 0 1 0-4.5c12.35 0 25.59 10.38 39.6 21.37 15.08 11.83 30.68 24.07 46.32 24.67a2.25 2.25 0 0 1-.09 4.49Z"/><path fill="#23ada3" d="M133.84 481.67c-12.16-4.52-22.57-21.15-18.04-39.68 5.45-22.31 29.96-38.13 43.41-51.08 24.99-24.06 40.29-43.3 32.32-77.92-6.97-30.32-35.03-40.39-51.71-39.77-20.67.77-33.68 9.4-32.54 16.09.51 2.98 6.13 4.3 10.58 5.93 13.78 5.04 18.04 8.13 22.45 14.06 6.71 9.03 7.83 20.81 6.39 21.63-1.45.82-3.35-5.97-12.5-9.88-9.15-3.91-13.62-1.09-13.54.94.09 2.14 8.51 3.97 11.05 16.08 2.12 10.07 1.62 23.05-13.53 43.78-9.33 12.76-30.54 36.67-25.91 67.17 4.63 30.5 27.79 41.65 37.36 42.19l4.22-9.55Z"/><path d="M133.84 481.67c-12.16-4.52-22.57-21.15-18.04-39.68 5.45-22.31 29.96-38.13 43.41-51.08 24.99-24.06 40.29-43.3 32.32-77.92-6.97-30.32-35.03-40.39-51.71-39.77-20.67.77-33.68 9.4-32.54 16.09.51 2.98 6.13 4.3 10.58 5.93 13.78 5.04 18.04 8.13 22.45 14.06 6.71 9.03 7.83 20.81 6.39 21.63-1.45.82-3.35-5.97-12.5-9.88-9.15-3.91-13.62-1.09-13.54.94.09 2.14 8.51 3.97 11.05 16.08 2.12 10.07 1.62 23.05-13.53 43.78-9.33 12.76-30.54 36.67-25.91 67.17 4.63 30.5 27.79 41.65 37.36 42.19l4.22-9.55Z" opacity=".05"/><path d="m129.62 491.22 4.22-9.54a25.94 25.94 0 0 1-9.3-6.21 65.74 65.74 0 0 0-4.26 13.17c3.63 1.63 6.92 2.45 9.34 2.58Z" opacity=".15"/><path fill="#455a64" d="M169.18 308.77c1.86-1.22 1.2-4.06.27-6.08a44.97 44.97 0 0 0-9.77-13.96c3.07.51 5.96 1.61 8.93 2.53 4.24 1.31 6.98 3.19 7.61 1.61.27-.67.15-2.43-.16-3.59-.75-2.91-1.46-3.97-2.46-4.76-10.93-8.48-24.22-11.65-33.78-11.29-20.67.78-33.68 9.4-32.54 16.09.51 2.98 6.13 4.3 10.58 5.93 13.78 5.04 18.04 8.13 22.45 14.06.05.07 4.98 2.47 7.22 3.89.99.63 2.18 1.32 3.3 1.4a2.4 2.4 0 0 0 1.55-.38c1.54-1.01 1.21-3.33.64-5.08a71.15 71.15 0 0 0-4.14-9.98 32.17 32.17 0 0 1 14.36 7.5c1.68 1.53 4.03 3.35 5.93 2.11Z"/><path fill="#23ada3" d="M236.22 473.65c1.74 23.92 9.58 38.8 25.9 52.62s39.48 22.08 49.72 26.53c10.24 4.45 17.87 9.91 25.27 3.63 7.4-6.28 6.76-19.86 19.91-30.64 13.15-10.78 17.75-13.8 18.08-21.63.44-10.34-9.5-10.07-12.55-8.52 0 0-2.57-4.4-9.9-2.78-6.17 1.37-9.09 6.58-9.09 6.58s-4.58-.27-9.41 4.23c-4.28 3.99-12.6 14.72-12.6 14.72s8.88-13.97 5.01-28.88c-3.51-13.5-12.15-17.2-12.15-17.2s3.72-1.89 13.65-.12c0 0-4.21-11.53-22.27-16-18.06-4.47-30.13 8.5-30.13 8.5l-39.46 8.95Z"/><path d="M346.81 495.76c-2.18 1.8-3.24 3.67-3.24 3.67 2.69-.08 8.51.29 10.53 7.3 0 0 2.29-7.9-7.29-10.98Zm17.47 8.1s3.73-2.1 1.57-9a8.94 8.94 0 0 0-3.29.77c2.13 2.26 2.4 6.24 1.72 8.23Z" opacity=".15"/><path fill="#ffa3a3" d="M352.61 517.19c-8.9 2.18-16.35 8.02-20.47 17.84-4.12 9.82-2.66 16.38 1.32 17.39 3.97 1.01 5.92.44 9.4-4.86 2.89-6.6 5.61-14.78 14.16-21.78 2.53-2.07 4.73-3.85 6.66-5.45-.37-2.84-4.19-4.83-11.07-3.15Z"/><path fill="#ffa8a7" d="M350.52 507.84c-2.68-1.09-5.51 5.28-2.4 6.49 2.58 1 5.99-5.03 2.4-6.49Z"/><path fill="#ffa3a3" d="M361.07 505.68c-2.68-1.09-5.51 5.28-2.4 6.49 2.58 1 5.99-5.03 2.4-6.49Zm8.66-.23c-2.68-1.09-5.51 5.28-2.4 6.49 2.58 1 5.99-5.03 2.4-6.49Z"/><path fill="#23ada3" d="M207.87 412.23c-1.35 7.63-30.11 14.89-49.85 29.77-19.73 14.87-37.16 35.16-34.05 70.32 3.4 38.56 38.12 52.74 56.39 52.74 18.27 0 80.73-4.84 112.69-50.32 31.96-45.48-11.06-105.36-85.18-102.51Z"/><path d="M162.9 501.29s9.95-17.54 37.27-12.71c27.32 4.84 24.87 47.15 24.87 47.15s.3 23.66-17.17 21.18c-17.47-2.47-44.97-55.63-44.97-55.63Zm44.97-89.07a5 5 0 0 1-1.27 2.36c-1.17 14.1 3.19 32.26 19.26 37.26 17.49 5.44 37.24 2.31 50.49-2.36a97.15 97.15 0 0 0 12.7-5.59c-16.26-19.52-45.01-33.06-81.18-31.67Z" opacity=".15"/><path fill="#455a64" d="M218.89 512.14a2.6 2.6 0 0 1-.48-.05c-60.5-13-82.84-51.22-90.77-72.84-10.32-28.13-11.21-58.94-2.23-76.66a2.25 2.25 0 0 1 4.01 2.03c-8.46 16.68-7.47 46.06 2.44 73.08 7.61 20.75 29.11 57.44 87.49 69.99a2.26 2.26 0 0 1-.47 4.45Z"/><path fill="#455a64" d="M352.98 497.08c6.97 40.32-19.27 78.51-58.6 85.32-39.34 6.8-76.88-20.37-83.85-60.68-5.87-33.94 12.51-62.21 41.94-74.36 5.53-2.28 11.45-4 17.67-5.07 3.18-.55 6.35-.92 9.48-1.1 35.57-2.13 66.94 18.86 73.35 55.91Z"/><g mask="url(#a)"><path d="M399.56 508.59c-17.54 5.74-35.19 8.82-52.7 8.34a92.6 92.6 0 0 0 10.51-4.99c7.72-4.08 17.36-8.74 19.48-17.89.4-1.71-1.68-1.36-2.49-.7-6.03 4.98-13.28 11.29-21.15 16.1-8.8 5.38-19.4 6.9-29.48 4.71-2.08-.45-4.17-.96-6.25-1.53 7.56-1.32 15.43-4.72 20.36-7.54 14.65-8.35 22.17-20.07 24.77-36.4.3-1.84-1.59-2.46-2.82-1.26-2.26 2.25-2.67 4.63-3.7 7.68-3.31 9.69-7.93 15.22-16.15 21.24a56.72 56.72 0 0 1-19.23 9.06c-3.52.89-7.17 1.04-10.73 1.59-3.51.54-7.63.43-10.9-1.05a70.2 70.2 0 0 1-7.83-4.29c15.43-.92 32.65-14.54 42.56-23.78 10.48-9.79 18.07-21.95 16.37-36.55-.28-2.59-3.28-1.04-3.64.73-1.34 6.78-1.99 11.24-5.16 17.71-3.21 6.55-7.55 11.38-13.13 16.22-11.4 9.87-27.08 20.49-42.56 21.9a94.6 94.6 0 0 1-6.34-5.04c11.6-4.33 21.51-12.98 29.61-22.34 4.87-5.62 8.65-11.56 11.15-18.61 1.54-4.38 5.02-11.6 3.19-16.18-.87-2.16-3.52-.12-3.67 1.44-1.09 11.15-7.5 21.96-14.6 30.55-3.39-9.4-5.74-17.68-5.1-28.08.32-5.02 1.12-9.68 2.05-14.63.3-1.56.81-3.09.03-4.53-1.12-2.08-3.73 1.15-3.34 2.67-.1-.39-1.41 1.6-1.5 1.74-1.17 2.04-1.07 5.1-1.44 7.38a81.86 81.86 0 0 0-1.17 11.59c-.24 10.24 2.59 19.04 6.54 28.28-3.67 3.69-7.84 6.69-12.02 9.67-2.59-1.92-4.42-6.91-5.88-9.54-2.22-3.94-4.59-7.71-6.22-11.98-3.81-9.92-2.89-21.65-7.06-31.06-.48-1.09-2.5.17-2.53 1.03-.36 12.91 1.77 26.24 7.42 37.98 2.2 4.6 5.4 12.58 9.52 17.03a16.1 16.1 0 0 1-3.37 1.92 12.66 12.66 0 0 1-4.02 1.14c-3.28.23-5.11-2.71-7.06-4.9a92.64 92.64 0 0 1-6.4-8c-4.69-6.63-8.87-14.3-11.24-22.1-2.01-6.58-1.54-14.18-4.71-20.41-1.53-3-5.22.11-4.38 2.68 2.22 6.84 1.02 14.41 3.16 21.44 2.83 9.3 7.85 18.08 13.52 25.94 8.67 11.99 22.16 23.34 35.49 29.87 19.31 9.44 43.93 14.9 66.9 12.65-24.69 4.98-51.35 1.93-74.29-7.3-26.84-10.82-53.6-35.1-60.66-64.06-.29-1.11-2.25-.49-2.34.46-1.3 14.32 9.64 29.49 19.04 39.26 10.75 11.15 22.17 21.68 36.61 27.99 15.7 6.84 31.44 11.47 48.71 11.78 6.72.11 13.84.17 20.87-.45-8.82 2.79-18.14 4.83-26.72 4.93-11.8.15-23.51-1.93-34.95-4.57-18.61-4.27-34.15-11.92-48.23-24.96-5.8-5.38-10.51-11.53-15.04-17.99-4.26-6.1-10.54-13.1-12.13-20.46-.36-1.66-3.12.17-3.01 1.44.43 6.07 3.31 11.84 6.43 16.96 1.75 2.89 3.76 5.58 5.73 8.32 1.84 2.59 3.4 5.19 3.55 8.47.11 2.64-.85 4.84-1.24 7.38-.36 2.32-.84 4.63-1.23 6.96a91.18 91.18 0 0 0-1.17 14.57c-.13 15.71 7.36 29.33 15.83 42.01.88 1.35 3.15-.78 2.76-1.99-4.65-14.62-13.6-26.21-12.76-42.31.42-8.01 2.7-15.4 4.59-23.03.15.16.32.35.47.49 2.67 2.8 5.47 5.47 8.4 7.99 2.34 2.01 4.98 4.27 4.63 7.68-.23 2.29-1.33 4.51-1.93 6.7a53.38 53.38 0 0 0-1.37 7.62c-.55 4.42-.74 8.88-1.07 13.31-1.03 14.42 2.82 32.89 13.18 43.67.48.49 1.27.37 1.89-.03 1.45 3.27 3.4 6.3 5.97 8.97.95.97 2.55-.09 2.07-1.36a78.1 78.1 0 0 1-5.08-33.15c9.99 4.48 24.15 3.75 33.67.79 7.45-2.29 14.24-5.2 20.64-9.64 7.26-5.04 13.01-10.28 17.74-17.51 12.16-1.01 22.29-4.77 32.94-11.12.87-.52 1.3-1.78 1.26-2.92a51.8 51.8 0 0 0 7.7-2.94c1.26-.6 1.77-2.86 1.17-4.05 9.13-2.17 17.75-5.77 25.38-11.09 1.41-.98 1.94-4.56-.66-3.71ZM265.59 547a75.98 75.98 0 0 1 1.81-3.75 67.3 67.3 0 0 1 4.33-7.27c.09-.15.17-.3.23-.46 2.58.96 5.2 1.81 7.9 2.56 5.5 1.52 11.21 2.83 17.03 3.87-.48 0-2.17 1.59-2.56 1.87-.92.64-1.84 1.29-2.8 1.89a39.85 39.85 0 0 1-5.73 3.06c-3.79 1.62-7.93 2.8-12.07 2.74-2.1-.03-4.08-.57-6.06-1.12-1.6-.46-2.86-1.62-2.08-3.39Zm-12.08 19.91a75.65 75.65 0 0 0 0 17.41c-3.73-10.16-6.33-20.45-5.64-31.57.57-9.04 2.14-18.23 4.74-26.94 0 .43 5.61 3.36 6.19 3.69 1.51.84 5.43 1.98 6.04 3.76.12.35.09.72 0 1.06a7.31 7.31 0 0 1-1.14 2.22c-6.18 9.21-9.02 19.42-10.19 30.37Zm59.88-11.8a64.53 64.53 0 0 1-17.99 9.18c-9.94 3.34-24.68 4.87-34.92-.05a67.2 67.2 0 0 1 1.98-8.88c5.05 2.41 12.7 2.17 17.26 1.32 8.2-1.53 19.38-6.16 23.97-13.69 7.14.94 15.07 1.48 22.23 1.21-3.52 4-8.15 7.69-12.53 10.9Z" opacity=".15"/></g><path d="M224.74 525.38c-6.09-17.22-14.91-16-14.91-16s3.61-2.08 13.63-.83c0 0-2.82-7.51-12.8-11.98a69.76 69.76 0 0 0-.13 25.15 75.36 75.36 0 0 0 11.4 28.79c2.72-5.56 6.21-15.48 2.8-25.13Zm21.2 48.03a38.59 38.59 0 0 1 9.24-12.87c12.56-11.46 17-14.72 16.92-22.55-.1-10.35-10.02-9.56-12.98-7.85 0 0-2.8-4.26-10.03-2.25-6.09 1.69-8.74 7.05-8.74 7.05s-4.91-.5-10.02 4.97c-2.38 2.55-5.8 7.41-8.18 10.93a74.16 74.16 0 0 0 23.79 22.57Z" opacity=".15"/><path fill="#23ada3" d="M350.36 466.6c-.25-6.11-3.95-14.33-8.73-21.1-7.98-11.28-19.47-18.28-31.06-22.08l-29.81 18.63c31.85-1.07 42.81 15.7 45.76 25.05 2.04 6.46 3.75 11.45 7.52 11.45 3.69 0 4.08-3.23 4.08-3.23 2.61 2.47 6.5 1.01 6.67-2.17 1.43.63 2.89.45 4-.72 1.49-1.56 1.65-3.69 1.57-5.85Z"/><path d="m310.56 423.43-29.81 18.63c4.09-.14 7.83.02 11.26.42 8.03-4.32 16.29-10.18 22.88-17.48a72.75 72.75 0 0 0-4.33-1.58Zm38.23 49.02.06-.07c-1.26.43-2.4-.09-3.05-1.65-1.01-2.43-1.32-3.57-1.87-4.12 0 0 1.16 3.79.86 6.56 1.43.64 2.89.46 4-.72Zm-6.29 3.87c-1.52-.06-2.7-1.16-3.24-2.98-.76-2.57-1.23-3.36-1.77-3.91 0 0 .93 3.14.63 5.92a4.14 4.14 0 0 0 4.38.98Z" opacity=".15"/><path fill="#23ada3" d="M123.96 512.31c3 23.79 11.61 38.24 28.64 51.18 17.03 12.94 40.58 19.97 51.05 23.87 10.46 3.9 18.36 8.95 25.43 2.3 7.06-6.66 5.71-20.18 18.27-31.64 12.56-11.46 17-14.72 16.92-22.55-.1-10.35-10.02-9.56-12.98-7.85 0 0-2.79-4.26-10.03-2.25-6.09 1.69-8.74 7.05-8.74 7.05s-4.91-.5-10.02 4.97c-3.99 4.28-10.95 15.11-10.95 15.11s10.49-15.12 5.35-29.64c-6.09-17.22-14.91-16-14.91-16s3.61-2.08 13.63-.84c0 0-4.63-12.36-23.08-14.8-18.27-2.42-29.64 10.08-29.64 10.08l-38.94 11.02Z"/><path d="M235.56 528.57c-2.08 1.91-3.04 3.84-3.04 3.84 3.95-.07 8.74.28 11.18 7.39 0 0 3.09-8.02-8.14-11.23Zm17.88 7.17s3.62-2.3 1.09-9.07a8.6 8.6 0 0 0-3.24.95c2.24 2.14 2.73 6.1 2.15 8.12Z" opacity=".15"/><path fill="#ffa3a3" d="M242.49 549.67c-8.77 2.65-15.9 8.87-19.51 18.9-3.6 10.03-1.79 16.5 2.23 17.29 4.02.79 5.94.13 9.14-5.34 2.54-6.74 4.83-15.05 12.99-22.5l6.37-5.79c-.52-2.82-4.44-4.61-11.22-2.56Zm-3.26-8.55c-2.74-.95-5.22 5.57-2.05 6.61 2.63.87 5.72-5.34 2.05-6.61Zm11.1-3.39c-2.74-.95-5.22 5.56-2.05 6.61 2.63.87 5.72-5.34 2.05-6.61Zm8.63-.68c-2.74-.95-5.22 5.57-2.05 6.61 2.63.87 5.72-5.34 2.05-6.61Z"/><path d="M221.05 589.66c-16.33-3.52-14.15-12.31-21.44-17.58-7.3-5.27-23.59-3.26-49.7-24.61-26.1-21.35-27.31-67.7-10.63-87.9-10.52 12.95-17.35 29.63-15.31 52.74a61.41 61.41 0 0 0 1.94 10.89c4.1 17.55 12.44 29.46 26.7 40.3 17.03 12.94 40.58 19.97 51.05 23.87 10.46 3.9 18.36 8.95 25.43 2.3.57-.54 1.07-1.13 1.54-1.75a12.18 12.18 0 0 1-9.57 1.75Z" opacity=".05"/><path d="M282.64 475.28c-8.53-11.7-15.22-17.17-25.56-22.96v-6.69c-1.56.54-3.1 1.11-4.6 1.73-14.76 6.09-26.73 16.24-34.27 29.12 31.45-2.38 45.61 13.67 49.12 22.91 2.46 6.48 4.51 11.47 8.37 11.25 3.77-.22 3.97-3.54 3.97-3.54 2.81 2.37 6.7.64 6.68-2.61 1.5.56 2.98.29 4.05-.97 1.42-1.68 1.47-3.87 1.25-6.06-.62-6.23-4.02-15.32-9.01-22.17Z" opacity=".15"/><path fill="#23ada3" d="M292.95 492.83c-.61-6.23-4.02-15.31-9.01-22.16-8.53-11.7-15.22-17.18-25.56-22.96v-8.14s-37.28 7.62-37.97 32.34c32.46-2.99 44.65 13.49 48.22 22.86 2.46 6.48 4.51 11.47 8.37 11.25 3.77-.22 3.97-3.54 3.97-3.54 2.81 2.37 6.7.64 6.68-2.61 1.5.56 2.98.29 4.05-.97 1.42-1.68 1.47-3.87 1.25-6.07Z"/><path d="m291.7 498.89.05-.07c-1.26.51-2.46.05-3.21-1.51-1.18-2.42-1.56-3.57-2.15-4.1 0 0 1.41 3.8 1.27 6.65 1.5.56 2.98.29 4.05-.97Zm-6.19 4.33c-1.56.03-2.82-1.02-3.49-2.86-.93-2.58-1.45-3.36-2.04-3.89 0 0 1.14 3.15 1 6.01a4.23 4.23 0 0 0 4.53.74Zm-55.41-50.25c12.18 2.82 25.09 1.89 35.92-.54a92.84 92.84 0 0 0-7.63-4.72v-8.14s-17.04 3.49-28.29 13.4Z" opacity=".15"/><use xlink:href="#b"/><use xlink:href="#b" opacity=".15"/><path fill="#ffa8a7" d="M278.19 363.91c12.74 3.89 26.93 2.81 26.93 2.81s3.13-28.74-4.67-31.2c-5.05-.75-17.28 6.95-22.26 28.38Z"/><path fill="#f28f8f" d="M294.54 353.33c-1.18-3.2 1.1-7.32 1.1-7.32-4.66 0-10.75 4.79-11.3 12.51 0 0 9.5 11.45 19.24 5.38a12.72 12.72 0 0 1 2.04-4.56c.08-1.98.13-4.21.09-6.5-5.05-1.13-11.17.48-11.17.48Z"/><path fill="#1ea1a6" d="M234.15 369.42c-10.36-6.94-32.57-8.41-40.65 3.63-4.56 6.79 15.88 27.31 15.88 27.31s20.93-14.32 24.77-30.94Z"/><path d="M234.15 369.42c-10.36-6.94-32.57-8.41-40.65 3.63-4.56 6.79 15.88 27.31 15.88 27.31s20.93-14.32 24.77-30.94Z" opacity=".15"/><path fill="#ffa8a7" d="M228.61 381.32c-7.52 11-19.23 19.04-19.23 19.04s-20.44-20.52-15.88-27.31c3.48-3.74 17.84-5.37 35.11 8.27Z"/><path fill="#f28f8f" d="M204.36 377.87s4.36 1.79 5.43 5.03c0 0-6.32 2.8-9.45 7.15 1.17 1.51 2.36 2.95 3.48 4.25 1.63.27 3.53.98 5.55 2.54 11.4-1.35 11.01-15.44 11.01-15.44-4.07-5.77-12.38-6.44-16.03-3.53Z"/><path fill="#23ada3" d="M277.8 443.17c-13.25 4.67-33 7.8-50.49 2.36-20.84-6.49-21.99-35.11-16.93-48.29 5.06-13.18 15.49-26.62 39.33-35.02 23.84-8.4 40.39-4.46 52.59 2.64 12.2 7.1 29.25 30.12 17.08 48.24-10.22 15.2-28.34 25.41-41.59 30.07Z"/><path fill="#f0f0f0" d="M277.69 440.18c26.42-9.31 25.04-24.81 18.36-30.99s-17.73-7.57-30.37-3.11c-12.64 4.45-20.38 12.46-21.72 21.46-1.33 9 7.31 21.94 33.73 12.64Z"/><path fill="#f28f8f" d="M270.47 429.12s1.07 4.47 4.4 3.36c3.44-1.14 1.39-5.34 1.39-5.34l-4.09-2.99-1.7 4.98Z"/><path fill="#455a64" d="m270.31 419.26-6.21-.69a.85.85 0 0 1 .19-1.69l5.41.6 3.93-3.82a.85.85 0 1 1 1.19 1.23l-4.5 4.39Z"/><path fill="#455a64" d="M265.81 432.09a7 7 0 0 1-6.62-4.69.86.86 0 0 1 .52-1.09.87.87 0 0 1 1.09.52 5.32 5.32 0 1 0 10.04-3.54l-1.64-4.65a.86.86 0 0 1 .52-1.09.86.86 0 0 1 1.09.52l1.64 4.65a7 7 0 0 1-6.63 9.36Z"/><path fill="#455a64" d="M277.46 427.99a7 7 0 0 1-6.62-4.69l-1.64-4.65a.85.85 0 0 1 1.61-.57l1.64 4.65a5.32 5.32 0 1 0 10.04-3.54.85.85 0 0 1 1.61-.57 7.03 7.03 0 0 1-6.63 9.36Zm18.46-35.72a6.17 6.17 0 1 1-11.64 4.1 6.17 6.17 0 0 1 11.64-4.1Zm-62.47 22a6.16 6.16 0 1 0 11.62-4.1 6.16 6.16 0 0 0-11.62 4.1Zm-17.95 1.05c-.33 0-.67-.13-.92-.38-4.7-4.8-12.64-9.72-23.72-5.86a1.28 1.28 0 1 1-.84-2.42c12.35-4.29 21.17 1.16 26.39 6.49a1.27 1.27 0 0 1-.92 2.17Zm-2.85 3.2c-.23 0-.46-.06-.67-.19-4.25-2.62-11.98-2.63-16.05-.88a1.28 1.28 0 1 1-1.01-2.35c4.66-2 13.36-2.06 18.41 1.05a1.28 1.28 0 0 1-.67 2.38Zm-19.85 10.79c-.36 0-.73-.15-.98-.46a1.28 1.28 0 0 1 .15-1.81c7.61-6.42 17.47-7.6 23.39-5.99a1.28 1.28 0 0 1-.67 2.47c-5.31-1.44-14.16-.34-21.07 5.48-.24.2-.53.3-.83.3Zm116.06-46.87h-.13c-.7-.07-1.22-.7-1.15-1.4.73-7.43 4.19-17.2 16.5-21.6a1.28 1.28 0 0 1 .86 2.42c-11.05 3.94-14.15 12.75-14.81 19.44a1.28 1.28 0 0 1-1.27 1.15Zm4.21.7a1.27 1.27 0 0 1-1.21-1.7c1.98-5.59 8.8-11 13.68-12.36a1.29 1.29 0 0 1 .69 2.47c-4.27 1.19-10.29 6.03-11.96 10.74-.18.52-.68.85-1.21.85Zm1.31 5.43a1.28 1.28 0 0 1-1.03-2.04c3.61-4.97 12.01-10.19 21.98-9.99a1.28 1.28 0 0 1-.03 2.56h-.03c-9.06-.2-16.62 4.48-19.85 8.93a1.3 1.3 0 0 1-1.04.53Z"/><path fill="#23ada3" d="M286.65 358.71c1.1-5.04 5.86-9.88 10.52-9.88 0 0-2.29 4.12-1.1 7.32 0 0 11.89-3.13 16.19 2.39 0 0-5.39.99-7.15 8.19-9.75 6.07-18.46-8.01-18.46-8.01Zm-67.9 23.83c-4-3.25-10.74-4.06-14.39-1.15 0 0 4.36 1.79 5.43 5.03 0 0-11.24 4.98-11.15 11.98 0 0 4.88-2.57 10.74 1.96 11.4-1.35 9.37-17.82 9.37-17.82Zm41.78-23.42c-1.62.37-1.74-2.64-1-6.39.67-3.38 3.41-10.14-1.34-10.06-4.75.08-9.9 4.39-11.91 12.55 0 0-2.2-2.76-2.95-5.85-.75-3.08-4.61-3.36-6.3 2.79-1.29 4.67.96 9.34 2.19 11.29.68 1.09.4 2.88-1.9 4.17 0 0 9.93 3.4 16.61 0s6.6-8.51 6.6-8.51Z"/><path fill="#455a64" d="M248.76 385.21a3 3 0 0 0 2.7-3.27c-.57-5.99-3.12-11.83-7.58-17.43a79.48 79.48 0 0 0-5.62 2.64c4.29 5.03 6.74 10.18 7.23 15.36a3 3 0 0 0 2.98 2.72l.29-.01Zm18.13-10.18a3 3 0 1 0 5.88-1.16c-1.08-5.48-3.87-10.66-8.26-15.49-2.25.37-4.57.84-6.98 1.46 5.15 4.75 8.31 9.84 9.35 15.18Zm-19.05-12.1c3.15 3.49 8.18 10.16 9.39 18.27a3 3 0 0 0 2.96 2.56c.15 0 .3 0 .45-.03a2.99 2.99 0 0 0 2.52-3.41c-1.23-8.28-5.63-15.11-9.2-19.48-1.39.42-2.8.88-4.25 1.39-.65.23-1.24.47-1.87.71ZM139.4 556.75h-.22a2.26 2.26 0 0 1-2.03-2.45c.91-9.47 10.22-25.94 32.16-32.51 21.28-6.38 43.55.82 52.8 11.45a2.25 2.25 0 0 1-3.39 2.95c-6.82-7.84-26.83-16.47-48.11-10.09-19.81 5.94-28.18 20.38-28.97 28.63a2.24 2.24 0 0 1-2.23 2.03Z"/><path fill="#455a64" d="M161.43 573.95a2.25 2.25 0 0 1-2.25-2.23c-.04-4.61 3.4-20.32 14.85-30.18 17.73-15.27 38.3-9.42 44.72-5.88a2.24 2.24 0 0 1-2.17 3.94c-5.67-3.12-23.83-8.25-39.62 5.35-10.12 8.71-13.32 22.84-13.29 26.73a2.25 2.25 0 0 1-2.23 2.27h-.02Zm-28.82-227.28c-6.64 15.66-.56 48.95 13.08 69.46 14.72 22.14 44.58 50.04 78.08 62.42a2.25 2.25 0 0 1-1.56 4.22c-34.45-12.74-65.13-41.4-80.26-64.15-15.31-23.03-21.27-60.05-12.27-76.18a23.14 23.14 0 0 1 2.24-3.32c.47 2.5.72 5.02.7 7.55Z"/><path fill="#37474f" d="m481.62 100.68 13.78-7.96v397.81l-13.78 7.96V100.68Z"/><path fill="#455a64" d="m460.95 486.56 20.67 11.93V100.68l-5.01-2.89-1.68 17.29-1.71-19.24-12.28-7.09v397.81Z"/><path d="M481.62 370.32v-49.04c-.8-19.06-1.73-44.04-1.58-54.94l-4.77-2.75c0 16.63-1.87 47.28-2.89 67.96-1.44 29.29 3.8 67.15 4.03 82.42.23 15.27 0 81.51 0 81.52l2.35 1.36s-.71-83.3 1.27-105.43c.68-7.61 1.19-14.78 1.58-21.1Zm-4.71 10.38c-3.15-1.38-2.4-75.43.88-74.25 2.56.92 2.27 75.63-.88 74.25Z" opacity=".1"/><path fill="#263238" d="m476.61 97.79-3.39-1.96 1.71 19.24 1.68-17.29Z"/><path fill="#fff" d="M467.63 92.6c-.29 21.31 3.89 35.59 3.81 65.2 0 0-.47-20.94-3.29-36.47-3.14-17.31-3.14-30.24-3.14-30.24l2.61 1.51Zm13.99 8.08c0 7.01-.3 23.02-1.18 32.88-.76 8.55-.9 26.92-.32 41.15 0 0-2.46-23.25-1.64-37.02.82-13.78.81-38.34.81-38.34l2.32 1.34Z" opacity=".05"/><path d="M460.95 167.8v25.51c2.18-13.44 5.62-27.64 6.22-33.67.9-9.05-.6-25.66-2.15-35.04-1.55-9.38-4.07-25.21-3.67-35.63l-.4-.23v25.37l.2 1.63c1.7 12.56 2.61 31.14 1.97 39.41a90.38 90.38 0 0 1-2.18 12.65Z" opacity=".1"/><path fill="#fff" d="M469.04 349.55c-.41 9.35 3.59 44.24 4.36 55.24 1.51 21.48.83 89.43.83 89.43l-2.78-1.61s.33-76.83 0-85.76c-.46-12.37-3.65-46.52-2.4-57.31Z" opacity=".05"/><path d="M471.45 262.08c0 17.01-.54 49.26-2.69 62.86-2.15 13.6-3.88 35.73-1.32 60.79 2.57 25.06.8 45.42.8 45.42s-.83-26.23-3.21-47.69c-2.39-21.46-1.87-43.42 0-64.17s2.41-60.22 2.41-60.22l4.01 3.01Z" opacity=".1"/><path fill="#fff" d="M464.22 257.91s-.31 27-.8 35.98c-.49 8.98-1.79 26.49-1.79 26.49s-.43-28.76 0-37.99-.19-26.58-.19-26.58l2.78 2.1Zm0 149.06c1.54 14.45 1.75 31.36 2.16 37.74.42 6.38 1.04 45.59 1.04 45.59l-3.21-1.85s-.27-40.61-.37-49.74c-.13-11.7.93-23.99.37-31.74Z" opacity=".05"/><path d="M471.38 98.77c.7 11.21 3.32 22.05 4.07 29.92.76 7.86 1.35 32.21 1.35 32.21l-2.7-1.56s.56-22.25-.79-33.1c-1.35-10.85-2.26-20.34-1.93-27.46Z" opacity=".1"/><path fill="#263238" d="m495.4 92.72-20.67-11.94-13.78 7.96 20.67 11.93 13.78-7.96Z"/><path d="m495.4 319.48-13.78 7.96v19.33l13.78-7.96v-19.33Zm-13.78 7.95-20.67-11.93v19.33l20.67 11.94v-19.33Z" opacity=".15"/><path fill="#263238" d="m347.82 190.97 254.92 147.12 14.78-8.5-254.89-147.18-14.81 8.56Z"/><path fill="#455a64" d="m335.83 180.98 256.52 148.05v-59.28l-22.7-13.11-2.48 17.29-1.49-19.58L335.83 121.7v38.34l7.38 7.34-7.38-2.15v15.74Z"/><path fill="#fff" d="M592.35 319.17c-13.35-7.72-69.48-39.4-75.95-42.49-18.8-8.99-35.01-16.07-60.16-30.39 0 0 11.66 8.33 36.82 21.3 11.8 6.09 22.63 11.29 28.3 14.11 5.67 2.82 70.99 40.42 70.99 40.42v-2.95Z" opacity=".05"/><path d="m335.89 134.43 21.89 12.66c19.62 11.35 32.79 19.51 41.31 27.33 8.52 7.82 25 17.72 32.42 21.74 0 0-8.7-3.15-25-13.25s-19.27-15.35-42.43-28.74l-28.19-16.3v-3.43Zm256.46 177.7c-14.02-8.11-60.89-35.13-68.32-39.42-7.43-4.29-24.92-7.67-34.51-13.21 0 0 7.12 5.18 16.86 8.93 9.75 3.75 76.84 41.61 85.96 46.89v-3.18Z" opacity=".1"/><path fill="#fff" d="m343.21 167.39 65.33 37.79c14.83 8.57 39.45 25.78 60.21 37.02 20.76 11.24 36.04 17.7 36.04 17.7s-19.85-5.66-36.27-15.16-46.3-28.19-64.31-38.61l-68.37-39.54v-1.34l7.37 2.14Zm249.14 123.54c-13.77-7.96-59.34-34.23-70.23-40.54-10.9-6.3-27.48-17.93-45.96-28.62a325.33 325.33 0 0 0-45.26-21.83c-11.61-4.55-24.41-11.8-24.41-11.8s12.19 8.55 30.5 16.87c18.31 8.32 40.25 19.79 59.72 33.63s95.64 56.17 95.64 56.17v-3.89ZM335.9 126.45s82.47 46.73 103.08 58.65a2534.38 2534.38 0 0 1 47.62 28.52s-43.6-23.19-87.2-48.41l-63.51-36.74v-2.03Z" opacity=".05"/><path d="M592.35 279.8s-95.26-55-122.11-70.53c-26.85-15.53-56.77-29.88-56.77-29.88s22.31 14.75 55.29 33.88c9.77 5.67 123.59 71.38 123.59 71.38v-4.85M335.83 171.67l73.82 42.7a3163.76 3163.76 0 0 1 63.75 38.62s-38.65-20.31-90.06-50.04l-47.52-27.48v-3.78Zm.02-13.44 62.18 35.96c14.47 8.37 48.23 31.11 63.04 39.68 14.81 8.57 112.68 61.84 131.28 72.6v-4.18c-11.54-6.68-105.26-67.52-127.65-80.47-22.39-12.95-45.31-19.45-59.26-27.53l-69.59-40.25v4.18Zm96.77 52.93c0-2.08 19.1 6.64 32.22 14.23 11.57 6.69 34.56 22.17 34.56 24.1 0 1.93-22.47-10.13-34.57-17.13-12.1-7-32.22-19.12-32.21-21.2Z" opacity=".1"/><path fill="#fff" d="M335.89 142.3c9.05 5.22 37.21 21.15 45.05 27.17 7.84 6.02 15.96 15.71 31.11 24.46 0 0-15.62-6.52-24.61-15.04-8.98-8.52-51.62-32.37-51.62-32.37l.07-4.22Z" opacity=".05"/><path fill="#fff" d="m362.74 137.24 203.13 119.6 1.37 5.55 2.09-3.5 20.46 12.78 2.56 57.36v-59.28l-22.7-13.11-1.98-1.18-1.98-1.1-202.94-117.12Z" opacity=".2"/><path fill="#37474f" d="m607.13 320.48-14.78 8.55v-59.28l14.78-8.71v59.45Z"/><path fill="#263238" d="m569.65 256.65-2.48 17.29-1.49-19.58 1.98 1.11 1.98 1.18Z"/><path fill="#37474f" d="m565.68 254.36 1.98 1.11-.49 18.47-1.49-19.58Zm-229.84-94.32 2.2 4.09-2.2 1.12 7.37 2.14-7.37-7.34Z"/><path fill="#263238" d="m335.84 160.04 2.2 4.09 5.17 3.26-7.37-7.34Zm262.78 160.35-6.27.21-11.47-4.87 11.47 11.07 6.27-6.41Z"/><path fill="#37474f" d="m598.62 320.39-6.27 3.16-11.47-7.82 11.47 4.87 6.27-.21Z"/><path fill="#263238" d="m335.83 121.71 256.52 148.05 14.78-8.71-256.36-147.97-14.94 8.62Z"/><path fill="#455a64" d="m342.7 122.52 254.92 147.12v-59.28L368.01 77.85l-2.48 17.29-1.49-19.58-21.34-12.32v59.28Z"/><path fill="#fff" d="M597.62 259.78c-13.35-7.72-69.48-39.4-75.95-42.49-18.8-8.99-35.01-16.07-60.16-30.39 0 0 11.66 8.33 36.82 21.3 11.8 6.08 22.63 11.29 28.3 14.11 5.67 2.82 70.99 40.42 70.99 40.42v-2.95Z" opacity=".05"/><path d="m342.76 75.96 20.29 11.73c19.61 11.35 32.79 19.51 41.31 27.33 8.52 7.82 25.01 17.72 32.42 21.74 0 0-8.7-3.15-25-13.25s-19.27-15.35-42.43-28.74l-26.58-15.38v-3.43Zm254.86 176.78c-14.03-8.11-60.89-35.13-68.32-39.42-7.42-4.3-24.92-7.67-34.51-13.22 0 0 7.11 5.18 16.86 8.93s76.84 41.61 85.96 46.89v-3.18Z" opacity=".1"/><path fill="#fff" d="m342.72 104.66 71.1 41.13c14.83 8.57 39.45 25.78 60.21 37.02 20.76 11.24 36.04 17.7 36.04 17.7s-19.85-5.66-36.27-15.16-46.3-28.19-64.31-38.61l-66.77-38.62v-3.46Zm254.9 126.88c-13.77-7.97-59.33-34.23-70.23-40.54-10.9-6.31-27.48-17.93-45.96-28.62a325.33 325.33 0 0 0-45.26-21.83c-11.61-4.55-24.41-11.8-24.41-11.8s12.19 8.55 30.5 16.87c18.31 8.32 40.25 19.79 59.72 33.63 19.48 13.84 95.64 56.17 95.64 56.17v-3.89ZM342.77 67.99c79.66 45.12 79.3 44.9 101.48 57.73a2534.38 2534.38 0 0 1 47.62 28.52s-43.6-23.19-87.2-48.41l-61.91-35.81v-2.03Z" opacity=".05"/><path d="M597.62 220.41s-95.26-55-122.11-70.53C448.66 134.35 418.74 120 418.74 120s22.31 14.75 55.29 33.88c9.77 5.67 123.59 71.38 123.59 71.38v-4.85M342.71 113.2l72.21 41.77a3163.76 3163.76 0 0 1 63.75 38.62s-38.65-20.31-90.06-50.04l-45.92-26.56v-3.78Zm.02-13.43 60.58 35.04c14.47 8.37 48.23 31.11 63.04 39.68 14.81 8.57 112.68 61.84 131.28 72.6v-4.18c-11.54-6.68-105.26-67.52-127.65-80.47-22.39-12.95-45.31-19.45-59.26-27.53l-67.98-39.33v4.18Zm95.17 52.01c0-2.08 19.1 6.64 32.22 14.23 11.57 6.69 34.56 22.17 34.56 24.1 0 1.93-22.46-10.13-34.57-17.13-12.1-7-32.22-19.12-32.21-21.2Z" opacity=".1"/><path fill="#fff" d="M342.77 83.83c9.05 5.22 35.61 20.23 43.45 26.25 7.83 6.02 15.96 15.71 31.11 24.46 0 0-15.63-6.52-24.61-15.04-8.98-8.52-50.02-31.44-50.02-31.44l.08-4.22Z" opacity=".05"/><path fill="#263238" d="m368.01 77.85-1.98-1.14-1.98-1.15 1.49 19.58 2.48-17.29Z"/><path fill="#fff" d="m368.01 77.85 227.05 134.43 2.56 57.36v-59.28L368.01 77.85Z" opacity=".2"/><path fill="#37474f" d="m597.62 229.08-13.92-4.13 13.92 11.37v-7.23Zm14.79 31.96-14.78 8.6v-59.28l14.78-8.77v59.45Z"/><path fill="#263238" d="m597.62 210.36 14.78-8.77L357.72 54.6l-15.01 8.63 254.92 147.13Z"/><path fill="#37474f" d="m597.62 229.08 3.95 1.4-3.95 5.83v-7.23Z"/><path fill="#263238" d="m601.57 230.48-3.95 2.28-13.92-7.81 13.92 11.37 3.95-5.83Z"/><path fill="#37474f" d="m364.05 75.56 1.98 1.15-.5 18.43-1.49-19.58Z"/><path fill="#455a64" d="m347.82 190.97 254.92 147.12v59.28L373.13 264.86l-2.48-20.15-1.49 17.86-21.34-12.32v-59.28Z"/><path fill="#fff" d="M602.74 347.96c-13.35-7.69-69.48-40.72-75.95-45.1-18.8-12.72-35.01-24.35-60.16-39.07 0 0 11.66 5.14 36.82 21.21 11.8 7.54 49.09 30.07 54.76 33.79 5.67 3.72 44.53 26.22 44.53 26.22v2.95Z" opacity=".05"/><path d="m347.88 237.6 20.29 11.69c19.61 11.3 32.79 18.35 41.31 20.37 8.52 2.02 25.01 11.15 32.42 15.69 0 0-8.7-6.89-25-15.62s-19.27-6.9-42.43-20.25l-26.58-15.32v3.44Zm254.86 117.39-41.85-24.13c-7.43-4.28-51.38-36.33-60.97-41.86 0 0 7.11 3.04 16.86 10.54 9.75 7.51 76.84 47.01 85.96 52.27v3.18Z" opacity=".1"/><path fill="#fff" d="m347.83 208.85 71.1 40.97c14.83 8.54 39.45 19.77 60.21 32.5a587.01 587.01 0 0 1 36.04 23.92s-19.85-17.26-36.27-26.72c-16.42-9.46-46.3-25.27-64.32-35.65l-66.77-38.47v3.47ZM602.74 376.2l-43.77-25.23c-10.9-6.28-53.94-29.03-72.43-39.68a417.63 417.63 0 0 1-45.26-30.44 281.19 281.19 0 0 0-24.41-16.39s12.19 5.53 30.5 18.35c18.31 12.82 40.25 26.68 59.72 35.33 19.47 8.65 95.64 54.16 95.64 54.16v3.89ZM347.89 245.58s80.87 47.57 101.48 59.45a2385.13 2385.13 0 0 0 47.62 26.47s-43.6-27.15-87.2-52.27l-61.91-35.67v2.03Z" opacity=".05"/><path d="m602.74 387.33-122.11-70.36c-26.85-15.47-56.77-35.67-56.77-35.67s22.31 11.01 55.29 29.96c9.77 5.61 123.59 71.22 123.59 71.22v4.85ZM347.82 200.29l72.21 41.61a2914.19 2914.19 0 0 0 63.75 35s-38.65-24.33-90.06-53.95l-45.92-26.46v3.79Zm.03 17.65 67.98 39.18c13.95 8.04 36.87 28 59.26 40.9 22.39 12.9 116.1 60.17 127.65 66.82v-4.18c-18.6-10.72-116.47-70.35-131.28-78.89-14.81-8.54-48.57-24.77-63.04-33.11l-60.58-34.91v4.19Zm127.38 69.69c12.1 6.97 34.57 20.85 34.57 22.79 0 1.93-22.99-9.14-34.56-15.8-13.13-7.56-32.22-20.89-32.23-22.98 0-2.08 20.11 9.02 32.21 15.99Z" opacity=".1"/><path fill="#fff" d="M347.88 229.73c9.05 5.22 35.61 20.89 43.45 23.91 7.84 3.02 15.96 2.72 31.11 11.46 0 0-15.63-11.52-24.61-13.38-8.98-1.85-50.02-26.31-50.02-26.31l.08 4.31Z" opacity=".05"/><path fill="#263238" d="m373.13 264.86-2.67-6.14-1.3 3.85 1.49-17.86 2.48 20.15Z"/><path fill="#fff" d="m373.13 205.59 227.05 134.43 2.56 57.36V338.1L373.13 205.59Z" opacity=".2"/><path fill="#37474f" d="m602.74 378.66-13.92-11.94 13.92 4.71v7.23Zm14.78-49.06-14.78 8.5v59.28l14.78-8.52V329.6Z"/><path fill="#37474f" d="m602.74 378.66 10.84-10.76-10.84 3.53v7.23Z"/><path fill="#263238" d="m613.58 367.9-10.84 7.08-13.92-8.26 13.92 4.71 10.84-3.53Z"/><path fill="#37474f" d="m369.16 262.57 1.3-3.85.19-14.01-1.49 17.86Z"/><path fill="#263238" d="M467.84 163.47a37.68 37.68 0 0 1 10.24 8.6 50.72 50.72 0 0 1 7.1 11.3 59.64 59.64 0 0 1 4.21 12.99 83.83 83.83 0 0 1 1.63 13.58 394.44 394.44 0 0 1 0 21.74c-.16 4.31-.7 8.21-1.63 11.7-.93 3.5-2.33 6.21-4.21 8.14a10.23 10.23 0 0 1-7.1 3.11c-2.86.14-6.27-.93-10.24-3.22a37.64 37.64 0 0 1-10.23-8.6 50.92 50.92 0 0 1-7.1-11.31 59.64 59.64 0 0 1-4.21-12.99 81.63 81.63 0 0 1-1.62-13.58c-.11-3.4-.16-7.01-.16-10.84s.05-7.46.16-10.9c.16-4.31.7-8.21 1.62-11.7.93-3.5 2.33-6.21 4.21-8.14a10.27 10.27 0 0 1 7.1-3.11c2.86-.14 6.27.93 10.23 3.22Zm8.49 59.13c.21-6.8.21-13.64 0-20.52a56.4 56.4 0 0 0-.6-5.96 24.6 24.6 0 0 0-1.39-5.26 17.08 17.08 0 0 0-2.54-4.46 13.81 13.81 0 0 0-3.97-3.39c-1.59-.92-2.91-1.31-3.96-1.19-1.06.12-1.91.38-2.55 1.27-.63.9-1.14 2.3-1.46 3.83a31.61 31.61 0 0 0-.52 5.36c-.27 6.61-.27 13.45 0 20.52.05 2.07.22 4.04.52 5.91a23.3 23.3 0 0 0 1.43 5.28 18.04 18.04 0 0 0 2.58 4.48 13.75 13.75 0 0 0 3.96 3.39c1.59.92 2.91 1.31 3.97 1.19a3.62 3.62 0 0 0 2.58-1.5 8.7 8.7 0 0 0 1.43-3.63c.29-1.54.46-3.32.52-5.32Z"/><path fill="#37474f" d="M485.18 251.52a10.29 10.29 0 0 1-7.11 3.12c-2.85.14-6.26-.93-10.23-3.22a37.49 37.49 0 0 1-10.23-8.6 50.96 50.96 0 0 1-3.72-5.09l4.85-2.8a54.41 54.41 0 0 0 3.15 4.22 37.49 37.49 0 0 0 10.23 8.6c3.97 2.29 7.38 3.36 10.25 3.22 1.36-.07 2.83-.36 3.96-.84-.34.47-.73.93-1.16 1.38Zm-7.96-67.14-4.85 2.85c-.19-.27-.36-.56-.56-.83a13.92 13.92 0 0 0-3.97-3.39c-1.6-.92-2.92-1.31-3.97-1.19-1.05.12-1.9.37-2.54 1.27-.44.64-.41.6 0 0 .27-.37.56-.66.88-.9.48-.36 3.92-3.12 4.21-3.34a3.26 3.26 0 0 1 1.75-.69c1.07-.12 2.39.27 3.97 1.19a13.68 13.68 0 0 1 5.09 5.04Z"/><path fill="#23aca3" d="M489.38 196.11a59.3 59.3 0 0 0-4.21-12.99 50.5 50.5 0 0 0-7.1-11.3 37.68 37.68 0 0 0-10.24-8.6c-3.97-2.29-7.38-3.36-10.23-3.22-1.36.07-2.6.35-3.74.82a19.34 19.34 0 0 0-3.27 7.01 52.69 52.69 0 0 0-1.62 11.7c-.11 3.44-.16 7.07-.16 10.9s.05 7.44.16 10.84c.16 4.49.7 9.01 1.62 13.58a59.3 59.3 0 0 0 4.21 12.99 50.27 50.27 0 0 0 7.1 11.3 37.79 37.79 0 0 0 10.23 8.6c3.97 2.29 7.38 3.36 10.24 3.22 1.36-.07 2.83-.36 3.97-.83 1.35-1.71 2.36-4.22 3.13-7.1.93-3.5 1.38-7.31 1.54-11.62a349.52 349.52 0 0 0 0-21.74 82.6 82.6 0 0 0-1.63-13.58Zm-8.75 22.83c-.05 2-.23 3.78-.52 5.32a8.7 8.7 0 0 1-1.43 3.63c-.27.36-.58.66-.92.9-.07.05-3.97 3.18-4.31 3.42-.48.33-1.03.53-1.64.6-1.06.12-2.38-.27-3.97-1.19a13.81 13.81 0 0 1-3.97-3.39 18.04 18.04 0 0 1-2.58-4.48 23.98 23.98 0 0 1-1.43-5.28 46.1 46.1 0 0 1-.51-5.91c-.27-7.08-.27-13.92 0-20.52.05-2.01.24-3.77.55-5.3a9.55 9.55 0 0 1 1.43-3.63c.26-.36.55-.66.88-.9.48-.35 3.91-3.11 4.2-3.34.5-.39 1.08-.62 1.76-.7 1.06-.12 2.38.27 3.96 1.19 1.59.92 2.91 2.05 3.97 3.39a17.36 17.36 0 0 1 2.54 4.46 25.2 25.2 0 0 1 1.39 5.26c.29 1.88.49 3.87.6 5.96.21 6.88.21 13.72 0 20.52Z"/><path fill="#263238" d="M416.51 220.56a4.09 4.09 0 0 1-1.51-1.85 6.3 6.3 0 0 1-.63-2.69v-12.46l-24.99-14.43a4.02 4.02 0 0 1-1.51-1.85 6.17 6.17 0 0 1-.64-2.69v-12.95c0-2.12.34-3.67 1.03-4.65l23.72-32.35c.48-.62.91-.96 1.31-1.01.4-.06.94.11 1.63.51l11.98 6.91c.58.34 1.08.95 1.51 1.85.42.9.63 1.79.63 2.69v46.9l6.82 3.94c.58.34 1.09.95 1.51 1.85.42.9.64 1.79.64 2.69v12.95c0 .9-.21 1.55-.64 1.95-.42.41-.92.44-1.51.11l-6.82-3.94v12.46c0 .9-.21 1.55-.63 1.96-.42.41-.93.44-1.51.11l-10.39-6Zm-1.75-36.31v-22.48l-11.58 15.79 11.58 6.69Z"/><path fill="#37474f" d="M437.38 215.87c.42-.41.64-1.06.64-1.95v-2.85l-4.67-2.7-4.3 3.67 6.82 3.94c.58.33 1.09.3 1.51-.11Zm-8.33 5.78v2.85c0 .9-.22 1.54-.64 1.95-.42.41-.92.44-1.51.1l-10.38-5.99a4.02 4.02 0 0 1-1.59-2.07l4.29-3.66.08.22c.42.88.93 1.51 1.51 1.85l8.24 4.75Zm-10.38-21.75-4.29 3.66-25-14.43a3.94 3.94 0 0 1-1.49-1.85c-.07-.14-.1-.25-.15-.39l4.44-3.27c.42.9.92 1.51 1.51 1.85l24.99 14.44Z"/><path fill="#23aca3" d="m435.87 196.17-6.82-3.94v-46.9c0-.89-.21-1.79-.63-2.69a4.09 4.09 0 0 0-1.51-1.85l-11.98-6.92c-.21-.12-.39-.18-.57-.26l-21.79 29.71c-.69.99-1.03 2.54-1.03 4.66v12.95c0 .9.21 1.79.64 2.69.42.9.92 1.51 1.51 1.85l24.99 14.43v12.46c0 .9.21 1.79.63 2.69.42.9.92 1.51 1.51 1.85l8.24 4.76v-9.61l4.3-3.66 4.67 2.7v-10.36c0-.9-.21-1.79-.64-2.69a3.96 3.96 0 0 0-1.51-1.85Zm-16.8-15.59-4.3 3.41-11.58-6.69 11.58-15.79 4.3-3.41v22.48Z"/><path fill="#263238" d="M526.87 284.27a4.02 4.02 0 0 1-1.51-1.85 6.15 6.15 0 0 1-.63-2.69v-12.46l-24.99-14.43a4.02 4.02 0 0 1-1.51-1.85 6.17 6.17 0 0 1-.64-2.69v-12.95c0-2.12.34-3.67 1.03-4.65l23.72-32.35c.48-.62.91-.96 1.31-1.01.4-.06.94.11 1.63.51l11.98 6.92c.58.34 1.08.95 1.51 1.85.42.9.63 1.79.63 2.69v46.9l6.82 3.94c.58.34 1.08.95 1.51 1.85.42.9.64 1.79.64 2.69v12.95c0 .9-.21 1.55-.64 1.95-.42.41-.92.44-1.51.11l-6.82-3.94v12.46c0 .9-.21 1.55-.63 1.95-.42.41-.93.45-1.51.11l-10.39-6Zm-1.75-36.31v-22.48l-11.58 15.79 11.58 6.69Z"/><path fill="#37474f" d="M547.73 279.58c.42-.41.64-1.06.64-1.95v-2.85l-4.67-2.7-4.3 3.67 6.82 3.94c.58.33 1.08.3 1.51-.11Zm-8.33 5.78v2.85c0 .9-.22 1.54-.64 1.95-.42.41-.92.44-1.51.1l-10.38-5.99a4.09 4.09 0 0 1-1.51-1.85c-.04-.08-.05-.15-.09-.22l4.29-3.66a4.13 4.13 0 0 0 1.6 2.07l8.24 4.75Zm-10.38-21.74-4.29 3.66-25-14.43a3.88 3.88 0 0 1-1.49-1.85c-.07-.14-.1-.25-.15-.39l4.45-3.27c.42.9.92 1.51 1.51 1.85l24.99 14.44Z"/><path fill="#23aca3" d="m546.22 259.89-6.82-3.94v-46.9c0-.89-.21-1.79-.63-2.69a4.02 4.02 0 0 0-1.51-1.85l-11.98-6.92a3.95 3.95 0 0 0-.57-.26l-21.79 29.72c-.69.99-1.03 2.54-1.03 4.65v12.95c0 .9.21 1.79.63 2.69.42.9.92 1.51 1.51 1.85l24.99 14.43v12.46c0 .89.21 1.79.63 2.69.42.9.93 1.51 1.51 1.85l8.24 4.76v-9.61l4.3-3.67 4.67 2.7v-10.36c0-.9-.21-1.79-.64-2.69a3.96 3.96 0 0 0-1.51-1.85Zm-16.8-15.59-4.3 3.41-11.58-6.69 11.58-15.79 4.3-3.41v22.48Z"/></svg>