<svg xmlns="http://www.w3.org/2000/svg" width="64" height="56" viewBox="0 0 64 56"><path fill="#11d2ac" d="M46.71 0H17.29c-.9 0-1.73.48-2.18 1.26L.4 26.74a2.52 2.52 0 0 0 0 2.52l14.71 25.48A2.52 2.52 0 0 0 17.29 56h29.42c.9 0 1.73-.48 2.18-1.26L63.6 29.26c.45-.78.45-1.74 0-2.52L48.89 1.26A2.52 2.52 0 0 0 46.71 0Z"/><path fill="#fff" d="M42.93 17.29v27.9c0 .63-.51 1.14-1.14 1.14H17.22c-.63 0-1.14-.51-1.14-1.14V9.33c0-.63.51-1.14 1.14-1.14h16.61l9.1 9.1Z"/><path fill="#d0d3dd" d="M42.93 17.29h-7.96c-.63 0-1.14-.51-1.14-1.14V8.19l9.1 9.1Z"/><path fill="#fff" d="M40.83 39.53c5.91 0 10.69-3.13 10.69-7s-4.79-7-10.69-7-10.69 3.13-10.69 7 4.79 7 10.69 7Z"/><path fill="#252628" fill-rule="evenodd" d="M33.61 28.11c-1.82 1.19-2.85 2.77-2.85 4.42s1.02 3.23 2.85 4.42c1.82 1.19 4.37 1.95 7.22 1.95s5.4-.76 7.22-1.95c1.82-1.19 2.85-2.77 2.85-4.42s-1.02-3.23-2.85-4.42c-1.82-1.19-4.37-1.95-7.22-1.95s-5.4.76-7.22 1.95Zm-.69-1.05c2.05-1.34 4.85-2.15 7.91-2.15s5.85.81 7.91 2.15c2.05 1.34 3.42 3.26 3.42 5.48s-1.37 4.14-3.42 5.48c-2.05 1.34-4.85 2.15-7.91 2.15s-5.85-.81-7.91-2.15c-2.05-1.34-3.42-3.26-3.42-5.48s1.37-4.14 3.42-5.48Z"/><path fill="#252628" d="M40.83 38.8c3.09 0 5.59-2.8 5.59-6.26s-2.5-6.26-5.59-6.26-5.59 2.8-5.59 6.26 2.5 6.26 5.59 6.26Z"/><path fill="#fff" d="m40.75 28.64-2.19 4.47h2.19v3.31l2.19-4.44h-2.19v-3.34Z"/><path fill="#252628" fill-rule="evenodd" d="M20.62 17.99c0-.49.39-.88.88-.88h5.02c.49 0 .88.39.88.88s-.39.88-.88.88H21.5a.87.87 0 0 1-.88-.88Zm0 4.7c0-.49.39-.88.88-.88h10.94c.49 0 .88.39.88.88s-.39.88-.88.88H21.5a.87.87 0 0 1-.88-.88Zm0 4.7c0-.49.39-.88.88-.88h2.51c.49 0 .88.39.88.88s-.39.88-.88.88H21.5a.87.87 0 0 1-.88-.88Zm6.2 0c0-.49.39-.88.88-.88h4.73c.49 0 .88.39.88.88s-.39.88-.88.88H27.7a.87.87 0 0 1-.88-.88Zm1.92-9.4c0-.49.39-.88.88-.88h2.82c.49 0 .88.39.88.88s-.39.88-.88.88h-2.82a.87.87 0 0 1-.88-.88Z"/></svg>