<?xml version="1.0" encoding="UTF-8"?><svg id="a" xmlns="http://www.w3.org/2000/svg" width="56mm" height="12mm" xmlns:xlink="http://www.w3.org/1999/xlink" viewBox="0 0 158.74 34.02"><defs><linearGradient id="b" x1="4.05" y1="1.44" x2="32.5" y2="31.6" gradientTransform="translate(0 33.91) scale(1 -1)" gradientUnits="userSpaceOnUse"><stop offset="0" stop-color="#00afb5"/><stop offset="1" stop-color="#008893"/></linearGradient></defs><path d="m30.97,15.1c-.24,0-.6.31-.59.52.03.99.02,1.98,0,2.98,0,.21.35.51.59.5,1.16-.04,2.32-.08,3.47-.13,1.61-.05,2.87.87,2.67,2.05-.14.86-.32,1.72-.55,2.59-.33,1.18-1.9,2.47-3.37,2.8-1.07.23-2.14.43-3.2.6-.21.03-.6.29-.63.43-.2.99-.43,1.98-.68,2.98-.37,1.36-1.78,2.81-3.06,3.09-.93.2-1.86.36-2.79.49-1.27.18-2.25-.98-2.19-2.48.06-1.07.11-2.15.16-3.22.05-1.5,1.35-2.75,2.89-2.83,1.1-.06,2.21-.14,3.31-.24.21-.02.61-.26.62-.4.12-1.02.21-2.04.28-3.06.02-.21-.33-.52-.57-.51-1.15.05-2.29.09-3.44.13-1.59.05-2.87-1.16-2.86-2.65,0-1.07,0-2.15,0-3.22,0-1.5,1.28-2.7,2.87-2.65,1.15.03,2.29.07,3.44.12.24,0,.59-.31.57-.52-.07-1.02-.16-2.04-.27-3.06-.02-.21-.42-.57-.64-.59-1.1-.1-2.21-.18-3.31-.24-1.54-.08-2.84-1.33-2.89-2.83-.05-1.07-.1-2.15-.16-3.22-.06-1.49.91-2.66,2.19-2.48.93.13,1.86.29,2.79.49,1.27.29,2.68,1.73,3.06,3.09.26.99.48,1.98.68,2.98.04.21.44.57.67.61,1.07.17,2.14.37,3.22.59,1.48.32,3.05,1.61,3.37,2.79.22.86.4,1.72.53,2.59.19,1.18-1.08,2.11-2.69,2.06-1.16-.04-2.32-.08-3.47-.12Zm-24.79,0c.24,0,.6.31.59.52-.03.99-.02,1.98,0,2.98,0,.21-.35.51-.59.5-1.16-.04-2.32-.08-3.47-.13-1.61-.05-2.87.87-2.67,2.05.14.86.32,1.72.55,2.59.33,1.18,1.9,2.47,3.37,2.8,1.07.23,2.14.43,3.2.6.21.03.6.29.63.43.2.99.43,1.98.68,2.98.37,1.36,1.78,2.81,3.06,3.09.93.2,1.86.36,2.79.49,1.27.18,2.25-.98,2.19-2.48-.06-1.07-.11-2.15-.16-3.22-.05-1.5-1.35-2.75-2.89-2.83-1.1-.06-2.21-.14-3.31-.24-.21-.02-.6-.26-.62-.4-.12-1.02-.21-2.04-.28-3.06-.02-.21.33-.52.57-.51,1.15.05,2.29.09,3.44.13,1.59.05,2.87-1.16,2.86-2.65,0-1.07,0-2.15,0-3.22,0-1.5-1.28-2.7-2.87-2.65-1.15.03-2.29.07-3.44.12-.24,0-.59-.31-.57-.52.07-1.02.16-2.04.27-3.06.02-.21.42-.57.64-.59,1.1-.1,2.21-.18,3.31-.24,1.54-.08,2.84-1.33,2.89-2.83.05-1.07.1-2.15.16-3.22.06-1.49-.91-2.66-2.19-2.48-.93.13-1.86.29-2.79.49-1.27.29-2.68,1.73-3.06,3.09-.26.99-.48,1.98-.68,2.98-.04.21-.44.57-.67.61-1.07.17-2.14.37-3.22.59-1.48.32-3.05,1.61-3.37,2.79-.22.86-.4,1.72-.53,2.59-.19,1.18,1.08,2.11,2.69,2.06,1.16-.04,2.32-.08,3.47-.12Z" fill="url(#b)" stroke-width="0"/><path d="m53.54,22.16c-.57.44-1.23.79-1.99,1.03-.76.25-1.47.37-2.13.37-.99,0-1.82-.17-2.5-.52s-1.22-.81-1.62-1.39c-.4-.58-.69-1.26-.87-2.04-.18-.78-.26-1.61-.26-2.49,0-1.01.1-1.94.3-2.8.2-.86.52-1.6.96-2.23.44-.63,1.01-1.12,1.72-1.49.71-.36,1.57-.55,2.6-.55.5,0,1.08.06,1.75.17.67.12,1.32.33,1.94.65v-4.43h-2.17v-2.04h5.07v16.94h2.03v1.99h-4.77v-1.17l-.06-.03h0Zm-3.22-9.92c-.42,0-.83.07-1.21.21-.39.14-.72.39-1.02.76-.29.36-.53.86-.7,1.49-.18.63-.26,1.43-.26,2.4,0,.85.08,1.55.23,2.11.16.56.37,1,.65,1.33.27.33.6.56.98.69.38.13.79.2,1.23.2.59,0,1.19-.13,1.81-.38.62-.26,1.09-.53,1.42-.81v-7.13c-.15-.11-.34-.21-.58-.3-.24-.1-.5-.18-.79-.27-.28-.08-.58-.15-.88-.2-.3-.05-.59-.08-.87-.08Z" fill="#4e4e50" stroke-width="0"/><path d="m59.52,12.43v-2.02h4.31v10.9h1.97v1.7c-.39.18-.83.31-1.33.4-.5.09-.94.13-1.3.13-.79,0-1.35-.15-1.7-.46-.35-.31-.53-.85-.55-1.63v-9.02h-1.4Zm4.58-5.65c0,.48-.18.89-.54,1.23-.36.35-.79.52-1.3.52s-.91-.17-1.26-.52c-.35-.35-.52-.76-.52-1.23s.17-.91.52-1.25c.35-.34.77-.5,1.26-.5s.95.17,1.3.5c.36.34.54.75.54,1.25Z" fill="#4e4e50" stroke-width="0"/><path d="m72.98,18.31l-2.38,3.05h1.53v1.99h-5.79l.03-1.99h1.24l3.98-5.09-2.63-3.87h-2.25v-1.99h4.03l2.94,4.3,1.76-2.31h-1.34v-1.99h5.95v1.99h-1.59l-3.43,4.27,3.23,4.69h1.95v1.99h-6.2v-1.99h1.07l-2.09-3.05h0Z" fill="#4e4e50" stroke-width="0"/><path d="m81.81,12.43v-2.02h4.31v10.9h1.97v1.7c-.39.18-.83.31-1.33.4-.5.09-.94.13-1.3.13-.79,0-1.35-.15-1.7-.46-.35-.31-.53-.85-.55-1.63v-9.02h-1.4Zm4.58-5.65c0,.48-.18.89-.54,1.23-.36.35-.79.52-1.3.52s-.91-.17-1.26-.52c-.35-.35-.52-.76-.52-1.23s.17-.91.52-1.25c.35-.34.77-.5,1.26-.5s.95.17,1.3.5c.36.34.54.75.54,1.25Z" fill="#4e4e50" stroke-width="0"/><path d="m101.51,12c.29.32.52.72.67,1.22.15.49.23.99.23,1.49,0,.72-.15,1.36-.45,1.91-.3.55-.71,1.01-1.24,1.39-.52.38-1.14.67-1.85.88-.71.2-1.49.3-2.33.3h-1.51c-.64,0-1.12.06-1.45.18-.33.12-.49.36-.49.71,0,.54.42.81,1.26.81h3.62c1.66,0,2.96.32,3.89.97.93.65,1.4,1.62,1.4,2.91,0,.62-.14,1.19-.42,1.72-.28.52-.72.98-1.32,1.37-.59.39-1.33.7-2.22.92s-1.93.33-3.14.33-2.11-.1-2.86-.3c-.76-.2-1.37-.47-1.82-.8-.46-.33-.78-.71-.96-1.16-.18-.44-.27-.9-.27-1.38,0-.74.19-1.38.56-1.91.37-.53.77-.91,1.19-1.14-.53-.11-.93-.34-1.21-.69-.27-.35-.41-.79-.41-1.3,0-.37.07-.69.22-.94.14-.26.33-.47.55-.65.22-.18.46-.32.73-.42.26-.11.53-.18.78-.24-.49-.21-.93-.59-1.32-1.13-.39-.54-.58-1.29-.58-2.24,0-.85.16-1.57.49-2.17.33-.6.76-1.09,1.3-1.47.54-.38,1.15-.66,1.84-.83.69-.18,1.38-.27,2.07-.27.47,0,.95.03,1.41.09.47.06.88.14,1.25.23h4.52v1.56h-2.06l-.08.05h0Zm-6.96,10.79c-.16.05-.33.15-.51.29-.17.14-.33.3-.47.49-.14.18-.25.39-.33.61-.08.22-.12.44-.12.65,0,.27.05.53.15.8.1.27.28.49.54.69.26.19.61.35,1.06.48.45.12,1.03.18,1.74.18,1.21,0,2.12-.2,2.73-.6.61-.4.92-.91.92-1.55,0-.25-.05-.49-.14-.73-.09-.24-.25-.46-.47-.65-.22-.19-.51-.35-.86-.48-.36-.12-.8-.18-1.33-.18h-2.91Zm4.91-8.11c0-.27-.05-.55-.14-.85s-.25-.58-.47-.83c-.22-.26-.52-.47-.89-.64-.38-.17-.85-.25-1.41-.25-.93,0-1.64.24-2.11.7s-.71,1.1-.71,1.9.23,1.39.69,1.83c.46.44,1.1.66,1.92.66.9,0,1.64-.21,2.23-.62.59-.41.89-1.05.89-1.9h0Z" fill="#00a3a4" stroke-width="0"/><path d="m109.24,12.24c.27-.23.6-.47.99-.73.39-.26.79-.49,1.24-.7.44-.21.89-.39,1.34-.53.46-.14.9-.21,1.32-.21.26,0,.45.07.58.2.13.13.19.37.19.7,0,.35-.07.78-.22,1.27-.15.49-.38.9-.68,1.22l-4.77.03v7.88h2v1.99h-6.8v-1.99h1.89v-8.94h-1.84v-2.04h4.69v1.83l.08.03h0Z" fill="#00a3a4" stroke-width="0"/><path d="m127.92,16.88c0,.87-.11,1.7-.33,2.5-.22.8-.58,1.52-1.08,2.14-.5.62-1.16,1.11-1.98,1.49-.81.37-1.82.56-3.03.56-1.13,0-2.09-.18-2.86-.53-.78-.35-1.41-.83-1.89-1.44-.48-.61-.83-1.31-1.06-2.11-.22-.8-.33-1.64-.33-2.55s.12-1.74.36-2.56c.24-.82.61-1.55,1.13-2.17.51-.63,1.17-1.13,1.97-1.51.8-.38,1.77-.57,2.91-.57s2.13.19,2.92.57c.79.38,1.44.88,1.92,1.5.48.62.83,1.34,1.04,2.16.21.82.31,1.66.31,2.53h0Zm-2.99.05c0-.55-.04-1.1-.12-1.66-.08-.56-.24-1.06-.47-1.51-.23-.45-.55-.82-.96-1.1-.41-.28-.95-.42-1.61-.42s-1.24.14-1.67.41c-.44.27-.79.63-1.04,1.08-.26.44-.43.94-.54,1.5-.1.56-.15,1.13-.15,1.71s.04,1.18.12,1.72.24,1.03.48,1.44c.24.42.57.75,1,.99.43.25,1,.37,1.71.37.66,0,1.2-.13,1.62-.4.42-.27.75-.61.99-1.03.24-.42.4-.91.49-1.44.09-.54.14-1.09.14-1.66h0Z" fill="#00a3a4" stroke-width="0"/><path d="m134.88,23.64c-.86,0-1.55-.12-2.07-.35-.52-.23-.92-.54-1.21-.93-.28-.39-.47-.83-.58-1.33-.1-.49-.15-1.01-.15-1.54v-7.08h-1.95v-2.04h4.85v8.64c0,.37.02.7.06.98.04.28.12.52.26.71.14.19.34.34.59.44.26.1.61.15,1.05.15s1-.11,1.67-.32c.67-.21,1.31-.59,1.92-1.14v-7.43h-1.76v-2.04h4.66v10.95h1.89v1.67c-.51.19-1,.33-1.48.4-.47.07-.87.11-1.17.11-.67,0-1.16-.12-1.48-.36-.32-.24-.51-.68-.59-1.31-.82.72-1.64,1.21-2.44,1.44-.8.24-1.5.36-2.09.36h0Z" fill="#00a3a4" stroke-width="0"/><path d="m144.56,26.88h2v-14.45h-2v-2.02h4.74v1.19l.06.03c.55-.44,1.21-.79,1.97-1.05.77-.26,1.48-.38,2.14-.38,1,0,1.84.17,2.51.52.67.35,1.21.81,1.62,1.39.41.58.7,1.27.88,2.06.17.79.26,1.61.26,2.48,0,1.01-.1,1.94-.3,2.78s-.52,1.58-.96,2.2c-.44.62-1.01,1.11-1.73,1.46-.71.35-1.58.53-2.61.53-.47,0-1.05-.06-1.71-.18-.67-.12-1.32-.35-1.96-.66v4.11h2.14v2.04h-7.05v-2.04h0Zm8.03-5.49c.4,0,.79-.07,1.18-.2.39-.13.72-.37,1.01-.71.29-.35.53-.83.7-1.44.17-.62.26-1.41.26-2.36,0-.85-.08-1.54-.23-2.08-.15-.54-.37-.97-.63-1.29-.26-.32-.59-.53-.96-.65-.38-.11-.78-.17-1.22-.17-.29,0-.59.04-.91.11-.31.07-.61.16-.9.28-.29.12-.56.24-.81.38-.25.14-.45.28-.62.42v6.84c.16.11.37.21.6.32.24.11.5.2.78.28.28.08.58.15.88.2.3.05.59.08.86.08h0Z" fill="#00a3a4" stroke-width="0"/></svg>