<svg xmlns="http://www.w3.org/2000/svg" viewBox="0 0 284 64"><path fill="#141414" fill-rule="evenodd" d="M32 11.78C13.92 11.78 3.07 32 3.07 32S13.92 52.22 32 52.22 60.93 32 60.93 32 50.08 11.78 32 11.78Zm0 38.4a18.18 18.18 0 1 0 0-36.36 18.18 18.18 0 0 0 0 36.36Z"/><path fill="#141414" fill-rule="evenodd" d="M33.56 17.36v11.17h10.15L30.44 46.64V35.47H20.29l13.27-18.11Z"/><path fill="#141414" d="M80.41 26V11.67h9.32v2.18h-6.72v3.89h6.24v2.18h-6.24v3.91h6.78v2.18h-9.37Zm14.39-6.3V26h-2.53V15.25h2.42v1.83h.13c.25-.6.64-1.08 1.18-1.43a3.68 3.68 0 0 1 2.02-.53c.74 0 1.39.16 1.94.48.56.32.98.78 1.29 1.38.31.6.46 1.33.46 2.19v6.84h-2.53v-6.45c0-.72-.19-1.28-.56-1.69a1.95 1.95 0 0 0-1.53-.61c-.44 0-.84.1-1.18.29a2 2 0 0 0-.8.83c-.19.36-.29.8-.29 1.32Zm14.23 6.51a5.49 5.49 0 0 1-2.79-.67 4.52 4.52 0 0 1-1.8-1.92c-.42-.83-.63-1.81-.63-2.93s.21-2.08.63-2.91a4.76 4.76 0 0 1 4.46-2.67c.66 0 1.29.11 1.88.32a4.38 4.38 0 0 1 2.65 2.67c.26.68.39 1.49.39 2.43v.78h-8.81V19.6h6.38c0-.49-.11-.92-.31-1.29a2.33 2.33 0 0 0-2.13-1.23c-.52 0-.97.13-1.36.38-.39.25-.7.57-.92.98-.22.4-.32.84-.33 1.32v1.49c0 .62.11 1.16.34 1.61.23.44.55.78.96 1.02.41.23.89.35 1.44.35.37 0 .7-.05 1-.15a2.1 2.1 0 0 0 1.28-1.23l2.36.27a3.74 3.74 0 0 1-.85 1.64c-.42.46-.95.82-1.6 1.08-.65.25-1.39.38-2.22.38Zm6.92-.21V15.25h2.46v1.79h.11c.2-.62.53-1.1 1.01-1.43a2.77 2.77 0 0 1 1.64-.51c.14 0 .3 0 .47.02.18 0 .32.03.44.05v2.33a5.14 5.14 0 0 0-1.17-.15c-.46 0-.88.1-1.25.3-.36.2-.65.47-.86.82a2.3 2.3 0 0 0-.31 1.21V26h-2.53Zm12.04 4.25c-.91 0-1.69-.12-2.34-.37a4.1 4.1 0 0 1-1.57-.98c-.4-.41-.67-.87-.83-1.36l2.28-.55a2.31 2.31 0 0 0 1.24 1.14c.34.14.76.21 1.27.21.72 0 1.31-.17 1.78-.52s.71-.91.71-1.71v-2.04h-.13a3.5 3.5 0 0 1-.57.8c-.25.28-.58.51-.99.69-.41.19-.92.28-1.53.28a4.14 4.14 0 0 1-3.85-2.33c-.39-.78-.59-1.75-.59-2.92s.2-2.18.59-2.99a4.16 4.16 0 0 1 5.4-2.17c.41.21.74.46.98.76.24.29.43.57.55.83h.14v-1.78h2.5v10.92c0 .92-.22 1.68-.66 2.28a3.98 3.98 0 0 1-1.8 1.35 7 7 0 0 1-2.59.45Zm.02-6.39c.54 0 .99-.13 1.37-.39.38-.26.67-.64.86-1.13s.29-1.08.29-1.76-.1-1.27-.29-1.78c-.19-.51-.48-.9-.85-1.18-.37-.28-.83-.43-1.38-.43s-1.03.15-1.41.44-.66.7-.85 1.21c-.19.51-.29 1.09-.29 1.73s.1 1.23.29 1.73c.19.49.48.87.86 1.15.38.27.85.41 1.41.41Zm9.19 6.17a5.64 5.64 0 0 1-1.65-.26l.59-1.97c.37.11.7.16.99.15.29 0 .54-.1.76-.27.22-.17.41-.46.57-.87l.22-.58-3.9-10.97h2.69l2.48 8.12h.11l2.48-8.12h2.69l-4.3 12.05c-.2.57-.47 1.06-.8 1.46-.33.41-.74.72-1.22.94-.48.22-1.04.33-1.71.33Zm14.15-16.18v-2.18h11.43v2.18h-4.43V26h-2.57V13.85h-4.43ZM163.76 26V15.25h2.46v1.79h.11c.2-.62.53-1.1 1.01-1.43a2.77 2.77 0 0 1 1.64-.51c.14 0 .3 0 .47.02.18 0 .32.03.44.05v2.33a5.14 5.14 0 0 0-1.17-.15c-.46 0-.88.1-1.25.3a2.26 2.26 0 0 0-1.18 2.03V26h-2.53Zm10.71.22c-.68 0-1.29-.12-1.84-.36a3.05 3.05 0 0 1-1.29-1.09 3.2 3.2 0 0 1-.47-1.78c0-.61.11-1.11.34-1.5.22-.4.53-.71.92-.95s.82-.42 1.31-.54c.49-.13 1-.22 1.52-.27l1.53-.17c.39-.06.68-.14.85-.25a.6.6 0 0 0 .27-.54v-.04c0-.53-.16-.94-.47-1.22-.31-.29-.76-.43-1.35-.43-.62 0-1.11.14-1.48.41-.36.27-.6.59-.73.96l-2.37-.34c.19-.65.5-1.2.92-1.64.43-.44.95-.77 1.57-.99a6.83 6.83 0 0 1 3.61-.16c.51.12.98.32 1.41.6.42.28.76.65 1.02 1.13.26.48.39 1.07.39 1.78v7.19h-2.44v-1.48h-.08a2.97 2.97 0 0 1-1.69 1.46c-.41.15-.9.23-1.46.23Zm.66-1.86c.51 0 .95-.1 1.32-.3.37-.21.66-.48.86-.81.21-.34.31-.7.31-1.1v-1.27a1 1 0 0 1-.4.18c-.19.06-.4.1-.63.15l-.69.11-.59.08c-.38.05-.72.14-1.01.25-.3.12-.53.28-.71.49-.17.21-.26.47-.26.8 0 .47.17.82.51 1.06.34.24.77.36 1.3.36Zm10.1-4.65v6.3h-2.53V15.26h2.42v1.83h.13c.25-.6.64-1.08 1.18-1.43a3.68 3.68 0 0 1 2.02-.53c.74 0 1.39.16 1.94.48.55.32.98.78 1.29 1.38.31.6.46 1.33.46 2.19v6.84h-2.53v-6.45c0-.72-.19-1.28-.56-1.69a1.95 1.95 0 0 0-1.53-.61c-.44 0-.84.1-1.18.29a2 2 0 0 0-.8.83c-.19.36-.29.8-.29 1.32Zm17.96-1.61-2.31.25a2.08 2.08 0 0 0-.34-.66 1.7 1.7 0 0 0-.64-.5c-.27-.13-.6-.19-.99-.19-.53 0-.97.11-1.33.34-.35.23-.53.52-.52.89 0 .31.11.57.34.76.24.2.63.36 1.18.48l1.83.39c1.02.22 1.77.57 2.27 1.04.5.48.75 1.1.76 1.87 0 .68-.2 1.27-.6 1.79-.39.51-.93.91-1.62 1.2-.69.29-1.48.43-2.38.43a5.54 5.54 0 0 1-3.18-.83 3.32 3.32 0 0 1-1.43-2.32l2.47-.24c.11.49.35.85.71 1.1.36.25.84.37 1.42.37s1.08-.12 1.45-.37c.37-.25.55-.55.55-.92a.94.94 0 0 0-.36-.76c-.23-.2-.6-.35-1.09-.46l-1.83-.38a4.42 4.42 0 0 1-2.29-1.08 2.7 2.7 0 0 1-.74-1.94c0-.66.18-1.24.54-1.72a3.5 3.5 0 0 1 1.53-1.13 5.97 5.97 0 0 1 2.27-.41c1.26 0 2.25.27 2.97.8a3.37 3.37 0 0 1 1.35 2.18Zm2.32 11.93V15.26H208v1.78h.15c.13-.26.31-.54.55-.83.24-.3.56-.55.96-.76.41-.21.92-.32 1.55-.32.83 0 1.58.21 2.25.64.67.42 1.2 1.04 1.6 1.87.4.82.6 1.83.6 3.02s-.19 2.18-.58 3.01a4.1 4.1 0 0 1-3.85 2.54 3.3 3.3 0 0 1-1.53-.31c-.4-.21-.73-.45-.98-.74a5.16 5.16 0 0 1-.57-.83h-.11v5.72h-2.53Zm2.48-9.4c0 .69.1 1.3.29 1.83.2.52.49.93.86 1.22.38.29.84.43 1.37.43s1.03-.15 1.41-.45c.38-.3.66-.72.85-1.24.2-.53.29-1.13.29-1.8s-.1-1.26-.29-1.78a2.74 2.74 0 0 0-.85-1.22c-.38-.29-.85-.44-1.41-.44s-1 .14-1.38.43c-.38.28-.66.68-.86 1.2a5.2 5.2 0 0 0-.29 1.81Zm12.92 5.59c-.68 0-1.29-.12-1.84-.36a3.05 3.05 0 0 1-1.29-1.09 3.2 3.2 0 0 1-.47-1.78c0-.61.11-1.11.34-1.5.22-.4.53-.71.92-.95s.82-.42 1.31-.54c.49-.13 1-.22 1.52-.27l1.53-.17c.39-.06.68-.14.85-.25a.6.6 0 0 0 .27-.54v-.04c0-.53-.16-.94-.47-1.22-.31-.29-.76-.43-1.35-.43-.62 0-1.11.14-1.48.41-.36.27-.6.59-.73.96l-2.36-.34a3.83 3.83 0 0 1 2.49-2.63 6.83 6.83 0 0 1 3.61-.16c.51.12.98.32 1.41.6.42.28.76.65 1.02 1.13.26.48.39 1.07.39 1.78v7.19h-2.43v-1.48h-.08a2.97 2.97 0 0 1-1.69 1.46c-.42.15-.9.23-1.46.23Zm.66-1.86c.51 0 .95-.1 1.32-.3.37-.21.66-.48.86-.81.21-.34.31-.7.31-1.1v-1.27c-.08.07-.22.13-.41.18-.19.06-.4.1-.63.15l-.69.11-.6.08c-.38.05-.72.14-1.01.25-.3.12-.53.28-.71.49-.17.21-.26.47-.26.8 0 .47.17.82.51 1.06.34.24.77.36 1.3.36Zm7.56 1.64V15.25h2.46v1.79h.11c.2-.62.53-1.1 1.01-1.43a2.77 2.77 0 0 1 1.64-.51c.14 0 .3 0 .47.02.18 0 .32.03.44.05v2.33a5.14 5.14 0 0 0-1.17-.15c-.46 0-.88.1-1.25.3a2.26 2.26 0 0 0-1.18 2.03V26h-2.53Zm12.12.21a5.49 5.49 0 0 1-2.79-.67 4.52 4.52 0 0 1-1.8-1.92c-.42-.83-.63-1.81-.63-2.93s.21-2.08.63-2.91a4.76 4.76 0 0 1 4.46-2.67c.66 0 1.29.11 1.88.32a4.38 4.38 0 0 1 2.65 2.67c.26.68.39 1.49.39 2.43v.78h-8.81V19.6h6.38c0-.49-.11-.92-.31-1.29a2.33 2.33 0 0 0-2.13-1.23c-.52 0-.97.13-1.36.38-.39.25-.7.57-.92.98-.21.4-.32.84-.33 1.32v1.49c0 .62.11 1.16.34 1.61.23.44.55.78.96 1.02.41.23.89.35 1.44.35.37 0 .7-.05 1-.15.3-.11.56-.26.78-.47.22-.21.39-.46.5-.76l2.36.27a3.74 3.74 0 0 1-.85 1.64c-.42.46-.95.82-1.6 1.08-.65.25-1.39.38-2.23.38Zm9.45-6.51V26h-2.53V15.25h2.42v1.83h.13c.25-.6.64-1.08 1.18-1.43a3.68 3.68 0 0 1 2.02-.53c.74 0 1.39.16 1.94.48.55.32.98.78 1.29 1.38.31.6.46 1.33.46 2.19v6.84h-2.53v-6.45c0-.72-.19-1.28-.56-1.69a1.95 1.95 0 0 0-1.53-.61c-.44 0-.84.1-1.18.29a2 2 0 0 0-.8.83c-.19.36-.29.8-.29 1.32Zm14.16 6.51a5.2 5.2 0 0 1-2.76-.71 4.7 4.7 0 0 1-1.77-1.95c-.41-.83-.62-1.8-.62-2.88s.21-2.05.63-2.89a4.7 4.7 0 0 1 1.78-1.96 5.14 5.14 0 0 1 2.73-.71c.87 0 1.64.16 2.32.48a3.94 3.94 0 0 1 2.3 3.38h-2.42c-.1-.52-.33-.95-.7-1.29a2 2 0 0 0-1.46-.52c-.52 0-.97.14-1.36.42-.39.28-.7.67-.92 1.19-.21.52-.32 1.14-.32 1.86s.11 1.36.32 1.89c.21.52.52.93.9 1.21.39.28.85.42 1.38.42.37 0 .71-.07 1-.21.3-.14.55-.35.75-.62.2-.27.34-.6.41-.99h2.42a3.98 3.98 0 0 1-2.25 3.39c-.67.33-1.45.49-2.35.49Zm8.26 3.82a5.83 5.83 0 0 1-1.65-.26l.59-1.97c.37.11.7.16.99.15.29 0 .54-.1.76-.27.22-.17.41-.46.57-.87l.22-.58-3.9-10.97h2.69l2.48 8.12h.11l2.48-8.12h2.69l-4.3 12.05c-.2.57-.47 1.06-.8 1.46-.33.41-.74.72-1.22.94-.48.22-1.04.33-1.71.33ZM83.01 38.67V53h-2.6V38.67h2.6Zm5.23 8.03V53h-2.53V42.25h2.42v1.83h.13c.25-.6.64-1.08 1.18-1.43a3.68 3.68 0 0 1 2.02-.53c.74 0 1.39.16 1.94.48.56.32.98.78 1.29 1.38.31.6.46 1.33.45 2.19v6.84h-2.53v-6.45c0-.72-.19-1.28-.56-1.69a1.95 1.95 0 0 0-1.53-.61c-.44 0-.84.1-1.18.29a2 2 0 0 0-.8.83c-.19.36-.29.8-.29 1.32Zm13.46 6.49a4.12 4.12 0 0 1-3.85-2.54c-.39-.83-.58-1.83-.58-3.01s.2-2.2.59-3.02a4.16 4.16 0 0 1 5.4-2.19c.41.21.73.46.97.76.24.29.42.57.55.83h.1v-5.36h2.54v14.33h-2.49V51.3h-.15c-.13.26-.32.54-.57.83-.25.29-.57.54-.98.74-.41.21-.92.31-1.53.31Zm.71-2.08c.54 0 .99-.14 1.37-.43.38-.29.67-.7.86-1.22.2-.52.29-1.13.29-1.83s-.1-1.3-.29-1.81a2.68 2.68 0 0 0-.85-1.2c-.37-.28-.83-.43-1.38-.43s-1.03.15-1.41.44c-.38.29-.66.7-.85 1.22-.19.52-.29 1.11-.29 1.78s.1 1.27.29 1.8c.2.52.48.94.86 1.24.38.3.85.45 1.41.45Zm12.47 2.1a5.49 5.49 0 0 1-2.79-.67 4.52 4.52 0 0 1-1.8-1.92c-.42-.83-.63-1.81-.63-2.93s.21-2.08.63-2.91a4.76 4.76 0 0 1 4.46-2.67c.66 0 1.29.11 1.88.32a4.38 4.38 0 0 1 2.65 2.67c.26.68.39 1.49.39 2.43v.78h-8.81V46.6h6.38c0-.49-.11-.92-.31-1.29a2.33 2.33 0 0 0-2.13-1.23c-.52 0-.97.13-1.36.38-.39.25-.7.57-.92.98-.21.4-.32.84-.33 1.32v1.49c0 .62.12 1.16.34 1.61.23.44.55.78.96 1.02.41.23.89.35 1.44.35.37 0 .7-.05 1-.15a2.1 2.1 0 0 0 1.28-1.23l2.37.27a3.74 3.74 0 0 1-.85 1.64c-.42.46-.95.82-1.6 1.08-.65.25-1.39.38-2.22.38Zm8.76-10.96 2.17 3.97 2.2-3.97h2.68l-3.24 5.37 3.3 5.37h-2.67l-2.27-3.87-2.25 3.87h-2.69l3.27-5.37-3.19-5.37h2.69Zm18.58 10.96a5.22 5.22 0 0 1-2.73-.69 4.67 4.67 0 0 1-1.79-1.94c-.42-.83-.63-1.8-.63-2.91s.21-2.08.63-2.92a4.67 4.67 0 0 1 1.79-1.94c.77-.46 1.68-.69 2.73-.69s1.96.23 2.73.69a4.64 4.64 0 0 1 1.78 1.94c.43.83.64 1.81.64 2.92s-.21 2.08-.64 2.91a4.64 4.64 0 0 1-1.78 1.94c-.77.46-1.68.69-2.73.69Zm.01-2.03a2.2 2.2 0 0 0 1.43-.47c.38-.32.67-.74.85-1.27.19-.53.29-1.12.29-1.78s-.1-1.25-.29-1.78a2.86 2.86 0 0 0-.85-1.28c-.38-.32-.86-.48-1.43-.48s-1.07.16-1.45.48c-.38.32-.67.74-.86 1.28-.19.53-.28 1.13-.28 1.78s.09 1.25.28 1.78c.19.53.48.96.86 1.27.39.31.87.47 1.45.47Zm12.73-8.93v1.96h-6.35v-1.96h6.35ZM150.2 53V41.24c0-.72.15-1.32.45-1.8.3-.48.71-.84 1.22-1.08a3.9 3.9 0 0 1 1.69-.36 5.87 5.87 0 0 1 1.93.29l-.5 1.96c-.11-.03-.24-.07-.41-.1a2.29 2.29 0 0 0-.54-.06c-.47 0-.81.11-1 .34-.19.22-.29.55-.29.97v11.59h-2.54Zm20.78-14.33h2.6v9.36a4.94 4.94 0 0 1-2.76 4.54c-.87.43-1.89.65-3.06.65s-2.19-.22-3.06-.65a4.94 4.94 0 0 1-2.03-1.83 5.06 5.06 0 0 1-.72-2.71v-9.36h2.59v9.14a2.89 2.89 0 0 0 1.51 2.7c.48.26 1.05.39 1.71.39s1.23-.13 1.71-.39c.49-.27.86-.63 1.12-1.1.26-.47.39-1 .39-1.6v-9.14Zm7.61 10.96v-3.06h.4l3.86-4.32h2.96l-4.75 5.29h-.53l-1.94 2.08ZM176.28 53V38.67h2.53V53h-2.53Zm6.74 0-3.5-4.89 1.71-1.78 4.82 6.67h-3.03Zm4.47 0V42.25h2.46v1.79h.11c.2-.62.53-1.1 1.01-1.43a2.77 2.77 0 0 1 1.64-.51c.14 0 .3 0 .47.02.18 0 .32.03.44.05v2.33a5.14 5.14 0 0 0-1.17-.15c-.46 0-.88.1-1.24.3-.36.2-.65.47-.86.82a2.3 2.3 0 0 0-.31 1.21V53h-2.53Zm10.71.22c-.68 0-1.29-.12-1.84-.36a3.05 3.05 0 0 1-1.29-1.09 3.2 3.2 0 0 1-.47-1.78c0-.61.11-1.11.34-1.5.22-.4.53-.71.92-.95s.82-.42 1.31-.54c.49-.13 1-.22 1.52-.27l1.53-.17c.39-.06.68-.14.85-.25a.6.6 0 0 0 .27-.54v-.04c0-.53-.16-.94-.47-1.22-.31-.29-.76-.43-1.35-.43-.62 0-1.11.14-1.48.41-.36.27-.6.59-.73.96l-2.37-.34a3.83 3.83 0 0 1 2.49-2.63 6.83 6.83 0 0 1 3.61-.16c.51.12.98.32 1.41.6.42.28.76.65 1.02 1.13.26.48.39 1.07.39 1.78v7.19h-2.43v-1.48h-.08a2.97 2.97 0 0 1-1.69 1.46c-.42.15-.9.23-1.46.23Zm.66-1.86c.51 0 .95-.1 1.32-.3.37-.21.66-.48.86-.81.21-.34.31-.7.31-1.1v-1.27a1 1 0 0 1-.4.18c-.19.06-.4.1-.63.15l-.69.11-.6.08c-.38.05-.72.14-1.01.25-.3.12-.54.28-.71.49-.17.21-.26.47-.26.8 0 .47.17.82.51 1.06.34.24.77.36 1.3.36Zm7.56 1.64V42.25h2.53V53h-2.53Zm1.27-12.27c-.4 0-.75-.13-1.04-.4-.29-.27-.43-.59-.43-.97s.14-.71.43-.97c.29-.27.64-.41 1.04-.41s.75.14 1.03.41a1.3 1.3 0 0 1 0 1.94c-.28.27-.63.4-1.03.4Zm6.39 5.97V53h-2.53V42.25h2.42v1.83h.12c.25-.6.64-1.08 1.18-1.43a3.66 3.66 0 0 1 2.02-.53c.74 0 1.39.16 1.94.48.56.32.98.78 1.29 1.38.31.6.46 1.33.45 2.19v6.84h-2.53v-6.45c0-.72-.19-1.28-.56-1.69a1.95 1.95 0 0 0-1.53-.61c-.44 0-.84.1-1.18.29-.34.19-.61.47-.81.83-.19.36-.29.8-.29 1.32Zm14.23 6.51a5.49 5.49 0 0 1-2.79-.67 4.52 4.52 0 0 1-1.8-1.92c-.42-.83-.63-1.81-.63-2.93s.21-2.08.63-2.91a4.76 4.76 0 0 1 4.46-2.67c.66 0 1.29.11 1.88.32a4.38 4.38 0 0 1 2.65 2.67c.26.68.39 1.49.39 2.43v.78h-8.81V46.6h6.38c0-.49-.11-.92-.31-1.29a2.33 2.33 0 0 0-2.13-1.23c-.52 0-.97.13-1.36.38-.39.25-.7.57-.92.98-.21.4-.32.84-.33 1.32v1.49c0 .62.12 1.16.34 1.61.23.44.55.78.96 1.02.41.23.89.35 1.44.35.37 0 .7-.05 1-.15a2.1 2.1 0 0 0 1.28-1.23l2.36.27a3.74 3.74 0 0 1-.85 1.64c-.42.46-.95.82-1.6 1.08-.65.25-1.39.38-2.22.38Z"/></svg>