<svg xmlns="http://www.w3.org/2000/svg" width="85.81" height="32" viewBox="0 0 85.81 32"><path d="m48.11,13.77v4.77c.12,1.05-.35,2.08-1.21,2.69-1.35.56-2.81.8-4.26.7h-4.92v-11.75h4.92c1.44-.1,2.88.15,4.2.74.92.64,1.41,1.74,1.27,2.85Zm-2.79,4.77v-4.83c.04-.49-.22-.96-.67-1.18-.65-.25-1.35-.36-2.05-.32h-2.12v7.71h2.04c.75.04,1.49-.04,2.21-.25.36-.16.6-.54.6-1.13Z"/><path d="m58.74,16.36v2.55c.02.5-.07.99-.26,1.45-.14.36-.37.68-.65.93-.3.24-.66.42-1.03.51-.37.12-.76.2-1.15.23h-2.55c-.39-.05-.78-.13-1.16-.23-.38-.09-.73-.27-1.03-.51-.29-.26-.51-.57-.65-.93-.19-.46-.27-.96-.26-1.45v-2.55c-.02-.53.08-1.06.28-1.56.13-.38.35-.71.64-.99.3-.25.66-.42,1.03-.52.39-.1.79-.17,1.19-.2h2.47c.39.04.77.12,1.15.23.38.11.73.29,1.05.52.29.28.52.61.67.99.2.48.3,1,.28,1.53Zm-2.6,2.91v-3.27c.04-.37-.09-.74-.35-1-.44-.26-.95-.37-1.45-.31-.51-.06-1.02.05-1.45.31-.27.26-.41.63-.36,1v3.3c-.04.36.09.71.35.96.44.24.95.34,1.45.28.5.06,1.01-.04,1.45-.28.29-.25.43-.64.36-1.02v.03Z"/><path d="m69.3,16.36v2.55c.02.5-.08,1-.28,1.45-.14.36-.37.68-.65.93-.3.24-.65.41-1.02.51-.38.12-.77.2-1.16.23h-2.53c-.38-.05-.75-.12-1.12-.22-.37-.09-.72-.27-1.02-.51-.29-.25-.52-.57-.67-.93-.19-.46-.27-.96-.26-1.45v-2.56c-.02-.53.08-1.06.28-1.56.15-.38.37-.71.67-.99.3-.24.64-.42,1-.52.38-.1.76-.17,1.15-.2h2.47c.39.04.77.12,1.15.23.38.1.73.27,1.05.49.29.28.52.61.67.99.19.5.29,1.02.28,1.56Zm-2.6,2.91v-3.27c.03-.37-.1-.74-.36-1-.44-.25-.95-.36-1.45-.31-.51-.06-1.02.05-1.45.31-.27.26-.4.63-.35,1v3.3c-.04.36.09.71.35.96.45.24.95.33,1.45.28.5.06,1.01-.04,1.45-.28.29-.26.42-.64.36-1.02v.03Z"/><path d="m76.96,15.2h-.89c-.56-.03-1.11.08-1.61.33-.38.25-.58.69-.54,1.13v5.26h-2.66v-8.73h2.46v1.45c.05-.49.33-.92.74-1.18.42-.32.93-.5,1.45-.52h.95l.1,2.24Z"/><path d="m85.81,18.53v1.11c.02.39-.07.77-.25,1.12-.14.29-.34.55-.6.74-.3.19-.62.32-.96.41-.37.09-.74.15-1.12.17h-1.28c-1.14,0-2.28-.1-3.4-.26v-1.72c1.14.2,2.29.33,3.45.38.42.04.84,0,1.25-.12.26-.08.43-.32.42-.6v-.57c.02-.23-.06-.46-.22-.63-.3-.18-.65-.26-1-.22h-1.12c-.74.05-1.48-.15-2.11-.55-.51-.37-.8-.98-.76-1.61v-1.08c-.04-.74.42-1.41,1.12-1.64,1-.3,2.04-.43,3.08-.38.57,0,1.59,0,3.07.16v1.67c-1.85-.15-2.9-.22-3.14-.22-.46-.03-.92.02-1.37.15-.2.13-.31.36-.28.6v.47c0,.16.09.3.22.39.2.14.44.21.68.19h1.15c2.11-.06,3.16.64,3.16,2.04Z"/><path d="m41.99,26.82v2.27c0,.24-.05.48-.17.68-.12.19-.3.33-.51.41-.21.09-.42.14-.64.17-.23.02-.46.02-.68,0-1.32,0-1.99-.44-1.99-1.32v-2.21c0-.92.67-1.45,1.99-1.45s2.01.55,2.01,1.45Zm-.68,2.27v-2.28c0-.6-.44-.89-1.32-.89h-.49c-.14.03-.28.07-.41.13-.13.06-.24.15-.32.26-.07.14-.11.3-.1.47v2.31c0,.55.44.83,1.32.83s1.32-.25,1.32-.83Z"/><path d="m46.98,30.35h-.67v-.45c-.07.35-.47.52-1.16.52-.35.03-.69-.06-.97-.26-.18-.21-.27-.49-.26-.77v-2.65h.67v2.82c.02.07.05.13.09.19.06.07.14.11.23.13.13.02.27.02.41,0,.26.01.52-.02.77-.1.15-.07.23-.22.22-.38v-2.66h.67v3.61Z"/><path d="m51.18,30.37c-.24.05-.49.07-.74.07-.33.03-.66-.05-.93-.23-.2-.25-.29-.57-.26-.89v-2.12h-.79v-.44h.79v-1.12h.67v1.12h1.27v.44h-1.25v2.15c-.03.19.03.38.15.52.17.11.38.16.58.13h.54v.42-.06Z"/><path d="m55.4,29.09v.31c.03.32-.12.63-.39.8-.36.16-.76.24-1.16.22-.41,0-.82-.03-1.22-.09v-.51c.41.08.82.13,1.24.15.23.01.45-.02.67-.09.15-.06.24-.21.22-.36v-.42c.02-.13-.05-.26-.16-.33-.15-.08-.32-.11-.49-.1h-.41c-.3.03-.6-.06-.84-.23-.2-.15-.31-.39-.29-.64v-.32c0-.57.52-.86,1.59-.86l1.08.07v.47c-.36-.07-.73-.1-1.11-.1-.24-.02-.49.01-.71.1-.13.07-.21.2-.2.35v.31c0,.25.22.38.65.38h.42c.76.04,1.13.34,1.13.92Z"/><path d="m60.28,27.97v1.25c0,.19-.02.38-.09.57-.03.13-.1.26-.2.35-.1.1-.22.17-.35.2l-.44.09h-1.25c-.17-.03-.34-.08-.49-.15-.16-.07-.28-.2-.35-.36-.08-.22-.11-.45-.1-.68v-1.25c-.03-.2-.03-.41,0-.61.05-.14.13-.26.22-.38.1-.1.23-.17.36-.2l.42-.09h1.12l.44.09c.13.03.26.1.35.2.09.11.16.24.2.38.09.19.14.39.16.6Zm-.67,1.35v-1.45c0-.33-.07-.54-.2-.61-.24-.1-.5-.13-.76-.12-.26-.03-.53.01-.77.12-.13.09-.19.28-.19.61v1.45c-.01.13-.01.25,0,.38.04.09.11.17.2.2.09.05.19.07.29.07h.87c.1,0,.2-.03.29-.07.09-.04.15-.11.19-.2.04-.12.07-.25.09-.38h-.01Z"/><path d="m65.23,30.35h-.65v-.45c0,.35-.47.52-1.16.52-.35.03-.69-.06-.97-.26-.19-.21-.28-.49-.26-.77v-2.65h.67v2.6c-.02.07-.02.15,0,.22,0,.07.04.14.09.19.06.07.14.11.23.13.13.02.27.02.41,0,.26.01.52-.02.77-.1.15-.07.23-.22.22-.38v-2.66h.65v3.61h.01Z"/><path d="m69.14,27.25h-.36c-.23-.02-.46.02-.67.12-.15.1-.24.27-.22.45v2.55h-.67v-3.61h.63v.6c.02-.2.14-.38.32-.48.2-.12.42-.19.65-.19h.32s0,.57,0,.57Z"/><path d="m73.14,30.32c-.37.08-.75.12-1.13.12h-.51l-.41-.07c-.13-.03-.25-.09-.35-.19-.1-.1-.17-.22-.22-.35-.06-.18-.08-.37-.07-.55v-1.35c-.02-.17-.02-.34,0-.51.02-.13.08-.25.16-.35.07-.08.15-.16.25-.22.1-.06.22-.1.33-.12h.83c.34,0,.68.04,1.02.12v.49c-.36-.1-.72-.15-1.09-.16-.25-.02-.5.03-.71.15-.14.15-.2.36-.17.57v1.45c0,.26,0,.44.2.52.23.12.5.17.76.15.36,0,.72-.06,1.08-.15v.49l.04-.04Z"/><path d="m75.48,26.18h-.65v-.73h.65v.73Zm0,4.2h-.65v-3.64h.65v3.64Z"/><path d="m80.54,30.35h-.65v-2.6c0-.08,0-.16,0-.23-.01-.07-.04-.13-.09-.17-.06-.07-.14-.12-.23-.15-.13-.02-.27-.02-.41,0-.27-.02-.54.02-.79.13-.14.11-.21.29-.19.47v2.6h-.65v-3.66h.65v.45c0-.35.47-.52,1.16-.52.34-.04.69.05.96.26.2.21.3.49.28.77v2.66h-.04Z"/><path d="m85.56,26.75v3.94c.06.4-.11.79-.42,1.03-.39.21-.83.3-1.27.28-.41,0-.82-.02-1.22-.09v-.48c.42.06.85.1,1.28.12.26.01.51-.04.74-.16.16-.13.25-.33.23-.54v-.87c0,.17-.13.29-.35.36-.24.08-.49.12-.74.12-.39.04-.78-.05-1.12-.25-.22-.23-.33-.54-.31-.86v-1.45c-.03-.35.1-.69.35-.93.33-.21.72-.3,1.11-.26.63,0,.99.13,1.09.42v-.33h.63v-.04Zm-.65,2.63v-1.63c.02-.18-.05-.36-.19-.48-.24-.12-.51-.17-.77-.15-.25-.03-.49.02-.71.13-.13.12-.2.3-.17.48v1.63c-.03.19.04.37.19.49.22.1.47.14.71.12.25.02.5-.03.73-.13.15-.06.22-.22.22-.47Z"/><path d="m17.34,2.79v26.29l14.19,2.78V0l-14.19,2.79Zm11.08,9.05h-3.37v9.98h-2.11v-9.98h-3.33v-1.82h8.81v1.82Z"/><path d="m0,31.88l14.19-2.79V2.79L0,0v31.88ZM6.46,10.06h2.14v11.75h-2.14v-11.75Z"/></svg>