<svg xmlns="http://www.w3.org/2000/svg" width="64" height="56" viewBox="0 0 64 56"><defs><clipPath id="a"><path fill="none" stroke-width="0" d="M16.36 7.25h31.45v43.81H16.36z"/></clipPath></defs><path fill="#ffdf3b" d="M46.73 0H17.28c-.9 0-1.73.48-2.18 1.26L.37 26.74a2.52 2.52 0 0 0 0 2.52L15.1 54.74A2.52 2.52 0 0 0 17.28 56h29.45c.9 0 1.73-.48 2.18-1.26l14.73-25.48c.45-.78.45-1.74 0-2.52L48.91 1.26A2.52 2.52 0 0 0 46.73 0Z"/><g clip-path="url(#a)"><path fill="#2575ca" d="M16.6 7.49h30.98v32.79a5.93 5.93 0 0 1-3.54 5.43l-11.95 5.05-11.95-5.28a5.9 5.9 0 0 1-3.54-5.43V7.49Z"/><path fill="#ffdf3b" d="M33.23 22.23a19.8 19.8 0 0 0 2.68 10.65 10.42 10.42 0 0 1-2.52 13.43c-.54.33-.98.79-1.3 1.33-.32-.55-.76-1-1.3-1.33a10.47 10.47 0 0 1-2.52-13.43 19.8 19.8 0 0 0 2.68-10.65l-.31-8.6a5.72 5.72 0 0 1 1.45-4 5.72 5.72 0 0 1 1.45 4l-.3 8.6Zm-.19 21.82a8.52 8.52 0 0 0 1.22-10.22 21.88 21.88 0 0 1-2.17-5.16 21.88 21.88 0 0 1-2.17 5.16 8.5 8.5 0 0 0 1.22 10.22v-5.92h1.91v5.92Z"/><path fill="#ffdf3b" d="M37.38 21.54a11.87 11.87 0 0 1 6.15-9.07v27.56H32.09l-.95-1.9a4.26 4.26 0 0 1 3.35-4.17l2.79-.63a1.89 1.89 0 0 0 1.46-1.53c.05-.24.04-.5-.02-.74a1.88 1.88 0 0 0-2.28-1.43l.96-8.09Zm1.14 6.53a3.83 3.83 0 0 1 2.11 3.85 3.86 3.86 0 0 1-2.95 3.27l-2.79.63a2.34 2.34 0 0 0-1.86 2.31h8.58V16.42a10 10 0 0 0-2.34 5.33l-.75 6.32Zm1.57 2.47H42v1.9h-1.91v-1.9Z"/><path fill="#ffdf3b" d="M26.79 21.54a11.87 11.87 0 0 0-6.15-9.07v27.56h11.44l.95-1.9a4.26 4.26 0 0 0-3.35-4.17l-2.79-.63a1.89 1.89 0 0 1-1.46-1.53c-.05-.24-.04-.5.02-.74s.16-.47.3-.68a1.88 1.88 0 0 1 1.98-.75l-.96-8.09Zm-1.14 6.53a3.83 3.83 0 0 0-2.11 3.85 3.82 3.82 0 0 0 2.95 3.27l2.79.63a2.34 2.34 0 0 1 1.86 2.31h-8.58V16.42a10 10 0 0 1 2.34 5.33l.75 6.32Zm-1.57 2.47h-1.91v1.9h1.91v-1.9Z"/></g></svg>