<svg xmlns="http://www.w3.org/2000/svg" width="64" height="56" viewBox="0 0 64 56"><path fill="#8991c0" d="M46.74 0H17.26c-.9 0-1.73.48-2.18 1.26L.34 26.74a2.52 2.52 0 0 0 0 2.52l14.74 25.48A2.52 2.52 0 0 0 17.26 56h29.48c.9 0 1.73-.48 2.18-1.26l14.74-25.48c.45-.78.45-1.74 0-2.52L48.92 1.26A2.52 2.52 0 0 0 46.74 0Z"/><path fill="#252628" fill-rule="evenodd" d="m33.96 9.3-6.31 35.96-3.11-.54 6.31-35.96 3.11.54Z"/><path fill="#252628" fill-rule="evenodd" d="m33.96 8.75 6.31 35.96-3.11.54-6.31-35.96 3.11-.54Z"/><path fill="#fff" fill-rule="evenodd" d="m22.06 17.78 1.56-.25 1.56-.25v-.04l.05.14c.05.15.16.41.37.74a8.85 8.85 0 0 0 2.84 2.67c3.24 2.08 9.73 4.36 22.52 4.36v3.15c-13.1 0-20.27-2.33-24.22-4.85a11.94 11.94 0 0 1-3.81-3.66c-.33-.53-.54-1-.66-1.35-.06-.18-.11-.32-.13-.44l-.03-.15-.01-.05v-.02Z"/><path fill="#fff" fill-rule="evenodd" d="m39.55 17.28 1.56.25 1.56.25v.03l-.01.05-.03.15a5.9 5.9 0 0 1-.79 1.79 12.05 12.05 0 0 1-3.81 3.66c-3.95 2.53-11.12 4.85-24.22 4.85v-3.15c12.78 0 19.28-2.28 22.52-4.36a8.96 8.96 0 0 0 2.84-2.67c.21-.33.32-.59.37-.74l.05-.14v.03Z"/><path fill="#252628" d="M31.16 8.81h2.49l-1.22.69-1.27-.69Z"/><path fill="#252628" fill-rule="evenodd" d="M42.84 19.11H21.97v-3.15h20.87v3.15Zm-5.85 23.65-9.67-10.22 2.29-2.17 9.67 10.22-2.29 2.17Z"/><path fill="#252628" fill-rule="evenodd" d="m25.57 40.59 9.67-10.22 2.29 2.17-9.67 10.22-2.29-2.17Z"/></svg>