<svg xmlns="http://www.w3.org/2000/svg" width="160" height="40" viewBox="0 0 160 40"><path fill="#111" d="M49.84 10.52V0h8.56v2.88h-4.65V4H58v2.4h-4.2v1.22h4.6v2.89Zm10.26 0v-8h3.06v.91a2.24 2.24 0 0 1 .84-.8 3.23 3.23 0 0 1 1.58-.33 2.54 2.54 0 0 1 2 .72 3 3 0 0 1 .68 2.13v5.34H64.9V5.86a1 1 0 0 0-.16-.62.58.58 0 0 0-.51-.24 1 1 0 0 0-.48.11.66.66 0 0 0-.27.3 1.17 1.17 0 0 0-.08.45v4.66Zm14.02.22a5.62 5.62 0 0 1-2.32-.45 3.54 3.54 0 0 1-1.56-1.35 4.22 4.22 0 0 1-.56-2.25v-.3a4.42 4.42 0 0 1 .53-2.26 3.39 3.39 0 0 1 1.5-1.35A5.33 5.33 0 0 1 74 2.33a4.37 4.37 0 0 1 3.23 1 4.15 4.15 0 0 1 1 3.08v.9H73a2 2 0 0 0 .15.56.82.82 0 0 0 .35.34 1.41 1.41 0 0 0 .59.11 1.08 1.08 0 0 0 .61-.14.93.93 0 0 0 .3-.29h3.15a3 3 0 0 1-1.26 2.16 4.92 4.92 0 0 1-2.77.69ZM74 4.7a1.08 1.08 0 0 0-.54.12.78.78 0 0 0-.32.33 1.3 1.3 0 0 0-.13.47H75a1.3 1.3 0 0 0-.13-.47.8.8 0 0 0-.3-.33.9.9 0 0 0-.57-.12Zm5.78 5.82v-8h3.07v.91a1.8 1.8 0 0 1 .31-.58 1.59 1.59 0 0 1 .55-.4 1.73 1.73 0 0 1 .73-.15h.38a1.06 1.06 0 0 1 .37.09V5.2a1.78 1.78 0 0 0-.46-.14 2.35 2.35 0 0 0-.51-.06 1.82 1.82 0 0 0-.68.11.62.62 0 0 0-.35.28 1 1 0 0 0-.1.47v4.66Zm10.79 3.23a5.76 5.76 0 0 1-2.3-.38 2.54 2.54 0 0 1-1.19-1 3.14 3.14 0 0 1-.42-1.37H90a.47.47 0 0 0 .22.24 1.12 1.12 0 0 0 .53.09 1 1 0 0 0 .71-.27 1.17 1.17 0 0 0 .27-.88v-.6a2.45 2.45 0 0 1-1 .73 3.07 3.07 0 0 1-1.23.24 3 3 0 0 1-1.58-.43 3.08 3.08 0 0 1-1.12-1.29 5 5 0 0 1-.44-2.23v-.29a5.33 5.33 0 0 1 .39-2.15 3.09 3.09 0 0 1 1.13-1.35 2.91 2.91 0 0 1 1.65-.48 3.34 3.34 0 0 1 1.6.3 2 2 0 0 1 .81.83v-.91H95v7.29a3.78 3.78 0 0 1-1 2.93 4.84 4.84 0 0 1-3.43.98Zm.12-5.83a1 1 0 0 0 .48-.12 1.08 1.08 0 0 0 .38-.41 1.54 1.54 0 0 0 .15-.72v-.45a1.41 1.41 0 0 0-.15-.69.86.86 0 0 0-.36-.39 1 1 0 0 0-.5-.14.87.87 0 0 0-.65.32 1.41 1.41 0 0 0-.28 1v.3a1.4 1.4 0 0 0 .3 1 .93.93 0 0 0 .63.3Zm7.91 5.83a2.3 2.3 0 0 1-.45-.05V11a2.28 2.28 0 0 0 .45 0 1.78 1.78 0 0 0 .4 0 .5.5 0 0 0 .27-.18 1.25 1.25 0 0 0 .19-.33l-3.15-8h3.53l1.41 4.21 1.29-4.21h3.08l-2.85 8a7.08 7.08 0 0 1-.93 1.83 3.1 3.1 0 0 1-1.31 1.05 4.89 4.89 0 0 1-1.93.38ZM52.2 25.54v-7.33h-2.36V15h8.56v3.19h-2.24v7.33Zm8.72 0v-8H64v.9a1.78 1.78 0 0 1 .32-.57 1.68 1.68 0 0 1 .54-.41 1.78 1.78 0 0 1 .74-.15h.37a1.12 1.12 0 0 1 .38.09v2.75a1.88 1.88 0 0 0-.47-.13 2.35 2.35 0 0 0-.51-.06 1.88 1.88 0 0 0-.68.1.62.62 0 0 0-.34.29 1 1 0 0 0-.11.46v4.66Zm8.91.23a3.07 3.07 0 0 1-1.47-.33 2.36 2.36 0 0 1-.91-.92 2.62 2.62 0 0 1-.32-1.31 2.44 2.44 0 0 1 .74-1.88 3.34 3.34 0 0 1 2.34-.69h1.73v-.21a.71.71 0 0 0-.17-.54.57.57 0 0 0-.43-.16.77.77 0 0 0-.42.09.45.45 0 0 0-.18.24h-3.16a2.58 2.58 0 0 1 1.71-2.35 5.42 5.42 0 0 1 2.12-.36 5.48 5.48 0 0 1 2 .33 2.7 2.7 0 0 1 1.36 1.07 3.5 3.5 0 0 1 .49 2v3.89c0 .32.07.62.12.92h-3.14a3.07 3.07 0 0 1-.11-.36 2.58 2.58 0 0 1 0-.54 2.7 2.7 0 0 1-.75.8 2.73 2.73 0 0 1-1.55.31Zm1.28-2.38a1.06 1.06 0 0 0 .47-.09.66.66 0 0 0 .27-.28 1.14 1.14 0 0 0 .09-.48v-.15h-.83a.67.67 0 0 0-.43.12.42.42 0 0 0-.16.37.47.47 0 0 0 .16.39.67.67 0 0 0 .43.12ZM77 25.54v-8h3.07v.9a2.24 2.24 0 0 1 .84-.8 3.19 3.19 0 0 1 1.57-.33 2.55 2.55 0 0 1 2 .72 3 3 0 0 1 .67 2.14v5.33h-3.3v-4.62a1 1 0 0 0-.17-.61.58.58 0 0 0-.51-.24 1 1 0 0 0-.48.1.66.66 0 0 0-.27.3 1.18 1.18 0 0 0-.07.45v4.66Zm13.58.23a6.18 6.18 0 0 1-1.86-.24 3.43 3.43 0 0 1-1.19-.63 3.09 3.09 0 0 1-.69-.91 4.16 4.16 0 0 1-.32-1h3.31a.47.47 0 0 0 .16.28 1 1 0 0 0 .59.12 1.61 1.61 0 0 0 .62-.07.3.3 0 0 0 .13-.27.17.17 0 0 0-.1-.15 1.42 1.42 0 0 0-.44-.15q-.32-.09-1-.21a10.89 10.89 0 0 1-1.07-.24 4.38 4.38 0 0 1-1-.41 2 2 0 0 1-1-1.83 2.37 2.37 0 0 1 .45-1.46 2.88 2.88 0 0 1 1.32-.92 5.74 5.74 0 0 1 2.06-.33 4.64 4.64 0 0 1 2.15.42 2.59 2.59 0 0 1 1.17 1.06 3 3 0 0 1 .44 1.3H91a.36.36 0 0 0-.17-.31.6.6 0 0 0-.36-.09.65.65 0 0 0-.36.07.23.23 0 0 0-.09.18.35.35 0 0 0 .21.29 3.5 3.5 0 0 0 .91.19 8.67 8.67 0 0 1 1.09.24 4.67 4.67 0 0 1 1.14.45 2.53 2.53 0 0 1 .89.76 1.86 1.86 0 0 1 .35 1.14 2.32 2.32 0 0 1-.5 1.5 3 3 0 0 1-1.38.92 7 7 0 0 1-2.15.3Zm5.52 2.78v-11h3.06v.9a2 2 0 0 1 .81-.83 3.41 3.41 0 0 1 1.61-.3 2.82 2.82 0 0 1 2.28 1 4.58 4.58 0 0 1 .88 3v.3a5.3 5.3 0 0 1-.44 2.3 3 3 0 0 1-1.14 1.34 3.09 3.09 0 0 1-1.58.42 3 3 0 0 1-1.25-.26 2.38 2.38 0 0 1-.93-.8v3.84Zm4.31-5.46a.87.87 0 0 0 .61-.3 1.5 1.5 0 0 0 .32-1.08v-.3a1.59 1.59 0 0 0-.29-1.07.86.86 0 0 0-.66-.31 1 1 0 0 0-.49.13.94.94 0 0 0-.36.42 1.76 1.76 0 0 0-.14.75v.46a1.69 1.69 0 0 0 .15.76 1 1 0 0 0 .38.42 1.07 1.07 0 0 0 .48.12Zm8.2 2.68a3.11 3.11 0 0 1-1.48-.33 2.36 2.36 0 0 1-.91-.92 2.73 2.73 0 0 1-.32-1.31 2.48 2.48 0 0 1 .74-1.88 3.34 3.34 0 0 1 2.34-.69h1.73v-.21a.71.71 0 0 0-.17-.54.57.57 0 0 0-.43-.16.77.77 0 0 0-.42.09.45.45 0 0 0-.18.24h-3.16a2.58 2.58 0 0 1 1.71-2.35 5.45 5.45 0 0 1 2.12-.36 5.53 5.53 0 0 1 2 .33 2.72 2.72 0 0 1 1.35 1.07 3.5 3.5 0 0 1 .49 2v3.89c0 .32.07.62.12.92H111a3.07 3.07 0 0 1-.11-.36 2.58 2.58 0 0 1 0-.54 2.23 2.23 0 0 1-2.25 1.13Zm1.27-2.38a1.06 1.06 0 0 0 .47-.09.66.66 0 0 0 .27-.28 1.14 1.14 0 0 0 .09-.48v-.15h-.83a.67.67 0 0 0-.43.12.44.44 0 0 0-.15.37.5.5 0 0 0 .15.39.67.67 0 0 0 .43.12Zm5.9 2.15v-8h3.07v.9a1.76 1.76 0 0 1 .31-.57 1.68 1.68 0 0 1 .54-.41 1.78 1.78 0 0 1 .74-.15h.38a1.06 1.06 0 0 1 .37.09v2.75a1.79 1.79 0 0 0-.46-.13 2.35 2.35 0 0 0-.51-.06 1.81 1.81 0 0 0-.68.1.64.64 0 0 0-.35.29 1 1 0 0 0-.1.46v4.66Zm8.92.23a3.07 3.07 0 0 1-1.47-.33 2.39 2.39 0 0 1-.92-.92 2.73 2.73 0 0 1-.32-1.31 2.48 2.48 0 0 1 .74-1.88 3.34 3.34 0 0 1 2.34-.69h1.73v-.21a.71.71 0 0 0-.16-.54.6.6 0 0 0-.44-.16.77.77 0 0 0-.42.09.45.45 0 0 0-.18.24h-3.16a2.61 2.61 0 0 1 .46-1.38 2.68 2.68 0 0 1 1.26-1 5.39 5.39 0 0 1 2.12-.36 5.48 5.48 0 0 1 2 .33 2.72 2.72 0 0 1 1.35 1.07 3.5 3.5 0 0 1 .5 2v3.89c0 .32.07.62.12.92h-3.15a3.1 3.1 0 0 1-.1-.36 2.47 2.47 0 0 1 0-.54 2.23 2.23 0 0 1-2.25 1.13Zm1.3-2.38a1 1 0 0 0 .46-.09.66.66 0 0 0 .27-.28 1.14 1.14 0 0 0 .09-.48v-.15H126a.68.68 0 0 0-.44.12.44.44 0 0 0-.15.37.5.5 0 0 0 .15.39.68.68 0 0 0 .44.12Zm5.88 2.15v-8h3.06v.9a2.24 2.24 0 0 1 .84-.8 3.23 3.23 0 0 1 1.58-.33 2.54 2.54 0 0 1 1.95.72 3 3 0 0 1 .68 2.14v5.33h-3.31v-4.62a1 1 0 0 0-.16-.61.58.58 0 0 0-.52-.27 1 1 0 0 0-.48.1.66.66 0 0 0-.27.3 1.17 1.17 0 0 0-.08.45v4.66Zm13.79.23a4.61 4.61 0 0 1-2.22-.51A3.71 3.71 0 0 1 142 23.8a4.43 4.43 0 0 1-.51-2.17v-.3a4 4 0 0 1 .51-2 3.68 3.68 0 0 1 1.48-1.42 4.61 4.61 0 0 1 2.22-.51 5.25 5.25 0 0 1 2.42.47 2.85 2.85 0 0 1 1.29 1.28 4.49 4.49 0 0 1 .5 1.78h-3.1a1 1 0 0 0-.28-.66.91.91 0 0 0-.61-.19 1.05 1.05 0 0 0-.57.15.93.93 0 0 0-.34.45 1.79 1.79 0 0 0-.12.7v.3a2.74 2.74 0 0 0 .1.82 1 1 0 0 0 .35.49 1.06 1.06 0 0 0 .58.15 1 1 0 0 0 .59-.18 1 1 0 0 0 .3-.67h3.1a4.4 4.4 0 0 1-.53 1.89 2.85 2.85 0 0 1-1.38 1.17 5.51 5.51 0 0 1-2.33.42Zm7.27 3a2.28 2.28 0 0 1-.45 0v-2.72a2.3 2.3 0 0 0 .45.05 1.63 1.63 0 0 0 .43-.05.5.5 0 0 0 .27-.18 1.25 1.25 0 0 0 .2-.33l-3.16-8h3.54l1.41 4.21 1.29-4.21H160l-2.85 8a7.41 7.41 0 0 1-.94 1.83 3.09 3.09 0 0 1-1.3 1.06 4.9 4.9 0 0 1-1.97.34Zm-100.74 11V29.26h4v10.51Zm5.95 0v-8h3.07v.9a2.22 2.22 0 0 1 .84-.79 3.19 3.19 0 0 1 1.57-.33 2.55 2.55 0 0 1 2 .72 3 3 0 0 1 .67 2.13v5.33H63v-4.61a1 1 0 0 0-.17-.62.58.58 0 0 0-.51-.24 1 1 0 0 0-.48.11.66.66 0 0 0-.27.3 1.18 1.18 0 0 0-.07.45v4.65Zm12.74.23a2.84 2.84 0 0 1-2.72-1.76 5.32 5.32 0 0 1-.43-2.31v-.29a5.41 5.41 0 0 1 .4-2.22 3.12 3.12 0 0 1 1.11-1.37 3 3 0 0 1 1.64-.46 2.77 2.77 0 0 1 1.23.27 2.31 2.31 0 0 1 .95.78v-3.38h3.31v10.51h-3.07v-.9a2.08 2.08 0 0 1-.81.83 3.41 3.41 0 0 1-1.61.3Zm1.17-2.67a1 1 0 0 0 .48-.12 1 1 0 0 0 .38-.43 1.69 1.69 0 0 0 .15-.76v-.45a1.61 1.61 0 0 0-.15-.75.94.94 0 0 0-.36-.42 1 1 0 0 0-.5-.14.85.85 0 0 0-.64.32 1.56 1.56 0 0 0-.29 1.06v.3a1.6 1.6 0 0 0 .3 1.09.93.93 0 0 0 .63.3ZM82.35 40a5.6 5.6 0 0 1-2.35-.45 3.56 3.56 0 0 1-1.57-1.35 4.25 4.25 0 0 1-.55-2.26v-.3a4.41 4.41 0 0 1 .52-2.25A3.41 3.41 0 0 1 80 32a5.32 5.32 0 0 1 2.25-.45 4.37 4.37 0 0 1 3.23 1.05 4.15 4.15 0 0 1 1 3.08v.9h-5.21a2 2 0 0 0 .15.56.8.8 0 0 0 .34.34 1.41 1.41 0 0 0 .59.11 1.11 1.11 0 0 0 .62-.14.9.9 0 0 0 .28-.34h3.16a3 3 0 0 1-1.27 2.16 4.92 4.92 0 0 1-2.79.73Zm-.08-6a1.08 1.08 0 0 0-.54.12.76.76 0 0 0-.31.33 1.3 1.3 0 0 0-.14.47h1.93a1.3 1.3 0 0 0-.14-.47.8.8 0 0 0-.3-.33.88.88 0 0 0-.5-.12Zm4.81 5.77 2.11-4.13-2-3.83h3.58l.84 1.94.8-1.94H96l-2 3.76 2.11 4.2h-3.59l-1-2.29-.93 2.29Z"/><path fill="#008279" d="M23.36 15.68h2.87a.48.48 0 0 0 0-1h-2.87a.48.48 0 0 0 0 1Zm-4.29 9.12a.47.47 0 0 0-.48-.48h-2.86a.48.48 0 0 0 0 1h2.86a.47.47 0 0 0 .48-.52Zm6.68-7.68a.47.47 0 0 0 .48.48h.95a.48.48 0 1 0 0-1h-.95a.47.47 0 0 0-.48.52Zm0 7.68a.47.47 0 0 0 .48.48h.95a.48.48 0 1 0 0-1h-.95a.47.47 0 0 0-.48.52Zm-11.93-2.4h-1a.48.48 0 0 0 0 1h1a.47.47 0 0 0 .47-.48.46.46 0 0 0-.47-.52Zm1.91.96a.5.5 0 0 0 .33-.14.48.48 0 0 0 0-.68.46.46 0 0 0-.51-.1.44.44 0 0 0-.16.1.48.48 0 0 0 0 .68.48.48 0 0 0 .34.14Zm-.48-8.16a.47.47 0 0 0-.48-.48h-.95a.48.48 0 0 0 0 1h.95a.47.47 0 0 0 .48-.52Z"/><path fill="#fff" fill-rule="evenodd" d="M11.56 21.44h4.35a.77.77 0 0 1 .54.22.74.74 0 0 1 .23.55 1.63 1.63 0 0 0 1.61 1.63h1.86a.35.35 0 0 1 .35.35v.48a.36.36 0 0 1-.24.34l-.3.1a1.31 1.31 0 0 0-.9 1.24.36.36 0 0 1-.35.36h-4.32a9.06 9.06 0 0 1-2.83-5.27Zm7 2.88a.48.48 0 0 1 0 1h-2.83a.48.48 0 0 1 0-1Zm-5.7-1.92h1a.46.46 0 0 1 .47.48.47.47 0 0 1-.47.48h-1a.48.48 0 0 1 0-1Zm3.05.92a.39.39 0 0 1-.18 0 .48.48 0 0 1-.34-.14.48.48 0 0 1 0-.68.44.44 0 0 1 .16-.1.46.46 0 0 1 .51.1.48.48 0 0 1 0 .68.4.4 0 0 1-.15.14Z"/><path fill="#fff" fill-rule="evenodd" d="M20.5 32c-8.95 0-16.57-9.42-18.32-11.75a.42.42 0 0 1 0-.5C3.93 17.41 11.54 8 20.5 8s16.57 9.42 18.32 11.75a.42.42 0 0 1 0 .5C37.07 22.59 29.46 32 20.5 32Zm6.67-19.5a10.08 10.08 0 0 1 3.31 6.5v1a10.32 10.32 0 0 1-.3 2.44.48.48 0 0 1 0 .17 10.18 10.18 0 0 1-3 4.89l-.09.08a9.91 9.91 0 0 1-13.16 0 .27.27 0 0 1-.08-.07A10.06 10.06 0 0 1 10.52 21v-1a10.24 10.24 0 0 1 .3-2.43.53.53 0 0 1 .05-.18 10.18 10.18 0 0 1 3-4.89.27.27 0 0 1 .08-.07 9.91 9.91 0 0 1 13.16 0Z"/><path fill="#fff" d="M29.36 21.92H26.7a1.91 1.91 0 0 0-1.9 1.92 1.37 1.37 0 0 0-1 .42 1.44 1.44 0 0 0-.43 1v.48a1.92 1.92 0 0 0 1.91 1.92h.1a9 9 0 0 1-9.74 0h3.08a1.31 1.31 0 0 0 1.28-1.3.35.35 0 0 1 .24-.33l.31-.1a1.32 1.32 0 0 0 .89-1.25v-.48a1.3 1.3 0 0 0-1.3-1.31H18.3a.68.68 0 0 1-.66-.68 1.78 1.78 0 0 0-.51-1.21 1.68 1.68 0 0 0-1.22-.5h-4.46v-.17a3 3 0 0 1 0-.31 9.33 9.33 0 0 1 .21-1.92h2.66a1.91 1.91 0 0 0 1.9-1.92 1.39 1.39 0 0 0 1-.42 1.41 1.41 0 0 0 .44-1v-.48a1.92 1.92 0 0 0-1.91-1.92h-.1a9 9 0 0 1 9.74 0h-3.1A1.31 1.31 0 0 0 21 13.64a.35.35 0 0 1-.24.33l-.31.1a1.32 1.32 0 0 0-.89 1.25v.48a1.31 1.31 0 0 0 1.3 1.31h1.85a.67.67 0 0 1 .66.67 1.78 1.78 0 0 0 .49 1.22 1.68 1.68 0 0 0 1.21.5h4.46a.53.53 0 0 1 0 .13 3 3 0 0 1 0 .31 8.72 8.72 0 0 1-.17 1.98Z"/><path fill="#008279" fill-rule="evenodd" d="M30.48 19a10.08 10.08 0 0 0-3.31-6.54l-.08-.08a9.91 9.91 0 0 0-13.16 0 .27.27 0 0 0-.08.07 10.18 10.18 0 0 0-3 4.89.53.53 0 0 0-.05.18 10.24 10.24 0 0 0-.3 2.43v1a10.06 10.06 0 0 0 3.31 6.54.27.27 0 0 0 .08.07 9.91 9.91 0 0 0 13.16 0l.09-.08a10.18 10.18 0 0 0 3-4.89.48.48 0 0 0 0-.17 10.32 10.32 0 0 0 .3-2.44c.08-.31.06-.62.04-.98Zm-5.4-.48h4.36a9.11 9.11 0 0 0-2.82-5.27h-4.33a.35.35 0 0 0-.35.35 1.31 1.31 0 0 1-.9 1.25l-.3.1a.35.35 0 0 0-.24.33v.48a.36.36 0 0 0 .35.36h1.85a1.63 1.63 0 0 1 1.62 1.63.75.75 0 0 0 .76.77Zm-9.35-5.28h-1.34a9.17 9.17 0 0 0-2.49 3.84h2.4a1 1 0 0 0 .95-1 1 1 0 0 1 .95-1 .51.51 0 0 0 .34-.13.54.54 0 0 0 .14-.35v-.48a1 1 0 0 0-.95-.84Zm.18 8.16h-4.35a9.06 9.06 0 0 0 2.83 5.27h4.32a.36.36 0 0 0 .35-.36 1.31 1.31 0 0 1 .9-1.24l.3-.1a.36.36 0 0 0 .24-.34v-.48a.35.35 0 0 0-.35-.35h-1.86a1.63 1.63 0 0 1-1.61-1.63.74.74 0 0 0-.23-.55.77.77 0 0 0-.54-.18Zm9.36 5.28h1.34a9.17 9.17 0 0 0 2.49-3.84h-2.39a1 1 0 0 0-1 1 1 1 0 0 1-.95 1 .51.51 0 0 0-.34.13.54.54 0 0 0-.14.35v.48a1 1 0 0 0 .99.92Zm1.43-4.8h2.66a8.72 8.72 0 0 0 .2-1.93 3 3 0 0 0 0-.31.53.53 0 0 0 0-.13h-4.49a1.68 1.68 0 0 1-1.21-.5 1.78 1.78 0 0 1-.51-1.23.67.67 0 0 0-.66-.67h-1.85a1.31 1.31 0 0 1-1.3-1.31v-.48a1.32 1.32 0 0 1 .89-1.25l.31-.1a.35.35 0 0 0 .24-.33 1.31 1.31 0 0 1 1.31-1.32h3.08a9 9 0 0 0-9.74 0h.1a1.92 1.92 0 0 1 1.91 1.92v.48a1.41 1.41 0 0 1-.44 1 1.39 1.39 0 0 1-1 .42 1.91 1.91 0 0 1-1.9 1.92h-2.67a9.33 9.33 0 0 0-.21 1.94 3 3 0 0 0 0 .31v.17h4.46a1.68 1.68 0 0 1 1.22.5 1.78 1.78 0 0 1 .51 1.23.68.68 0 0 0 .66.68h1.86a1.3 1.3 0 0 1 1.3 1.31v.48a1.32 1.32 0 0 1-.89 1.25l-.31.1a.35.35 0 0 0-.24.33 1.31 1.31 0 0 1-1.31 1.32h-3.05a9 9 0 0 0 9.74 0h-.1a1.92 1.92 0 0 1-1.91-1.92v-.48a1.44 1.44 0 0 1 .43-1 1.37 1.37 0 0 1 1-.42 1.91 1.91 0 0 1 1.91-1.94Z"/><path fill="#008279" fill-rule="evenodd" d="m37.63 8.36-14.5-7.08a6 6 0 0 0-5.26 0L3.37 8.36A6 6 0 0 0 0 13.75v12.5a6 6 0 0 0 3.37 5.39l14.5 7.08a6 6 0 0 0 5.26 0l14.5-7.08A6 6 0 0 0 41 26.25v-12.5a6 6 0 0 0-3.37-5.39ZM20.5 32c-8.95 0-16.57-9.42-18.32-11.75a.42.42 0 0 1 0-.5C3.93 17.41 11.54 8 20.5 8s16.57 9.42 18.32 11.75a.42.42 0 0 1 0 .5C37.07 22.59 29.46 32 20.5 32Zm-1.91-7.68a.48.48 0 0 1 0 1h-2.86a.48.48 0 0 1 0-1Zm-5.73-1.92h1a.46.46 0 0 1 .47.48.47.47 0 0 1-.47.48h-1a.48.48 0 0 1 0-1Zm3.05.92a.39.39 0 0 1-.18 0 .48.48 0 0 1-.34-.14.48.48 0 0 1 0-.68.44.44 0 0 1 .16-.1.46.46 0 0 1 .51.1.48.48 0 0 1 0 .68.4.4 0 0 1-.15.14Zm7.45-7.64h2.87a.48.48 0 0 0 0-1h-2.87a.48.48 0 0 0 0 1Zm2.39 1.44a.47.47 0 0 0 .48.48h.95a.48.48 0 1 0 0-1h-.95a.47.47 0 0 0-.48.52Zm-11-2.4a.48.48 0 1 1 0 1h-.95a.48.48 0 0 1 0-1Zm11 10.08a.47.47 0 0 0 .48.48h.95a.48.48 0 1 0 0-1h-.95a.47.47 0 0 0-.48.52Z"/></svg>