<svg width="690" height="438" viewBox="0 0 690 438" fill="none" xmlns="http://www.w3.org/2000/svg">
<path d="M673.577 151.711C665.733 123.342 613.444 154.2 613.444 154.2L627.131 129.27C628.753 126.801 630.216 124.182 631.461 121.373C638.329 105.939 638.239 89.4353 631.421 75.0509C629.549 66.3242 623.866 53.8491 608.208 40.1744C578.574 14.3144 479.222 -3.3787 450.465 0.549777C421.707 4.47825 476.614 16.6335 476.614 16.6335L472.264 16.5935C388.5 7.67701 304.219 6.52746 220.594 8.26678C199.621 8.70661 178.588 9.39634 158.062 12.955C152.15 13.9746 145.799 15.544 142.285 20.3321C126.677 41.5938 190.533 43.663 200.547 43.2532C191.57 44.4256 182.389 45.4312 173.113 46.4353C172.495 46.5023 171.876 46.5692 171.257 46.6362C135.788 50.4728 99.0475 54.4469 67.1614 67.7537C61.4676 70.1328 55.8336 72.9417 51.5433 77.34C47.2531 81.7383 45.5808 87.8959 45.4315 94.2334C46.9298 103.944 54.7381 110.007 63.846 114.163C70.2031 116.88 77.2369 118.915 83.2608 120.658C84.6875 121.071 86.0573 121.467 87.3483 121.853C87.3483 121.853 6.00322 176.172 15.589 203.741C19.5508 215.136 25.4635 227.132 36.4031 238.947C30.1619 246.814 24.6672 255.071 20.4268 263.798C19.145 266.431 17.6671 269.546 16.8476 272.764C16.5913 273.771 16.3993 274.787 16.298 275.802C84.5332 315.29 211.297 341.697 347.898 341.697C461.828 341.697 564.245 324.401 635.034 296.879C651.387 278.358 663.963 256.851 669.047 232.95C669.396 231.32 669.645 229.741 669.824 228.211C676.344 205.44 680.156 175.452 673.596 151.721L673.577 151.711Z" fill="#CCECEA"/>
<path d="M528.02 120.713C528.02 120.713 529.035 117.654 534.111 116.635C539.188 115.615 545.28 121.223 545.28 121.223C545.28 121.223 549.341 113.066 553.403 112.556C557.464 112.047 562.033 115.615 562.033 115.615" stroke="#2B3135" stroke-miterlimit="10"/>
<path d="M514.809 140.096C514.809 140.096 515.824 137.037 520.901 136.017C525.977 134.998 532.069 140.605 532.069 140.605C532.069 140.605 536.13 132.449 540.192 131.939C544.253 131.429 548.822 134.998 548.822 134.998" stroke="#2B3135" stroke-miterlimit="10"/>
<path d="M563.055 140.216C563.055 140.216 563.831 137.886 567.693 137.107C571.555 136.327 576.194 140.605 576.194 140.605C576.194 140.605 579.29 134.398 582.376 134.008C585.471 133.618 588.945 136.337 588.945 136.337" stroke="#2B3135" stroke-miterlimit="10"/>
<path d="M619.496 160.748C619.496 160.748 620.004 159.218 622.542 158.708C625.08 158.199 628.116 160.998 628.116 160.998C628.116 160.998 630.147 156.919 632.168 156.669C634.198 156.419 636.478 158.199 636.478 158.199" stroke="#2B3135" stroke-miterlimit="10"/>
<path d="M349.022 115.305C343.776 91.6244 316.591 73.9813 292.91 77.36C287.007 78.1997 281.264 80.4188 276.824 84.5172C270.772 90.105 272.206 96.4526 269.219 103.38C268.383 105.299 266.771 107.008 264.71 107.368C258.817 108.378 254.069 102.48 248.107 102.44C243.647 102.41 237.943 104.879 235.455 108.748C233.136 112.346 234.748 118.634 230.587 121.023C225.929 123.702 220.255 118.614 215.208 120.453C208.947 122.742 211.794 127.311 209.514 130.179C207.235 133.038 202.686 131.899 196.415 131.319C190.154 130.749 185.027 138.176 185.027 138.176H382.627C382.627 138.176 384.339 135.317 376.933 123.882C369.527 112.446 359.284 120.453 354.725 120.453C350.166 120.453 349.032 115.315 349.032 115.305H349.022Z" stroke="#2B3135" stroke-miterlimit="10"/>
<path d="M404.049 77.28C401.939 67.7837 391.039 60.6964 381.533 62.0559C379.164 62.3958 376.864 63.2854 375.082 64.9248C372.654 67.1639 373.231 69.7129 372.026 72.4919C371.688 73.2616 371.041 73.9513 370.215 74.0912C367.856 74.5011 365.945 72.132 363.556 72.112C361.764 72.102 359.474 73.0916 358.479 74.641C357.553 76.0905 358.2 78.6095 356.528 79.5691C354.657 80.6387 352.387 78.5995 350.356 79.3392C347.848 80.2588 348.983 82.0881 348.067 83.2377C347.151 84.3872 345.33 83.9274 342.811 83.6975C340.303 83.4676 338.242 86.4464 338.242 86.4464H417.517C417.517 86.4464 418.204 85.2969 415.227 80.7087C412.261 76.1204 408.15 79.3292 406.318 79.3292C404.487 79.3292 404.039 77.27 404.029 77.26L404.049 77.28Z" stroke="#2B3135" stroke-miterlimit="10"/>
<path d="M573.178 193.695C571.068 184.199 560.168 177.111 550.662 178.471C548.293 178.811 545.993 179.7 544.211 181.34C541.782 183.579 542.36 186.128 541.155 188.907C540.817 189.676 540.17 190.366 539.344 190.506C536.985 190.916 535.073 188.547 532.684 188.527C530.893 188.517 528.603 189.506 527.608 191.056C526.682 192.505 527.329 195.024 525.657 195.984C523.785 197.054 521.516 195.014 519.485 195.754C516.977 196.674 518.112 198.503 517.196 199.653C516.28 200.802 514.458 200.342 511.94 200.112C509.432 199.882 507.371 202.861 507.371 202.861H586.646C586.646 202.861 587.333 201.712 584.356 197.124C581.39 192.535 577.279 195.744 575.447 195.744C573.616 195.744 573.168 193.685 573.158 193.675L573.178 193.695Z" stroke="#2B3135" stroke-miterlimit="10"/>
<path d="M446.014 183.299C442.789 168.744 426.086 157.909 411.533 159.988C407.91 160.508 404.376 161.867 401.649 164.386C397.936 167.825 398.812 171.723 396.97 175.972C396.463 177.151 395.467 178.201 394.193 178.421C390.57 179.04 387.653 175.422 383.99 175.392C381.253 175.372 377.749 176.891 376.216 179.27C374.792 181.48 375.788 185.348 373.22 186.817C370.353 188.457 366.869 185.338 363.773 186.468C359.921 187.877 361.673 190.686 360.269 192.445C358.866 194.205 356.069 193.495 352.216 193.145C348.364 192.795 345.219 197.363 345.219 197.363H466.639C466.639 197.363 467.684 195.604 463.135 188.577C458.586 181.549 452.285 186.468 449.488 186.468C446.691 186.468 445.994 183.309 445.984 183.309L446.014 183.299Z" stroke="#2B3135" stroke-miterlimit="10"/>
<path d="M474.575 350.924C474.575 350.924 467.319 343.377 469.359 343.597C471.4 343.817 475.212 349.474 475.212 349.474C475.212 349.474 475.262 337.029 477.074 339.758C478.885 342.487 476.656 349.534 476.656 349.534C476.656 349.534 481.832 341.427 481.822 342.747C481.782 346.845 477.83 350.054 477.83 350.054C477.83 350.054 486.122 343.887 484.758 346.386C483.405 348.885 478.099 351.254 478.099 351.254C478.099 351.254 487.655 349.314 484.261 350.684C480.866 352.043 477.631 352.983 477.631 352.983H474.993C474.993 352.983 465.975 348.435 469.369 349.114C472.764 349.794 474.575 350.934 474.575 350.934V350.924Z" fill="#2B3135"/>
<path d="M570.423 327.303C570.423 327.303 564.779 321.425 566.362 321.605C567.945 321.785 570.911 326.173 570.911 326.173C570.911 326.173 570.951 316.487 572.364 318.606C573.778 320.726 572.046 326.213 572.046 326.213C572.046 326.213 576.077 319.906 576.067 320.935C576.038 324.124 572.962 326.623 572.962 326.623C572.962 326.623 579.412 321.825 578.357 323.774C577.302 325.724 573.171 327.563 573.171 327.563C573.171 327.563 580.607 326.053 577.969 327.113C575.331 328.173 572.812 328.902 572.812 328.902H570.762C570.762 328.902 563.744 325.364 566.382 325.894C569.02 326.423 570.433 327.313 570.433 327.313L570.423 327.303Z" fill="#2B3135"/>
<path d="M659.404 306.221C659.404 306.221 653.76 300.343 655.343 300.523C656.925 300.703 659.892 305.092 659.892 305.092C659.892 305.092 659.931 295.405 661.345 297.525C662.758 299.644 661.026 305.132 661.026 305.132C661.026 305.132 665.058 298.824 665.048 299.854C665.018 303.042 661.942 305.541 661.942 305.541C661.942 305.541 668.392 300.743 667.337 302.693C666.282 304.642 662.151 306.481 662.151 306.481C662.151 306.481 669.587 304.972 666.949 306.031C664.311 307.091 661.793 307.821 661.793 307.821H659.742C659.742 307.821 652.725 304.282 655.363 304.812C658 305.342 659.414 306.231 659.414 306.231L659.404 306.221Z" fill="#2B3135"/>
<path d="M545.995 354.372C545.995 354.372 539.246 347.355 541.138 347.565C543.029 347.775 546.572 353.023 546.572 353.023C546.572 353.023 546.622 341.447 548.304 343.987C549.987 346.526 547.916 353.073 547.916 353.073C547.916 353.073 552.724 345.536 552.714 346.765C552.684 350.574 549.011 353.553 549.011 353.553C549.011 353.553 556.716 347.825 555.452 350.144C554.187 352.473 549.26 354.662 549.26 354.662C549.26 354.662 558.139 352.863 554.984 354.133C551.828 355.402 548.822 356.272 548.822 356.272H546.363C546.363 356.272 537.972 352.043 541.128 352.683C544.283 353.313 545.965 354.372 545.965 354.372H545.995Z" fill="#008279"/>
<path d="M412.48 323.914L352.795 256.71L339.715 267.216L274.277 168.265L217.31 181.02L200.278 149.062L183.714 148.183L152.339 86.0466L105.415 129.04L82.7795 120.933L0.359375 205.33" stroke="#2B3135" stroke-miterlimit="10"/>
<path d="M423.679 336.519L417.418 329.472" stroke="#2B3135" stroke-miterlimit="10"/>
<path d="M186.722 189.237L181.785 190.577" stroke="#2B3135" stroke-miterlimit="10"/>
<path d="M217.189 180.95L192.273 187.727" stroke="#2B3135" stroke-miterlimit="10"/>
<path d="M123.184 152.181L137.139 131.499L136.194 124.402L152.21 91.7644" stroke="#2B3135" stroke-miterlimit="10"/>
<path d="M117.359 160.828L120.853 155.64" stroke="#2B3135" stroke-miterlimit="10"/>
<path d="M95.6999 173.063L73.0742 203.871" stroke="#2B3135" stroke-miterlimit="10"/>
<path d="M83.9141 124.402L89.568 137.177L102.279 147.583L100.866 166.026L97.7901 170.224" stroke="#2B3135" stroke-miterlimit="10"/>
<path d="M200.278 149.062L188.483 160.348L184.242 153.251" stroke="#2B3135" stroke-miterlimit="10"/>
<path d="M676.382 275.493L584.784 210.618L556.982 250.033L522.631 238.537L469.476 313.268L435.124 305.881L417.953 320.666" stroke="#2B3135" stroke-miterlimit="10"/>
<path d="M584.785 210.618L573.895 258.69L561.055 253.042" stroke="#2B3135" stroke-miterlimit="10"/>
<path d="M522.929 241.356L496.033 319.946L477.578 316.727" stroke="#2B3135" stroke-miterlimit="10"/>
<path d="M521.685 235.739C497.844 235.739 478.523 255.011 478.523 278.782C478.523 289.808 482.674 299.854 489.513 307.471C492.638 307.021 498.332 306.701 504.633 308.85C512.975 311.699 518.171 316.367 519.315 317.457H523.188C524.322 316.367 529.528 311.699 537.87 308.85C544.728 306.511 550.87 307.091 553.757 307.591C560.655 299.964 564.856 289.858 564.856 278.782C564.856 255.011 545.535 235.739 521.694 235.739H521.685Z" fill="#008279"/>
<path d="M541.77 296.055C540.447 296.705 539.123 297.365 537.829 298.064C536.525 298.774 535.251 299.554 534.056 300.403C533.608 300.713 533.16 301.043 532.722 301.363L539.79 288.138L530.084 303.392C529.099 304.182 528.133 305.002 527.188 305.821C525.625 307.191 524.102 308.59 522.609 310.02L522.121 295.675L532.274 280.161L522.051 293.506L521.613 280.661L520.887 295.035L520.16 309.44C518.866 308.21 517.542 307.001 516.188 305.821C515.123 304.892 514.038 303.982 512.933 303.092L503.756 287.348L510.495 301.233C510.106 300.953 509.718 300.663 509.33 300.393C508.135 299.544 506.861 298.774 505.557 298.054C504.263 297.355 502.939 296.695 501.615 296.045C498.958 294.766 496.25 293.566 493.453 292.576C496.171 293.736 498.779 295.085 501.327 296.515C502.601 297.235 503.855 297.974 505.089 298.744C506.304 299.514 507.478 300.333 508.583 301.233C510.823 303.012 512.903 304.952 514.914 306.951C516.676 308.7 518.378 310.519 520.011 312.359L519.085 330.642H523.335L522.738 313.108C524.56 311.009 526.501 308.95 528.492 306.961C530.502 304.962 532.593 303.012 534.822 301.243C535.937 300.343 537.102 299.524 538.316 298.754C539.551 297.984 540.805 297.245 542.079 296.525C544.627 295.095 547.235 293.736 549.953 292.586C547.156 293.576 544.448 294.776 541.79 296.055H541.77Z" fill="#2B3135"/>
<path d="M190.323 294.806C190.323 307.171 183.414 308.11 174.894 308.11C166.373 308.11 159.465 307.181 159.465 294.806C159.465 282.43 166.373 256.58 174.894 256.58C183.414 256.58 190.323 282.43 190.323 294.806Z" fill="#008279"/>
<path d="M180.11 300.423L177.562 300.593L184.211 296.095L179.463 298.504L180.11 296.625L177.94 299.274L175.392 300.573L175.193 291.687L176.546 288.398L175.163 290.247L175.043 285.099L179.274 279.442L175.014 283.82L174.755 272.484L174.526 279.731L171.818 276.703L174.486 281.131L174.128 292.616L171.768 291.067L169.608 287.239L170.474 290.227L166.254 287.448L174.078 294.226L172.893 331.941H176.108L175.432 302.043L176.178 301.533L180.11 300.423Z" fill="#2B3135"/>
<path d="M605.22 252.212C605.22 276.383 591.722 278.202 575.079 278.202C558.435 278.202 544.938 276.373 544.938 252.212C544.938 228.052 558.435 177.531 575.079 177.531C591.722 177.531 605.22 228.052 605.22 252.212Z" fill="#008279"/>
<path opacity="0.31" d="M605.22 252.212C605.22 276.383 591.722 278.202 575.079 278.202C558.435 278.202 544.938 276.373 544.938 252.212C544.938 228.052 558.435 177.531 575.079 177.531C591.722 177.531 605.22 228.052 605.22 252.212Z" fill="white"/>
<path d="M585.273 263.178L580.286 263.528L593.266 254.731L583.999 259.439L585.273 255.761L581.032 260.949L576.055 263.468L575.657 246.114L578.295 239.697L575.597 243.306L575.368 233.239L583.63 222.184L575.309 230.74L574.811 208.589L574.363 222.764L569.067 216.826L574.273 225.483L573.567 247.944L568.958 244.915L564.757 237.428L566.439 243.256L558.188 237.838L573.477 251.073L571.158 324.774H577.449L576.125 266.347L577.578 265.357L585.273 263.178Z" fill="#2B3135"/>
<path d="M669.745 261.728C669.745 274.094 662.836 275.033 654.316 275.033C645.795 275.033 638.887 274.104 638.887 261.728C638.887 249.353 645.795 223.503 654.316 223.503C662.836 223.503 669.745 249.353 669.745 261.728Z" fill="#008279"/>
<path opacity="0.5" d="M669.745 261.728C669.745 274.094 662.836 275.033 654.316 275.033C645.795 275.033 638.887 274.104 638.887 261.728C638.887 249.353 645.795 223.503 654.316 223.503C662.836 223.503 669.745 249.353 669.745 261.728Z" fill="white"/>
<path d="M659.532 267.336L656.984 267.516L663.623 263.018L658.875 265.427L659.532 263.538L657.362 266.197L654.814 267.486L654.615 258.61L655.958 255.321L654.585 257.17L654.465 252.022L658.696 246.354L654.435 250.733L654.177 239.397L653.948 246.654L651.24 243.616L653.908 248.044L653.549 259.539L651.18 257.99L649.03 254.161L649.896 257.14L645.676 254.371L653.49 261.149L652.315 298.864H655.53L654.853 268.956L655.59 268.456L659.532 267.336Z" fill="#2B3135"/>
<path d="M40.9711 251.273C40.9711 263.638 34.0629 264.577 25.5422 264.577C17.0214 264.577 10.1133 263.648 10.1133 251.273C10.1133 238.897 17.0214 213.047 25.5422 213.047C34.0629 213.047 40.9711 238.897 40.9711 251.273Z" fill="#008279"/>
<path opacity="0.5" d="M40.9711 251.273C40.9711 263.638 34.0629 264.577 25.5422 264.577C17.0214 264.577 10.1133 263.648 10.1133 251.273C10.1133 238.897 17.0214 213.047 25.5422 213.047C34.0629 213.047 40.9711 238.897 40.9711 251.273Z" fill="white"/>
<path d="M30.7585 256.88L28.2102 257.06L34.8496 252.562L30.1015 254.971L30.7585 253.082L28.5885 255.741L26.0402 257.03L25.8411 248.144L27.185 244.865L25.8113 246.714L25.6918 241.556L29.9223 235.898L25.662 240.277L25.4032 228.941L25.1742 236.198L22.4667 233.16L25.1344 237.588L24.7761 249.083L22.407 247.534L20.2569 243.705L21.1229 246.684L16.9023 243.915L24.7163 250.683L23.5417 288.398H26.7569L26.08 258.5L26.8167 258L30.7585 256.88Z" fill="#2B3135"/>
<path d="M117.407 223.223C93.567 223.223 74.2461 242.496 74.2461 266.267C74.2461 277.292 78.397 287.339 85.2354 294.956C88.361 294.506 94.0548 294.186 100.356 296.335C108.697 299.184 113.893 303.852 115.038 304.942H118.91C120.045 303.852 125.251 299.184 133.593 296.335C140.451 293.996 146.593 294.576 149.479 295.076C156.378 287.448 160.578 277.342 160.578 266.267C160.578 242.496 141.257 223.223 117.417 223.223H117.407Z" fill="#008279"/>
<path opacity="0.33" d="M117.407 223.223C93.567 223.223 74.2461 242.496 74.2461 266.267C74.2461 277.292 78.397 287.339 85.2354 294.956C88.361 294.506 94.0548 294.186 100.356 296.335C108.697 299.184 113.893 303.852 115.038 304.942H118.91C120.045 303.852 125.251 299.184 133.593 296.335C140.451 293.996 146.593 294.576 149.479 295.076C156.378 287.448 160.578 277.342 160.578 266.267C160.578 242.496 141.257 223.223 117.417 223.223H117.407Z" fill="white"/>
<path d="M137.493 283.53C136.169 284.18 134.845 284.839 133.551 285.539C132.247 286.249 130.973 287.029 129.779 287.878C129.331 288.188 128.883 288.518 128.445 288.838L135.512 275.613L125.807 290.867C124.822 291.657 123.856 292.477 122.91 293.296C121.348 294.666 119.825 296.065 118.331 297.505L117.844 283.16L127.997 267.636L117.774 280.981L117.336 268.136L116.609 282.51L115.883 296.915C114.589 295.685 113.265 294.476 111.911 293.296C110.846 292.367 109.761 291.457 108.656 290.567L99.4783 274.823L106.217 288.708C105.829 288.428 105.441 288.138 105.053 287.868C103.858 287.019 102.584 286.249 101.28 285.529C99.986 284.83 98.6621 284.17 97.3382 283.52C94.6804 282.241 91.9729 281.041 89.1758 280.051C91.8933 281.211 94.5012 282.56 97.0495 283.99C98.3236 284.71 99.5778 285.449 100.812 286.219C102.027 286.989 103.201 287.808 104.306 288.708C106.546 290.487 108.626 292.427 110.637 294.426C112.399 296.175 114.101 297.994 115.733 299.834L114.808 318.117H119.058L118.451 300.583C120.272 298.484 122.214 296.425 124.204 294.436C126.215 292.437 128.305 290.487 130.535 288.718C131.65 287.818 132.815 286.999 134.029 286.229C135.263 285.459 136.518 284.72 137.792 284C140.34 282.57 142.948 281.211 145.665 280.061C142.868 281.051 140.161 282.251 137.503 283.53H137.493Z" fill="#2B3135"/>
<path d="M237.235 351.673V312.009H185.832V286.619L229.919 181.699H267.535V287.248H283.83V312.009H267.535V351.673H237.235ZM211.325 287.248H237.235V215.067L211.325 287.248Z" fill="#2B3135"/>
<path d="M344.431 351.763C334.258 351.763 325.837 349.664 319.147 345.466C312.458 341.268 307.441 335.5 304.107 328.153C300.762 320.805 299.09 312.309 299.09 302.653V226.482C299.09 216.546 300.692 207.839 303.898 200.352C307.103 192.865 312.05 187.027 318.729 182.829C325.419 178.631 333.979 176.531 344.431 176.531C354.883 176.531 363.204 178.631 369.824 182.829C376.443 187.027 381.351 192.865 384.556 200.352C387.761 207.839 389.364 216.546 389.364 226.482V302.653C389.364 312.309 387.691 320.805 384.347 328.153C381.002 335.5 375.985 341.268 369.296 345.466C362.607 349.664 354.315 351.763 344.431 351.763ZM344.431 323.225C348.194 323.225 350.911 322.035 352.583 319.656C354.256 317.277 355.37 314.448 355.928 311.159C356.485 307.87 356.764 304.832 356.764 302.033V227.122C356.764 224.043 356.515 220.824 356.037 217.466C355.55 214.107 354.475 211.208 352.802 208.759C351.13 206.31 348.343 205.09 344.441 205.09C340.539 205.09 337.722 206.32 335.98 208.759C334.238 211.208 333.123 214.107 332.635 217.466C332.148 220.824 331.909 224.043 331.909 227.122V302.033C331.909 304.832 332.187 307.88 332.745 311.159C333.302 314.448 334.487 317.277 336.298 319.656C338.11 322.035 340.827 323.225 344.451 323.225H344.431Z" fill="#2B3135"/>
<path d="M458.317 351.673V312.009H406.914V286.619L451.001 181.699H488.618V287.248H504.912V312.009H488.618V351.673H458.317ZM432.407 287.248H458.317V215.067L432.407 287.248Z" fill="#2B3135"/>
<path d="M675.289 278.242C606.785 316.367 485.762 341.697 347.898 341.697C195.44 341.697 63.5782 310.719 0.558594 265.717" stroke="#2B3135" stroke-miterlimit="10"/>
<path d="M689.723 269.505C686.786 271.445 683.73 273.354 680.535 275.233" stroke="#2B3135" stroke-miterlimit="10"/>
<path d="M647.873 259.719C647.873 284.989 633.758 286.899 616.359 286.899C598.959 286.899 584.844 284.989 584.844 259.719C584.844 234.449 598.959 181.62 616.359 181.62C633.758 181.62 647.873 234.449 647.873 259.719Z" fill="#008279"/>
<path d="M627.009 271.185L621.803 271.545L635.38 262.348L625.675 267.276L627.009 263.428L622.579 268.846L617.373 271.485L616.965 253.342L619.722 246.624L616.895 250.403L616.656 239.877L625.297 228.311L616.597 237.258L616.069 214.097L615.611 228.921L610.067 222.714L615.522 231.77L614.775 255.251L609.957 252.082L605.558 244.255L607.319 250.353L598.699 244.685L614.676 258.53L612.257 335.59H618.836L617.443 274.493L618.966 273.464L627.009 271.185Z" fill="#2B3135"/>
<path d="M614.227 336.269C614.227 336.269 602.591 324.164 605.856 324.534C609.121 324.894 615.233 333.95 615.233 333.95C615.233 333.95 615.312 313.998 618.219 318.366C621.125 322.735 617.552 334.03 617.552 334.03C617.552 334.03 625.854 321.035 625.834 323.155C625.774 329.722 619.443 334.86 619.443 334.86C619.443 334.86 632.732 324.974 630.552 328.982C628.372 332.991 619.881 336.779 619.881 336.779C619.881 336.779 635.201 333.68 629.756 335.86C624.311 338.049 619.135 339.548 619.135 339.548H614.904C614.904 339.548 600.441 332.261 605.886 333.351C611.331 334.44 614.227 336.269 614.227 336.269Z" fill="#2B3135"/>
<path d="M56.9558 321.245C56.9558 321.245 46.8921 310.779 49.7191 311.089C52.5461 311.409 57.8317 319.236 57.8317 319.236C57.8317 319.236 57.9014 301.983 60.4198 305.761C62.9282 309.54 59.8424 319.306 59.8424 319.306C59.8424 319.306 67.0194 308.06 66.9995 309.9C66.9497 315.577 61.4749 320.026 61.4749 320.026C61.4749 320.026 72.962 311.479 71.0807 314.948C69.1993 318.416 61.8532 321.685 61.8532 321.685C61.8532 321.685 75.1021 319.006 70.3938 320.895C65.6855 322.785 61.2062 324.084 61.2062 324.084H57.543C57.543 324.084 45.0307 317.787 49.739 318.726C54.4473 319.676 56.9558 321.245 56.9558 321.245Z" fill="#2B3135"/>
<path d="M93.3201 245.945C93.3201 271.245 79.1952 273.154 61.7655 273.154C44.3358 273.154 30.2109 271.245 30.2109 245.945C30.2109 220.644 44.3358 167.765 61.7655 167.765C79.1952 167.765 93.3201 220.644 93.3201 245.945Z" fill="#008279"/>
<path d="M72.4353 257.42L67.2193 257.78L80.8167 248.574L71.1014 253.502L72.4353 249.653L67.9957 255.081L62.7897 257.72L62.3816 239.557L65.1389 232.84L62.3119 236.618L62.073 226.082L70.7232 214.507L62.0133 223.453L61.4857 200.272L61.0179 215.107L55.4735 208.899L60.9283 217.965L60.1917 241.466L55.364 238.298L50.9642 230.461L52.7261 236.568L44.0859 230.89L60.0922 244.745L57.6634 321.895H64.253L62.8594 260.729L64.3824 259.699L72.4353 257.42Z" fill="#2B3135"/>
<path d="M167.108 347.545C167.108 347.545 157.044 337.079 159.871 337.389C162.698 337.709 167.984 345.536 167.984 345.536C167.984 345.536 168.054 328.283 170.572 332.061C173.081 335.84 169.995 345.606 169.995 345.606C169.995 345.606 177.172 334.36 177.152 336.199C177.102 341.877 171.627 346.326 171.627 346.326C171.627 346.326 183.114 337.779 181.233 341.248C179.352 344.716 172.006 347.985 172.006 347.985C172.006 347.985 185.254 345.306 180.546 347.195C175.838 349.084 171.358 350.384 171.358 350.384H167.695C167.695 350.384 155.183 344.086 159.891 345.026C164.6 345.976 167.108 347.545 167.108 347.545Z" fill="#2B3135"/>
<path d="M220.51 370.486C220.51 370.486 210.447 360.02 213.274 360.33C216.101 360.65 221.386 368.477 221.386 368.477C221.386 368.477 221.456 351.224 223.974 355.002C226.483 358.781 223.397 368.547 223.397 368.547C223.397 368.547 230.574 357.301 230.554 359.141C230.504 364.818 225.03 369.267 225.03 369.267C225.03 369.267 236.517 360.72 234.635 364.189C232.754 367.657 225.408 370.926 225.408 370.926C225.408 370.926 238.657 368.247 233.949 370.136C229.24 372.026 224.761 373.325 224.761 373.325H221.098C221.098 373.325 208.585 367.028 213.294 367.967C218.002 368.907 220.51 370.486 220.51 370.486Z" fill="#2B3135"/>
<path d="M363.751 355.082C363.751 355.082 356.495 347.535 358.535 347.755C360.576 347.985 364.388 353.633 364.388 353.633C364.388 353.633 364.438 341.188 366.25 343.917C368.061 346.645 365.831 353.693 365.831 353.693C365.831 353.693 371.008 345.586 370.998 346.905C370.958 351.004 367.006 354.213 367.006 354.213C367.006 354.213 375.298 348.045 373.934 350.544C372.58 353.043 367.275 355.412 367.275 355.412C367.275 355.412 376.831 353.473 373.436 354.842C370.042 356.212 366.807 357.141 366.807 357.141H364.169C364.169 357.141 355.151 352.593 358.545 353.273C361.939 353.953 363.751 355.092 363.751 355.092V355.082Z" fill="#2B3135"/>
<path d="M645.482 337.009C645.482 337.009 639.838 331.132 641.421 331.311C643.003 331.491 645.97 335.88 645.97 335.88C645.97 335.88 646.01 326.193 647.423 328.313C648.837 330.432 647.105 335.92 647.105 335.92C647.105 335.92 651.136 329.612 651.126 330.642C651.096 333.83 648.02 336.329 648.02 336.329C648.02 336.329 654.471 331.531 653.415 333.481C652.36 335.43 648.229 337.269 648.229 337.269C648.229 337.269 655.665 335.76 653.027 336.819C650.389 337.879 647.871 338.609 647.871 338.609H645.82C645.82 338.609 638.803 335.07 641.441 335.6C644.078 336.13 645.492 337.019 645.492 337.019L645.482 337.009Z" fill="#2B3135"/>
<path d="M265.167 355.122C265.167 355.122 255.103 344.656 257.93 344.966C260.757 345.286 266.043 353.113 266.043 353.113C266.043 353.113 266.112 335.86 268.631 339.638C271.139 343.417 268.053 353.183 268.053 353.183C268.053 353.183 275.23 341.937 275.21 343.777C275.161 349.454 269.686 353.903 269.686 353.903C269.686 353.903 281.173 345.356 279.292 348.825C277.41 352.293 270.064 355.562 270.064 355.562C270.064 355.562 283.313 352.883 278.605 354.772C273.896 356.662 269.417 357.961 269.417 357.961H265.754C265.754 357.961 253.242 351.663 257.95 352.603C262.658 353.553 265.167 355.122 265.167 355.122Z" fill="#008279"/>
<path d="M192.562 348.165C192.562 348.165 185.813 341.148 187.704 341.358C189.595 341.567 193.139 346.815 193.139 346.815C193.139 346.815 193.189 335.24 194.871 337.779C196.553 340.318 194.483 346.865 194.483 346.865C194.483 346.865 199.29 339.328 199.281 340.558C199.251 344.366 195.578 347.345 195.578 347.345C195.578 347.345 203.282 341.617 202.018 343.937C200.754 346.266 195.826 348.455 195.826 348.455C195.826 348.455 204.706 346.655 201.55 347.925C198.395 349.194 195.388 350.064 195.388 350.064H192.93C192.93 350.064 184.538 345.836 187.694 346.476C190.849 347.105 192.532 348.165 192.532 348.165H192.562Z" fill="#008279"/>
<path d="M108.249 375.894C108.249 375.894 101.5 368.877 103.391 369.087C105.283 369.297 108.826 374.545 108.826 374.545C108.826 374.545 108.876 362.969 110.558 365.508C112.241 368.047 110.17 374.595 110.17 374.595C110.17 374.595 114.978 367.058 114.968 368.287C114.938 372.096 111.265 375.074 111.265 375.074C111.265 375.074 118.97 369.347 117.705 371.666C116.441 373.995 111.514 376.184 111.514 376.184C111.514 376.184 120.393 374.385 117.238 375.654C114.082 376.924 111.076 377.793 111.076 377.793H108.617C108.617 377.793 100.226 373.565 103.381 374.205C106.537 374.835 108.219 375.894 108.219 375.894H108.249Z" fill="#008279"/>
<path d="M333.979 377.254C333.979 377.254 327.231 370.236 329.122 370.446C331.013 370.656 334.557 375.904 334.557 375.904C334.557 375.904 334.607 364.329 336.289 366.868C337.971 369.407 335.901 375.954 335.901 375.954C335.901 375.954 340.708 368.417 340.698 369.647C340.669 373.455 336.996 376.434 336.996 376.434C336.996 376.434 344.7 370.706 343.436 373.025C342.172 375.354 337.244 377.544 337.244 377.544C337.244 377.544 346.123 375.744 342.968 377.014C339.813 378.283 336.806 379.153 336.806 379.153H334.348C334.348 379.153 325.956 374.925 329.112 375.564C332.267 376.194 333.95 377.254 333.95 377.254H333.979Z" fill="#008279"/>
<path d="M443.444 377.623C443.444 377.623 436.695 370.606 438.587 370.816C440.478 371.026 444.022 376.274 444.022 376.274C444.022 376.274 444.071 364.698 445.754 367.237C447.436 369.776 445.365 376.324 445.365 376.324C445.365 376.324 450.173 368.787 450.163 370.016C450.133 373.825 446.46 376.804 446.46 376.804C446.46 376.804 454.165 371.076 452.901 373.395C451.637 375.724 446.709 377.913 446.709 377.913C446.709 377.913 455.588 376.114 452.433 377.384C449.277 378.653 446.271 379.523 446.271 379.523H443.813C443.813 379.523 435.421 375.294 438.577 375.934C441.732 376.564 443.414 377.623 443.414 377.623H443.444Z" fill="#008279"/>
<path d="M646.977 355.662C646.977 355.662 636.705 344.976 639.591 345.296C642.478 345.616 647.873 353.613 647.873 353.613C647.873 353.613 647.953 335.99 650.511 339.858C653.069 343.717 649.924 353.693 649.924 353.693C649.924 353.693 657.25 342.217 657.23 344.086C657.18 349.884 651.586 354.422 651.586 354.422C651.586 354.422 663.322 345.696 661.401 349.234C659.48 352.773 651.974 356.122 651.974 356.122C651.974 356.122 665.502 353.383 660.694 355.312C655.886 357.241 651.317 358.571 651.317 358.571H647.584C647.584 358.571 634.813 352.133 639.621 353.103C644.429 354.073 646.987 355.672 646.987 355.672L646.977 355.662Z" fill="#008279"/>
<path d="M34.8679 355.662C34.8679 355.662 24.5952 344.976 27.4819 345.296C30.3686 345.616 35.7638 353.613 35.7638 353.613C35.7638 353.613 35.8434 335.99 38.4016 339.858C40.9598 343.727 37.8143 353.693 37.8143 353.693C37.8143 353.693 45.1406 342.217 45.1206 344.086C45.0709 349.884 39.4767 354.422 39.4767 354.422C39.4767 354.422 51.2126 345.696 49.2914 349.234C47.3703 352.773 39.8649 356.122 39.8649 356.122C39.8649 356.122 53.3925 353.383 48.5847 355.312C43.7768 357.241 39.2079 358.571 39.2079 358.571H35.4751C35.4751 358.571 22.704 352.133 27.5118 353.103C32.3196 354.073 34.8778 355.672 34.8778 355.672L34.8679 355.662Z" fill="#008279"/>
<path d="M85.5456 340.568C85.5456 340.568 75.034 322.365 78.0302 320.955C81.0264 319.546 87.2278 333.401 87.2278 333.401C87.2278 333.401 86.0333 307.301 88.8304 309.71C91.6275 312.119 94.2256 330.592 94.2256 330.592C94.2256 330.592 99.8198 310.52 101.621 314.728C103.423 318.946 100.188 331.701 100.188 331.701C100.188 331.701 108.221 316.337 109.027 321.355C109.824 326.373 105.225 334.6 105.225 334.6C105.225 334.6 115.816 323.964 116.622 328.173C117.419 332.391 113.825 336.599 113.825 336.599C113.825 336.599 127.821 328.972 124.416 333.191C121.022 337.409 116.025 342.827 116.025 342.827C116.025 342.827 129.423 338.009 127.821 340.818C126.218 343.627 120.226 346.635 120.226 346.635C120.226 346.635 131.225 344.626 130.021 346.436C128.826 348.245 126.029 350.014 126.029 350.014H76.2484C76.2484 350.014 63.0592 345.226 68.2552 344.826C73.4513 344.426 78.2492 346.635 78.2492 346.635C78.2492 346.635 62.0538 335.59 69.6488 334.79C77.2438 333.99 83.4452 343.627 83.4452 343.627C83.4452 343.627 72.655 328.373 76.4475 330.782L85.5655 340.558L85.5456 340.568Z" fill="#008279"/>
<path d="M86.2212 345.746C86.2212 345.746 72.6437 331.621 76.4562 332.051C80.2686 332.481 87.3957 343.037 87.3957 343.037C87.3957 343.037 87.4953 319.756 90.8797 324.854C94.2641 329.952 90.1033 343.127 90.1033 343.127C90.1033 343.127 99.7886 327.963 99.7588 330.442C99.6891 338.109 92.3031 344.096 92.3031 344.096C92.3031 344.096 107.802 332.561 105.263 337.239C102.725 341.917 92.8108 346.336 92.8108 346.336C92.8108 346.336 110.678 342.717 104.328 345.266C97.977 347.815 91.9348 349.564 91.9348 349.564H86.9976C86.9976 349.564 70.1253 341.058 76.4761 342.337C82.8268 343.617 86.2112 345.736 86.2112 345.736L86.2212 345.746Z" fill="#2B3135" stroke="#2B3135" stroke-miterlimit="10"/>
<path d="M533.232 372.605C533.232 372.605 513.363 338.189 519.027 335.54C524.691 332.881 536.407 359.061 536.407 359.061C536.407 359.061 534.138 309.73 539.433 314.288C544.729 318.846 549.636 353.753 549.636 353.753C549.636 353.753 560.217 315.807 563.612 323.774C567.016 331.741 560.894 355.852 560.894 355.852C560.894 355.852 576.084 326.813 577.597 336.29C579.11 345.776 570.42 361.33 570.42 361.33C570.42 361.33 590.448 341.218 591.961 349.184C593.474 357.151 586.675 365.118 586.675 365.118C586.675 365.118 613.124 350.704 606.703 358.671C600.283 366.638 590.836 376.884 590.836 376.884C590.836 376.884 616.15 367.777 613.134 373.085C610.107 378.393 598.78 384.091 598.78 384.091C598.78 384.091 619.564 380.292 617.294 383.711C615.025 387.13 609.749 390.478 609.749 390.478H515.653C515.653 390.478 490.718 381.432 500.542 380.672C510.367 379.913 519.435 384.091 519.435 384.091C519.435 384.091 488.826 363.219 503.19 361.7C517.544 360.18 529.26 378.393 529.26 378.393C529.26 378.393 508.854 349.554 516.031 354.113L533.262 372.585L533.232 372.605Z" fill="#008279"/>
<path d="M534.515 382.392C534.515 382.392 508.863 355.702 516.06 356.502C523.257 357.301 536.735 377.264 536.735 377.264C536.735 377.264 536.924 333.261 543.324 342.897C549.725 352.543 541.861 377.443 541.861 377.443C541.861 377.443 560.157 348.775 560.117 353.463C559.987 367.947 546.022 379.273 546.022 379.273C546.022 379.273 575.327 357.481 570.519 366.318C565.721 375.154 546.987 383.511 546.987 383.511C546.987 383.511 580.762 376.674 568.767 381.492C556.772 386.31 545.345 389.619 545.345 389.619H536.008C536.008 389.619 504.115 373.545 516.12 375.964C528.124 378.373 534.525 382.392 534.525 382.392H534.515Z" fill="#2B3135" stroke="#2B3135" stroke-miterlimit="10"/>
<path d="M119.788 341.597C119.788 341.597 121.819 339.748 123.561 339.748C125.303 339.748 130.628 342.317 130.628 342.317C130.628 342.317 132.759 345.616 132.948 345.806C133.137 345.996 135.755 347.125 135.944 347.585C136.133 348.045 136.521 349.564 136.521 349.564H120.256L117.25 341.657L119.768 341.587L119.788 341.597Z" fill="white" stroke="#2B3135" stroke-miterlimit="10"/>
<path d="M123.561 339.758L123.461 341.318C123.461 341.318 127.622 343.747 127.523 344.626C127.423 345.506 126.557 347.545 126.557 347.545L128.687 349.784H117.359L118.235 343.077C118.235 343.077 120.654 339.578 123.561 339.768V339.758Z" fill="#2B3135"/>
<path d="M98.5875 340.628C98.5875 340.628 106.72 328.383 108.562 328.183C110.403 327.993 114.275 329.542 115.728 332.071C117.182 334.6 118.536 339.558 118.635 339.848C118.735 340.138 119.123 340.338 121.343 343.926C123.562 347.515 123.473 349.564 123.473 349.564H92.0078C92.0078 349.564 92.6847 346.356 93.8493 344.506C95.014 342.657 97.7215 341.977 97.7215 341.977L98.5974 340.618L98.5875 340.628Z" fill="white" stroke="#2B3135" stroke-miterlimit="10"/>
<path d="M111.071 349.384C111.071 349.384 110.195 347.245 110.106 346.955C110.006 346.665 110.006 343.847 109.718 342.677C109.429 341.507 107.01 337.909 107.01 337.909L108.752 332.851L107.876 332.171L109.329 328.572L108.513 328.193C106.602 328.532 98.5789 340.628 98.5789 340.628L97.703 341.987C97.703 341.987 94.9954 342.667 93.8308 344.516C92.8354 346.096 92.1983 348.665 92.0391 349.374H111.071V349.384Z" fill="#2B3135"/>
<path d="M433.334 344.646C433.334 344.646 434.609 343.487 435.704 343.487C436.798 343.487 440.133 345.096 440.133 345.096C440.133 345.096 441.467 347.165 441.586 347.285C441.706 347.405 443.348 348.115 443.468 348.405C443.587 348.695 443.836 349.644 443.836 349.644H433.643L431.762 344.686L433.344 344.646H433.334Z" fill="white" stroke="#2B3135" stroke-miterlimit="10"/>
<path d="M435.702 343.487L435.643 344.466C435.643 344.466 438.251 345.986 438.191 346.535C438.131 347.085 437.584 348.365 437.584 348.365L438.918 349.764H431.82L432.368 345.556C432.368 345.556 433.881 343.357 435.702 343.487Z" fill="#2B3135"/>
<path d="M420.045 344.036C420.045 344.036 425.142 336.359 426.296 336.229C427.451 336.11 429.88 337.079 430.786 338.669C431.691 340.258 432.547 343.367 432.607 343.547C432.667 343.727 432.906 343.847 434.309 346.106C435.703 348.365 435.643 349.644 435.643 349.644H415.914C415.914 349.644 416.342 347.635 417.069 346.475C417.795 345.316 419.498 344.886 419.498 344.886L420.045 344.036Z" fill="white" stroke="#2B3135" stroke-miterlimit="10"/>
<path d="M427.869 349.524C427.869 349.524 427.321 348.185 427.261 348.005C427.202 347.825 427.202 346.056 427.022 345.326C426.843 344.596 425.32 342.337 425.32 342.337L426.415 339.168L425.868 338.739L426.774 336.479L426.266 336.24C425.071 336.459 420.035 344.036 420.035 344.036L419.487 344.886C419.487 344.886 417.785 345.316 417.058 346.476C416.431 347.465 416.033 349.075 415.934 349.524H427.869Z" fill="#2B3135"/>
<path d="M597.957 374.555C597.957 374.555 601.8 371.066 605.094 371.066C608.389 371.066 618.453 375.924 618.453 375.924C618.453 375.924 622.474 382.152 622.843 382.521C623.211 382.891 628.148 385.011 628.516 385.88C628.885 386.75 629.611 389.619 629.611 389.619H598.873L593.199 374.675L597.957 374.555Z" fill="white" stroke="#2B3135" stroke-miterlimit="10"/>
<path d="M605.095 371.066L604.916 374.005C604.916 374.005 612.779 378.603 612.6 380.252C612.421 381.902 610.769 385.76 610.769 385.76L614.79 389.989H593.379L595.021 377.313C595.021 377.313 599.6 370.696 605.085 371.066H605.095Z" fill="#2B3135"/>
<path d="M557.89 372.715C557.89 372.715 573.259 349.564 576.733 349.194C580.207 348.825 587.533 351.763 590.271 356.542C593.018 361.32 595.576 370.686 595.756 371.246C595.935 371.796 596.671 372.165 600.882 378.963C605.093 385.76 604.903 389.619 604.903 389.619H545.438C545.438 389.619 546.722 383.551 548.911 380.062C551.111 376.574 556.228 375.284 556.228 375.284L557.87 372.715H557.89Z" fill="white" stroke="#2B3135" stroke-miterlimit="10"/>
<path d="M581.489 389.259C581.489 389.259 579.847 385.22 579.658 384.661C579.479 384.111 579.479 378.783 578.921 376.574C578.374 374.365 573.795 367.567 573.795 367.567L577.09 358.011L575.447 356.722L578.195 349.924L576.662 349.204C573.058 349.854 557.888 372.705 557.888 372.705L556.246 375.274C556.246 375.274 551.119 376.564 548.93 380.053C547.048 383.041 545.844 387.889 545.535 389.239H581.499L581.489 389.259Z" fill="#2B3135"/>
</svg>
