<svg xmlns="http://www.w3.org/2000/svg" width="64" height="56" viewBox="0 0 64 56"><path fill="#fbd864" d="M46.73 0H17.28c-.9 0-1.73.48-2.18 1.26L.37 26.74a2.52 2.52 0 0 0 0 2.52L15.1 54.74A2.52 2.52 0 0 0 17.28 56h29.45c.9 0 1.73-.48 2.18-1.26l14.73-25.48c.45-.78.45-1.74 0-2.52L48.91 1.26A2.52 2.52 0 0 0 46.73 0Z"/><path fill="#252628" d="m42.66 17.62-.27.23-.37.3-.02.01-.38.28-.32.22-.03.02-.21.14-.28.18-.29.17a.43.43 0 0 1-.07.06l.07.24.11.4a9.2 9.2 0 0 1 .2.8l.09.41.03.14.19 1.14.06.48.04.39.04.44.03.44.02.45v.27h4.4a11.45 11.45 0 0 0-3.04-7.2Zm-14.75 1.6v-.05l-.02.05-.35-.2-.28-.18a2.55 2.55 0 0 1-.21-.14l-.03-.02a6.1 6.1 0 0 1-.32-.22l-.33-.25c-.24-.18-.48-.38-.71-.58a11.37 11.37 0 0 0-3.04 7.2h4.4v-.27l.02-.45c0-.15.02-.29.03-.44l.04-.44.04-.39.06-.48c.05-.39.12-.77.19-1.14l.03-.14.09-.41.07-.3.13-.5.11-.4.08-.24h.01v-.01Zm.02 12.55L28 32l-.08-.22-.09.05-.19.11-.17.1-.22.14c-.19.12-.37.24-.55.38l-.33.24-.32.25-.33.28a11.38 11.38 0 0 1-3.09-7.25h4.4v.28l.02.45.03.45.03.39.04.33.04.32.05.36.12.72.07.36.04.17.08.38.09.38c.07.26.13.52.21.77l.06.21.03.11.48-.24-.48.25Zm-.91-5.69v.14-.14Zm0 0v.14-.14Zm14.29 0v-.07h-.01v.35l-.02.45-.03.45-.03.39-.04.33c0 .11-.03.22-.04.32l-.05.36-.12.72-.07.35-.04.17-.08.38-.09.38c-.07.26-.13.52-.21.77l-.06.21-.03.1v.02l.28.17.29.18.28.18.37.26.33.24.32.25.33.28a11.38 11.38 0 0 0 3.09-7.25h-4.39Zm-14.73-9.34.17.15.38.3.3.22a4.44 4.44 0 0 0 .42.29l.33.21.14.08c.15-.38.32-.75.49-1.1l.08-.15.13-.25.16-.28a9.46 9.46 0 0 1 .85-1.25l.08-.1.14-.17.15-.17a11.42 11.42 0 0 0-3.8 2.2Zm6.95-2.77Zm8.22 2.77a11.77 11.77 0 0 0-3.81-2.21l.15.17.15.18.17.22.12.15c.14.19.28.39.41.6l.06.1.16.27.16.28.13.25.08.15c.17.35.34.72.49 1.1l-.06.03.01.02.06-.03V18l.14-.09.36-.23.03-.02c.12-.08.23-.15.34-.24l.35-.26.35-.28.17-.14ZM29.81 35.65l-.13-.18c-.36-.52-.7-1.1-1-1.75l-.11-.24a1.54 1.54 0 0 1-.08-.19l-.03-.06-.05-.11a.24.24 0 0 1-.13-.11l-.07.04a4.6 4.6 0 0 0-.37.23l-.36.24-.02.01a6 6 0 0 0-.3.23l-.33.26-.13.11a.5.5 0 0 0-.08.07c1.12.96 2.39 1.69 3.76 2.16-.2-.22-.39-.46-.58-.71Z"/><path fill="#252628" d="m27.93 31.77.08.23a2.02 2.02 0 0 1-.07-.23Zm5.55 5.14.06.02-.06-.02Zm8.14-2.77-.13-.11-.33-.26-.3-.23-.02-.01a3.75 3.75 0 0 0-.36-.24 4.6 4.6 0 0 0-.37-.23l-.14-.09v-.02l-.03-.02-.01.02.03.02-.1.25-.03.06-.08.19-.11.24c-.3.65-.64 1.23-1 1.75l-.13.18c-.19.25-.38.49-.58.71 1.37-.47 2.64-1.2 3.76-2.16l-.08-.07Zm-6.83 2.78.06-.01-.06.01Zm-1.26-17.36h-.1l-.25-.02h-.08l-.27-.03-.7-.1-.33-.06-.33-.07a16.1 16.1 0 0 0-.34-.09l-.28-.08-.42-.13c-.28-.1-.56-.2-.84-.32l-.14-.06.13-.33.11-.27.25-.55.24-.46.13-.23.14-.22c.09-.15.18-.29.28-.42.09-.14.19-.26.29-.39.14-.18.28-.34.43-.49l.15-.15.11-.11.23-.2.12-.09.18-.13.16-.1.14-.08c.33-.19.66-.32.99-.39v5.59Zm5.34-.98-.14.06c-.28.12-.55.23-.84.32l-.42.13-.28.08a16.1 16.1 0 0 1-.67.16l-.33.06c-.23.04-.46.08-.7.1l-.27.03h-.08l-.25.02h-.1v-5.59l.06.02.16.04.16.05.21.08a2.6 2.6 0 0 1 .48.25l.17.11.16.12.16.13.16.14.31.29.15.16.15.17.15.18.12.16.04.06.27.38.14.21.14.22.13.23.25.49.26.56.09.22.13.33Zm1.18 6.24v-.13l-.01-.32-.01-.18c0-.07 0-.14-.02-.21 0-.15-.02-.29-.03-.43v-.06l-.06-.54-.04-.28-.02-.18v-.06l-.04-.28-.11-.64-.06-.31-.12-.54c0-.04-.02-.07-.03-.11l-.07-.29-.12-.42v-.05l-.35.15a14.86 14.86 0 0 1-1.43.47l-.34.09c-.23.06-.46.1-.69.14l-.19.03a13.3 13.3 0 0 1-1.37.16h-.11v.02h.01v3.98h5.25Zm-6.53-4h-.1l-.26-.02c-.07 0-.13 0-.19-.02-.37-.03-.73-.08-1.1-.15l-.32-.06-.38-.09-.34-.09-.36-.1-.36-.11-.71-.26-.35-.15v.05l-.12.42-.07.29-.03.1-.12.54-.06.31-.11.64-.04.28a.99.99 0 0 0-.03.24l-.04.28-.06.54v.05l-.05.63-.03.66h5.25v-3.97l-.02-.03Zm5.74 10.36.01-.04.15-.53v-.01l.15-.6a6.37 6.37 0 0 0 .13-.65l.08-.49.01-.06a22.48 22.48 0 0 0 .25-2.72h-5.25v4.09h.12c.39.02.78.06 1.17.12l.69.12.31.07.05.01a16.1 16.1 0 0 0 .78.22c.37.11.73.24 1.08.39l.26.11.01-.02Zm-4.47-1.01h.03-.03Zm0 0h.03-.03Zm4.05 2.23-.09.23-.34.76-.14.27-.14.26-.09.16a8.3 8.3 0 0 1-1 1.39l-.26.28-.13.13-.14.12-.13.11a4.25 4.25 0 0 1-1.15.68l-.18.06-.2.06-.06.02v-5.49l.26.02.26.02.61.08.25.04.34.07a9.43 9.43 0 0 1 .34.08l.29.08.32.09h.01l.31.1.24.08.45.17.24.1.11.05Zm-5.31-.97v5.49l-.06-.02-.2-.06-.18-.06c-.2-.08-.4-.17-.59-.29l-.13-.08c-.15-.09-.29-.2-.43-.31l-.13-.11-.14-.12a.8.8 0 0 1-.13-.13l-.26-.28-.26-.3a8.3 8.3 0 0 1-.74-1.09l-.09-.16-.14-.26-.14-.27a10.8 10.8 0 0 1-.43-.99l.11-.05.24-.1.45-.17.24-.08.31-.1h.01l.32-.09.29-.08.09-.02.25-.06.34-.07.25-.04.61-.08.26-.02.26-.02Zm0-5.35v4.09h-.12c-.39.02-.78.06-1.17.12l-.69.12-.31.07-.05.01a16.1 16.1 0 0 1-.78.22 9.9 9.9 0 0 0-1.08.39l-.26.11-.02-.06-.15-.53v-.01l-.15-.6-.13-.62v-.01l-.1-.56-.01-.08-.05-.33a3.5 3.5 0 0 1-.04-.32l-.03-.22-.03-.29-.04-.39-.06-1.11h5.25Z"/><path fill="#fff" d="M18.28 34.57s1.45-2.06 2.25-3.09c.81-1.03 1.06-1.13 3.7-1.13H35.4c2.03 0 2.22 3.31 0 3.31s-5.66-.07-7.14-.07-1.35 2.09-.03 2.09h7.43s7.95-3.83 9.14-4.29c1.19-.47 4.12 1.62 1.12 3.07-2.56 1.24-7.86 3.76-9.35 4.47-.26.12-.55.19-.83.19H22.28l-3.99-4.57Z"/><path fill="#fff" d="m12.82 36.87 3.74-3.81c.2-.2.52-.2.72 0l6.46 6.43a.5.5 0 0 1 0 .71l-3.71 3.87a.5.5 0 0 1-.72 0l-6.49-6.48a.5.5 0 0 1 0-.71Z"/><path fill="#fbd864" d="M16.56 38.22a1.42 1.42 0 1 0 0-2.84 1.42 1.42 0 0 0 0 2.84Z"/></svg>