<svg width="284" height="64" viewBox="0 0 284 64" fill="none" xmlns="http://www.w3.org/2000/svg">
<path fill-rule="evenodd" clip-rule="evenodd" d="M32.0003 11.7764C13.9203 11.7764 3.07227 32.0004 3.07227 32.0004C3.07227 32.0004 13.9203 52.2244 32.0003 52.2244C50.0803 52.2244 60.9283 32.0004 60.9283 32.0004C60.9283 32.0004 50.0803 11.7764 32.0003 11.7764ZM32.0003 50.1764C42.0386 50.1764 50.1763 42.0387 50.1763 32.0004C50.1763 21.962 42.0386 13.8244 32.0003 13.8244C21.9619 13.8244 13.8243 21.962 13.8243 32.0004C13.8243 42.0387 21.9619 50.1764 32.0003 50.1764Z" fill="#141414"/>
<path fill-rule="evenodd" clip-rule="evenodd" d="M33.561 17.3594V28.5326H43.7131L30.4411 46.6394V35.4658H20.2891L33.561 17.3594Z" fill="#141414"/>
<path d="M83.0696 10.4545V25H80.4347V10.4545H83.0696ZM93.3022 18.4801V20.5895H87.4925V18.4801H93.3022ZM88.288 14.0909V25H85.8093V14.0909H88.288ZM94.9854 14.0909V25H92.5138V14.0909H94.9854ZM96.6207 28.1676V22.8835H97.4872C97.7192 22.7036 97.9134 22.4598 98.0696 22.152C98.2259 21.8395 98.3537 21.4725 98.4531 21.0511C98.5573 20.625 98.6425 20.1491 98.7088 19.6236C98.7751 19.0933 98.8343 18.5227 98.8864 17.9119L99.1989 14.0909H107.082V22.8835H108.773V28.1676H106.287V25H99.1491V28.1676H96.6207ZM100.129 22.8835H104.625V16.1648H101.429L101.259 17.9119C101.164 19.0672 101.038 20.0568 100.882 20.8807C100.726 21.7045 100.475 22.3722 100.129 22.8835ZM115.522 25.2131C114.428 25.2131 113.483 24.9858 112.688 24.5312C111.897 24.072 111.289 23.4233 110.863 22.5852C110.436 21.7424 110.223 20.7505 110.223 19.6094C110.223 18.4872 110.436 17.5024 110.863 16.6548C111.293 15.8026 111.895 15.1397 112.667 14.6662C113.438 14.188 114.345 13.9489 115.387 13.9489C116.059 13.9489 116.694 14.0578 117.29 14.2756C117.891 14.4886 118.422 14.8201 118.881 15.2699C119.345 15.7197 119.71 16.2926 119.975 16.9886C120.24 17.6799 120.373 18.5038 120.373 19.4602V20.2486H111.431V18.5156H117.908C117.903 18.0232 117.797 17.5852 117.588 17.2017C117.38 16.8134 117.089 16.508 116.715 16.2855C116.346 16.063 115.915 15.9517 115.422 15.9517C114.897 15.9517 114.435 16.0795 114.037 16.3352C113.64 16.5862 113.329 16.9176 113.107 17.3295C112.889 17.7367 112.778 18.1842 112.773 18.6719V20.1847C112.773 20.8191 112.889 21.3636 113.121 21.8182C113.353 22.268 113.677 22.6136 114.094 22.8551C114.511 23.0919 114.998 23.2102 115.557 23.2102C115.931 23.2102 116.27 23.1581 116.573 23.054C116.876 22.9451 117.139 22.7865 117.361 22.5781C117.584 22.3698 117.752 22.1117 117.865 21.804L120.266 22.0739C120.114 22.7083 119.826 23.2623 119.4 23.7358C118.978 24.2045 118.438 24.5691 117.78 24.8295C117.122 25.0852 116.369 25.2131 115.522 25.2131ZM122.548 25V14.0909H125.119V18.4943H126.056L129.337 14.0909H132.434L128.393 19.446L132.477 25H129.366L126.376 20.8878H125.119V25H122.548ZM138.244 25.2131C137.155 25.2131 136.219 24.974 135.438 24.4957C134.662 24.0175 134.063 23.357 133.641 22.5142C133.225 21.6667 133.016 20.6913 133.016 19.5881C133.016 18.4801 133.229 17.5024 133.656 16.6548C134.082 15.8026 134.683 15.1397 135.46 14.6662C136.241 14.188 137.164 13.9489 138.229 13.9489C139.115 13.9489 139.898 14.1122 140.58 14.4389C141.267 14.7609 141.814 15.2178 142.221 15.8097C142.628 16.3968 142.86 17.0833 142.917 17.8693H140.46C140.36 17.3437 140.123 16.9058 139.749 16.5554C139.38 16.2003 138.885 16.0227 138.265 16.0227C137.739 16.0227 137.278 16.1648 136.88 16.4489C136.482 16.7282 136.172 17.1307 135.95 17.6562C135.732 18.1818 135.623 18.8116 135.623 19.5455C135.623 20.2888 135.732 20.928 135.95 21.4631C136.167 21.9934 136.473 22.4029 136.866 22.6918C137.263 22.9759 137.73 23.1179 138.265 23.1179C138.644 23.1179 138.982 23.0469 139.281 22.9048C139.584 22.758 139.837 22.5473 140.04 22.2727C140.244 21.9981 140.384 21.6643 140.46 21.2713H142.917C142.855 22.0431 142.628 22.7273 142.235 23.3239C141.842 23.9157 141.307 24.3797 140.63 24.7159C139.953 25.0473 139.157 25.2131 138.244 25.2131ZM149.989 25V14.0909H159.201V25H156.722V16.2003H152.446V25H149.989ZM161.844 29.0909V14.0909H164.373V15.8949H164.522C164.655 15.6297 164.842 15.348 165.083 15.0497C165.325 14.7467 165.651 14.4886 166.063 14.2756C166.475 14.0578 167.001 13.9489 167.64 13.9489C168.483 13.9489 169.243 14.1643 169.92 14.5952C170.602 15.0213 171.141 15.6534 171.539 16.4915C171.942 17.3248 172.143 18.3475 172.143 19.5597C172.143 20.7576 171.946 21.7756 171.553 22.6136C171.16 23.4517 170.625 24.0909 169.948 24.5312C169.271 24.9716 168.504 25.1918 167.647 25.1918C167.022 25.1918 166.504 25.0876 166.092 24.8793C165.68 24.6709 165.348 24.42 165.097 24.1264C164.851 23.8281 164.659 23.5464 164.522 23.2812H164.415V29.0909H161.844ZM164.366 19.5455C164.366 20.2509 164.465 20.8688 164.664 21.3991C164.868 21.9295 165.159 22.3437 165.538 22.642C165.921 22.9356 166.385 23.0824 166.93 23.0824C167.498 23.0824 167.974 22.9309 168.357 22.6278C168.741 22.3201 169.03 21.901 169.224 21.3707C169.423 20.8357 169.522 20.2273 169.522 19.5455C169.522 18.8684 169.425 18.267 169.231 17.7415C169.037 17.2159 168.748 16.804 168.364 16.5057C167.981 16.2074 167.503 16.0582 166.93 16.0582C166.38 16.0582 165.914 16.2027 165.531 16.4915C165.147 16.7803 164.856 17.1851 164.657 17.706C164.463 18.2268 164.366 18.84 164.366 19.5455ZM179.103 25.2131C178.038 25.2131 177.114 24.9787 176.333 24.5099C175.552 24.0412 174.946 23.3854 174.515 22.5426C174.089 21.6998 173.876 20.715 173.876 19.5881C173.876 18.4612 174.089 17.474 174.515 16.6264C174.946 15.7789 175.552 15.1207 176.333 14.652C177.114 14.1832 178.038 13.9489 179.103 13.9489C180.168 13.9489 181.092 14.1832 181.873 14.652C182.654 15.1207 183.258 15.7789 183.684 16.6264C184.115 17.474 184.33 18.4612 184.33 19.5881C184.33 20.715 184.115 21.6998 183.684 22.5426C183.258 23.3854 182.654 24.0412 181.873 24.5099C181.092 24.9787 180.168 25.2131 179.103 25.2131ZM179.117 23.1534C179.695 23.1534 180.178 22.9948 180.566 22.6776C180.954 22.3556 181.243 21.9247 181.433 21.3849C181.627 20.8452 181.724 20.2438 181.724 19.581C181.724 18.9134 181.627 18.3097 181.433 17.7699C181.243 17.2254 180.954 16.7921 180.566 16.4702C180.178 16.1482 179.695 15.9872 179.117 15.9872C178.525 15.9872 178.033 16.1482 177.64 16.4702C177.252 16.7921 176.96 17.2254 176.766 17.7699C176.577 18.3097 176.482 18.9134 176.482 19.581C176.482 20.2438 176.577 20.8452 176.766 21.3849C176.96 21.9247 177.252 22.3556 177.64 22.6776C178.033 22.9948 178.525 23.1534 179.117 23.1534ZM185.909 22.0099H188.458C188.482 22.4171 188.664 22.732 189.005 22.9545C189.346 23.1771 189.789 23.2884 190.333 23.2884C190.887 23.2884 191.354 23.1676 191.733 22.9261C192.116 22.6799 192.308 22.3082 192.308 21.8111C192.308 21.5175 192.234 21.2595 192.088 21.0369C191.941 20.8097 191.735 20.6345 191.47 20.5114C191.205 20.3883 190.892 20.3267 190.532 20.3267H188.863V18.5014H190.532C191.067 18.5014 191.472 18.3783 191.747 18.1321C192.026 17.8859 192.166 17.5758 192.166 17.2017C192.166 16.7992 192.019 16.4725 191.725 16.2216C191.437 15.9706 191.037 15.8452 190.525 15.8452C190.014 15.8452 189.588 15.9612 189.247 16.1932C188.911 16.4252 188.735 16.7235 188.721 17.0881H186.186C186.195 16.4536 186.385 15.902 186.754 15.4332C187.128 14.9645 187.63 14.5999 188.26 14.3395C188.894 14.0791 189.609 13.9489 190.404 13.9489C191.257 13.9489 191.993 14.0767 192.613 14.3324C193.234 14.5881 193.712 14.9455 194.048 15.4048C194.384 15.8594 194.552 16.3944 194.552 17.0099C194.552 17.6018 194.368 18.0919 193.998 18.4801C193.629 18.8636 193.132 19.1383 192.507 19.304V19.4176C192.938 19.4413 193.326 19.5644 193.672 19.7869C194.017 20.0047 194.292 20.3007 194.495 20.6747C194.699 21.0488 194.801 21.482 194.801 21.9744C194.801 22.642 194.609 23.2197 194.225 23.7074C193.842 24.1903 193.314 24.562 192.642 24.8224C191.974 25.0829 191.209 25.2131 190.348 25.2131C189.51 25.2131 188.759 25.0876 188.096 24.8366C187.438 24.581 186.915 24.214 186.527 23.7358C186.138 23.2576 185.932 22.6823 185.909 22.0099ZM201.583 25.2131C200.518 25.2131 199.595 24.9787 198.814 24.5099C198.032 24.0412 197.426 23.3854 196.995 22.5426C196.569 21.6998 196.356 20.715 196.356 19.5881C196.356 18.4612 196.569 17.474 196.995 16.6264C197.426 15.7789 198.032 15.1207 198.814 14.652C199.595 14.1832 200.518 13.9489 201.583 13.9489C202.649 13.9489 203.572 14.1832 204.353 14.652C205.135 15.1207 205.738 15.7789 206.164 16.6264C206.595 17.474 206.811 18.4612 206.811 19.5881C206.811 20.715 206.595 21.6998 206.164 22.5426C205.738 23.3854 205.135 24.0412 204.353 24.5099C203.572 24.9787 202.649 25.2131 201.583 25.2131ZM201.598 23.1534C202.175 23.1534 202.658 22.9948 203.047 22.6776C203.435 22.3556 203.724 21.9247 203.913 21.3849C204.107 20.8452 204.204 20.2438 204.204 19.581C204.204 18.9134 204.107 18.3097 203.913 17.7699C203.724 17.2254 203.435 16.7921 203.047 16.4702C202.658 16.1482 202.175 15.9872 201.598 15.9872C201.006 15.9872 200.513 16.1482 200.12 16.4702C199.732 16.7921 199.441 17.2254 199.247 17.7699C199.057 18.3097 198.963 18.9134 198.963 19.581C198.963 20.2438 199.057 20.8452 199.247 21.3849C199.441 21.9247 199.732 22.3556 200.12 22.6776C200.513 22.9948 201.006 23.1534 201.598 23.1534ZM208.993 29.0909V14.0909H211.521V15.8949H211.67C211.803 15.6297 211.99 15.348 212.232 15.0497C212.473 14.7467 212.8 14.4886 213.212 14.2756C213.624 14.0578 214.149 13.9489 214.788 13.9489C215.631 13.9489 216.391 14.1643 217.068 14.5952C217.75 15.0213 218.29 15.6534 218.688 16.4915C219.09 17.3248 219.291 18.3475 219.291 19.5597C219.291 20.7576 219.095 21.7756 218.702 22.6136C218.309 23.4517 217.774 24.0909 217.097 24.5312C216.42 24.9716 215.652 25.1918 214.795 25.1918C214.17 25.1918 213.652 25.0876 213.24 24.8793C212.828 24.6709 212.497 24.42 212.246 24.1264C212 23.8281 211.808 23.5464 211.67 23.2812H211.564V29.0909H208.993ZM211.514 19.5455C211.514 20.2509 211.614 20.8688 211.812 21.3991C212.016 21.9295 212.307 22.3437 212.686 22.642C213.07 22.9356 213.534 23.0824 214.078 23.0824C214.646 23.0824 215.122 22.9309 215.506 22.6278C215.889 22.3201 216.178 21.901 216.372 21.3707C216.571 20.8357 216.67 20.2273 216.67 19.5455C216.67 18.8684 216.573 18.267 216.379 17.7415C216.185 17.2159 215.896 16.804 215.513 16.5057C215.129 16.2074 214.651 16.0582 214.078 16.0582C213.529 16.0582 213.062 16.2027 212.679 16.4915C212.295 16.7803 212.004 17.1851 211.805 17.706C211.611 18.2268 211.514 18.84 211.514 19.5455ZM226.251 25.2131C225.186 25.2131 224.263 24.9787 223.482 24.5099C222.7 24.0412 222.094 23.3854 221.663 22.5426C221.237 21.6998 221.024 20.715 221.024 19.5881C221.024 18.4612 221.237 17.474 221.663 16.6264C222.094 15.7789 222.7 15.1207 223.482 14.652C224.263 14.1832 225.186 13.9489 226.251 13.9489C227.317 13.9489 228.24 14.1832 229.021 14.652C229.803 15.1207 230.406 15.7789 230.832 16.6264C231.263 17.474 231.479 18.4612 231.479 19.5881C231.479 20.715 231.263 21.6998 230.832 22.5426C230.406 23.3854 229.803 24.0412 229.021 24.5099C228.24 24.9787 227.317 25.2131 226.251 25.2131ZM226.266 23.1534C226.843 23.1534 227.326 22.9948 227.714 22.6776C228.103 22.3556 228.392 21.9247 228.581 21.3849C228.775 20.8452 228.872 20.2438 228.872 19.581C228.872 18.9134 228.775 18.3097 228.581 17.7699C228.392 17.2254 228.103 16.7921 227.714 16.4702C227.326 16.1482 226.843 15.9872 226.266 15.9872C225.674 15.9872 225.181 16.1482 224.788 16.4702C224.4 16.7921 224.109 17.2254 223.915 17.7699C223.725 18.3097 223.631 18.9134 223.631 19.581C223.631 20.2438 223.725 20.8452 223.915 21.3849C224.109 21.9247 224.4 22.3556 224.788 22.6776C225.181 22.9948 225.674 23.1534 226.266 23.1534ZM238.419 25.2131C237.33 25.2131 236.395 24.974 235.614 24.4957C234.837 24.0175 234.239 23.357 233.817 22.5142C233.4 21.6667 233.192 20.6913 233.192 19.5881C233.192 18.4801 233.405 17.5024 233.831 16.6548C234.257 15.8026 234.859 15.1397 235.635 14.6662C236.417 14.188 237.34 13.9489 238.405 13.9489C239.291 13.9489 240.074 14.1122 240.756 14.4389C241.443 14.7609 241.989 15.2178 242.397 15.8097C242.804 16.3968 243.036 17.0833 243.093 17.8693H240.635C240.536 17.3437 240.299 16.9058 239.925 16.5554C239.556 16.2003 239.061 16.0227 238.441 16.0227C237.915 16.0227 237.453 16.1648 237.056 16.4489C236.658 16.7282 236.348 17.1307 236.125 17.6562C235.908 18.1818 235.799 18.8116 235.799 19.5455C235.799 20.2888 235.908 20.928 236.125 21.4631C236.343 21.9934 236.649 22.4029 237.042 22.6918C237.439 22.9759 237.906 23.1179 238.441 23.1179C238.819 23.1179 239.158 23.0469 239.456 22.9048C239.759 22.758 240.013 22.5473 240.216 22.2727C240.42 21.9981 240.56 21.6643 240.635 21.2713H243.093C243.031 22.0431 242.804 22.7273 242.411 23.3239C242.018 23.9157 241.483 24.3797 240.806 24.7159C240.129 25.0473 239.333 25.2131 238.419 25.2131ZM244.412 16.2003V14.0909H253.957V16.2003H250.428V25H247.942V16.2003H244.412ZM256.005 25V14.0909H258.576V25H256.005ZM257.297 12.5426C256.89 12.5426 256.54 12.4077 256.246 12.1378C255.953 11.8632 255.806 11.5341 255.806 11.1506C255.806 10.7623 255.953 10.4332 256.246 10.1634C256.54 9.88873 256.89 9.75142 257.297 9.75142C257.709 9.75142 258.06 9.88873 258.348 10.1634C258.642 10.4332 258.789 10.7623 258.789 11.1506C258.789 11.5341 258.642 11.8632 258.348 12.1378C258.06 12.4077 257.709 12.5426 257.297 12.5426ZM85.1506 53.2131C84.0568 53.2131 83.1122 52.9858 82.3168 52.5312C81.526 52.072 80.9176 51.4233 80.4915 50.5852C80.0653 49.7424 79.8523 48.7505 79.8523 47.6094C79.8523 46.4872 80.0653 45.5024 80.4915 44.6548C80.9223 43.8026 81.5237 43.1397 82.2955 42.6662C83.0672 42.188 83.974 41.9489 85.0156 41.9489C85.688 41.9489 86.3224 42.0578 86.919 42.2756C87.5204 42.4886 88.0507 42.8201 88.5099 43.2699C88.974 43.7197 89.3385 44.2926 89.6037 44.9886C89.8688 45.6799 90.0014 46.5038 90.0014 47.4602V48.2486H81.0597V46.5156H87.5369C87.5322 46.0232 87.4257 45.5852 87.2173 45.2017C87.009 44.8134 86.7178 44.508 86.3438 44.2855C85.9744 44.063 85.5436 43.9517 85.0511 43.9517C84.5256 43.9517 84.0639 44.0795 83.6662 44.3352C83.2685 44.5862 82.9583 44.9176 82.7358 45.3295C82.518 45.7367 82.4067 46.1842 82.402 46.6719V48.1847C82.402 48.8191 82.518 49.3636 82.75 49.8182C82.982 50.268 83.3063 50.6136 83.723 50.8551C84.1397 51.0919 84.6274 51.2102 85.1861 51.2102C85.5601 51.2102 85.8987 51.1581 86.2017 51.054C86.5047 50.9451 86.7675 50.7865 86.9901 50.5781C87.2126 50.3698 87.3807 50.1117 87.4943 49.804L89.8949 50.0739C89.7434 50.7083 89.4545 51.2623 89.0284 51.7358C88.607 52.2045 88.0672 52.5691 87.4091 52.8295C86.7509 53.0852 85.9981 53.2131 85.1506 53.2131ZM99.6694 46.4801V48.5895H93.8597V46.4801H99.6694ZM94.6552 42.0909V53H92.1765V42.0909H94.6552ZM101.353 42.0909V53H98.881V42.0909H101.353ZM108.783 53.2131C107.69 53.2131 106.745 52.9858 105.95 52.5312C105.159 52.072 104.55 51.4233 104.124 50.5852C103.698 49.7424 103.485 48.7505 103.485 47.6094C103.485 46.4872 103.698 45.5024 104.124 44.6548C104.555 43.8026 105.156 43.1397 105.928 42.6662C106.7 42.188 107.607 41.9489 108.648 41.9489C109.321 41.9489 109.955 42.0578 110.552 42.2756C111.153 42.4886 111.683 42.8201 112.143 43.2699C112.607 43.7197 112.971 44.2926 113.237 44.9886C113.502 45.6799 113.634 46.5038 113.634 47.4602V48.2486H104.692V46.5156H111.17C111.165 46.0232 111.058 45.5852 110.85 45.2017C110.642 44.8134 110.351 44.508 109.977 44.2855C109.607 44.063 109.176 43.9517 108.684 43.9517C108.158 43.9517 107.697 44.0795 107.299 44.3352C106.901 44.5862 106.591 44.9176 106.369 45.3295C106.151 45.7367 106.04 46.1842 106.035 46.6719V48.1847C106.035 48.8191 106.151 49.3636 106.383 49.8182C106.615 50.268 106.939 50.6136 107.356 50.8551C107.772 51.0919 108.26 51.2102 108.819 51.2102C109.193 51.2102 109.531 51.1581 109.835 51.054C110.138 50.9451 110.4 50.7865 110.623 50.5781C110.845 50.3698 111.013 50.1117 111.127 49.804L113.528 50.0739C113.376 50.7083 113.087 51.2623 112.661 51.7358C112.24 52.2045 111.7 52.5691 111.042 52.8295C110.384 53.0852 109.631 53.2131 108.783 53.2131ZM115.809 57.0909V42.0909H118.338V43.8949H118.487C118.619 43.6297 118.806 43.348 119.048 43.0497C119.289 42.7467 119.616 42.4886 120.028 42.2756C120.44 42.0578 120.966 41.9489 121.605 41.9489C122.448 41.9489 123.208 42.1643 123.885 42.5952C124.566 43.0213 125.106 43.6534 125.504 44.4915C125.906 45.3248 126.108 46.3475 126.108 47.5597C126.108 48.7576 125.911 49.7756 125.518 50.6136C125.125 51.4517 124.59 52.0909 123.913 52.5312C123.236 52.9716 122.469 53.1918 121.612 53.1918C120.987 53.1918 120.468 53.0876 120.056 52.8793C119.645 52.6709 119.313 52.42 119.062 52.1264C118.816 51.8281 118.624 51.5464 118.487 51.2812H118.38V57.0909H115.809ZM118.331 47.5455C118.331 48.2509 118.43 48.8688 118.629 49.3991C118.833 49.9295 119.124 50.3437 119.502 50.642C119.886 50.9356 120.35 51.0824 120.895 51.0824C121.463 51.0824 121.939 50.9309 122.322 50.6278C122.706 50.3201 122.994 49.901 123.189 49.3707C123.387 48.8357 123.487 48.2273 123.487 47.5455C123.487 46.8684 123.39 46.267 123.196 45.7415C123.002 45.2159 122.713 44.804 122.329 44.5057C121.946 44.2074 121.467 44.0582 120.895 44.0582C120.345 44.0582 119.879 44.2027 119.495 44.4915C119.112 44.7803 118.821 45.1851 118.622 45.706C118.428 46.2268 118.331 46.84 118.331 47.5455ZM135.525 42.0909V44.2003H130.824V53H128.309V42.0909H135.525ZM141.967 53.2131C140.873 53.2131 139.929 52.9858 139.133 52.5312C138.342 52.072 137.734 51.4233 137.308 50.5852C136.882 49.7424 136.669 48.7505 136.669 47.6094C136.669 46.4872 136.882 45.5024 137.308 44.6548C137.739 43.8026 138.34 43.1397 139.112 42.6662C139.884 42.188 140.79 41.9489 141.832 41.9489C142.504 41.9489 143.139 42.0578 143.735 42.2756C144.337 42.4886 144.867 42.8201 145.326 43.2699C145.79 43.7197 146.155 44.2926 146.42 44.9886C146.685 45.6799 146.818 46.5038 146.818 47.4602V48.2486H137.876V46.5156H144.353C144.349 46.0232 144.242 45.5852 144.034 45.2017C143.825 44.8134 143.534 44.508 143.16 44.2855C142.791 44.063 142.36 43.9517 141.868 43.9517C141.342 43.9517 140.88 44.0795 140.483 44.3352C140.085 44.5862 139.775 44.9176 139.552 45.3295C139.334 45.7367 139.223 46.1842 139.218 46.6719V48.1847C139.218 48.8191 139.334 49.3636 139.566 49.8182C139.798 50.268 140.123 50.6136 140.539 50.8551C140.956 51.0919 141.444 51.2102 142.002 51.2102C142.377 51.2102 142.715 51.1581 143.018 51.054C143.321 50.9451 143.584 50.7865 143.806 50.5781C144.029 50.3698 144.197 50.1117 144.311 49.804L146.711 50.0739C146.56 50.7083 146.271 51.2623 145.845 51.7358C145.423 52.2045 144.884 52.5691 144.225 52.8295C143.567 53.0852 142.815 53.2131 141.967 53.2131ZM148.084 44.2003V42.0909H157.629V44.2003H154.099V53H151.614V44.2003H148.084ZM162.155 49.5199L166.523 42.0909H169.165V53H166.679V45.5639L162.326 53H159.676V42.0909H162.155V49.5199ZM171.805 53V42.0909H174.376V46.4943H175.314L178.595 42.0909H181.692L177.651 47.446L181.734 53H178.624L175.634 48.8878H174.376V53H171.805ZM185.671 49.5199L190.039 42.0909H192.681V53H190.195V45.5639L185.841 53H183.192V42.0909H185.671V49.5199ZM201.695 53.1989V50.983H202.526C202.9 50.983 203.208 50.9285 203.45 50.8196C203.691 50.7107 203.885 50.5545 204.032 50.3509C204.183 50.1473 204.309 49.9105 204.408 49.6406L204.6 49.1506L199.401 38.4545H202.157L205.779 46.2386L208.911 38.4545H211.624L206.61 50.3153C206.378 50.8267 206.111 51.3026 205.808 51.7429C205.504 52.1785 205.109 52.5312 204.621 52.8011C204.138 53.0663 203.509 53.1989 202.732 53.1989H201.695ZM212.587 53V42.0909H215.158V46.4943H216.095L219.376 42.0909H222.473L218.432 47.446L222.516 53H219.405L216.415 48.8878H215.158V53H212.587ZM223.973 57.0909V42.0909H226.502V43.8949H226.651C226.783 43.6297 226.971 43.348 227.212 43.0497C227.453 42.7467 227.78 42.4886 228.192 42.2756C228.604 42.0578 229.13 41.9489 229.769 41.9489C230.612 41.9489 231.372 42.1643 232.049 42.5952C232.73 43.0213 233.27 43.6534 233.668 44.4915C234.07 45.3248 234.272 46.3475 234.272 47.5597C234.272 48.7576 234.075 49.7756 233.682 50.6136C233.289 51.4517 232.754 52.0909 232.077 52.5312C231.4 52.9716 230.633 53.1918 229.776 53.1918C229.151 53.1918 228.632 53.0876 228.221 52.8793C227.809 52.6709 227.477 52.42 227.226 52.1264C226.98 51.8281 226.788 51.5464 226.651 51.2812H226.544V57.0909H223.973ZM226.495 47.5455C226.495 48.2509 226.594 48.8688 226.793 49.3991C226.997 49.9295 227.288 50.3437 227.667 50.642C228.05 50.9356 228.514 51.0824 229.059 51.0824C229.627 51.0824 230.103 50.9309 230.486 50.6278C230.87 50.3201 231.158 49.901 231.353 49.3707C231.551 48.8357 231.651 48.2273 231.651 47.5455C231.651 46.8684 231.554 46.267 231.36 45.7415C231.166 45.2159 230.877 44.804 230.493 44.5057C230.11 44.2074 229.632 44.0582 229.059 44.0582C228.509 44.0582 228.043 44.2027 227.659 44.4915C227.276 44.7803 226.985 45.1851 226.786 45.706C226.592 46.2268 226.495 46.84 226.495 47.5455ZM239.613 53.2202C238.921 53.2202 238.299 53.0971 237.745 52.8509C237.195 52.5999 236.76 52.2306 236.438 51.7429C236.121 51.2552 235.962 50.6539 235.962 49.9389C235.962 49.3234 236.076 48.8144 236.303 48.4119C236.53 48.0095 236.84 47.6875 237.233 47.446C237.626 47.2045 238.069 47.0223 238.561 46.8991C239.059 46.7713 239.572 46.679 240.103 46.6222C240.742 46.5559 241.26 46.4967 241.658 46.4446C242.056 46.3878 242.345 46.3026 242.525 46.1889C242.709 46.0705 242.801 45.8883 242.801 45.642V45.5994C242.801 45.0644 242.643 44.6501 242.326 44.3565C242.008 44.063 241.551 43.9162 240.955 43.9162C240.325 43.9162 239.826 44.0535 239.456 44.3281C239.092 44.6027 238.846 44.9271 238.718 45.3011L236.317 44.9602C236.507 44.2973 236.819 43.7434 237.255 43.2983C237.69 42.8485 238.223 42.5123 238.853 42.2898C239.482 42.0625 240.178 41.9489 240.941 41.9489C241.466 41.9489 241.989 42.0104 242.51 42.1335C243.031 42.2566 243.507 42.4602 243.938 42.7443C244.369 43.0237 244.714 43.4048 244.975 43.8878C245.24 44.3707 245.373 44.9744 245.373 45.6989V53H242.901V51.5014H242.816C242.659 51.8045 242.439 52.0885 242.155 52.3537C241.876 52.6141 241.523 52.8248 241.097 52.9858C240.676 53.142 240.181 53.2202 239.613 53.2202ZM240.28 51.331C240.796 51.331 241.244 51.2292 241.623 51.0256C242.001 50.8172 242.292 50.5426 242.496 50.2017C242.704 49.8608 242.809 49.4891 242.809 49.0866V47.8011C242.728 47.8674 242.591 47.929 242.397 47.9858C242.207 48.0426 241.994 48.0923 241.757 48.1349C241.521 48.1776 241.286 48.2154 241.054 48.2486C240.822 48.2817 240.621 48.3101 240.451 48.3338C240.067 48.3859 239.724 48.4711 239.421 48.5895C239.118 48.7079 238.879 48.8736 238.703 49.0866C238.528 49.295 238.441 49.5649 238.441 49.8963C238.441 50.3698 238.614 50.7273 238.959 50.9688C239.305 51.2102 239.745 51.331 240.28 51.331ZM247.958 53V42.0909H250.529V53H247.958ZM247.127 40.4858C246.753 40.4858 246.431 40.3532 246.161 40.0881C245.886 39.8229 245.749 39.5104 245.749 39.1506C245.749 38.7718 245.886 38.4545 246.161 38.1989C246.431 37.9384 246.753 37.8082 247.127 37.8082C247.51 37.8082 247.832 37.9384 248.093 38.1989C248.358 38.4545 248.49 38.7718 248.49 39.1506C248.49 39.5104 248.358 39.8229 248.093 40.0881C247.832 40.3532 247.51 40.4858 247.127 40.4858ZM251.388 40.4858C251.014 40.4858 250.69 40.3532 250.415 40.0881C250.145 39.8229 250.01 39.5104 250.01 39.1506C250.01 38.7718 250.145 38.4545 250.415 38.1989C250.69 37.9384 251.014 37.8082 251.388 37.8082C251.772 37.8082 252.094 37.9384 252.354 38.1989C252.619 38.4545 252.752 38.7718 252.752 39.1506C252.752 39.5104 252.619 39.8229 252.354 40.0881C252.094 40.3532 251.772 40.4858 251.388 40.4858ZM260.665 46.4801V48.5895H254.856V46.4801H260.665ZM255.651 42.0909V53H253.173V42.0909H255.651ZM262.349 42.0909V53H259.877V42.0909H262.349ZM267.429 49.5199L271.797 42.0909H274.439V53H271.953V45.5639L267.599 53H264.95V42.0909H267.429V49.5199Z" fill="#141414"/>
</svg>
