<svg xmlns="http://www.w3.org/2000/svg" viewBox="0 0 284 64"><path fill="#141414" fill-rule="evenodd" d="M32 11.78C13.92 11.78 3.07 32 3.07 32S13.92 52.22 32 52.22 60.93 32 60.93 32 50.08 11.78 32 11.78Zm0 38.4a18.18 18.18 0 1 0 0-36.36 18.18 18.18 0 0 0 0 36.36Z"/><path fill="#141414" fill-rule="evenodd" d="M33.56 17.36v11.17h10.15L30.44 46.64V35.47H20.29l13.27-18.11Z"/><path fill="#141414" d="M83.07 10.45V25h-2.63V10.45h2.63Zm10.23 8.03v2.11h-5.81v-2.11h5.81Zm-5.01-4.39V25h-2.48V14.09h2.48Zm6.7 0V25h-2.47V14.09h2.47Zm1.64 14.08v-5.28h.87c.23-.18.43-.42.58-.73.16-.31.28-.68.38-1.1.1-.43.19-.9.26-1.43.07-.53.13-1.1.18-1.71l.31-3.82h7.88v8.79h1.69v5.28h-2.49V25h-7.14v3.17h-2.53Zm3.51-5.28h4.5v-6.72h-3.2l-.17 1.75a29.3 29.3 0 0 1-.38 2.97 5.5 5.5 0 0 1-.75 2Zm15.39 2.33a5.65 5.65 0 0 1-2.83-.68 4.66 4.66 0 0 1-1.83-1.95c-.43-.84-.64-1.83-.64-2.98s.21-2.11.64-2.95a4.83 4.83 0 0 1 4.52-2.71c.67 0 1.31.11 1.9.33.6.21 1.13.54 1.59.99.46.45.83 1.02 1.09 1.72.26.69.4 1.52.4 2.47v.79h-8.94v-1.73h6.48c0-.49-.11-.93-.32-1.31a2.4 2.4 0 0 0-.87-.92c-.37-.22-.8-.33-1.29-.33a2.6 2.6 0 0 0-2.31 1.37c-.22.41-.33.85-.33 1.34v1.51c0 .63.12 1.18.35 1.63.23.45.56.8.97 1.04.42.24.9.36 1.46.36.37 0 .71-.05 1.02-.16.3-.11.57-.27.79-.48.22-.21.39-.47.5-.77l2.4.27a3.7 3.7 0 0 1-.87 1.66c-.42.47-.96.83-1.62 1.09-.66.26-1.41.38-2.26.38Zm7.03-.21V14.1h2.57v4.4h.94l3.28-4.4h3.1l-4.04 5.36 4.08 5.55h-3.11l-2.99-4.11h-1.26v4.11h-2.57Zm15.7.21a5.27 5.27 0 0 1-2.81-.72 4.79 4.79 0 0 1-1.8-1.98c-.42-.85-.62-1.82-.62-2.93s.21-2.09.64-2.93a4.83 4.83 0 0 1 4.57-2.71c.89 0 1.67.16 2.35.49a4 4 0 0 1 2.34 3.43h-2.46c-.1-.53-.34-.96-.71-1.31a2.02 2.02 0 0 0-1.48-.53c-.53 0-.99.14-1.38.43-.4.28-.71.68-.93 1.21-.22.53-.33 1.16-.33 1.89s.11 1.38.33 1.92c.22.53.52.94.92 1.23.4.28.86.43 1.4.43a2.1 2.1 0 0 0 1.78-.84c.2-.27.34-.61.42-1h2.46a4.01 4.01 0 0 1-2.28 3.44 5.4 5.4 0 0 1-2.39.5Zm11.74-.21V14.1h9.21v10.91h-2.48v-8.8h-4.28v8.8h-2.46Zm11.85 4.09v-15h2.53v1.8h.15c.13-.27.32-.55.56-.85.24-.3.57-.56.98-.77a4.18 4.18 0 0 1 5.48 2.22c.4.83.6 1.86.6 3.07s-.2 2.22-.59 3.05a4.13 4.13 0 0 1-3.9 2.58c-.62 0-1.14-.1-1.56-.31a3.23 3.23 0 0 1-.99-.75 4.2 4.2 0 0 1-.57-.85h-.11v5.81h-2.57Zm2.52-9.55c0 .71.1 1.32.3 1.85.2.53.49.94.87 1.24.38.29.85.44 1.39.44s1.04-.15 1.43-.45c.38-.31.67-.73.87-1.26.2-.54.3-1.14.3-1.83s-.1-1.28-.29-1.8a2.64 2.64 0 0 0-.87-1.24c-.38-.3-.86-.45-1.43-.45s-1.02.14-1.4.43c-.38.29-.68.69-.87 1.21a5.34 5.34 0 0 0-.29 1.84Zm14.74 5.67a5.26 5.26 0 0 1-2.77-.7 4.75 4.75 0 0 1-1.82-1.97c-.43-.84-.64-1.83-.64-2.95s.21-2.11.64-2.96a4.7 4.7 0 0 1 1.82-1.97c.78-.47 1.71-.7 2.77-.7s1.99.23 2.77.7a4.79 4.79 0 0 1 1.81 1.97c.43.85.65 1.83.65 2.96s-.21 2.11-.65 2.95a4.79 4.79 0 0 1-4.58 2.67Zm.01-2.06a2.2 2.2 0 0 0 1.45-.48c.39-.32.68-.75.87-1.29.19-.54.29-1.14.29-1.8s-.1-1.27-.29-1.81a2.88 2.88 0 0 0-.87-1.3c-.39-.32-.87-.48-1.45-.48s-1.08.16-1.48.48c-.39.32-.68.76-.87 1.3-.19.54-.28 1.14-.28 1.81s.1 1.26.28 1.8c.19.54.49.97.87 1.29.39.32.88.48 1.48.48Zm6.79-1.14h2.55c.02.41.21.72.55.94.34.22.78.33 1.33.33s1.02-.12 1.4-.36c.38-.25.57-.62.57-1.11 0-.29-.07-.55-.22-.77-.15-.23-.35-.4-.62-.53s-.58-.18-.94-.18h-1.67v-1.83h1.67c.54 0 .94-.12 1.21-.37.28-.25.42-.56.42-.93 0-.4-.15-.73-.44-.98-.29-.25-.69-.38-1.2-.38s-.94.12-1.28.35c-.34.23-.51.53-.53.89h-2.53c0-.63.2-1.19.57-1.65.37-.47.88-.83 1.51-1.09a5.59 5.59 0 0 1 2.14-.39c.85 0 1.59.13 2.21.38.62.26 1.1.61 1.43 1.07.34.45.5.99.5 1.61s-.18 1.08-.55 1.47c-.37.38-.87.66-1.49.82v.11c.43.02.82.15 1.16.37.35.22.62.51.82.89.2.37.31.81.31 1.3 0 .67-.19 1.25-.58 1.73-.38.48-.91.85-1.58 1.11-.67.26-1.43.39-2.29.39s-1.59-.13-2.25-.38a3.71 3.71 0 0 1-1.57-1.1 2.84 2.84 0 0 1-.62-1.73Zm15.67 3.2a5.28 5.28 0 0 1-2.77-.7 4.75 4.75 0 0 1-1.82-1.97c-.43-.84-.64-1.83-.64-2.95s.21-2.11.64-2.96a4.7 4.7 0 0 1 1.82-1.97c.78-.47 1.7-.7 2.77-.7s1.99.23 2.77.7a4.72 4.72 0 0 1 1.81 1.97c.43.85.65 1.83.65 2.96s-.22 2.11-.65 2.95a4.79 4.79 0 0 1-4.58 2.67Zm.02-2.06a2.2 2.2 0 0 0 1.45-.48c.39-.32.68-.75.87-1.29.19-.54.29-1.14.29-1.8s-.1-1.27-.29-1.81a2.88 2.88 0 0 0-.87-1.3c-.39-.32-.87-.48-1.45-.48s-1.09.16-1.48.48c-.39.32-.68.76-.87 1.3-.19.54-.28 1.14-.28 1.81s.09 1.26.28 1.8c.19.54.49.97.87 1.29.39.32.89.48 1.48.48Zm7.39 5.94v-15h2.53v1.8h.15c.13-.27.32-.55.56-.85.24-.3.57-.56.98-.77a4.18 4.18 0 0 1 5.48 2.22c.4.83.6 1.86.6 3.07s-.2 2.22-.59 3.05a4.15 4.15 0 0 1-3.9 2.58 3.4 3.4 0 0 1-1.55-.31 3.23 3.23 0 0 1-.99-.75c-.25-.3-.44-.58-.58-.85h-.11v5.81H209Zm2.52-9.55c0 .71.1 1.32.3 1.85.2.53.5.94.87 1.24.38.29.85.44 1.39.44s1.04-.15 1.43-.45c.38-.31.67-.73.87-1.26.2-.54.3-1.14.3-1.83s-.1-1.28-.29-1.8a2.64 2.64 0 0 0-.87-1.24c-.38-.3-.86-.45-1.43-.45s-1.02.14-1.4.43c-.38.29-.68.69-.87 1.21a5.34 5.34 0 0 0-.29 1.84Zm14.74 5.67a5.26 5.26 0 0 1-2.77-.7 4.75 4.75 0 0 1-1.82-1.97c-.43-.84-.64-1.83-.64-2.95s.21-2.11.64-2.96a4.7 4.7 0 0 1 1.82-1.97c.78-.47 1.7-.7 2.77-.7s1.99.23 2.77.7a4.72 4.72 0 0 1 1.81 1.97c.43.85.65 1.83.65 2.96s-.22 2.11-.65 2.95a4.79 4.79 0 0 1-4.58 2.67Zm.01-2.06a2.2 2.2 0 0 0 1.45-.48c.39-.32.68-.75.87-1.29.19-.54.29-1.14.29-1.8s-.1-1.27-.29-1.81a2.88 2.88 0 0 0-.87-1.3c-.39-.32-.87-.48-1.45-.48s-1.09.16-1.48.48c-.39.32-.68.76-.87 1.3-.19.54-.28 1.14-.28 1.81s.09 1.26.28 1.8c.19.54.49.97.87 1.29.39.32.89.48 1.48.48Zm12.15 2.06a5.3 5.3 0 0 1-2.81-.72 4.79 4.79 0 0 1-1.8-1.98c-.42-.85-.62-1.82-.62-2.93s.21-2.09.64-2.93a4.83 4.83 0 0 1 4.57-2.71c.89 0 1.67.16 2.35.49a4 4 0 0 1 2.34 3.43h-2.46c-.1-.53-.34-.96-.71-1.31a2.02 2.02 0 0 0-1.48-.53c-.53 0-.99.14-1.38.43-.4.28-.71.68-.93 1.21-.22.53-.33 1.16-.33 1.89s.11 1.38.33 1.92c.22.53.52.94.92 1.23.4.28.86.43 1.4.43a2.1 2.1 0 0 0 1.77-.84c.2-.27.34-.61.42-1h2.46a4.01 4.01 0 0 1-2.28 3.44 5.4 5.4 0 0 1-2.39.5Zm5.99-9.01V14.1h9.54v2.11h-3.53v8.8h-2.49v-8.8h-3.53Zm11.59 8.8V14.1h2.57v10.91h-2.57Zm1.29-12.46c-.41 0-.76-.13-1.05-.4-.29-.27-.44-.6-.44-.99s.15-.72.44-.99c.29-.27.64-.41 1.05-.41s.76.14 1.05.41c.29.27.44.6.44.99s-.15.71-.44.99c-.29.27-.64.4-1.05.4ZM85.15 53.21a5.65 5.65 0 0 1-2.83-.68 4.66 4.66 0 0 1-1.83-1.95c-.43-.84-.64-1.83-.64-2.98s.21-2.11.64-2.95a4.83 4.83 0 0 1 4.52-2.71c.67 0 1.31.11 1.9.33.6.21 1.13.54 1.59.99.46.45.83 1.02 1.09 1.72.27.69.4 1.52.4 2.47v.79h-8.94v-1.73h6.48c0-.49-.11-.93-.32-1.31a2.4 2.4 0 0 0-.87-.92c-.37-.22-.8-.33-1.29-.33a2.6 2.6 0 0 0-2.31 1.37c-.22.41-.33.85-.33 1.34v1.51c0 .63.12 1.18.35 1.63.23.45.56.8.97 1.04.42.24.9.36 1.46.36.37 0 .71-.05 1.02-.16.3-.11.57-.27.79-.48.22-.21.39-.47.5-.77l2.4.27a3.7 3.7 0 0 1-.87 1.66c-.42.47-.96.83-1.62 1.09-.66.26-1.41.38-2.26.38Zm14.52-6.73v2.11h-5.81v-2.11h5.81Zm-5.01-4.39V53h-2.48V42.09h2.48Zm6.7 0V53h-2.47V42.09h2.47Zm7.43 11.12a5.65 5.65 0 0 1-2.83-.68 4.66 4.66 0 0 1-1.83-1.95c-.43-.84-.64-1.83-.64-2.98s.21-2.11.64-2.95a4.83 4.83 0 0 1 4.52-2.71c.67 0 1.31.11 1.9.33.6.21 1.13.54 1.59.99.46.45.83 1.02 1.09 1.72.26.69.4 1.52.4 2.47v.79h-8.94v-1.73h6.48c0-.49-.11-.93-.32-1.31a2.4 2.4 0 0 0-.87-.92c-.37-.22-.8-.33-1.29-.33a2.6 2.6 0 0 0-2.31 1.37c-.22.41-.33.85-.33 1.34v1.51c0 .63.12 1.18.35 1.63.23.45.56.8.97 1.04.42.24.9.36 1.46.36.37 0 .71-.05 1.02-.16.3-.11.57-.27.79-.48.22-.21.39-.47.5-.77l2.4.27a3.7 3.7 0 0 1-.87 1.66c-.42.47-.96.83-1.62 1.09-.66.26-1.41.38-2.26.38Zm7.03 3.88v-15h2.53v1.8h.15c.13-.27.32-.55.56-.85.24-.3.57-.56.98-.77a4.18 4.18 0 0 1 5.48 2.22c.4.83.6 1.86.6 3.07s-.2 2.22-.59 3.05a4.13 4.13 0 0 1-3.9 2.58c-.62 0-1.14-.1-1.56-.31a3.23 3.23 0 0 1-.99-.75 4.2 4.2 0 0 1-.57-.85h-.11v5.81h-2.57Zm2.52-9.55c0 .71.1 1.32.3 1.85.2.53.5.94.87 1.24.38.29.85.44 1.39.44s1.04-.15 1.43-.45c.38-.31.67-.73.87-1.26.2-.53.3-1.14.3-1.83s-.1-1.28-.29-1.8a2.64 2.64 0 0 0-.87-1.24c-.38-.3-.86-.45-1.43-.45s-1.02.14-1.4.43c-.38.29-.67.69-.87 1.21a5.34 5.34 0 0 0-.29 1.84Zm17.19-5.45v2.11h-4.7V53h-2.51V42.09h7.22Zm6.44 11.12a5.65 5.65 0 0 1-2.83-.68 4.58 4.58 0 0 1-1.82-1.95c-.43-.84-.64-1.83-.64-2.98s.21-2.11.64-2.95a4.83 4.83 0 0 1 4.52-2.71c.67 0 1.31.11 1.9.33.6.21 1.13.54 1.59.99.46.45.83 1.02 1.09 1.72.26.69.4 1.52.4 2.47v.79h-8.94v-1.73h6.48c0-.49-.11-.93-.32-1.31a2.4 2.4 0 0 0-.87-.92c-.37-.22-.8-.33-1.29-.33a2.6 2.6 0 0 0-2.31 1.37c-.22.41-.33.85-.33 1.34v1.51c0 .63.12 1.18.35 1.63.23.45.56.8.97 1.04.42.24.9.36 1.46.36a3 3 0 0 0 1.02-.16 2.16 2.16 0 0 0 1.3-1.25l2.4.27a3.7 3.7 0 0 1-.87 1.66c-.42.47-.96.83-1.62 1.09-.66.26-1.41.38-2.26.38Zm6.12-9.01v-2.11h9.54v2.11h-3.53V53h-2.49v-8.8h-3.53Zm14.07 5.32 4.37-7.43h2.64V53h-2.49v-7.44L162.33 53h-2.65V42.09h2.48v7.43Zm9.65 3.48V42.09h2.57v4.4h.94l3.28-4.4h3.1l-4.04 5.36 4.08 5.55h-3.11l-2.99-4.11h-1.26V53h-2.57Zm13.87-3.48 4.37-7.43h2.64V53h-2.49v-7.44L185.85 53h-2.65V42.09h2.48v7.43Zm16.02 3.68v-2.22h.83c.37 0 .68-.05.92-.16s.43-.27.58-.47c.15-.2.28-.44.38-.71l.19-.49-5.2-10.7h2.76l3.62 7.78 3.13-7.78h2.71l-5.01 11.86c-.23.51-.5.99-.8 1.43a3.39 3.39 0 0 1-3.08 1.46h-1.04Zm10.89-.2V42.09h2.57v4.4h.94l3.28-4.4h3.1l-4.04 5.36 4.08 5.55h-3.11l-2.99-4.11h-1.26V53h-2.57Zm11.39 4.09v-15h2.53v1.8h.15c.13-.27.32-.55.56-.85.24-.3.57-.56.98-.77a4.18 4.18 0 0 1 5.48 2.22c.4.83.6 1.86.6 3.07s-.2 2.22-.59 3.05a4.45 4.45 0 0 1-1.61 1.92c-.68.44-1.44.66-2.3.66-.62 0-1.14-.1-1.56-.31a3.23 3.23 0 0 1-.99-.75 4.2 4.2 0 0 1-.57-.85h-.11v5.81h-2.57Zm2.52-9.55c0 .71.1 1.32.3 1.85.2.53.49.94.87 1.24.38.29.85.44 1.39.44s1.04-.15 1.43-.45c.38-.31.67-.73.87-1.26.2-.53.3-1.14.3-1.83s-.1-1.28-.29-1.8a2.64 2.64 0 0 0-.87-1.24c-.38-.3-.86-.45-1.43-.45s-1.02.14-1.4.43c-.38.29-.67.69-.87 1.21a5.34 5.34 0 0 0-.29 1.84Zm13.12 5.67c-.69 0-1.31-.12-1.87-.37a3.02 3.02 0 0 1-1.31-1.11 3.22 3.22 0 0 1-.48-1.8c0-.62.11-1.12.34-1.53.23-.4.54-.72.93-.97s.84-.42 1.33-.55c.5-.13 1.01-.22 1.54-.28l1.56-.18c.4-.06.69-.14.87-.26.18-.12.28-.3.28-.55v-.04c0-.53-.16-.95-.47-1.24a1.98 1.98 0 0 0-1.37-.44 2.5 2.5 0 0 0-1.5.41c-.36.27-.61.6-.74.97l-2.4-.34c.19-.66.5-1.22.94-1.66.43-.45.97-.79 1.6-1.01a6.94 6.94 0 0 1 3.66-.16c.52.12 1 .33 1.43.61.43.28.78.66 1.04 1.14.26.48.4 1.09.4 1.81v7.3h-2.47v-1.5h-.09a3.14 3.14 0 0 1-1.72 1.48c-.42.16-.92.23-1.48.23Zm.67-1.89c.52 0 .96-.1 1.34-.31a2.22 2.22 0 0 0 1.18-1.94v-1.29c-.08.07-.22.13-.41.18-.19.06-.4.11-.64.15l-.7.11-.6.09c-.38.05-.73.14-1.03.26-.3.12-.54.28-.72.5a1.2 1.2 0 0 0-.26.81c0 .47.17.83.52 1.07.35.24.79.36 1.32.36Zm7.68 1.67V42.08h2.57v10.91h-2.57Zm-.83-12.51c-.37 0-.7-.13-.97-.4a1.29 1.29 0 0 1 0-1.89c.27-.26.59-.39.97-.39s.71.13.97.39.4.57.4.95-.13.67-.4.94c-.26.27-.58.4-.97.4Zm4.26 0c-.37 0-.7-.13-.97-.4s-.4-.58-.4-.94c0-.38.14-.7.4-.95.28-.26.6-.39.97-.39s.71.13.97.39.4.57.4.95-.13.67-.4.94c-.26.27-.58.4-.97.4Zm9.28 5.99v2.11h-5.81v-2.11h5.81Zm-5.01-4.39v10.91h-2.48V42.08h2.48Zm6.7 0v10.91h-2.47V42.08h2.47Zm5.08 7.43 4.37-7.43h2.64v10.91h-2.49v-7.44l-4.35 7.44h-2.65V42.08h2.48v7.43Z"/></svg>