<svg xmlns="http://www.w3.org/2000/svg" width="464.5" height="506" viewBox="0 0 464.5 506"><path d="m132.75,46c0-4.42,3.58-8,8-8h34c4.42,0,8,3.58,8,8v28h-50v-28Z" fill="#19aa52"/><g isolation="isolate"><text transform="translate(146.33 61.82)" fill="#fff" font-family="Inter-Bold, Inter" font-size="16" font-weight="700" isolation="isolate"><tspan x="0" y="0">A+</tspan></text></g><rect x="132.75" y="74" width="50" height="36" fill="#7dc374"/><g isolation="isolate"><text transform="translate(151.77 97.82)" fill="#fff" font-family="Inter-Bold, Inter" font-size="16" font-weight="700" isolation="isolate"><tspan x="0" y="0">A</tspan></text></g><rect x="132.75" y="110" width="50" height="36" fill="#abd59e"/><g isolation="isolate"><text transform="translate(148.02 133.82)" fill="#fff" font-family="Inter-Bold, Inter" font-size="16" font-weight="700" isolation="isolate"><tspan x="0" y="0">A-</tspan></text></g><rect x="132.75" y="146" width="50" height="36" fill="#1791d2"/><g isolation="isolate"><text transform="translate(147.02 169.82)" fill="#fff" font-family="Inter-Bold, Inter" font-size="16" font-weight="700" isolation="isolate"><tspan x="0" y="0">B+</tspan></text></g><rect x="132.75" y="182" width="50" height="36" fill="#44b5e5"/><g isolation="isolate"><text transform="translate(152.46 205.82)" fill="#fff" font-family="Inter-Bold, Inter" font-size="16" font-weight="700" isolation="isolate"><tspan x="0" y="0">B</tspan></text></g><rect x="132.75" y="218" width="50" height="36" fill="#93ceef"/><g isolation="isolate"><text transform="translate(148.71 241.82)" font-family="Inter-Bold, Inter" font-size="16" font-weight="700" isolation="isolate"><tspan x="0" y="0">B-</tspan></text></g><rect x="132.75" y="254" width="50" height="36" fill="#fee533"/><g isolation="isolate"><text transform="translate(146.3 277.82)" font-family="Inter-Bold, Inter" font-size="16" font-weight="700" isolation="isolate"><tspan x="0" y="0">C+</tspan></text></g><rect x="132.75" y="290" width="50" height="36" fill="#fef25e"/><g isolation="isolate"><text transform="translate(151.73 313.82)" font-family="Inter-Bold, Inter" font-size="16" font-weight="700" isolation="isolate"><tspan x="0" y="0">C</tspan></text></g><rect x="132.75" y="326" width="50" height="36" fill="#fff8b2"/><g isolation="isolate"><text transform="translate(147.98 349.82)" font-family="Inter-Bold, Inter" font-size="16" font-weight="700" isolation="isolate"><tspan x="0" y="0">C-</tspan></text></g><rect x="132.75" y="362" width="50" height="36" fill="#fcbc4d"/><g isolation="isolate"><text transform="translate(146.49 385.82)" font-family="Inter-Bold, Inter" font-size="16" font-weight="700" isolation="isolate"><tspan x="0" y="0">D+</tspan></text></g><rect x="132.75" y="398" width="50" height="36" fill="#f2793d"/><g isolation="isolate"><text transform="translate(151.93 421.82)" fill="#fff" font-family="Inter-Bold, Inter" font-size="16" font-weight="700" isolation="isolate"><tspan x="0" y="0">D</tspan></text></g><rect x="132.75" y="434" width="50" height="36" fill="#ed4243"/><g isolation="isolate"><text transform="translate(148.18 457.82)" fill="#fff" font-family="Inter-Bold, Inter" font-size="16" font-weight="700" isolation="isolate"><tspan x="0" y="0">D-</tspan></text></g><path d="m132.75,470h50v28c0,4.42-3.58,8-8,8h-34c-4.42,0-8-3.58-8-8v-28Z" fill="#403339"/><g isolation="isolate"><text transform="translate(153.07 493.82)" fill="#fff" font-family="Inter-Bold, Inter" font-size="16" font-weight="700" isolation="isolate"><tspan x="0" y="0">F</tspan></text></g><g isolation="isolate"><text transform="translate(.75 61.82)" font-family="Inter-Medium, Inter" font-size="16" font-weight="500" isolation="isolate"><tspan x="0" y="0">95 - 100</tspan></text></g><path d="m.75,74h101" fill="none" stroke="#e0e0e0" stroke-linecap="square" stroke-linejoin="round" stroke-width="1.5"/><g isolation="isolate"><text transform="translate(.75 97.82)" font-family="Inter-Medium, Inter" font-size="16" font-weight="500" isolation="isolate"><tspan x="0" y="0">90 - 94</tspan></text></g><path d="m.75,110h101" fill="none" stroke="#e0e0e0" stroke-linecap="square" stroke-linejoin="round" stroke-width="1.5"/><g isolation="isolate"><text transform="translate(.75 133.82)" font-family="Inter-Medium, Inter" font-size="16" font-weight="500" isolation="isolate"><tspan x="0" y="0">85 - 89</tspan></text></g><path d="m.75,146h101" fill="none" stroke="#e0e0e0" stroke-linecap="square" stroke-linejoin="round" stroke-width="1.5"/><g isolation="isolate"><text transform="translate(.75 169.82)" font-family="Inter-Medium, Inter" font-size="16" font-weight="500" isolation="isolate"><tspan x="0" y="0">80 - 84</tspan></text></g><path d="m.75,182h101" fill="none" stroke="#e0e0e0" stroke-linecap="square" stroke-linejoin="round" stroke-width="1.5"/><g isolation="isolate"><text transform="translate(.75 205.82)" font-family="Inter-Medium, Inter" font-size="16" font-weight="500" isolation="isolate"><tspan x="0" y="0" letter-spacing="0em">7</tspan><tspan x="9.1" y="0" letter-spacing="0em">5 - </tspan><tspan x="34.91" y="0" letter-spacing="0em">7</tspan><tspan x="44.01" y="0" letter-spacing="0em">9</tspan></text></g><path d="m.75,218h101" fill="none" stroke="#e0e0e0" stroke-linecap="square" stroke-linejoin="round" stroke-width="1.5"/><g isolation="isolate"><text transform="translate(.75 241.82)" font-family="Inter-Medium, Inter" font-size="16" font-weight="500" isolation="isolate"><tspan x="0" y="0" letter-spacing="-.02em">7</tspan><tspan x="9.01" y="0">0 - </tspan><tspan x="35.23" y="0" letter-spacing="-.06em">7</tspan><tspan x="43.56" y="0">4</tspan></text></g><path d="m.75,254h101" fill="none" stroke="#e0e0e0" stroke-linecap="square" stroke-linejoin="round" stroke-width="1.5"/><g isolation="isolate"><text transform="translate(.75 277.82)" font-family="Inter-Medium, Inter" font-size="16" font-weight="500" isolation="isolate"><tspan x="0" y="0">65 - 69</tspan></text></g><path d="m.75,290h101" fill="none" stroke="#e0e0e0" stroke-linecap="square" stroke-linejoin="round" stroke-width="1.5"/><g isolation="isolate"><text transform="translate(.75 313.82)" font-family="Inter-Medium, Inter" font-size="16" font-weight="500" isolation="isolate"><tspan x="0" y="0">60 - 64</tspan></text></g><path d="m.75,326h101" fill="none" stroke="#e0e0e0" stroke-linecap="square" stroke-linejoin="round" stroke-width="1.5"/><g isolation="isolate"><text transform="translate(.75 349.82)" font-family="Inter-Medium, Inter" font-size="16" font-weight="500" isolation="isolate"><tspan x="0" y="0">55 - 59</tspan></text></g><path d="m.75,362h101" fill="none" stroke="#e0e0e0" stroke-linecap="square" stroke-linejoin="round" stroke-width="1.5"/><g isolation="isolate"><text transform="translate(.75 385.82)" font-family="Inter-Medium, Inter" font-size="16" font-weight="500" isolation="isolate"><tspan x="0" y="0">50 - 54</tspan></text></g><path d="m.75,398h101" fill="none" stroke="#e0e0e0" stroke-linecap="square" stroke-linejoin="round" stroke-width="1.5"/><g isolation="isolate"><text transform="translate(.75 421.82)" font-family="Inter-Medium, Inter" font-size="16" font-weight="500" isolation="isolate"><tspan x="0" y="0">45 - 49</tspan></text></g><path d="m.75,434h101" fill="none" stroke="#e0e0e0" stroke-linecap="square" stroke-linejoin="round" stroke-width="1.5"/><g isolation="isolate"><text transform="translate(.75 457.82)" font-family="Inter-Medium, Inter" font-size="16" font-weight="500" isolation="isolate"><tspan x="0" y="0">40 - 44</tspan></text></g><path d="m.75,470h101" fill="none" stroke="#e0e0e0" stroke-linecap="square" stroke-linejoin="round" stroke-width="1.5"/><g isolation="isolate"><text transform="translate(.75 493.82)" font-family="Inter-Medium, Inter" font-size="16" font-weight="500" isolation="isolate"><tspan x="0" y="0">0 - 39</tspan></text></g><g isolation="isolate"><text transform="translate(212.75 61.82)" font-family="Inter-Medium, Inter" font-size="16" font-weight="500" isolation="isolate"><tspan x="0" y="0">Абсол</tspan><tspan x="48.99" y="0" letter-spacing="-.03em">ю</tspan><tspan x="61.53" y="0">тна прозорі</tspan><tspan x="153.4" y="0" letter-spacing="-.01em">с</tspan><tspan x="162.32" y="0">ть</tspan></text></g><path d="m212.75,74h251" fill="none" stroke="#e0e0e0" stroke-linecap="square" stroke-linejoin="round" stroke-width="1.5"/><g isolation="isolate"><text transform="translate(212.75 115.82)" font-family="Inter-Medium, Inter" font-size="16" font-weight="500" isolation="isolate"><tspan x="0" y="0">Відмінна прозорі</tspan><tspan x="133.32" y="0" letter-spacing="-.01em">с</tspan><tspan x="142.24" y="0" letter-spacing="0em">ть</tspan></text></g><path d="m212.75,146h251" fill="none" stroke="#e0e0e0" stroke-linecap="square" stroke-linejoin="round" stroke-width="1.5"/><g isolation="isolate"><text transform="translate(212.75 205.82)" font-family="Inter-Medium, Inter" font-size="16" font-weight="500" isolation="isolate"><tspan x="0" y="0">Добра прозорі</tspan><tspan x="115.12" y="0" letter-spacing="-.01em">с</tspan><tspan x="124.04" y="0">ть</tspan></text></g><path d="m212.75,254h251" fill="none" stroke="#e0e0e0" stroke-linecap="square" stroke-linejoin="round" stroke-width="1.5"/><g isolation="isolate"><text transform="translate(212.75 313.82)" font-family="Inter-Medium, Inter" font-size="16" font-weight="500" isolation="isolate"><tspan x="0" y="0">Середня прозорі</tspan><tspan x="133.82" y="0" letter-spacing="-.01em">с</tspan><tspan x="142.74" y="0">ть</tspan></text></g><path d="m212.75,362h251" fill="none" stroke="#e0e0e0" stroke-linecap="square" stroke-linejoin="round" stroke-width="1.5"/><g isolation="isolate"><text transform="translate(212.75 421.82)" font-family="Inter-Medium, Inter" font-size="16" font-weight="500" isolation="isolate"><tspan x="0" y="0">Недо</tspan><tspan x="41.14" y="0" letter-spacing="-.01em">с</tspan><tspan x="50.06" y="0" letter-spacing="-.03em">т</tspan><tspan x="58.32" y="0" letter-spacing="-.04em">а</tspan><tspan x="66.83" y="0" letter-spacing="0em">тня прозорі</tspan><tspan x="158.66" y="0" letter-spacing="-.01em">с</tspan><tspan x="167.58" y="0">ть</tspan></text></g><path d="m212.75,470h251" fill="none" stroke="#e0e0e0" stroke-linecap="square" stroke-linejoin="round" stroke-width="1.5"/><g isolation="isolate"><text transform="translate(212.75 493.82)" font-family="Inter-Medium, Inter" font-size="16" font-weight="500" isolation="isolate"><tspan x="0" y="0">Неприйн</tspan><tspan x="69.16" y="0" letter-spacing="-.04em">я</tspan><tspan x="77.64" y="0" letter-spacing="0em">тна прозорі</tspan><tspan x="169.51" y="0" letter-spacing="-.01em">с</tspan><tspan x="178.43" y="0" letter-spacing="0em">ть</tspan></text></g><g isolation="isolate"><text transform="translate(.75 13.82)" font-family="Inter-Bold, Inter" font-size="16" font-weight="700" isolation="isolate"><tspan x="0" y="0">Бали</tspan></text></g><g isolation="isolate"><text transform="translate(129.49 13.82)" font-family="Inter-Bold, Inter" font-size="16" font-weight="700" isolation="isolate"><tspan x="0" y="0">Оцінка</tspan></text></g><g isolation="isolate"><text transform="translate(212.75 13.82)" font-family="Inter-Bold, Inter" font-size="16" font-weight="700" isolation="isolate"><tspan x="0" y="0">Харак</tspan><tspan x="49.49" y="0" letter-spacing="-.02em">т</tspan><tspan x="58.1" y="0">ери</tspan><tspan x="87.56" y="0" letter-spacing="0em">с</tspan><tspan x="96.83" y="0" letter-spacing="0em">тика</tspan></text></g><path d="m132.75,74h50" fill="none" stroke="#fff" stroke-linecap="square" stroke-linejoin="round" stroke-width="1.5"/><path d="m132.75,110h50" fill="none" stroke="#fff" stroke-linecap="square" stroke-linejoin="round" stroke-width="1.5"/><path d="m132.75,146h50" fill="none" stroke="#fff" stroke-linecap="square" stroke-linejoin="round" stroke-width="1.5"/><path d="m132.75,182h50" fill="none" stroke="#fff" stroke-linecap="square" stroke-linejoin="round" stroke-width="1.5"/><path d="m132.75,218h50" fill="none" stroke="#fff" stroke-linecap="square" stroke-linejoin="round" stroke-width="1.5"/><path d="m132.75,254h50" fill="none" stroke="#fff" stroke-linecap="square" stroke-linejoin="round" stroke-width="1.5"/><path d="m132.75,290h50" fill="none" stroke="#fff" stroke-linecap="square" stroke-linejoin="round" stroke-width="1.5"/><path d="m132.75,326h50" fill="none" stroke="#fff" stroke-linecap="square" stroke-linejoin="round" stroke-width="1.5"/><path d="m132.75,362h50" fill="none" stroke="#fff" stroke-linecap="square" stroke-linejoin="round" stroke-width="1.5"/><path d="m132.75,398h50" fill="none" stroke="#fff" stroke-linecap="square" stroke-linejoin="round" stroke-width="1.5"/><path d="m132.75,434h50" fill="none" stroke="#fff" stroke-linecap="square" stroke-linejoin="round" stroke-width="1.5"/><path d="m132.75,470h50" fill="none" stroke="#fff" stroke-linecap="square" stroke-linejoin="round" stroke-width="1.5"/></svg>