<svg xmlns="http://www.w3.org/2000/svg" width="59" height="22" viewBox="0 0 59 22" fill="#000000"><path d="M33.08,9.47v3.28a2,2,0,0,1-.83,1.85,6.38,6.38,0,0,1-2.93.48H25.94V7h3.38a6.05,6.05,0,0,1,2.89.51A2.06,2.06,0,0,1,33.08,9.47Zm-1.92,3.28V9.43a.82.82,0,0,0-.46-.81,3.39,3.39,0,0,0-1.41-.22H27.83v5.3h1.4a4.66,4.66,0,0,0,1.52-.17C31,13.42,31.16,13.16,31.16,12.75Z"/><path d="M40.39,11.25V13a2.32,2.32,0,0,1-.18,1,1.66,1.66,0,0,1-.45.64,1.82,1.82,0,0,1-.71.35,3.69,3.69,0,0,1-.79.16c-.25,0-.54,0-.88,0s-.63,0-.87,0a5.65,5.65,0,0,1-.8-.16,1.89,1.89,0,0,1-.71-.35,1.74,1.74,0,0,1-.45-.64,2.52,2.52,0,0,1-.18-1V11.25a2.66,2.66,0,0,1,.19-1.07A1.75,1.75,0,0,1,35,9.5a1.9,1.9,0,0,1,.71-.36A4.61,4.61,0,0,1,36.53,9c.24,0,.52,0,.85,0s.62,0,.85,0a4.61,4.61,0,0,1,.79.16,2.21,2.21,0,0,1,.72.36,1.85,1.85,0,0,1,.46.68A2.5,2.5,0,0,1,40.39,11.25Zm-1.79,2V11a.87.87,0,0,0-.24-.69,1.59,1.59,0,0,0-1-.21,1.61,1.61,0,0,0-1,.21.82.82,0,0,0-.25.69v2.27a.81.81,0,0,0,.24.66,1.67,1.67,0,0,0,1,.19,1.71,1.71,0,0,0,1-.19A.75.75,0,0,0,38.6,13.23Z"/><path d="M47.65,11.25V13a2.32,2.32,0,0,1-.19,1,1.66,1.66,0,0,1-.45.64,1.84,1.84,0,0,1-.7.35,3.65,3.65,0,0,1-.8.16c-.24,0-.53,0-.87,0s-.63,0-.87,0A5.38,5.38,0,0,1,43,15a1.77,1.77,0,0,1-.7-.35,1.65,1.65,0,0,1-.46-.64,2.52,2.52,0,0,1-.18-1V11.25a2.66,2.66,0,0,1,.19-1.07,1.85,1.85,0,0,1,.46-.68A2,2,0,0,1,43,9.14,4.61,4.61,0,0,1,43.79,9c.23,0,.52,0,.85,0s.62,0,.85,0a4.61,4.61,0,0,1,.79.16A2.21,2.21,0,0,1,47,9.5a1.85,1.85,0,0,1,.46.68A2.84,2.84,0,0,1,47.65,11.25Zm-1.79,2V11a.88.88,0,0,0-.25-.69,1.65,1.65,0,0,0-1-.21,1.61,1.61,0,0,0-1,.21.82.82,0,0,0-.24.69v2.27a.81.81,0,0,0,.24.66,1.7,1.7,0,0,0,1,.19,1.71,1.71,0,0,0,1-.19A.78.78,0,0,0,45.86,13.23Z"/><path d="M52.92,10.45h-.61a2.19,2.19,0,0,0-1.11.23.83.83,0,0,0-.37.78v3.62H49v-6h1.69v1a1.09,1.09,0,0,1,.51-.81,1.77,1.77,0,0,1,1-.36h.65Z"/><path d="M59,12.74v.76a1.54,1.54,0,0,1-.17.77,1.4,1.4,0,0,1-.41.51,2.26,2.26,0,0,1-.66.28,4.38,4.38,0,0,1-.77.12c-.25,0-.55,0-.88,0A17.06,17.06,0,0,1,53.77,15V13.82a17.4,17.4,0,0,0,2.37.26A2.46,2.46,0,0,0,57,14a.41.41,0,0,0,.29-.41V13.2a.56.56,0,0,0-.15-.43,1.09,1.09,0,0,0-.69-.15h-.77a2.38,2.38,0,0,1-1.45-.38,1.27,1.27,0,0,1-.52-1.11v-.74a1.12,1.12,0,0,1,.77-1.13A6.2,6.2,0,0,1,56.6,9c.39,0,1.09,0,2.11.11v1.15q-1.91-.15-2.16-.15a2.79,2.79,0,0,0-.94.1.42.42,0,0,0-.19.41v.32a.34.34,0,0,0,.15.27.69.69,0,0,0,.47.13h.79C58.28,11.3,59,11.78,59,12.74Z"/><path d="M28.87,18.44V20a.86.86,0,0,1-.12.47.7.7,0,0,1-.35.28,1.8,1.8,0,0,1-.44.12,2.29,2.29,0,0,1-.47,0c-.91,0-1.37-.3-1.37-.91V18.44c0-.63.46-1,1.37-1S28.87,17.82,28.87,18.44ZM28.4,20V18.43c0-.41-.3-.61-.91-.61l-.34,0a1.31,1.31,0,0,0-.28.09.55.55,0,0,0-.22.18.63.63,0,0,0-.07.32V20c0,.38.3.57.91.57S28.4,20.4,28.4,20Z"/><path d="M32.3,20.87h-.46v-.31c-.05.24-.32.36-.8.36a1,1,0,0,1-.67-.18.77.77,0,0,1-.18-.53V18.39h.46v1.79c0,.06,0,.11,0,.15a.52.52,0,0,0,.06.13.28.28,0,0,0,.16.09.79.79,0,0,0,.28,0,1.55,1.55,0,0,0,.53-.07.26.26,0,0,0,.15-.26V18.39h.46Z"/><path d="M35.19,20.88a2.76,2.76,0,0,1-.51.05,1,1,0,0,1-.64-.16.87.87,0,0,1-.18-.61V18.7h-.54v-.3h.54v-.77h.46v.77h.87v.3h-.86v1.48a.47.47,0,0,0,.1.36.61.61,0,0,0,.4.09l.37,0v.29Z"/><path d="M38.09,20v.21a.58.58,0,0,1-.27.55,1.72,1.72,0,0,1-.8.15,6.5,6.5,0,0,1-.84-.06V20.5a5.76,5.76,0,0,0,.85.1,1.34,1.34,0,0,0,.46-.06.24.24,0,0,0,.15-.25V20a.24.24,0,0,0-.11-.23.66.66,0,0,0-.34-.07h-.28a.87.87,0,0,1-.58-.16.51.51,0,0,1-.2-.44v-.22c0-.39.36-.59,1.09-.59l.74.05v.32a4.46,4.46,0,0,0-.76-.07,1.09,1.09,0,0,0-.49.07.27.27,0,0,0-.14.24v.21c0,.17.15.26.45.26h.29Q38.09,19.41,38.09,20Z"/><path d="M41.45,19.23v.86a1.1,1.1,0,0,1-.06.39.46.46,0,0,1-.14.24.57.57,0,0,1-.24.14l-.3.06h-.38l-.48,0a1.62,1.62,0,0,1-.34-.1.49.49,0,0,1-.24-.25,1.26,1.26,0,0,1-.07-.47v-.86a1.31,1.31,0,0,1,0-.42,1,1,0,0,1,.15-.26.5.5,0,0,1,.25-.14l.29-.06h.77l.3.06a.46.46,0,0,1,.24.14.8.8,0,0,1,.14.26A1.29,1.29,0,0,1,41.45,19.23Zm-.46.93v-1c0-.23-.05-.37-.14-.42a1.18,1.18,0,0,0-.52-.08,1.09,1.09,0,0,0-.53.08c-.09.06-.13.19-.13.42v1a1.56,1.56,0,0,0,0,.26.24.24,0,0,0,.14.14.46.46,0,0,0,.2.05h.6a.53.53,0,0,0,.2-.05.26.26,0,0,0,.13-.14A1.72,1.72,0,0,0,41,20.16Z"/><path d="M44.85,20.87H44.4v-.31c0,.24-.32.36-.8.36a1,1,0,0,1-.67-.18.72.72,0,0,1-.18-.53V18.39h.46v1.79a.34.34,0,0,0,0,.15.22.22,0,0,0,.06.13.28.28,0,0,0,.16.09.79.79,0,0,0,.28,0,1.55,1.55,0,0,0,.53-.07.26.26,0,0,0,.15-.26V18.39h.45v2.48Z"/><path d="M47.54,18.74h-.25a.92.92,0,0,0-.46.08.32.32,0,0,0-.15.31v1.75h-.46V18.4h.43v.41a.43.43,0,0,1,.22-.33.84.84,0,0,1,.45-.13h.22v.39Z"/><path d="M50.29,20.85a3.53,3.53,0,0,1-.78.08h-.35l-.28-.05a.46.46,0,0,1-.24-.13.66.66,0,0,1-.15-.24,1.06,1.06,0,0,1-.05-.38V19.2a1.25,1.25,0,0,1,0-.35.53.53,0,0,1,.11-.24.8.8,0,0,1,.17-.15.62.62,0,0,1,.23-.08l.26,0h.31a3.34,3.34,0,0,1,.7.08v.34a3,3,0,0,0-.75-.11.85.85,0,0,0-.49.1.48.48,0,0,0-.12.39v1c0,.18,0,.3.14.36a1,1,0,0,0,.52.1,3.28,3.28,0,0,0,.74-.1v.34Z"/><path d="M51.9,18h-.45V17.5h.45Zm0,2.89h-.45V18.39h.45Z"/><path d="M55.38,20.87h-.45V19.08a.78.78,0,0,0,0-.16.23.23,0,0,0-.06-.12.37.37,0,0,0-.16-.1.79.79,0,0,0-.28,0,1.08,1.08,0,0,0-.54.09.36.36,0,0,0-.13.32v1.79h-.45V18.38h.45v.31c0-.24.32-.36.8-.36a.91.91,0,0,1,.66.18.69.69,0,0,1,.19.53v1.83Z"/><path d="M58.83,18.39V21.1a.76.76,0,0,1-.29.71,1.65,1.65,0,0,1-.87.19,4.68,4.68,0,0,1-.84-.06v-.33a7.78,7.78,0,0,0,.88.08,1,1,0,0,0,.51-.11.43.43,0,0,0,.16-.37v-.6c0,.12-.09.2-.24.25a1.6,1.6,0,0,1-.51.08,1.26,1.26,0,0,1-.77-.17.75.75,0,0,1-.21-.59v-1a.79.79,0,0,1,.24-.64,1.23,1.23,0,0,1,.76-.18c.43,0,.68.09.75.29v-.23h.43Zm-.45,1.81V19.08a.39.39,0,0,0-.13-.33,1,1,0,0,0-.53-.1.87.87,0,0,0-.49.09.39.39,0,0,0-.12.33v1.12a.37.37,0,0,0,.13.34,1.05,1.05,0,0,0,.49.08,1,1,0,0,0,.5-.09C58.33,20.48,58.38,20.37,58.38,20.2Z"/><path d="M11.92,1.92V20l9.76,1.91V0Zm7.62,6.22H17.22V15H15.77V8.14H13.48V6.89h6.06Z"/><path d="M0,21.92,9.76,20V1.92L0,0Zm4.44-15H5.91V15H4.44Z"/></svg>
