<svg xmlns="http://www.w3.org/2000/svg" width="64" height="56" viewBox="0 0 64 56"><path fill="#fffef8" d="M46.74 0H17.26c-.9 0-1.73.48-2.18 1.26L.34 26.74a2.52 2.52 0 0 0 0 2.52l14.74 25.48A2.52 2.52 0 0 0 17.26 56h29.48c.9 0 1.73-.48 2.18-1.26l14.74-25.48c.45-.78.45-1.74 0-2.52L48.92 1.26A2.52 2.52 0 0 0 46.74 0Z"/><path fill="#252628" d="M13.02 22.25h12.41a2.27 2.27 0 0 1 2.27 2.27v9.36H10.75v-9.36a2.27 2.27 0 0 1 2.27-2.27Z"/><path fill="#252628" d="M18.5 33.34h-4.96v6.69h4.96v-6.69Zm6.23 0h-4.96v6.69h4.96v-6.69Zm-5.51-12.9a3.22 3.22 0 1 0 0-6.44 3.22 3.22 0 0 0 0 6.44Zm19.94 1.81h12.41a2.27 2.27 0 0 1 2.27 2.27v9.36H36.89v-9.36a2.27 2.27 0 0 1 2.27-2.27Z"/><path fill="#252628" d="M44.64 33.34h-4.96v6.69h4.96v-6.69Zm6.23 0h-4.96v6.69h4.96v-6.69Zm-5.51-12.9a3.22 3.22 0 1 0 0-6.44 3.22 3.22 0 0 0 0 6.44Z"/><path fill="#fbd864" d="M26.08 24.46h12.41a2.27 2.27 0 0 1 2.27 2.27v9.36H23.81v-9.36a2.27 2.27 0 0 1 2.27-2.27Z"/><path fill="#fbd864" d="M31.56 35.55H26.6v6.69h4.96v-6.69Zm6.23 0h-4.96v6.69h4.96v-6.69Zm-5.51-12.89a3.22 3.22 0 1 0 0-6.44 3.22 3.22 0 0 0 0 6.44Z"/></svg>