<svg xmlns="http://www.w3.org/2000/svg" viewBox="0 0 148 44.26"><defs><clipPath id="a"><path fill="none" stroke-width="0" d="M0 .13h148v44H0z"/></clipPath></defs><g clip-path="url(#a)"><path fill="#fff" d="M.18 22.13a21.96 21.96 0 1 1 43.91.01 21.96 21.96 0 0 1-43.91-.01Z"/><path fill="#fff" d="M22.14 39.63a17.5 17.5 0 1 0 .02-35 17.5 17.5 0 0 0-.03 35"/><path fill="#1b1b1b" d="M70.36 7.82v12.01c0 7.01-4.78 9.43-10.59 9.43-6.15 0-10.58-2.86-10.58-9.4V7.83h5.27V20c0 3.04 2.21 4.87 5.25 4.87 2.79 0 5.37-1.46 5.37-5.25V7.83h5.27Zm18.47 5.49c-3.07-1.37-4.9-1.89-6.71-1.89-1.89 0-3.11.68-3.11 1.74 0 3.2 10.77 2.3 10.77 9.68 0 4.06-3.41 6.43-8.13 6.43-3.69 0-5.52-.96-7.64-2.05v-4.56c3.04 2.02 4.9 2.74 7.23 2.74 2.02 0 3.11-.72 3.11-1.96 0-3.48-10.77-2.21-10.77-9.8 0-3.67 3.16-6.08 8.07-6.08 2.36 0 4.5.49 7.17 1.65v4.13ZM51.9 34.21h-1.97v1.4h1.97v.65h-1.97v2.35h-.73v-5.06h2.7v.66Zm2.06-.66c1.02 0 1.66.54 1.66 1.42 0 .59-.3 1.02-.85 1.24.46.3.74.77 1.13 1.4.21.35.34.52.69 1.01h-.87l-.67-1.04c-.67-1.04-.97-1.15-1.34-1.15h-.3v2.2h-.73v-5.06h1.28Zm-.55 2.21h.47c.78 0 1-.4 1-.82 0-.48-.29-.77-1-.77h-.47v1.59Zm5.71-2.28c1.66 0 2.72 1.19 2.72 2.6s-1.02 2.6-2.74 2.6-2.7-1.23-2.7-2.6 1.07-2.6 2.71-2.6m0 4.52c1.14 0 1.98-.82 1.98-1.93s-.84-1.93-1.98-1.93-1.97.82-1.97 1.93.84 1.93 1.97 1.93Zm8.17.61h-.73v-3.94h-.02l-1.56 1.96h-.12l-1.56-1.96h-.02v3.94h-.73v-5.06h.68l1.68 2.08 1.68-2.08h.68v5.06Zm6.73-4.4h-1.75v4.4h-.73v-4.4h-1.75v-.66h4.23v.66Zm4.89 4.4h-.73v-2.2h-2.83v2.2h-.73v-5.06h.73v2.21h2.83v-2.21h.73v5.06Zm3.97-4.4h-2.14v1.52h2.07v.65h-2.07v1.57h2.21v.65h-2.93v-5.06h2.87v.66Zm7.17 4.4h-.74l-.68-1.49h-2.15l-.63 1.49h-.74l2.18-5.09h.51l2.27 5.09Zm-3.29-2.14h1.57l-.82-1.83-.76 1.83Zm8.48 2.14h-.73v-3.94h-.02l-1.56 1.96h-.12l-1.56-1.96h-.02v3.94h-.73v-5.06h.68l1.68 2.08 1.68-2.08h.68v5.06Zm3.94-4.4h-2.15v1.52h2.08v.65h-2.08v1.57h2.22v.65H96.3v-5.06h2.88v.66Zm2.13-.66c1.02 0 1.67.54 1.67 1.42 0 .59-.31 1.02-.85 1.24.46.3.74.77 1.13 1.4.21.35.34.52.69 1.01h-.86l-.67-1.04c-.67-1.04-.97-1.15-1.34-1.15h-.31v2.2h-.72v-5.06h1.28Zm-.55 2.21h.47c.78 0 1-.4 1-.82 0-.48-.29-.77-1-.77h-.47v1.59Zm4.24-2.21h-.72v5.06h.72v-5.06Zm5.28 1.12a3.4 3.4 0 0 0-1.75-.53c-1.15 0-2.02.82-2.02 1.94s.83 1.92 2.04 1.92c.57 0 1.19-.2 1.76-.57v.79c-.49.26-1.04.45-1.83.45a2.58 2.58 0 0 1-2.73-2.52c0-1.54 1.16-2.67 2.78-2.67.52 0 1.05.12 1.74.41v.78Zm5.24 3.94h-.74l-.67-1.49h-2.15l-.63 1.49h-.74l2.18-5.09h.51l2.27 5.09Zm-3.29-2.14h1.57l-.81-1.83-.76 1.83Zm8.45 2.14h-.63l-3.38-3.89v3.89h-.68v-5.06h.58l3.43 3.92v-3.92h.68v5.06Zm4.9-5.06c1.1 0 1.61.65 1.61 1.45s-.54 1.42-1.71 1.42h-.76v2.19h-.72v-5.06h1.58Zm-.86 2.22h.82c.54 0 .89-.29.89-.79 0-.37-.2-.77-.86-.77h-.86v1.57Zm5.97-1.56h-2.14v1.52h2.07v.65h-2.07v1.57h2.21v.65h-2.93v-5.06h2.87v.66Zm3.33-.73c1.66 0 2.72 1.19 2.72 2.6s-1.02 2.6-2.74 2.6-2.7-1.23-2.7-2.6 1.08-2.6 2.71-2.6m0 4.52c1.14 0 1.97-.82 1.97-1.93s-.84-1.93-1.97-1.93-1.97.82-1.97 1.93S132.87 38 134 38Zm5-4.45c1.1 0 1.61.65 1.61 1.45s-.54 1.42-1.71 1.42h-.76v2.19h-.73v-5.06h1.58Zm-.86 2.22h.82c.54 0 .89-.29.89-.79 0-.37-.2-.77-.86-.77h-.86v1.57Zm3.82 2.18h2.29v.65h-3.02v-5.06h.73v4.41Zm5.71-3.74h-2.14v1.52h2.07v.65h-2.07v1.57h2.21v.65h-2.93v-5.06h2.87v.66Z"/><path fill="#002f6c" d="M0 22.13c0 12.2 9.93 22.13 22.13 22.13s22.14-9.93 22.14-22.13S34.34 0 22.14 0 0 9.93 0 22.13Zm.36 0C.37 10.13 10.13.36 22.14.36s21.77 9.76 21.77 21.77S34.15 43.9 22.14 43.9.37 34.13.37 22.13"/><path fill="#002f6c" d="M4.45 22.13c0 9.75 7.93 17.68 17.68 17.68s17.68-7.93 17.68-17.68S31.88 4.45 22.14 4.45 4.45 12.38 4.45 22.13Zm.36 0c0-9.55 7.78-17.32 17.33-17.32s17.32 7.77 17.32 17.32-7.77 17.32-17.32 17.32S4.82 31.68 4.82 22.13"/><path fill="#002f6c" d="M32.29 28.37H12.06v3.17h20.23v-3.17Zm0-18.39H12.06v5.87h20.23V9.98Z"/><path fill="#002f6c" d="M32.29 9.98H12.06v5.87h20.23V9.98Zm9.58 8.58v.84l-.5-.68-.8.26.49-.67-.49-.67.8.26.5-.68v.83l.77.26-.77.24Zm-39.62-.49v-.83l.51.68.8-.26-.49.66.49.68-.8-.26-.5.67v-.82l-.77-.26.77-.25Zm1.6-6.28 1.23.6c.72.35.73.96.43 1.56-.31.63-.82.94-1.49.61l-1.23-.61.26-.54 1.24.61c.31.16.61.02.76-.29.14-.29.12-.63-.26-.82l-1.2-.59.26-.54Zm3.78-1.3-.3.41-2.03.21 1.27.89-.35.49-1.98-1.38.31-.45 1.95-.21-1.21-.84.35-.49 1.98 1.38ZM6.56 8.08l-.4.45 1.82 1.59.4-.45-1.82-1.59Zm2.36-1.71-.63.6L9.64 8.4l-.44.41-1.35-1.43-.63.59-.3-.32 1.71-1.61.3.32Zm3.03.21-1.43 1.05-1.43-1.94 1.42-1.04.26.36-.93.68.3.41.89-.65.26.35-.89.65.34.47.96-.69.26.35Zm.1-2.84c.77-.42 1.43-.16 1.75.43.33.61.19 1.27-.65 1.72l-.87.48-1.15-2.12.94-.51Zm.54 1.95.35-.19c.54-.29.49-.73.32-1.05-.2-.36-.56-.57-1.06-.3l-.34.18.73 1.34Zm3.98-3.15a1.9 1.9 0 0 0-.79.03c-.21.07-.31.18-.27.3.12.35 1.24-.13 1.51.67.14.44-.14.82-.65.98-.4.13-.63.09-.9.05l-.16-.49c.4.11.63.12.88.04.22-.07.31-.19.26-.32-.12-.38-1.24.15-1.52-.68-.13-.4.12-.77.66-.95.26-.08.5-.11.83-.07l.15.44Zm2.73-.79-.86.17.38 1.94-.59.12-.38-1.94-.86.16-.09-.43 2.31-.45.08.43Zm2.73 1.77-.64.05-.24-.46-1.08.08-.14.49-.63.05.78-2.48.69-.05 1.25 2.32ZM20.48 1.8l-.28.96.74-.06-.46-.91Zm3.61-.15-.87-.03-.07 1.97-.59-.02.07-1.96-.87-.03.02-.44 2.34.09-.02.44Zm1.97 2.31-1.75-.29.39-2.38 1.73.29-.07.44-1.14-.19-.08.5 1.09.17-.07.44-1.09-.17-.1.57 1.17.19-.07.44Zm2.43-1.18c-.3-.25-.48-.36-.68-.41-.21-.06-.36-.02-.4.09-.1.35 1.11.58.88 1.4-.12.44-.58.6-1.1.45-.4-.12-.58-.28-.77-.46l.14-.5c.27.31.45.45.71.53.22.07.36.02.4-.12.11-.38-1.11-.58-.87-1.41.12-.4.54-.57 1.07-.41.26.07.48.19.73.4l-.12.45v-.02Zm2.75 3.12-.59-.27.02-.52-.97-.46-.36.35-.58-.27 1.9-1.77.63.3-.06 2.64Zm-.49-2.26-.72.7.68.31.05-1.01Zm3.4 2.11a2.07 2.07 0 0 0-.63-.68c-.54-.35-.96-.15-1.15.16-.23.36-.11.78.31 1.05.12.08.19.11.38.15l.16-.24-.3-.19.24-.37.8.52-.54.82c-.26.06-.7-.07-1.03-.28-.7-.46-.92-1.22-.53-1.82.4-.62 1.18-.72 1.9-.25.3.2.55.46.68.68l-.29.44Zm.8 2.92L33.6 7.51l1.57-1.83 1.33 1.15-.29.34-.87-.75-.33.38.83.72-.29.34-.83-.72-.38.44.9.77-.29.34Zm1.89 2.07-.33-.37.27-2.03-1.15 1.02-.4-.44 1.8-1.6.37.41-.26 1.94 1.1-.98.4.45-1.81 1.59Zm1.67 2.15a1.8 1.8 0 0 1-.72-.67c-.51-.78-.26-1.51.26-1.85.54-.35 1.33-.24 1.84.54.18.28.29.57.3.85l-.45.3c-.02-.3-.08-.59-.25-.83-.28-.43-.73-.57-1.09-.33-.36.23-.43.7-.15 1.12.17.26.37.39.7.59l-.44.29Zm1.31.59.76-1.41.31.66-.46.8.91.16.31.65-1.57-.31-1.02.49-.26-.54 1.01-.49Zm-36.2 9.09-2.41.09.02.6 2.41-.09-.02-.6Zm-2.01 3.84-.07-.5 1.33-1.54-1.53.22-.08-.59 2.38-.35.08.55-1.27 1.48 1.46-.21.08.59-2.38.35Zm2.69 2.28-.26-.84-1.89.57-.17-.58 1.89-.57-.25-.83.43-.13.67 2.26-.42.12Zm-.95 2.71-.72-1.63 2.21-.96.7 1.6-.4.18-.46-1.05-.46.21.44 1.01-.41.18-.44-1.01-.54.24.48 1.07-.4.18Zm2.92.28c.26.43.12.85-.2 1.03-.23.13-.47.12-.72-.06.02.27-.2.49-.63 1.15l-.34-.57c.31-.49.66-.81.49-1.09l-.09-.15-.84.5-.3-.52 2.08-1.23.55.93Zm-1.1.09.16.27c.08.14.23.25.4.14.16-.09.17-.24.06-.44l-.16-.26-.47.28Zm1.36 4.36-.32-.4.38-2-1.21.96-.37-.47 1.89-1.51.34.43-.35 1.93 1.15-.92.37.47-1.88 1.51Zm2.35 2.26-.47-.44.18-.49-.79-.73-.45.23-.47-.44 2.36-1.1.51.48-.86 2.5Zm.21-2.31-.9.44.54.5.35-.95Zm2.77 2.03-.71-.52-1.16 1.58-.49-.35 1.17-1.59-.71-.51.26-.36 1.9 1.39-.26.36Zm.54-.22-1.24 2.07.52.31 1.24-2.07-.52-.31Zm1.05 3.33c-.81-.36-1-1.14-.74-1.7.24-.53.95-.93 1.77-.55.82.38.98 1.17.74 1.7-.26.56-.98.91-1.77.55Zm.82-1.8c-.42-.19-.82-.05-1 .35-.18.4-.02.8.39.99.41.19.82.05 1-.35.18-.4.02-.79-.39-.99Zm3.46 3.21-.49-.13-.88-1.85-.4 1.49-.59-.16.64-2.32.53.15.86 1.76.39-1.43.58.16-.63 2.32Zm3.24.44-.64-.07-.14-.49-1.07-.13-.24.45-.63-.07 1.25-2.28.69.08.77 2.52Zm-1.18-1.99-.46.89.73.09-.27-.98Zm3.51 1.97h-1.84l-.02-2.4h.6l.02 1.96h1.24v.44Zm2.21-2.7c.87-.16 1.41.3 1.53.95.12.68-.21 1.26-1.16 1.43l-.98.18-.44-2.37 1.05-.19Zm-.1 2.02.39-.07c.59-.11.7-.54.63-.89-.07-.4-.35-.71-.91-.61l-.38.07.27 1.5Zm4.17-.62-1.69.54-.74-2.29 1.66-.54.14.42-1.1.35.16.49 1.05-.34.13.42-1.05.34.18.55 1.12-.36.13.42Zm1.68-.7-.24.11-2.08-1.71.58-.28 1.16.98-.03-1.51.58-.27.02 2.69Zm2.91-1.7-1.5.96-1.29-2.04 1.48-.94.24.38-.97.61.26.43.93-.58.24.38-.93.58.31.49.99-.63.24.37Zm1.95-1.54-1.43 1.15-1.52-1.88.47-.37 1.24 1.53.96-.78.27.35Zm1.32-1.27c-.6.64-1.4.58-1.85.16-.43-.4-.58-1.19.05-1.85.63-.66 1.43-.55 1.85-.16.45.42.55 1.22-.04 1.85m-1.43-1.35c-.31.34-.31.76.02 1.06.32.3.74.28 1.05-.05.31-.33.3-.76-.02-1.05-.32-.3-.74-.28-1.05.05m1.4-2.51c.32-.45.77-.44 1.05-.24s.46.62.14 1.07l-.27.39.79.56-.35.49-1.97-1.38.62-.88Zm.54.96.16-.23c.16-.22.13-.36 0-.47-.16-.12-.3-.07-.49.2l-.12.17.46.32Zm1.03-3.72.24-.47 2.15 1.1-.27.54-1.34-.68.38.92-.04.08-.97.24 1.34.68-.27.54-2.15-1.1.24-.46 1.15-.29-.44-1.1Zm3.24-1.78-.58 1.69-2.28-.78.57-1.66.42.15-.38 1.09.48.16.35-1.04.42.14-.35 1.04.55.19.38-1.11.42.14Zm.67-3.05-.1.49-1.77 1.01 1.51.3-.11.59-2.37-.47.11-.54 1.7-.97-1.45-.29.12-.59 2.36.47Zm-1.77-3.05-.05.87 1.97.11-.03.6-1.97-.11-.04.87-.44-.02.13-2.34.44.02Z"/><path fill="#002f6c" fill-rule="evenodd" d="m18.98 24.15-.05-.07-.03-.04s0-.02-.02-.02c-.02-.02-.05-.02-.05 0 .02 0 .03 0 .04.02 0 .04-.02.07-.03.11l-.02.03a.49.49 0 0 0-.13.12l.16-.05s.02 0 .02-.02l.04-.02.04-.02.03-.02c0-.02 0-.02-.02-.02m1.06-5.65.03.03.02.02s0 .02.02.02l.02.02.02.04.05.12v.02l.03.03v-.17c-.02-.04-.02-.08-.05-.1-.02-.02-.04-.02-.06-.02 0 0 0-.02-.02-.02h-.09Zm.22.66-.02.02-.02.02v.04s0 .02-.02.03l-.03.02v.02l-.07.07-.03.02c-.03.02-.07.07-.11.06-.02 0-.04-.02-.05-.03-.02-.03 0-.06.02-.09v-.04l.02-.04c-.02 0-.04.04-.06.06l-.04.04h-.02l-.06.06-.07.05-.05.05c-.02.02-.03.04-.06.05 0 0-.02 0-.03.02-.02 0-.03 0-.05.02v.03h.19s.05 0 .07-.02l.1-.03.08-.03c.02 0 .02-.02.03-.02.02 0 .03 0 .04-.02l.03-.03h.02s0-.02.02 0c0-.02.02-.02.02-.03l.02-.04.02-.03.02-.03v-.05c.02 0 .02-.02.02-.04l.05-.12.02-.1-.09.12m-.61.12-.07.06-.07.07c-.02 0-.02.02-.04.03l-.07.07-.04.03v.02c0 .02 0 .02-.02.03l-.02.04h.09l.16-.18c.05-.06.11-.13.13-.21l-.02.02m-.47.14h-.04l-.02.02-.02.02-.07.06-.04.04a.1.1 0 0 0-.03.07c.03 0 .05 0 .09.02.02 0 .02-.02.03-.03l.02-.02.02-.02s0-.02.02-.02l.02-.02.02-.05.02-.02v-.06h-.02m-.32.07h-.02l-.07.02-.04.02c-.02 0-.04.02-.05.03h.04c.02 0 .02 0 .03.02h.04c.02 0 .03-.02.04-.03 0 0 0-.02.02-.02 0 0 0-.02.02-.03v-.02s0-.02.02-.02h-.02m11.63.32h-.16l-.05.03-.03.03-.02.03-.02.02h.04l.04-.02.03-.02.04-.02.15-.08h-.02m.37.07-.02.03c0 .02-.02.02-.03.04l.09-.02s.02 0 .03-.02h.03l.02-.02h.02s.02 0 .02-.02v-.02c-.06 0-.09.03-.16.03m-8.69.6-.09-.08a.32.32 0 0 0-.06-.05v-.02l-.07-.05-.05-.04h-.02l-.03-.02-.1-.05h-.04l-.03-.02-.12-.03-.12-.03c-.02 0-.06 0-.08-.02h-.33c.07.02.13.02.2.05l.17.08.02.08-.02.04-.02.04v.02l-.03.04-.02.02s-.02.02 0 .02l.04-.02c.02 0 .02-.02.03-.02l.07-.05.08-.04.04-.02.04-.02c.02 0 .04 0 .04.02 0 .04-.02.06-.03.07l-.02.06c-.02.03-.07.06-.08.11l.07-.02.06-.03.06-.03c.04-.02.1-.07.15-.07 0 .02.02.03.02.07s-.03.05-.04.07v.04l-.02.04-.02.03-.02.02c0 .02-.02.02-.03.04v.02s-.02 0 0 .02l.12-.07s.02 0 .03-.02.04-.02.06-.04c.02 0 .02 0 .03-.02H22c.02 0 .05 0 .06.02v.12c.07 0 .1-.05.15-.07.02-.02.06-.03.07-.07l-.1-.08m5.43-.27-.02.02s-.02 0-.02.02l-.02.02-.04.03s-.02 0-.02.02h-.02l-.03.03-.03.02-.02.02h-.02v.02h.09s.02 0 .02-.02c.02 0 .02 0 .03-.02s.02 0 .03 0h.02l.03-.02h.02s0-.02.02-.02l.02-.09h-.03Zm-5.54.64-.07.02h-.02c-.02 0-.05 0-.05.02s-.06.03-.09.05c0 0-.02 0-.02.02s.02.02.02.02c.02 0 .02.02.03.02h.1l.07-.03h.02l.06-.04c.05-.04.09-.11.13-.13 0 0 .02-.02 0 0l-.21.09m-4.86.45c-.02 0-.02.02-.05 0 0 .02-.02.02-.03.02l-.02.02h-.02l-.02.02s-.02 0-.03.02l-.12.08c-.02 0-.02.02-.03.02h-.02c-.02 0-.04.02-.05.03l-.02.02s-.02 0-.02.02l-.02.02a.38.38 0 0 0-.09.09l-.03.06v.02s0 .02 0 0c.02 0 .02-.02.03-.02l.04-.02.02-.02.04-.02s.02 0 .02-.02.02-.02.02-.02l.05-.03h.02l.04-.02.02-.02h.02l.08-.05.07-.05.04-.02c.02 0 .02-.02.03-.02 0-.02 0-.03.02-.04v-.05h-.02m.4.04-.07.02a.3.3 0 0 1-.07.05c-.02 0-.02.02-.03.02-.02 0-.03.02-.03.02h-.02l-.06.05-.07.04a.8.8 0 0 0-.17.14l-.02.02s-.02.02 0 .03c.02 0 .04-.02.07 0h.02l.02-.02h.04l.06-.03s.02 0 .02-.02l.04-.02.04-.02.14-.07c.04-.02.07-.05.13-.06v-.03c.02-.02.04-.03.04-.06-.02-.02-.02-.03-.05-.03m.04.25h-.11l-.03.02h-.02l-.13.12-.07.05v.04l.35-.2c0-.02.02-.02.03-.04v-.02m9.69.11h-.07l-.16.02c-.1 0-.21-.02-.3 0h-.04s-.05 0-.07-.02h-.04s-.1 0-.15-.02c0 0-.02 0-.02.02h-.07c0 .02 0 .04.02.06 0 0 .02 0 .02.02v.02h.04l.03.03h.46l.1-.02h.06l.05-.02h.06c.04-.02.07-.02.08-.05.04 0 .06-.04.04-.07h-.07m-8.38.05-.05.04-.14.11-.06.03-.02.02h-.02l-.07.05h-.03l-.02.02h-.04c-.02 0-.02.02-.03.02-.03 0-.05.03-.07.04h-.02l-.07.08s-.02 0-.03.02l-.02.02h.04l.04-.02h.1s.02 0 .02-.02h.02l.07-.04.05-.02.04-.02c0-.02 0-.02.02-.03l.02-.03h.02v-.02h.02l.02-.02.03-.02.06-.05.03-.02.02-.02.03-.02h.02l.02-.02c0-.02.02-.02.02-.02l.02-.03h-.03m5.22.11-.02.02h-.02l-.08.04-.08.05-.05.02h-.04l-.03.02h-.02l-.02.02c-.02 0-.02 0-.03.02-.02 0-.02.02-.02.03s0 .02.02.03h.11s.02 0 .02-.02c.02 0 .03-.02.03-.02s.02 0 .02-.02l.03-.02.05-.05c.02-.02.03-.03.05-.03l.02-.02.02-.02.03-.03.03-.03-.04.02m-6.27.03s0-.02-.02-.02l-.07.02c0 .02-.02.02-.04.02s-.02 0-.03.02c-.02 0-.02.02-.03.03-.07.07-.15.13-.21.21-.02 0-.02.02-.03.02l-.04.04-.02.03s0 .02.02.02h.06l.06-.03h.02l.05-.03h.02l.09-.06h.02l.02-.02h.02s.02 0 .02-.02l.05-.05h.02s0-.02.02-.02h.02s0-.02.02-.02.03-.02.03-.05c0-.02-.02-.02-.03-.02m1.71.02-.12.05c-.02 0-.03.02-.05.03h-.02v.02h-.02l-.02.02-.02.02s-.02 0-.02.02c-.02.02 0 .06.02.06l.09-.07.03-.02.03-.02.03-.02c.02-.02.07-.02.06-.07h-.02m4.67.05-.04.02h-.05s-.02 0-.02.02h-.06c-.04 0-.1.02-.13.04h-.02s-.02 0-.02.02c0 0-.02 0-.02.02h-.02l-.02.04.02.06.05.02H24l.05-.04c.02 0 .02-.02.04-.03l.03-.02v-.02l.06-.05.15-.13s-.07.02-.08.04m.28.06-.07.05h-.02c-.02 0-.02.02-.03.03l-.03.02-.04.02-.05.02-.04.02h-.04s0 .02-.02.02h-.02l-.02.02c-.02 0-.02.02-.03.02v.02l-.02.02-.02.02v.05l.02.03h.08c.05 0 .07-.02.09-.03 0 0 .02 0 .02-.02s.02 0 .02-.02v-.02h.04l.02-.02.07-.07.11-.11v-.02l.02-.04v-.02l.03-.05c0 .02-.04.03-.05.04m-11.21 1.35h.05l.02-.02.07-.04h.02l.03-.02h.02c.02 0 .02-.02.04-.03l.06-.04.07-.05.12-.08.02-.02h.02v-.02l.05-.04s.02 0 .02-.02c.02-.02.03-.04.06-.05v-.04l.08-.08.1-.07v-.02h.02v-.02c.02-.02.03-.02.04-.05.02 0 .03-.02.06-.04 0 0 .02 0 .02-.02v-.02l.02-.02s.02 0 .02-.02l.02-.02s.02 0 .02-.02l.02-.02.17-.16.02-.02s-.02 0-.02.02h-.02l-.04.03h-.02l-.02.02h-.02l-.02.02h-.02l-.11.08-.02.02s-.02 0-.02.02l-.05.04-.04.02c0 .02-.02.02-.03.03h-.02l-.05.04h-.02v.02h-.02c-.02 0-.02.02-.03.03l-.02.02-.03.02h-.02l-.02.02-.1.07-.07.03c-.02.03-.06.05-.09.07a.3.3 0 0 1-.07.05h-.02l-.02.02v.02l-.06.06v.02h-.02v.02h-.02l-.14.15-.02.02.12-.02m16.33-.86-.09.07-.04.03-.07.07h-.02s0 .02-.02.02l-.1.1-.03.03s-.02 0-.02.02l-.03.03h-.02l-.1.08-.03.03-.04.03-.12.12c-.02 0-.04.02-.05.03l-.03.03s-.02 0-.02.02l-.02.02c-.02 0-.03.02-.05.03l-.02.02-.03.02-.03.02-.03.02-.05.03h-.02l-.14.1c.2.02.41.02.59.05.03 0 .07 0 .1-.02.02 0 .05-.04.08-.07.02 0 .02-.02.04-.03l.16-.16c.02 0 .03-.02.05-.03l.02-.02.07-.05.04-.03.2-.19h.02v-.02l.05-.06.02-.02s0-.02.02-.02a.43.43 0 0 0 .06-.07l.08-.08.06-.07.05-.06.02-.03c-.02 0-.05.03-.07.05l-.07.05-.02.04-.07.05-.02.02s-.02 0-.02.02l-.06.04v.02l-.02.02-.12.09-.03.03h-.02l-.04.03-.05.02h-.02l-.02.03-.02.02-.04.03a.43.43 0 0 1-.07.06h-.02l-.02.02-.07.06h-.07s-.02 0-.03.02c0 .02-.02 0-.04.02v.02s-.03 0-.03.02l-.02.02h-.02l-.02.02h-.13s-.02-.04 0-.06h.02l.14-.12.02-.02.07-.05h.02a.18.18 0 0 1 .07-.05c.02 0 .03-.02.04-.03l.02-.02.02-.03c.02 0 .02-.02.02-.02l.05-.05.02-.02.04-.03s0-.02.02-.02l.04-.03.12-.12.02-.02v-.02l.02-.02v-.02l.02-.02.03-.05v-.02h.02l.02-.02v-.02h.02l.02-.05.02-.02s.02 0 0-.02a.7.7 0 0 1-.09.07m-1.01.09-.09.07h-.02l-.02.02-.09.09-.02.02c-.02 0-.02.02-.04.03l-.06.05-.06.03h-.02l-.02.02-.1.08c-.07.06-.12.12-.19.16h-.03s-.1.07-.14.12l-.03.03a.43.43 0 0 1-.07.06l-.03.03-.07.06h-.02l-.05.05-.02.02c.02.02.06.02.08.02l.09.02h.12s.11 0 .16.02h.16l.06-.05a.68.68 0 0 0 .12-.12l.12-.11.06-.06.07-.07.02-.02s0-.02.02-.02V23l.07-.06.02-.02c.02-.04.05-.06.07-.08l.06-.06.02-.02v-.02l.05-.03v-.02c0-.02.02-.02.03-.03v-.02h.02v-.02a.16.16 0 0 0 .04-.07c-.02 0-.03.02-.05.04-.02 0-.02 0-.03.02l-.02.02s-.02 0-.02.02v.02l-.07.07a.7.7 0 0 1-.1.08.81.81 0 0 1-.1.09l-.02.02-.02.02h-.02l-.03.03-.04.02-.02.02-.06.04h-.02l-.05.04s-.02 0-.03.02l-.11.08a.2.2 0 0 1-.1.03l-.08.02c-.06 0-.13.03-.19.04-.02 0-.03.02-.05 0l.06-.05.05-.05c.03 0 .03-.03.07-.03l.1-.1.05-.04.15-.15.02-.02.07-.07.1-.1v-.02s.06-.04.07-.07c0-.02.03-.03.03-.04l.06-.06.02-.03.05-.05a.32.32 0 0 0 .05-.06s-.04.02-.05.02m-14.8.12-.05.03-.04.02c-.02 0-.03.02-.04.03l-.05.03-.02.02s0 .02-.02.02h-.02v.02h-.03l-.05.04h-.02l-.06.04-.02.02h-.02l-.02.02-.12.09c-.02.02-.03.03-.05.03s-.02.02-.03.03l-.02.02h-.02l-.07.07-.05.04-.02.02-.03.02-.06.05c0 .02 0 .02-.02.02l-.02.02-.02.03-.02.02-.03.02a.43.43 0 0 0-.06.07l-.02.05.08-.02h.1l.05-.02c.02 0 .03-.02.05-.03l.02-.02.02-.02s.02 0 .02-.02c0 0 0-.02.02-.02 0 0 .02 0 .02-.02 0 0 0-.02.02-.02s.02-.02.03-.02a.43.43 0 0 1 .07-.06l.04-.04c.02 0 .02-.02.02-.02s.02 0 .02-.02l.02-.02.05-.04.02-.02.06-.07v-.02h.02v-.02s.02 0 .02-.02v-.02l.05-.05v-.02l.02-.02a.38.38 0 0 1 .09-.09l.11-.11.05-.05.06-.06c-.02.02-.04 0-.07.02m8.59.18a.59.59 0 0 0-.17.1l-.07.04h-.02l-.03.02c-.02 0-.03.02-.04.03v.02h-.02l-.02.02-.02.02c-.02 0-.03.03-.05.04h-.02l-.02.04.05.02h.03l.07-.02v-.04a.34.34 0 0 0 .09-.08l.09-.08.14-.14.04-.03c0-.02.02-.02.02-.02l-.04.03m8.11.04v.02h-.02c-.02 0-.03.02-.04.03l-.07.05-.07.07-.02.09-.02.04-.02.05c.02 0 .02-.03.04-.05l.06-.05.02-.02.03-.04v-.02l.03-.02c.02-.03.04-.07.07-.09v-.02l.04-.05.04-.05-.03.02m-17.36.08h-.03s-.05 0-.07.02l-.02.02-.05.04-.03.03-.05.04-.03.02-.13.12h-.02l-.03.03-.02.02-.07.06-.05.04s0 .02-.02.02h-.02l-.02.02-.03.03-.06.05h-.02l-.07.1a1.1 1.1 0 0 0-.06.11c.02-.02.06-.02.08-.02.05 0 .08-.02.12-.04l.07-.05c.02 0 .02-.02.02-.02 0-.02.02-.02.03-.05l.08-.07.08-.08.07-.08.07-.09.03-.03.02-.02v-.02h.02l.02-.04.03-.03.16-.16-.02.06Zm17.65.08-.05.03-.02.02h-.02l-.02.02-.02.02c-.02 0-.02.02-.03.03l-.09.07c0 .03-.02.05-.04.07l-.03.03-.07.07-.02.02-.02.02h-.02l-.02.02h-.04c-.02.04-.08.05-.12.07-.07.06-.16.1-.23.15l-.12.09h-.02s-.03.04-.06.05c-.02 0-.04.02-.03.04h.02c.02.02.03 0 .06 0l.07-.02h.04c.02 0 .06 0 .07-.02s.02 0 .02 0l.03-.02h.02c.02 0 .02-.02.03-.02h.02l.03-.02h.02l.02-.02.1-.07c.02 0 .02-.02.03-.03h.02l.02-.02s.02 0 .02-.02l.03-.04s.02 0 .02-.02c0 0 0-.02.02-.02h.02s0-.02.02-.02 0-.02.02-.03c0 0 0-.02.02-.02s.03-.02.05-.04c0 0 0-.02.02-.02l.04-.03c0-.02.02-.03.04-.06 0 0 .02 0 .02-.02v-.02l.02-.02v-.02c0-.02.02-.02.03-.04 0 0 0-.02.02-.02 0-.02.02-.02.02-.03 0-.02 0-.02.02-.03h-.02m-.29.76.13-.08.04-.02.02-.02h.02s.02 0 .02-.02c0 0 .02 0 .02-.02s.02-.02.02-.03l.02-.03h.02c0-.02.02-.02.03-.03l.03-.03.03-.03s.02 0 .02-.02l.02-.02.02-.02.07-.07.02-.03.02-.02c.02-.02.05-.04.06-.07v-.02s.03-.03.03-.06l.02-.02.02-.04-.02.02h-.02c-.02 0-.02.02-.02.02l-.07.07-.02.02h-.02l-.02.02c-.02 0-.02.02-.04.03l-.05.03a.16.16 0 0 1-.07.04l-.05.03-.02.02a.7.7 0 0 0-.09.07l-.02.02-.03.02-.06.05-.07.05-.13.09s-.02 0-.02.02l-.11.08-.02.02-.05.05s-.02 0-.02.03c.12 0 .23-.05.33-.1m-7.84-.79s-.11.04-.15.07h-.03l-.05.03h-.04s-.02 0-.03.02 0 0-.02 0l-.06.03h-.02c-.02 0-.02.02-.02.02l-.06.05h-.04c-.02 0-.03.02-.05.03 0 .02.02.03.04.04h.06s.02-.02.04 0l.07-.04.02-.02s0-.02.02-.02l.04-.02c.02 0 .03-.03.06-.05l.02-.02.02-.02s0-.02.02-.02l.05-.05.02-.02v-.02h.02s0-.02.02-.02l.02-.02s.02 0 .02-.02c0 0 .02-.02 0 0l.02.04Zm.19.13-.08.05h-.02l-.02.02-.04.02h-.04l-.05.02h-.02l-.05.05-.03.02-.11.08c-.02 0-.04.02-.05.03.04.02.08.05.13.06l.02-.02h.02l.02-.02.05-.04.02-.02.02-.02.11-.07c.03-.03.06-.07.1-.09 0-.02.02-.02.02-.03v-.02a.35.35 0 0 0 .07-.09l-.07.04m7.25.07-.06.04c-.02 0-.04.03-.05.03s-.02 0-.02.02l-.07.06h-.02v.02c-.02 0-.03.02-.05.03 0 0-.02 0-.02.02l-.03.02h-.02s-.02 0-.02.02l-.03.02-.07.06h-.02l-.05.04-.02.02-.07.07c-.02.02-.04.03-.05.06h.05c.01 0 .02 0 .02-.02h.03c.02 0 .02-.02.04-.03l.07-.02.04-.02.05-.03.06-.02c0-.02.02-.02.03-.03l.02-.02H30s.02 0 .02-.02c0 0 .02 0 .02-.02l.04-.04.07-.07.03-.04v-.03s0-.02 0 0c0-.04.03-.07.04-.12l.02.02Zm.67.76s0 .02 0 0a.67.67 0 0 0 .21-.09c.02 0 .02-.02.02-.02.02-.02.06-.04.07-.07h.02l.03-.03h.02l.04-.03c.02 0 .02-.02.02-.02l.02-.02v-.02s.02 0 .03-.02l.02-.03.05-.07.02-.02.02-.02.02-.02a.7.7 0 0 1 .07-.09.42.42 0 0 0 .06-.08l.02-.04h-.06l-.07.07-.07.07-.04.03-.02.02s-.02 0-.02.02c-.02 0-.02.02-.04.03-.02 0-.03.02-.04.03l-.04.02-.03.03-.02.02-.03.03a.3.3 0 0 1-.07.05s-.02 0-.03.02l-.2.13-.04.02s-.02 0-.02.02-.03.04-.05.07h.12m-7.66-.65-.03.02-.06.03-.05.02h-.04a.18.18 0 0 1-.07.05h-.02l-.06.04c-.04.03-.07.08-.12.1h-.02l-.03.03-.02.03c.02 0 .04.04.07.03 0 .02.02.02.04.02h.02v-.02h.02l.02-.02h.02l.02-.02c.02 0 .02-.02.03-.02h.02c.03-.02.04-.05.07-.06 0-.02.02-.04.04-.06l.07-.08v-.02l.05-.05c.02 0 .02-.02.03-.02h-.02m.21.22-.1.05-.1.05s0 .02-.02.02c0 0-.03 0-.04.02l-.06.07-.04.02-.04.02c-.02 0-.03 0-.05.02l-.03.02-.03.03c.02.02.04.04.07.04h.03l.09-.03h.02l.05-.02.06-.04.02-.02v-.02l.05-.06.02-.03.02-.03s0-.02.02-.02l.04-.05m.48 0-.07.05-.02.02-.02.02-.07.04-.02.02-.07.05-.03.02c-.02 0-.04.03-.06.04 0 0-.02 0-.03.02l-.04.02-.04.02c0 .02-.03.02-.05.04l-.06.03h-.08l-.03.03-.02.04c.06.02.12 0 .17-.03l.06-.02.03-.02h.07c.02 0 .02.02.02.02v.02s0 .02.02.02v.05c-.02 0-.03.03-.06.04h-.03l-.04.02c-.02 0-.03 0-.04.02h.09l.14-.02.1-.03s0-.02.02 0 0 .03 0 .05v.02l-.02.03-.12.12-.04.02c-.02 0-.03.02-.04.03l.12-.03.05-.02.06-.02s.02 0 .03-.02c.02 0 .03-.03.06-.04h.02l.11-.08.03-.02.03-.02s0-.02.02-.02l.07-.07v-.02c0-.02 0-.02.02-.02l.03-.07c-.02 0-.02.02-.03.03l-.04.02-.06.02-.07.02h-.08s-.02.02-.03 0l.06-.07.06-.07.02-.04.03-.05v-.03s0-.02.02-.03v-.02l.02-.06v-.03h-.02l-.02.02-.11.1-.07.07v.02l-.06.04-.05.02h-.02l-.07.02c-.02-.02-.02-.04-.02-.07l.02-.04.02-.02.02-.03a.16.16 0 0 0 .04-.07c.02 0 .02-.03.03-.04a.16.16 0 0 0 .04-.07c.02-.02.02-.05.03-.07l.04.04ZM21.3 21.4l-.03.06s0 .02-.02.03v.04l-.02.02-.02.03v.04s.03.03.07.04c.05 0 .1 0 .13-.02l.22-.09-.02.02s0 .02-.02.02l-.03.04s0 .02-.02.02c0 0 0 .02-.02.02h-.02l-.04.05-.05.04v.03s0 .03.02.05c.03 0 .07-.03.1-.04h.04l.07-.02c.02 0 .05 0 .07-.02.02 0 0 .02 0 .03-.02.03-.03.06-.07.08 0 0-.02 0-.02.02l-.07.07-.02.02c0 .02-.02.02-.02.05v.04l-.02.03-.02.05c0 .02 0 .02-.02.03v.05l-.09-.02-.05.02s0 .02-.02.02a.43.43 0 0 1-.07.06l-.05.03c-.02.01-.02.03-.04.03 0 0-.02 0-.02.02-.02 0-.02 0-.03.02l-.03.02c-.02 0-.02.02-.05.02a.22.22 0 0 1-.08.05l-.02.02s-.04 0-.05.02h-.08c-.02 0 .02-.02.02-.02.02 0 .05-.02.05-.05a.34.34 0 0 0 .09-.08l.07-.07.02-.02.06-.06.05-.04s0-.02.02-.02h.02l.03-.05c0-.02.02-.02.04-.04v-.02l.02-.03c.02-.03.03-.08-.02-.11a.64.64 0 0 0-.14.08c-.02 0-.02.02-.05.03s0 0-.02.02l-.08.06-.26.18-.04.02c0-.03.02-.05.04-.07l.02-.02.02-.03.11-.11.02-.03c.05-.05.1-.12.16-.16l.04-.04c0-.02.02-.03.03-.05.02-.04 0-.07-.03-.09a.52.52 0 0 0-.17.12l-.12.08-.04.02s0-.02.02-.03v-.06l.02-.02v-.02l.04-.07s0-.03.02-.04l.04-.07c0-.02 0-.03-.02-.04l-.03-.02h-.03l-.1.04h-.07s-.06.04-.1.03v-.02s0-.02.02-.02l.02-.02v-.02l.02-.02h-.17s-.02 0-.03.02-.02 0-.03 0l-.02.02c-.02 0 0 0 0 0l.03-.03s.02 0 .02-.02c0 0 0-.02.02-.02h.04l.11-.04h.02l.03-.02h.03l.04-.02.15-.07.21-.12c-.05.06-.08.12-.12.19v.02c0 .02 0 .02.02.02l.04-.02h.05l.04-.02a.67.67 0 0 1 .12-.06l.07-.04m.66.75-.04.07a.32.32 0 0 0-.05.06l-.05.05-.04.06c-.02 0-.03.02-.04.04h-.02l-.05.05c-.02 0-.03.03-.06.03l-.04.04c-.02 0-.02.02-.04.03-.02 0-.03.02-.05.04l-.02.02v.02h-.02v.02h-.02s-.02 0-.02.02l-.06.03v.02h-.02c-.02.02-.05.02-.07.05-.05 0-.06.03-.1.04 0 0 0-.02.02-.02l.12-.12.03-.03.02-.02v-.04h.02l.09-.1s0-.02.02-.02h.02l.03-.05s.02 0 .02-.02 0-.02.02-.02l.02-.02h.03c.02 0 .02-.02.04-.03h.02l.02-.02h.02l.02-.02h.02l.07-.04.14-.08m-5.65.01s0 .02-.02.02l-.02.02-.1.07v.02h-.02s0 .02-.02.02h-.02s-.02 0-.02.02l-.03.02-.02.02-.02.02-.02.02-.02.02-.02.02-.06.06-.02.02s-.02 0-.03.02h-.06l-.06.02c0-.02.03-.03.05-.05l.05-.04.04-.03.07-.07.02-.02c.02 0 .02-.02.04-.03l.06-.04h.02s0-.02.02-.02c0 0 .02 0 .03-.02l.03-.02.2-.1m-1.06.13s-.02 0-.02.02v.02l-.02.02-.1.1a.93.93 0 0 1-.14.14l-.05.05-.04.05h-.02l-.09.08-.02.02h-.02l-.03.03a.44.44 0 0 1-.11.08l-.07.06-.02.02s-.02 0-.02.02-.02.02-.02.02l-.06.04h-.02l-.02.02-.05.04-.03.02-.05.04c0 .02-.03.03-.05.06l-.02.02s-.06.04-.07.07v.07h.02s.03.03.05.03h.05s.02 0 .03-.02h.02v-.02l.1-.07.02-.03.07-.07c.02 0 .02-.02.04-.03.02 0 .02-.02.04-.03l.07-.07.08-.07.05-.05.02-.02.09-.09h.02a.43.43 0 0 1 .07-.06s0-.02.02-.02h.02l.07-.05s.02 0 .02-.02h.02l.04-.03.02-.02.02-.02s.02-.02.05-.02l.02-.02s.02 0 .02-.02l.02-.02s.02 0 .03-.02c.03-.02.07-.06.11-.07l-.12.14s0 .02-.02.02v.02c-.02 0-.02.02-.03.02h-.02l-.02.02-.07.08-.1.07-.07.06-.18.18c-.02 0-.02 0-.02.02l-.07.05-.05.04-.03.03s-.02 0-.02.02l-.02.02h-.02l-.03.02-.04.04-.07.07c-.03.03-.07.06-.09.1l-.04.02-.04.02s-.02 0-.02.02h-.14c-.18.02-.41.02-.6.03v-.03s.02-.03.05-.03c0 0 0-.02 0 0 .02 0 .02 0 .03-.02l.04-.02h.02l.03-.02.02-.03h.02s.02 0 .02-.02h.02v-.02h.04l.07-.04c.02 0 .02-.02.03-.04v-.02l.04-.02c.02-.02.04-.05.07-.06l.23-.21.03-.02.09-.07.05-.03s0-.02.02-.02h.04c.02 0 .03-.03.06-.05 0 0 .02 0 .02-.02l.02-.02.06-.04c.02 0 .03-.02.05-.03l.07-.05s.02 0 .02-.02c.02 0 .02-.02.03-.04s0 0 .02 0c0 0 .02 0 .02-.02.02 0 .03-.02.04-.03l.03-.02.04-.02.04-.02.02-.02s.02 0 .02-.02c.02 0 .03-.02.05-.03.02-.02.02-.03.05-.03m12.84.46s.02-.03.05-.04l.07-.05.02-.02c.02 0 .03-.02.05-.04h.02l.04-.03c.02 0 .02-.02.04-.03v-.02l.02-.02.02-.02c.02 0 .02-.02.03-.02.03-.02.07-.06.12-.08.02-.02.04-.04.07-.04a.7.7 0 0 1-.08.1l-.06.07-.02.02-.02.02-.05.06-.05.02-.07.06-.06.02-.06.03c-.04 0-.07.02-.1 0m-15.36.1s-.03 0-.05.02h-.04l-.04.04c-.02 0-.02.02-.03.03l-.02.02a.32.32 0 0 1-.06.05l-.13.11-.04.04c-.02 0-.03.02-.04.03l-.05.04s-.02 0-.02.02v.17h.02l.06-.02.03-.03h.02l.02-.02.02-.02h.02v-.02s0-.02.02-.02v-.02l.05-.05v-.02l.03-.04c0-.02.03-.03.03-.05 0 0 0-.02.02-.02 0-.02.02-.02.03-.04v-.08l.02-.03v-.02h.02l.02-.02"/><path fill="#002f6c" fill-rule="evenodd" d="m32.24 23.96-.22-.02-.16-.02c-.06 0-.12 0-.16-.02h-.17l-.12-.02h-.25l-.23-.02-.29-.02h-.3l-.24-.02h-.15c-.07 0-.13 0-.19-.02l-.2-.02h-.44c-.21.02-.44 0-.67 0h-.29l-.17-.02c-.02 0-.09-.02-.09 0h-.06s-.07 0-.1-.02c-.02 0-.09-.02-.1 0h-.07s-.07-.02-.09 0c-.02-.02-.07-.02-.11-.02l-.19-.02-.02-.02v-.05l.05-.05.05-.02s.02 0 .02-.02l.03-.02s0-.02.02-.02c0 0 .02 0 .03-.02 0 0 0-.02.02 0 0-.02.02-.03.03-.04l.04-.02s.02 0 .02-.02.02-.03.03-.04c0 0 0-.02.02-.03l.04-.03.05-.06.03-.03.07-.07c0-.02.02-.02.03-.03.02 0 .02-.02.03-.02l.02-.02.02-.02.07-.07a.64.64 0 0 0-.24.1c-.02 0-.03.02-.05.03h-.02l-.12.1-.02.02-.03.02-.05.05c-.02 0-.02.02-.04.03l-.03.02-.03.02-.03.02-.08.06-.02.02-.03.02a.75.75 0 0 0-.12.07c-.03.02-.12.08-.16.05v-.05s0-.02.02-.02c0-.02 0-.02.02-.02 0-.02.02-.03.03-.04 0 0 0-.02.02-.02l.07-.07c0-.02.02-.02.03-.03a.63.63 0 0 1 .12-.1l.04-.03s0-.02.02-.03l.03-.03a.7.7 0 0 1 .1-.08l.13-.12s.02 0 .02-.02.08-.08.12-.12l.03-.04h.02l.02-.02.02-.03c0-.02.02-.02.03-.04 0-.02.03-.04.05-.06v-.02l.02-.02v-.02h.02l.07-.08-.07.04-.11.07-.04.05-.08.07-.02.02c-.02 0-.02.02-.03.03h-.04l-.02.02h-.02l-.06.05-.05.04s-.02 0-.02.02l-.03.02h-.02s-.02 0-.02.02c-.02 0-.02.02-.03.02h-.02l-.02.02h-.04s-.02 0-.03.02 0 0-.02 0a.7.7 0 0 0-.09.07l-.05.02s-.02 0-.03.02c-.02 0-.02.02-.03.03a.27.27 0 0 0-.08.07c-.02 0-.04.02-.06.04-.02 0-.02 0-.03.02l-.03.02v.02s-.02 0-.03.02-.02.02-.03.02l-.02.02h-.02l-.03.02-.06.04-.05.02h-.05v-.02l.05-.04c.02 0 .04-.03.05-.04l.02-.02h.02l.02-.02.03-.02.02-.02.03-.03.03-.02.02-.03h.02l.05-.05.12-.11s.02 0 .02-.02.02-.02.02-.03c0-.02.02-.02.03-.03l.1-.1.05-.05.03-.04.02-.02v-.02l.03-.06c.02 0 .03-.02.04-.03 0 0 .02 0 .03-.02h.02l.02-.03c-.02 0-.02 0-.03.02s-.02.02-.03.02a.16.16 0 0 1-.07.04l-.07.04-.08.07h-.05l-.02.02c-.02 0-.03.02-.05.03l-.03.02h-.03l-.05.03-.03.03h-.02l-.02.02s-.02 0-.03.02l-.03.02-.23.14-.1.06h-.06v-.03s0-.02.03-.04h.02l.02-.02h.02s0-.02.02-.02h.02l.06-.06h.02l.06-.05.02-.02v-.02h.02s0-.02.02-.02l.02-.02.04-.02a.73.73 0 0 1 .08-.09h.02l.05-.06.03-.02.02-.02v-.02s0-.02.02-.02v-.02l.02-.02v-.04h-.03s-.02 0-.02.02h-.02l-.06.03s-.02 0-.03.02v.02h-.02l-.03.02c0 .02-.03.02-.04.03l-.02.02h-.02l-.16.12h-.02l-.03.02-.11.07-.07.02c-.02-.02 0-.05 0-.07 0 0 .02 0 .02-.02l.03-.02a.18.18 0 0 1 .07-.05c0-.02.03-.02.03-.05.02 0 0 0 .02-.02l.04-.03.04-.04.12-.12c0-.02.02-.02.03-.03.02 0 .02-.02.02-.02 0-.02.02-.03.04-.04l.02-.04v-.02l-.06.02-.02.02h-.02l-.06.04h-.02l-.02.02s-.02 0-.03.02l-.02.02h-.02l-.03.02c-.02 0-.02.02-.03.02h-.04l-.03.03s-.02 0-.03.02-.03 0-.04.02c-.02 0-.02.02-.05.02-.04 0-.08 0-.08-.03 0 0 0-.02.02-.02v-.03h.02v-.02s0-.02.02-.03l.02-.02.02-.02.02-.03.05-.06.02-.02.04-.02a.32.32 0 0 0 .05-.06c.02-.02.03-.03.02-.05-.02 0-.03 0-.05.02l-.07.04h-.02l-.04.02c-.02 0-.02.02-.03.02v.02h-.02c-.02 0-.04.02-.07 0-.05 0-.06-.03-.07-.07.02-.03.05-.06.06-.1v-.02l.02-.02v-.02h.02v-.02l.07-.07V22l.02-.02.02-.02-.06.02-.04.02h-.02s-.02 0-.02.02h-.03s-.02 0-.02.02c0 0-.02 0-.02.02h-.09l-.02.02-.02.02c-.02.02-.03.03-.03.06.02.02.02.03.02.05v.02l.02.06v.02s0 .02.02.02v.02l.02.06v.1l.03.04.02.06.02.08.02.07.02.07v.49l-.03.06v.07l-.03.04-.05.05-.06.03h-.02c-.02 0-.03.02-.05.03h-.09s0-.02-.02-.02c0 0 0-.02.02-.02v-.03c.02 0 .02-.02.02-.03l.04-.03.05-.05.05-.05s0-.02.02-.03c0 0 .02 0 .02-.02l.03-.08c-.02 0-.02 0-.02.02s0 0-.02 0l-.04.02c-.02 0-.02.03-.04.02-.02.02-.07.02-.07 0s0-.04.02-.06c0-.02.03-.04.04-.06v-.04l.03-.03v-.04l.02-.05c0 .02-.03.02-.03.03l-.07.04a.1.1 0 0 1-.07.03c-.02 0-.05-.02-.05-.03v-.05l.05-.07.07-.07a.1.1 0 0 0-.07.02h-.13l-.03-.04v-.02l-.05-.14c0-.02-.02-.02-.02-.03v-.02l-.04-.1c0-.05-.04-.07-.04-.13l-.03-.06v-.04s0-.02-.02-.03c0 0 0-.02-.02-.03l-.02-.07v-.07l.03-.06a.18.18 0 0 0 .07-.1c-.02 0-.02 0-.03.02h-.03l-.08.02v-.15l.04-.05.05-.04.03-.03.03-.03.07-.07v-.02s0-.02.02-.02l.03-.06s0-.02.02-.02v-.02s.02 0 .02-.02l.02-.05s-.02 0-.02.02l-.02.02-.12.13-.1.07c-.03.02-.07.05-.12.06-.02-.06-.08-.11-.06-.18.02 0 .05-.03.07-.05.02 0 .02-.02.04-.03l.02-.03.12-.11s0-.02.02-.02c0-.02.03 0 .02-.02l.1-.07c.02 0 .02-.02.03-.02l.04-.05h.02c.02 0 .02 0 .02.02 0 0 .02 0 .02.02v.08s.02.07 0 .11v.1s-.04.09-.04.15v.27c.02-.03 0-.08.02-.12 0 0 0-.02.02-.02 0 0 0-.02.02-.02v-.04s0-.02.02-.02l.03-.07v-.02l.05-.1s0-.02.02-.02v-.02s0-.02.02-.02v-.08l.02-.06v-.26s0-.04-.02-.06v-.19l-.02-.08v-.02a.26.26 0 0 0-.03-.08c-.02-.04-.03-.07-.06-.1 0 0 0-.02-.02-.03v-.02l-.05-.07c0-.02-.02-.02-.04-.03l-.02-.02c-.02 0-.02-.02-.04-.04v-.02h-.02l-.1-.11v-.02h-.02l-.1-.1-.02-.02.09.14.09.15.03.04s0 .02.02.02v.02l.05.1c0 .02 0 .03.02.05 0 .03.03.06.04.08v.08l-.02.07c0 .02 0 .04-.02.05 0 .02-.02 0-.02.02.06-.02.09-.05.16-.06v.07s0 .02-.02.03c0 .02 0 .03-.02.04s-.02.05-.02.07l-.02.02v.02s0 .02-.02.02c0 .03-.02.06-.04.07l-.07.07-.07.07-.03.02-.03.03s-.02 0-.02.02l-.03.02-.1.07-.03.02c-.02.02-.04.04-.07.04l-.07-.09.05-.04.02-.03s.02 0 .02-.02v-.02l.02-.03v-.02l.02-.02.07-.1.02-.03.03-.03h.02v-.02h-.04s0 .02-.02.02h-.02s0 .02-.02.02h-.02s-.02 0-.02.02v.02h-.02l-.04.02h-.02l-.17.11s-.02 0-.02-.02l-.07-.07c.02 0 .02-.02.05-.03l.08-.07.04-.02.03-.03.02-.02c.02-.02.06-.05.07-.09h.02c0-.02 0-.02.02-.02 0 0 0-.02.02-.02 0-.03.02-.05.05-.07l.02-.02c0-.02.02-.02.03-.02 0-.02.02-.03.03-.05l.02-.04v-.02s.02-.02.02-.05l-.12.13c-.02 0-.05.03-.07.06l-.13.11-.07.05-.05.04-.02.02c-.02 0-.02 0-.03.02h-.02l-.05.03c-.02 0-.03 0-.04.02l-.04.02c-.02 0-.02.02-.05.02l-.04-.02-.02-.03s0-.02.02-.02c0 0 .02 0 .02-.02 0 0 0-.02.02-.02s0 0 .02-.02 0 0 .02 0l.04-.03c.02 0 .02-.02.02-.02h.02v-.02s.02 0 .02-.02l.02-.04.05-.04s0-.02.02-.02c0-.02.02-.02.02-.03l.02-.02.04-.05c0-.02.03-.02.03-.05l-.05.02-.17.16a.28.28 0 0 1-.09.06l-.19.13h-.05c-.02 0-.04-.02-.06-.04-.02 0-.04 0-.05-.03.02-.05.07-.09.1-.12l.05-.04.02-.02h.02s0-.02.02-.02h.02a.3.3 0 0 0 .08-.08s-.08.03-.12.05l-.12.06-.18.1c-.02.02-.04.02-.07.03h-.11s-.02 0-.02-.02c-.03-.04.02-.07.05-.11 0 0 0-.02.02-.02 0 0 .02 0 .02-.02 0 0 0-.02.02-.02s.02-.02.02-.03c.02-.02.05-.03.06-.06l.02-.02.02-.02.02-.03.03-.04c-.04 0-.08.04-.12.07l-.1.04-.04.02h-.02c-.05.03-.1.07-.16.09h-.04c-.02 0-.02.02-.03.02h-.07l-.02-.02v-.05s.02 0 .02-.02h.03l.03-.03.03-.03.04-.05h.02l.04-.04.02-.02.02-.02s.02-.02 0-.02c-.05 0-.11.05-.15.07-.02 0-.03 0-.04.02h-.02l-.05.02-.07.03h-.03s-.02 0-.02.02h-.04l-.06.02c-.02 0-.02-.02-.03-.05 0 0 0-.02.02-.02v-.05l.04-.05.02-.02s.02-.02 0-.02h-.05l-.04.02h-.04l-.07.02-.16.04c-.02 0-.03 0-.04-.03v-.07l.04-.03c.02 0 .03-.02.05-.03l.03-.03.02-.02s0-.02.02-.02c0 0 0-.02 0 0l-.22.08-.07.02h-.02s-.05.02-.07 0l-.02-.02-.05-.02-.04-.02c-.02 0-.03 0-.04-.02-.02 0-.02-.02-.03-.02l-.07-.06-.05-.02-.02-.02h-.02l-.07-.07c-.02 0-.04-.02-.06-.04-.02 0-.02-.02-.03-.03s0-.02-.02-.02c0 0-.02 0-.02-.02v-.02s-.03-.06-.02-.07l.03-.02.07-.04c0-.02.02-.03.04-.05l.03-.06-.06.02h-.02l-.02.02-.06.02-.06.02h-.05l-.02.02-.1.03s-.02-.02-.02 0c0-.02-.02-.04 0-.07 0-.02.02-.02.04-.04.02 0 .02-.02.03-.02l.03-.04.03-.03s.02 0 .02-.02h.02l.02-.02s.02 0 .02-.02c.02 0 .03-.02.03-.03-.04 0-.07.03-.1.06h-.03c-.03 0-.06.02-.08.04l-.07.03-.04.02h-.05l-.05.02h-.05s-.03 0-.04-.02v-.02l.02-.04s0-.02.02-.02l.07-.07c.02 0 .02-.02.03-.03 0-.02.03-.03.04-.05l.05-.05s.02-.02 0-.02l-.07.05-.07.04h-.02l-.12.07h-.02l-.02.02s-.02 0-.02.02-.02.02-.02.02l-.07.03h-.02l-.02.02h-.02l-.03.02-.04-.02v-.02c-.02-.02 0-.04 0-.06 0-.02.02-.02.02-.03l.12-.16s.02-.02 0-.02l-.13.08-.14.07-.16.08c-.02 0-.07.03-.11.02-.02 0-.02-.05 0-.07 0-.02 0 0 .02-.02l.04-.07.04-.07.04-.06c.02-.02.04-.03.04-.06a.15.15 0 0 0-.09.04l-.07.05-.04.02h-.02s-.02 0-.02.02c-.02 0-.03.03-.05.04h-.04l-.06.02-.02.02-.08.02c-.02 0-.05.02-.07 0-.02 0-.03-.02-.03-.04s0-.02.02-.03l.02-.02a.3.3 0 0 0 .05-.07v-.02s0-.02.02-.02c0-.02.02-.02.02-.03v-.02c0-.02.02-.02.02-.03l-.04.02-.07.03h-.02l-.15.08h-.02l-.08.02c-.02-.02-.04-.04-.02-.07 0-.02.05-.05.07-.06 0 0 0-.02.02-.02h.02l.02-.02.03-.02.03-.02.02-.02.05-.04c0-.02.03-.03.04-.04 0 0 .02 0 .02-.02l.04-.03c-.09.02-.16.07-.26.07l-.03-.06-.03-.11-.02-.09v-.02c0 .05 0 .12-.02.15V19l-.04.1-.05.09-.02.02-.06.08-.02.02-.02.02-.03.03-.02.02-.05.06c-.02 0-.02.02-.05.02-.03.04-.09.05-.12.08l-.13.07s-.03 0-.04.02c0 0-.02 0-.02.02s-.05.02-.08.02c-.02 0-.03 0-.05.02l-.3.04h-.39s-.05.02-.06 0c-.02 0-.04 0-.05-.02h-.06c-.04-.02-.1-.02-.13-.03l-.07-.02-.1-.04h-.02s-.03 0-.04-.02c-.02 0-.02-.02-.03-.02l-.06-.03h-.02l-.04-.02s0-.02-.02-.02h-.02s0-.02-.02-.02l-.04-.07c-.02-.02-.02-.05-.03-.07l-.02-.06v-.1s-.02-.04 0-.06c0-.03.04-.03.08-.03l.12-.02h.07s.02 0 .03.02l.16.09c.02 0 .03.02.04.03.03.02.08.02.13.02h.09l.06-.02h.09l.05-.02.04-.02.02-.02s.02 0 .02-.02c0 0 .02 0 .02-.02h.02s.02 0 .02-.02h.02l.08-.06.07-.06c.03-.05.03-.14.05-.2l.02-.07s.02 0 .02-.02v-.02c0-.02.03-.02.05-.04l.05-.04.04-.02.02-.02s.02 0 .03-.02l.07-.02h.27s.02 0 .02.02h.06l.02.02.07.02h.03c.02.02.05.02.07.02h.04l.07.02.18.05h.11l.1.03.22.04c.03 0 .07.02.12 0h.07l.08.02h.49l.29.02h.61l.14.02c.02.02.03.02.05.02.02 0 .04 0 .06.02v.02h.02l.02.02h.06s.02 0 .02.02h.03l.02.02h.06l.05.02.09.02s0 .02.02.02l.18.06h.05l.09.03c.02 0 .03.02.05 0 0 .02.04.02.05.03l-.02.07v.02l-.02.02c-.02.02-.04.04-.04.06.02 0 .02 0 .02-.02h.03c.03-.02.07-.02.1-.03.03-.02.07-.02.1-.03h.17s0 .02.02.02v.07l-.02.04s0 .02-.02.03l-.02.02-.02.03.1-.03.08-.03.06-.03c.02 0 .05 0 .07-.02h.08c.02 0 .05.03.05.07v.02l-.05.05-.03.02-.02.03s-.02 0 0 0h.04c0-.02.02 0 .03-.02l.12-.05.06-.02c.07-.02.12-.02.12.03-.02.02-.02.05-.02.07s-.03.04-.03.07l.04-.02h.07l.08-.02h.1l.02.04c0 .03-.02.05-.03.07h.31s.06 0 .07.02h.07l.04.02.04.03c.02 0 .03.03.04.04l.03.04v.02h.02v.02l.02.02.02.05.02.02.04.06c.02.03.02.07.05.09v.02l.02.02v.02c0 .02.02.03.02.03s0 .02.02.02l.02.04.02.02v.02l.02.02.04.05v-.05l-.02-.1c0-.03 0-.07-.02-.1 0-.04-.02-.08-.04-.12l-.06-.12c0-.02-.02-.02-.02-.03 0-.02 0-.02-.02-.03 0-.02-.02-.02-.02-.03l-.03-.05s-.02 0-.02-.02c0 0-.02 0-.02-.02.02-.02.03-.02.05-.02h.02l.04.02.04.04.02.02c.02.04.04.02.07 0 .02 0 .02-.02.03-.03 0 0 .02 0 .02-.02.02-.02.03-.03.05-.03s.04-.02.07 0c0 .03 0 .06-.02.08l-.02.02-.02.04v.02h-.02s-.03.03-.02.06c.02 0 .05 0 .06-.02s.02-.02.03-.02l.08-.05.06-.04c.02-.02.04-.02.07-.03s.02 0 .02-.02c.02-.02.06-.02.1-.03l.02.02v.06c0 .02-.03.04-.05.06v.04s-.02 0-.02.02l-.02.02-.09.09.06-.02.03-.02.07-.04c.02 0 .03-.02.05-.03h.04l.06-.02.03-.03.07-.06.02-.02h.02l.02-.02.07-.02.07-.03s.02.02.03 0c.02-.02.04.02.05.03 0 0 0 .02-.02.02 0 .02-.02.03-.03.05 0 0 0 .02-.02.02 0 .02-.03.03-.03.05l-.04.04-.03.03-.03.02-.02.02h-.02v.02l-.03.02v.02l-.07.07-.05.05-.12.12c0 .02-.02.02-.02.03l-.03.03.03-.02s.02 0 .03-.02v-.02h.02l.02-.02.12-.08s.02 0 .03-.02l.09-.07.12-.09.1-.07.02-.02c.02 0 .03-.02.04-.03a.32.32 0 0 1 .06-.05l.11-.07.12-.07c.04 0 .08-.04.13-.05h.12c0 .02-.02.03-.04.05l-.05.05-.05.07-.07.07a.7.7 0 0 1-.09.07l-.05.04-.03.02-.02.02-.02.02s-.02 0-.02.02c-.02 0-.02.02-.03.03h-.02s0 .02-.02.02h-.02l-.02.03c-.02 0-.02.02-.03.03 0 0-.02 0 0 .02l.21-.11c.02 0 .03-.02.05-.03l.1-.07.04-.02h.02l.1-.06.1-.06.1-.07c.02 0 .03-.02.05-.03.02 0 .03-.02.05-.03l.06-.03.02-.02.11-.05h.05l.06-.03c.02 0 .05-.02.07 0 .02.03 0 .06 0 .07v.02c0 .02-.02.02-.02.02 0 .02-.02.02-.03.03-.02 0-.02.02-.03.03h-.02l-.07.07-.06.05c.06 0 .11-.03.16-.05.02 0 .03 0 .05-.02l.07-.04.04-.02s.07-.03.1-.06l.08-.04.08-.04c.02 0 .04-.02.05-.03l.03-.02h.14s.04-.02.07 0c0 .03-.04.07-.07.1 0 .02-.02.02-.04.04l-.05.05h-.02s-.03.02-.02.03l.07-.02.1-.06.05-.02s.02 0 .03-.02h.04l.06-.03.11-.07.07-.02.07-.02c.02 0 .02.02.03.03l-.02.04v.02l-.02.06-.02.04v.02s.05 0 .07-.02l.03-.02.09-.06.04-.02.04-.02c.02-.02.06-.02.08-.03.06-.07.18-.04.28-.04h.07l-.02.05-.03.02-.04.04-.02.02v.02l-.05.07-.02.03c.02 0 .03 0 .05-.02.02 0 .03-.02.04-.03l.08-.05.04-.02.04-.02s.02 0 .03-.02h.02l.11-.05.05-.02h.02s.02 0 .03-.02h.02s.03 0 .04-.02h.02l.04-.02h.22l.18-.02h1.1c0 .02.02.04 0 .07l-.04.04-.1.11.06-.02.07-.05.02-.02h.02l.17-.11c.04-.02.08-.05.13-.06 0 0 .02 0 .02.02v.08l-.02.03-.02.03H32v.02l-.02.02s-.02 0 0 0h.07l.08-.06h.02c.02 0 .02-.02.03-.02v-.31h-.9l-.32.02h-.22l-.15.02h-1.61l-.46.02h-.81c-.07 0-.14 0-.2.02h-.85s-.02 0-.03-.02h-.45l-.34-.02h-.46l-.11-.02h-.04s-.06 0-.08-.02c0 0-.02 0-.03-.02h-.09l-.04-.02h-.05l-.04-.02h-.05l-.04-.02c-.02 0-.05 0-.07-.02h-.06l-.08-.02h-.02s-.05 0-.07-.02h-.09l-.04-.02-.15-.05h-.02s-.03 0-.04-.02l-.09-.02h-.05l-.04-.02c-.04 0-.07-.02-.11-.03-.02 0-.05 0-.07-.02-.03 0-.07-.03-.1-.04h-.03l-.06-.02-.08-.03h-.06s-.02 0-.02-.02-.02 0-.03-.02-.02 0-.03 0h-.02c-.02 0-.03 0-.05-.02h-.04s-.02 0-.02-.02-.02 0-.02 0h-.02l-.07-.03h-.04l-.04-.02h-.09l-.21-.06h-.05s-.03-.02-.05 0c-.02-.02-.06 0-.06-.02h-1.09s-.12 0-.16-.02h-.09s-.1 0-.15-.02h-.12a.84.84 0 0 1-.18-.03h-.02l-.08-.02h-.04l-.04-.02h-.27l-.15-.02h-.34s-.04 0-.05.02h-.03l-.04.02-.04.03-.22.13-.04.02s-.02 0-.02.02h-.06l-.04.02h-.02s-.02 0-.02.02l-.04.02-.14.07h-.02s-.02 0-.02.02h-.05c-.09.03-.17.07-.26.08l-.24.05-.24.03s0 .02-.02.02c0 0-.02 0-.02.02v.02l-.03.06c-.02.03 0 .06 0 .09v.13l.02.07h-.04s-.03 0-.05.02c-.02 0-.02.02-.03.02h-.02s-.02 0-.02.02h-.04l-.04.02h-.05s-.06 0-.09.02l-.09.02h-.05c-.09 0-.19.03-.29.03h-1.37s-.05 0-.07-.02h-.13l-.35-.03h-.22c-.06 0-.12 0-.18-.02h-1.31c-.07 0-.13 0-.19-.02h-1.45v.33l.1-.06.06-.03.07-.03h.14c0 .05-.03.07-.06.1 0 0 0 .02-.02.02 0 0-.02 0-.02.02-.02 0-.02.02-.04.04l-.1.1c-.02.02-.05.04-.05.07h.09l.03-.02.07-.04h.05c0-.02.02-.02.05-.02l.06-.04.03-.02h.02c.02 0 .03 0 .03-.02v-.02h.05l.04-.02c.03-.02.07-.02.09-.05.02.02.04 0 .08 0l.02.05c0 .02-.03.04-.04.06-.02 0-.02.02-.03.03l-.03.02s-.02 0-.02.02v.02s-.02 0-.02.02-.02.03-.03.04c0 0-.02 0-.02.02 0 0 0 .02-.02.02l-.04.02-.02.03s-.02 0-.02.02h.02l.03-.02.04-.03.1-.06.12-.07H13v-.02l.06-.02.02-.02.06-.03h.04l.09-.04c.02 0 .02 0 .03-.02.03 0 .06-.02.08-.03h.08c0 .02-.02.03-.04.05h-.02c-.02.02-.05.03-.06.06-.02 0-.03.02-.04.03h-.02l-.02.02c-.05.05-.1.08-.13.15l.04-.02.04-.02h.02c.02 0 .02-.02.03-.02l.07-.02.08-.04.04-.02.16-.07.08-.04a.16.16 0 0 1 .08-.03h.15l-.02.02-.09.08c-.02 0-.02.02-.04.03 0 0-.02 0-.02.02s0 0-.02.02l-.13.12.09-.03c.02 0 .02 0 .03-.02l.04-.02h.04l.07-.03h.05l.12-.06.12-.05h.02s.03 0 .03-.02l.05-.02h.07s.04-.02.06 0c0 .04-.05.07-.07.09-.02 0-.02.02-.03.02l-.04.05s-.02 0-.02.02l-.03.03-.04.04c-.02.02-.04.02-.04.04l.16-.07c.03 0 .06-.02.08-.03h.02l.02-.02s.02 0 .03-.02l.05-.02h.02l.07-.03h.02l.09-.03h.02l.07-.03h.1c0 .02-.02.02-.02.03l-.04.05-.06.06h-.02s-.02.03-.04.03-.04.03-.06.05l-.02.02-.04.04c.05 0 .1-.03.13-.04.02 0 .03 0 .04-.02l.14-.07s.02 0 .02-.02l.06-.02.07-.03.06-.02c.02 0 .03 0 .04-.02.02 0 .03 0 .05-.02h.2c.29.02.58 0 .89 0h.4v.07s-.02 0-.02.02h.04c.02 0 .03 0 .04-.02.02 0 .02-.02.03-.02.02-.02.05-.02.07-.03l.09-.03h.18s0 .04-.02.06l-.02.06c.03 0 .07-.02.1-.04l.1-.04h.04l.03-.02h.16l-.04.09.07-.02c.02 0 .03 0 .04-.02l.08-.03s.02 0 .03-.02h.19l-.02.05c0 .02 0 .02-.02.03l-.02.04v.02s-.02.02 0 .02l.14-.08.09-.05h.04l.04-.02.04-.02s.02 0 .02-.02h.15l.02.06-.06.05v.02l-.03.02h-.02l-.05.04-.02.02s-.02 0 0 0c.03 0 .06 0 .07-.02s.06-.02.08-.03l.16-.06c0-.02.03-.02.06-.03v.02l.02.06c0 .02-.02.02-.03.04a.68.68 0 0 1-.12.12c0 .02-.02.03-.03.05.06-.02.11-.07.17-.09l.08-.04c.05-.02.1-.06.18-.05 0 0 .02 0 .02.02l.02.03-.03.04-.04.03-.07.07-.06.06s-.02 0-.02.02l-.04.04s-.02 0-.02.02c0 0-.02 0-.02.02.05 0 .1-.03.14-.06l.18-.07s.02 0 .03-.02h.02l.04-.02.07-.03c.02 0 .06-.03.07-.02h.03l.04.03c0 .03-.03.07-.05.08l-.03.03-.07.05-.02.02v.02l-.05.05-.03.03-.02.03.07-.02.07-.03.06-.03.07-.03c.05-.02.09-.06.13-.07h.02l.04-.02h.05l.04-.02h.02s.07-.04.12-.04l.11-.07.02-.02h.05c.03 0 .05.04.02.06s-.02.02-.02.03l-.05.05-.06.07s-.02.02 0 .03l.07-.03.06-.03.07-.05.08-.04.02-.02s.02 0 .03-.02H20l.04-.02h.02c.02-.02.06-.02.08-.03.02 0 .02-.02.03-.02h.02l.02-.02c.03 0 .07-.03.1-.02.02 0 .03.02.04.03 0 .02 0 .03-.02.05v.02s-.02 0-.02.02c.04 0 .07-.02.11-.04.02 0 .04 0 .06-.02 0 0 .02 0 .02-.02h.08l.05-.02h.03l.08-.02c0-.02.02 0 .02 0h.02l.03-.02h.6c.06 0 .11 0 .16.02l.16.02.12.02.12.02.16.04.08.02s.02 0 .02.02l.13.06s.03 0 .04.02l.02.02h.02s0 .02.02.02l.05.03s.02 0 .02.02h.02l.05.03c0 .03.03.04.06.06l.05.04.03.03h.02l.03.03h.02l.06.03s.02 0 .03.02l.04.02s.02 0 .03.02l.08.05.07.04.07.03c.02 0 .02.02.03.02l.04.02.07.04a1 1 0 0 1 .15.07l.16.07s0 .02.02.02l.11.06.12.06.02.02s.02 0 .03.02l.07.03h.02l.07.05h.05l.12.07.07.04.04.02.07.03s.02 0 .02.02l.02.02.02.02h.02l.02.02.06.04h.02l.03.02h.02l.03.02h.02l.11.09.03.02.03.02.02.02c.02 0 .02.02.03.02l.02.03.06.06.02.03.02.03.03.04v.02l.03.06v.02s0 .02.02.03c0 .02 0 .03.02.05 0 .02 0 .03.02.04v.02l.05.1v.02l.02.06v.02l.03.07.02.07v.05l.03.11v.04l.02.06.02.03c0 .02 0 .05.02.07 0 .02 0 .03.02.05v.06s0 .02.02.03l.05.15.04.11v.04l.02.03c.02.03.02.06.02.1v.21s-.03.07-.06.1l-.02.02-.03.03-.02.03h-.02c-.02 0-.02.02-.03.03h-.02l-.02.02h-.02l-.02.02h-.02l-.08.04c-.02.02-.07.03-.09.03h-.06c-.02.02-.06.02-.08.03-.02 0-.12.02-.11-.03l.02-.02c.02-.02.06-.02.09-.03l.02-.02h.02v-.02l.16-.07.02-.02c.02 0 .03-.02.04-.03l.06-.06.05-.04.04-.05c0-.02.02-.02.02-.03a.11.11 0 0 0 .03-.08c-.02 0-.02 0-.02.02h-.02c-.02.02-.06.02-.07.04h-.02c-.02.02-.04.02-.07.03 0 0-.02 0-.03.02l-.11.05h-.02c-.02 0-.02.02-.02.02h-.05l-.04.02a.42.42 0 0 1-.12.04c-.02 0-.05.02-.07 0-.02 0-.02-.02-.03 0-.02-.02-.03-.04-.02-.07 0-.02.03-.02.04-.02.02 0 .02-.02.03-.02h.02l.03-.02.04-.02.11-.06.07-.05.07-.05c0-.02.02-.02.03-.04.02 0 .02-.02.03-.04 0 0 .02-.02 0-.02l-.12.03h-.05l-.03.02s-.02 0-.03.02l-.06.03-.07.02-.07.02h-.11s-.03-.03-.04-.07l.05-.04.04-.02.13-.07h.02l.02-.02c.02-.02.04-.02.07-.02 0 0 .02 0 .02-.02 0 0 .02 0 .02-.02s0-.02.02-.02c0-.02.03-.04.02-.06-.03.02-.07.02-.1.03l-.22.07-.07.02h-.09l-.04-.04v-.04c.02-.02.02-.03.04-.03h.04s.02 0 .03-.02h.04l.02-.02.02-.02h.02l.08-.04.15-.13.05-.05-.07.02c0 .02-.02.02-.04.03h-.02l-.08.03-.07.03h-.03l-.02.02-.06.02-.04.02h-.02a.46.46 0 0 1-.2.02v-.06l.06-.03c.02 0 .02-.02.03-.02h.12s0-.02.02-.02h.03l.02-.02h.02l.02-.02.02-.02.05-.05.03-.03v-.02s0-.02.02-.02v-.02s0-.02.02-.03l.05-.17v.06l-.02.02-.02.03h-.02l-.08.05-.04.02h-.03c0-.02-.02-.02-.02-.05 0 0 0-.02.02-.02s0-.04.02-.05.02-.02.02-.03v-.02s0-.02.02-.03l.02-.02s0-.02.02-.02l.07-.12.02-.07v-.06l-.02-.02c-.02.02-.02.05-.03.07v.02s0 .02-.02.02v.04l-.03.06s-.02 0-.02.02-.03.03-.04.05l-.02.02-.03.03-.08.06-.09.07-.07.06-.1.06h-.02s-.05.02-.06.04c.02.07.08.03.14.02h.04c.02 0 .04 0 .07-.02h.06l-.05.06-.06.05h-.05l-.1.02c-.02 0-.04.02-.06 0-.02 0-.04-.03-.06-.06l-.12-.12c-.02-.02-.04-.05-.07-.06s-.02-.02-.02-.02l-.02-.02c-.02 0-.03-.02-.05-.03l-.07-.04-.11-.06h-.04l-.07-.04-.1-.05c0-.02-.02-.02-.04-.05.02 0 .02-.02.03-.03a.7.7 0 0 1 .09-.07l.04-.04.05-.04s.02 0 .02-.02.02-.02.03-.03c0 0 .02 0 .02-.02s.02-.02.02-.03c0 0 0-.02.02-.02s.02-.02.03-.03c0 0 .02 0 .02-.02-.08.05-.16.07-.25.11 0 0-.02 0-.02.02-.02 0-.03 0-.05.02l-.1.03h-.06l-.06.02c-.02.05-.06 0-.07-.02v-.02s-.02 0 0-.02c0-.02.02-.02.04-.03l.02-.02h.02l.02-.02h.02l.04-.03c.02 0 .02-.02.03-.03l.1-.08s.02 0 .02-.02c-.04 0-.08.02-.13.04l-.08.02h-.02l-.07.02c-.02 0-.02 0-.03.02l-.12.03h-.02s-.05.02-.07 0c0-.03.03-.03.03-.06.02 0 .03-.02.05-.04l.05-.04c.03-.02.07-.03.09-.06l.02-.02s.05-.02.07-.06l-.08.02h-.02l-.08.02H23l-.07.02h-.09v-.05l.02-.02.03-.02v-.02s.02 0 .02-.02c0 0 0-.02.02-.02l.02-.02.04-.03a.55.55 0 0 0 .08-.06c.02 0 .03-.02.04-.04-.07 0-.13.04-.19.06l-.07.02h-.05l-.06.02c-.04 0-.12.02-.12-.02 0-.02.02-.03.03-.05l.03-.02v-.02h.02l.06-.06c.02-.02.06-.03.07-.06l-.1.03h-.12l-.04.02h-.16v-.09l.12-.09.07-.05.02-.02.02-.02.02-.02h.02l.02-.02h.02l.02-.02s.02 0 .02-.02v-.02l-.06.03s-.02 0-.03.02l-.06.03h-.05s-.02 0-.03.02l-.14.04-.07.02-.07.02h-.07l-.03-.04c0-.02 0-.02.02-.03h.02l.04-.04.09-.07.02-.02c.02-.02.06-.03.08-.06a.57.57 0 0 1 .08-.07l-.1.04-.09.05-.1.04s-.02 0-.02.02h-.02c-.02 0-.04 0-.06.02h-.02l-.06.03h-.02l-.05.02c-.02 0-.03 0-.05.02 0 .02.02.03.03.05l.02.02.02.02s.03.06.06.08l.07.15c0 .02 0 .04.02.06v.08l.03.05.06.04.07.07.04.03.02.02.06.06.06.06.08.07c.02 0 .02.02.03.03h.03l.03.03c.02 0 .03.02.04.03l.06.06c.02 0 .03.02.04.03 0 0 .02 0 .02.02.02 0 .02.02.04.03h.02l.03.03c.02 0 .02.02.03.02l.02.02.02.02.04.04.03.02.03.02.03.03h.05l.02.02c.02 0 0 .02.02.02h.02c.02 0 0 0 0 0h.03l.02.02h.02l.04.02h.02s.02 0 .02.02h.02l.02.02h.02c0 .02.03.02.04.03.02 0 .02.02.04.03 0 0 .02 0 .02.02l.02.02.08.07.03.03c0 .02.02.02.03.04l.02.04c.02 0 .02.02.04.03l.03.06.04.05.1.2c0 .02 0 .05.02.07v.04l.02.05v.16l-.02.07c-.02.02-.03.06-.04.09a.4.4 0 0 0-.05.09c-.02 0-.02.02-.03.04l-.11.08-.02.02-.1.07-.08.07-.02.02-.04.03s0 .02 0 0c.06-.02.12-.03.17-.06l.04-.02.02-.02c.02 0 .04-.02.06-.04l.03-.02.08-.07s0-.02.02-.02l.02-.02c.02-.02.02-.04.05-.04h.04l.02-.02c0-.02.02-.02.02-.03l.03-.02.02.02v.08l-.04.07-.03.07-.03.03s0 .02-.02.02l-.03.03s0 .02-.02.02v.02h-.02l-.02.02-.04.03h-.02s0 .02-.02.02l-.04.02c-.02 0-.02.02-.04.03a.16.16 0 0 1-.07.04s-.02.02-.02 0v.02s-.02 0-.02.02h.1s.04 0 .07-.02h.03c.02 0 .02-.02.04-.03h.02l.04-.03.04-.02h.02l.06-.06c.02 0 .02-.02.03-.02l.03-.03h.02s.02 0 .03-.02v-.02l.04-.05s0-.02.02-.02c.03.02.02.05.02.1v.05l-.05.07-.02.03-.04.04-.02.03-.03.02-.11.07-.04.02-.05.03-.02.02h-.02l-.02.02h-.02l-.03.02s-.02 0-.02.02h.07c.03 0 .07 0 .11-.02l.08-.02c.02 0 .02-.02.05-.02l.03-.02.04-.02c.03-.03.07-.07.12-.07.04.02.02.08-.02.1 0 .02-.02.02-.02.03 0 0-.02 0-.02.02l-.07.07c-.02 0-.02.02-.04.03a.67.67 0 0 1-.12.06l-.12.06h.16s.08-.05.1 0c0 .02-.02.02-.03.03l-.03.04-.06.03-.02.02c-.02 0-.03 0-.04.02l-.02.02h-.02l-.07.02-.1-.02s0-.02-.02-.02-.02-.02-.03-.02v-.02l-.02-.03-.02-.02-.04-.03-.03-.06v-.02s-.02 0-.02-.02v-.04s0-.02-.02-.02 0-.03-.02-.04l-.02-.04-.02-.04-.02-.04v-.04s0-.02-.02-.03c-.02-.02-.02-.04-.05-.06 0-.04-.04-.06-.07-.08v-.03l-.07-.07-.04-.02c.02 0 0 0 0-.02l-.02-.02v-.03l-.03-.02-.02-.02-.03-.03-.04-.02c0-.02 0-.02-.02-.03l-.03-.02-.03-.03-.03-.03h-.02l-.04-.04h-.02l-.02-.02-.02-.02v-.02h-.04l-.02-.03h-.02l-.08-.07-.02-.02-.02-.02h-.02l-.04-.03c-.02-.02-.02-.03-.04-.03l-.06-.05-.02-.02-.05-.03-.06-.05s-.02 0-.02-.02l-.02-.02-.03-.03-.04-.02v-.02h-.02l-.02-.02c0-.02-.02-.02-.03-.02h-.02l-.02-.02s-.02 0-.02-.02l-.03-.02h-.02l-.02-.02h-.02l-.05-.04-.02-.02-.02-.02h-.02l-.03-.02c-.02 0-.03 0-.04-.03l-.07-.04h-.02c-.02 0-.03-.02-.04-.04l.06-.02c0-.02.02-.02.04-.03v-.02h.02v-.02h.02v-.04s.02 0 .02-.02l.06-.05.05-.04v-.02h.02l.11-.1c-.07.02-.13.07-.19.1-.02.02-.05.02-.07.03-.02 0-.04.02-.06.04-.04.02-.07.06-.12.07h-.02l-.02.02h-.09v-.02l.04-.05c.07-.07.14-.11.2-.16l.02-.02v-.02l.04-.04c0-.02.02-.02.03-.03a.43.43 0 0 0 .06-.07l.02-.02v-.02l.03-.03-.04.02s-.02 0-.03.02c-.02.02-.03.02-.05.02v.02l-.05.02-.03.02c-.02.02-.06.03-.07.05l-.03.02h-.02c-.02 0-.02 0-.03.02h-.05l-.03.03-.06.04-.03.02s-.02 0-.03.02c-.02 0-.02.02-.04.03l-.05.05-.02.03v.02l-.04.03c.02.02.05.02.07.03l.07.04s.02 0 .03.02v.04c.03 0 .04.02.07.04l.07.04.03.03h.02s0 .06-.03.07h-.19l.03.02.03.02h.02s.02.02.05.02c.03.05.13.03.16.09l.06.02.05.02h.04l.03.02c.04.02.08.03.12.07v.04l.02.02h.02l.02.02.07.04.03.02.04.02.04.03.02.02c.02 0 .03 0 .05.02 0 .03.05.03.07.06h.02l.02.02h.02l.03.04h.05l.02.02.02.02.02.02s0 .02.02.02c0 .03.02.04.03.07 0 .02 0 .03.02.05v.05c0 .03-.02.06 0 .08.02 0 .02 0 .02-.02l.07-.04h.02s.02 0 0 .02h.04l.02.05v.03l-.03.07-.02.06-.02.02-.04.04-.03.03h-.02s0 .02-.02.02h-.03l-.02.02-.06.03c-.02-.02-.02-.06 0-.07v-.04c0-.02.02-.02.02-.03v-.02s0-.02.02-.03l.02-.02v-.04s.02-.03.02-.07l-.06.07h-.02l-.02.02v.02h-.02l-.05.05-.03.04s-.02 0-.03.02c-.02 0-.04.02-.05.03h-.02v.02h-.06l-.05.04h-.04c-.04.02-.08.02-.13.02v-.05l.02-.02.05-.04.06-.03c.02 0 .04-.02.05-.03s0-.02.02-.02c0-.02.02 0 .02-.03-.02 0-.02-.02-.03-.02l-.04.02s0 .02-.02.02l-.04.02h-.03l-.02.02-.13.07s-.02 0-.02.02l-.05.02h-.04c-.03.02-.07.02-.1.03h-.05c-.04.02-.1.02-.13.03-.02 0-.06.02-.09 0v-.04c.03 0 .05-.02.07-.03h.03l.07-.03s.03 0 .04-.02.04-.02.06-.02c0 0 .02 0 .02-.02l.03-.02h.02c.02 0 .03-.02.03-.02s.02 0 .02-.02l.02-.02h.02l.04-.02c0-.02.02-.02.03-.02l.02-.04c-.02-.02-.04 0-.06.02l-.07.02-.07.02-.07.02h-.02l-.06.02h-.02l-.13.03h-.09l-.04-.04v-.03l.02-.04.02-.02.07-.04c.02-.02.07-.02.09-.05.05 0 .07-.05.12-.07 0 0 0-.03.02-.03s.03-.02.05-.03h.05c0-.02.02-.02.03-.02l-.13.03c-.02 0-.04 0-.06.02h-.07l-.1.02-.07.03c-.03.02-.07.02-.11.03h-.07l-.02-.02v-.06c.02 0 .02-.02.03-.03h.02l.04-.03.02-.02s.02 0 .02-.02l.05-.03a.55.55 0 0 0 .09-.07c.02 0 .02-.02.04-.03h.02l.02-.03c-.06.04-.13.04-.2.07l-.15.07h-.1s-.07.02-.09 0h-.03l.02-.04a.7.7 0 0 1 .09-.07c.02 0 .03-.02.05-.04l.04-.02h.02l.04-.02c.02 0 .03-.02.05-.03l.05-.04c.02 0 .03-.02.03-.03-.03.02-.07.02-.1.03-.02 0-.05 0-.07.02h-.03l-.2.07-.07.02-.08.02c-.02 0-.04 0-.05-.02v-.03l.04-.03.02-.02h.02l.02-.02.03-.02.03-.02s0-.02.02-.03l.06-.03h.02c.03-.02.07-.03.08-.07a.5.5 0 0 1-.13.04h-.03l-.07.02h-.04s-.02 0-.02.02l-.07.02h-.03s-.09.04-.13.02c-.03-.02 0-.07.03-.07a.63.63 0 0 1 .12-.1s.03-.02.04-.03l.03-.02.1-.08h-.06l-.15.06c-.02.02-.06.02-.09.04l-.04.02-.02.02h-.02s-.02 0-.02.02h-.12l-.02-.05v-.02l.06-.07.04-.03c0-.02.02-.02.02-.03.02 0 .02-.02.03-.02l.05-.04.12-.09.02-.02-.28.13-.12.08-.05.02h-.02l-.08.02h-.05v-.02l.03-.06s.02 0 .02-.02l.08-.07s.02 0 .02-.02l.08-.05s0-.02 0 0c.02 0 .02-.02.04-.03 0 0 .02 0 .03-.02l.02-.02h.02l.02-.02h.02l.05-.02s.02 0 .02-.02c0 0 .02 0 .02-.02h-.18l-.07-.02h-.02l-.03-.02h-.05l-.07-.04c-.02-.03-.07-.03-.08-.07h-.02l-.06-.03h-.15s-.07 0-.08.02l-.06.02-.04.02-.02.02-.07.05-.03.03-.02.02-.07.05c-.02 0-.02.02-.03.03l-.04.04-.02.02-.02.02-.1.06-.06.03s-.02 0-.02.02l-.06.02-.02.02s-.02 0-.02.02c-.02 0-.05.03-.07.02-.02 0-.02-.02-.02-.04 0-.04.06-.07.09-.08l.05-.04h.04v-.02l.04-.04.06-.05.06-.06v-.02h.02l.02-.02s.03-.04.06-.05c0-.02.02-.03.04-.04l.02-.02h.02l.02-.02v-.02c.02 0 .02 0 .02-.02.02 0 .02 0 .02-.02l.03-.02c.02 0 .02-.02.03-.03l.03-.02h.02l.02-.02h.02l.04-.04c-.02 0-.02 0-.03.02 0 0-.02 0-.03.02 0 0-.02 0-.02.02l-.12.07-.1.06h-.02l-.03.03-.03.02s-.02 0-.03.02h-.07l-.02.02-.05.03-.06.04-.05.03h-.03l-.02.02c-.02 0-.03.02-.04.03l-.07.05s-.02 0-.02.02l-.02.02-.04.04s-.02 0-.02.02v.02l-.07.04-.06.04s-.02 0-.02.02c0 0-.02 0-.02.02h-.02s-.07.04-.11.04c-.02-.02-.03-.03-.03-.07 0 0 0-.02.02-.02l.02-.03s.06-.07.09-.08c0 0 .02 0 .03-.02.02 0 .02-.02.04-.03l.03-.03.19-.16.12-.11.06-.06.07-.06.02-.04c0-.02.02-.02.04-.04l.08-.08.04-.04s.02 0 .02-.02l.05-.07.07-.08c-.06.02-.1.07-.15.1s0 0-.02.02l-.02.02-.06.04-.03.03h-.02l-.06.04-.02.02h-.04l-.03.04-.07.05-.1.07-.04.02-.04.02-.03.02h-.02l-.07.05-.02.02h-.04l-.07.07-.22.18s-.02 0-.02.02v.02h-.04l-.03.03-.05.05h-.02s-.02 0-.02.02l-.05.04-.05.05v.02c-.02.02-.07.04-.1.02-.02-.02-.04-.02-.04-.04l.03-.07c0-.02.02-.02.02-.03 0 0 .02 0 .02-.02s.02-.02.02-.03l.08-.08.22-.21c.02 0 .02-.02.02-.02l.02-.02s.02 0 .02-.02c0 0 0-.02.02-.02l.07-.06.07-.07.02-.02.07-.07.07-.07c0-.02.02-.02.04-.03l.07-.07c.02-.02.05-.03.07-.07l.04-.02h.02s.07-.04.06-.09c-.02-.02-.05.02-.07.02 0 0-.02 0-.03.02l-.03.02c-.07.03-.12.07-.19.12l-.02.02h-.02c-.02 0-.02.02-.04.03h-.02v.02l-.05.03c-.02 0-.03.02-.04.03l-.02.02c-.02.04-.06.05-.09.07 0 .02-.02.02-.04.03l-.07.07c-.02 0-.02.02-.03.03l-.03.03-.07.06c-.03.02-.07.06-.11.07 0 .02-.02.02-.03.03l-.04.05h-.02l-.03.02c0 .02-.02.02-.04.04h-.02l-.02.02-.02.02-.02.02h-.02s-.02 0-.02.02c-.03 0-.05 0-.06-.02 0-.03.02-.02.02-.03l.08-.1.06-.06.07-.05.07-.07v-.02h.02s0-.02.02-.02l.06-.06.1-.1h.02l.07-.07.03-.02c.02 0 .02-.02.04-.03l.02-.02.02-.02.12-.11.07-.06h.02l.02-.02h.02l.04-.04.02-.02.02-.03.02-.03c.02 0 .02-.02.02-.02s.06-.07.09-.08l.02-.04h.02v-.02s.02 0 .02-.02l.05-.05-.06.03-.02.02h-.02s-.02 0-.02.02a.12.12 0 0 1-.07.04.57.57 0 0 1-.08.07l-.03.02-.05.04-.22.18c-.02 0-.02.02-.04.03h-.02l-.11.09h-.02s-.02 0-.02.02l-.12.1h-.02l-.03.03h-.02s0 .02-.02.02h-.02l-.06.04-.04.02c0 .02-.02.02-.03.03v.02l-.04.03-.03.03-.04.02c-.02 0-.03.02-.04.03l-.07.07-.02.02-.06.04-.04.02c-.02.02-.06.04-.09.03l-.02-.02c0-.02.03-.03.05-.06l.04-.04.02-.02.04-.02.02-.02.02-.02v-.02h.02v-.02h.02l.02-.03.05-.04v-.04l.05-.05.02-.03c.02 0 .03-.02.04-.03v-.02l.02-.02v-.02l.02-.02v-.02l.05-.05h.02c0-.02.02-.03.03-.05.03-.04.08-.07.12-.1l.06-.06c-.02 0-.02.02-.03.03a.26.26 0 0 1-.09.05h-.04l-.04.03-.03.02s-.02 0-.02.02l-.02.02-.02.02-.04.02c-.02 0-.02.02-.03.02l-.03.03-.05.05h-.03v.02s-.03 0-.05.02c-.02 0-.02.02-.04.03l-.02.02-.06.03c-.02 0-.02.02-.03.02l-.07.07-.07.07h-.02l-.02.02h-.02l-.09.1H17s0 .02-.02.02h-.02v.02h-.04s-.04.04-.07.02c0-.03.02-.05.03-.07l.02-.07c.02 0 .03-.03.05-.03 0-.02.03-.02.04-.04v-.02h.02v-.02a.68.68 0 0 1 .12-.12h.02v-.02h.02l.03-.02v-.02s0-.02.02-.02v-.02l.14-.13.02-.02s0-.02.02-.03c0-.02.03-.02.04-.04l.03-.03s0-.02.02-.02v-.02l-.05.02-.02.02h-.02l-.04.04h-.03l-.11.09-.03.02h-.04c-.02 0-.03.02-.04.03h-.02l-.05.04-.07.06-.02.02h-.04s-.02 0-.02.02h-.02l-.11.08-.06.04a.3.3 0 0 1-.07.05s-.1.11-.15.15l-.03.02s-.02 0-.03.02l-.04.04c-.02.02-.03.03-.05.03s-.02 0-.02-.02.04-.03.04-.07c.02 0 .02-.02.03-.03l.02-.03v-.02l.06-.07c0-.02.02-.02.03-.03l.02-.04v-.02l.05-.07.04-.04h.02l.02-.02h.02s0-.02.02-.02l.02-.03.02-.02.02-.03c0-.02.02-.02.02-.03l.04-.05h.02v-.02l.02-.03.02-.03c-.02 0-.02.02-.04.03h-.02s-.02 0-.02.02l-.09.06a.3.3 0 0 1-.07.05.7.7 0 0 0-.09.07l-.03.02-.11.1-.14.14c-.02 0-.02.02-.03.02l-.03.03-.04.02c0 .02-.02.02-.03.03l-.04.03-.03.03h-.02l-.04.04s-.02 0-.02.02l-.07.07-.03.03-.02.02s-.02 0-.02.02c0 0-.02 0-.02.02l-.05.04c-.02 0-.02.02-.03.03-.02 0-.03.02-.04.03l-.05.02h-.04c-.02 0-.02 0-.03-.02 0-.02 0-.02.02-.03a.16.16 0 0 0 .05-.08l.05-.05s0-.02.02-.02h.02l.07-.09c.02 0 .02-.02.04-.03l.04-.05.02-.02.06-.06.03-.04c.02 0 .03-.02.04-.03l.02-.02v-.03l.05-.05.03-.04v-.02c0-.02.03-.02.04-.03l.02-.02.03-.02v-.02l.02-.02.05-.05.02-.02.02-.02.04-.04.02-.02v-.02l.02-.02h.02l.06-.07v-.02h.02v-.02s.02 0 .02-.02.05-.05.07-.07c.02 0 .03-.02.04-.04v-.02h.02l.02-.02.04-.05h-.03s-.02 0-.03.02l-.17.12c-.02 0-.02.02-.02.02l-.02.02h-.02l-.02.02-.07.04h-.02l-.02.02h-.02s-.02 0-.02.02c-.02 0-.02.02-.03.02-.02 0-.02.02-.04.03v.02c-.02 0-.03.02-.05.03h-.02v.02l-.02.02-.02.02-.02.02h-.02l-.02.02-.04.02h-.02c-.02 0-.02.02-.03.03h-.02l-.02.02s-.02 0-.02.02l-.02.02-.05.04-.05.05s-.02 0-.02.02l-.02.02-.05.04-.09.09h-.02l-.18.19-.02.02-.02.02-.07.07h-.02v.02l-.02.02s-.02 0-.02.02v.02l-.02.02c-.02 0-.02.02-.04.03l-.05.02h-.05l-.04-.04c.02 0 .03-.02.05-.03 0 0 0-.02.02-.02v-.03a.32.32 0 0 1 .06-.05l.07-.08.03-.04.02-.02.07-.07.02-.03v-.02l.04-.03.16-.16.04-.04.03-.03.03-.03.02-.02h.02s0-.02.02-.02l.06-.06.02-.02.02-.03.05-.04c.02 0 .03-.03.05-.04l.02-.02h.02v-.02l.02-.02a.47.47 0 0 0 .1-.1h.02v-.02l.02-.02a.48.48 0 0 1 .11-.09s0 0 .02-.02c0 0 .02-.02 0-.02-.02.02-.05.02-.07.03l-.04.02h-.04l-.02.02h-.04s-.06.06-.09.07l-.02.02-.07.05c-.02 0-.03.02-.05.03l-.07.07-.06.04-.07.04a.27.27 0 0 0-.08.07c-.02 0-.02.02-.04.03l-.03.04h-.02l-.19.17c-.02.02-.05.04-.06.07h-.02l-.05.04a.43.43 0 0 0-.06.07h-.03l-.02.02-.08.08-.09.09-.05.04-.02.02-.12.1-.03.02-.03.02h-.06l-.02-.06.02-.06v-.02l.03-.05.07-.07v-.02l.02-.02s.06-.04.07-.07v-.02h.02l.02-.04.05-.04.03-.03h.02s0-.02.02-.02l.02-.02v-.02s.02 0 .02-.02.03-.04.05-.06 0 0 .02 0l.06-.06s.02 0 .02-.02c0 0 0-.02.02-.02l.03-.03.03-.03c.02 0 .02-.02.03-.03 0 0 .02-.02 0-.02-.07.02-.14.06-.2.09h-.02s0 .02-.02.02l-.05.04s-.02 0-.02.02 0 0-.02 0-.03.02-.05.03c-.02 0-.02.02-.04.03l-.04.03-.05.03c-.02 0-.02.02-.04.03l-.08.07-.08.07-.16.16s0 .02-.02.02l-.06.06-.02.03h-.02l-.03.05s-.02 0-.03.02c0 0 0 .02-.02.02 0 0-.02 0-.03.02l-.07.04h-.33c-.04 0-.1 0-.13.02h-.61l-.34.02h-.36s-.06.02-.08 0l-.06-.02h-.45v.28h.25l.3-.03h.12c.07 0 .15 0 .21-.02l.29-.02h.17l.53-.03h.34c.2 0 .39-.02.59-.03h1.06c.02.02.04 0 .07 0h.65s.02.02 0 .04c.02 0 0 .03.02.04v.02l.04.12.06.09s0 .02.02.03v.02l.02.02s.02 0 .03.03l.02.07.02.07c0 .03.04.07.06.09l.07.08.02.02.04.02.04.02.15.03c.02 0 .05 0 .08.02h.22l.04.02h.07s.03-.02.05 0c0 0-.02 0 0 .02v.12l.03.07.02.04.02.02.02.03h.02s.02 0 .02.02c0 0 0 .02.02.02l.04.03.02.02h.02s.02 0 .02.02c0 0 .02 0 .03.02s.07.03.1.06c.05.05.15.06.24.07l.21.02h.18s0 .04.02.06l.02.04c0 .02.02.02.03.04l.02.03.02.02c0 .02.02.02.03.04v.02l.08.08h.02l.02.02.02.02.05.04.02.02s.02 0 .03.02l.02.02h.08l.09.02.07.02h.02l.09.02h.15c.07 0 .14-.04.21-.06l.02.04s0 .02.02.02.02.02.02.04l.07.11c0 .02.02.02.04.04l.03.04.04.04c.02 0 .04.03.07.05h.02l.04.02.13.07s.02 0 .02.02h.02l.1.02.15.02h.18l.04-.02h.06l.06-.02h.02l.02-.02h.02l.06-.02h.02l.05-.02c.03 0 .09-.02.11-.04s0-.02.02-.02.03 0 .04-.02l.18.11a.4.4 0 0 0 .09.05l.05.02.04.02.02.02h.04l.02.02h.13s.04 0 .06.02c.03-.02.07 0 .1 0 .02 0 .04 0 .07-.02l.05-.02h.04s.02 0 .02-.02h.09s0-.02.02-.02.02 0 .02-.02c0 0 .02 0 .02-.02 0 0 .02 0 .02-.02l.02-.02h.02l.03-.02s0-.02.02-.02c0-.02.02-.02.02-.03v-.02l.02-.02.03-.03v-.03s0-.02.02-.03l.02-.02v-.06l.02-.05v-.16l-.02-.07h.03v.02l.04.02c.02 0 .03.02.04.03h.07l.07.02c.02 0 .03 0 .05.02l.16-.02c.03 0 .06-.02.08-.03l.06-.03h.03l.02-.02h.02l.04-.04.07-.06a.65.65 0 0 0 .08-.07c0-.02.03-.03.03-.05l.02-.04v-.02l.02-.03c.02 0 .02-.02.03-.04l.06.03h.04l.05.02h.18l.06-.02h.04l.07-.03c.02 0 .03 0 .05-.02l.04-.02a.33.33 0 0 0 .14-.12l.04-.04s0-.02.02-.02a.22.22 0 0 0 .05-.08l.05-.13v-.02l.02-.05c.02 0 .02 0 .02-.02.02-.02.06-.02.09-.02l.06-.02h.02s.02-.02.03 0c.02 0 .03-.02.04-.03.02 0 .02 0 .03-.02a.7.7 0 0 0 .09-.07s.02 0 .02-.02l.1-.08.04-.04h.02l.02-.02.02-.03.02-.02s0-.02.02-.03c0 0 0-.02.02-.02s.02-.05.03-.07c.02 0 .02 0 .03-.02l.14-.04c.03-.02.07-.02.1-.03h.04l.02-.02c.02 0 .03-.02.05-.03h.02s0-.02.02-.02h.02l.02-.02h.02s.03-.03.05-.03v-.02l.12-.02h.99a5.65 5.65 0 0 1 .83.06h.43l1.03.07c.06 0 .14 0 .19.02h.14l.09.02h.35l.4.03 1.57.11v-.23l.51.18ZM18.73 19l.04-.02h.05l.07-.03c.02 0 .03 0 .05-.02l.03-.02c.02-.02.05-.02.08-.03l.04-.02s.02-.02.03 0c0-.02.02 0 .02-.02.02 0 .02-.02.04-.03l.05-.02h.02l.07-.03.02-.02h.03v.11s0 .02-.02.02c0 .02-.02.02-.04.04 0 0-.02 0-.02.02l-.03.03s-.02 0-.02.02h-.02l-.07.05-.04.02h-.02l-.02.02h-.02s-.02 0-.03.02H19s-.04 0-.07.02c-.03.02-.07.02-.12.02h-.09l-.04-.02c-.02 0-.03-.02-.04-.03.02-.02.05-.02.07-.02m2.22 5.42.07.03.05.05.03.02s.02 0 .02.02v.05l.02.06v.04h-.1a.26.26 0 0 0-.08.03l-.12.05c0 .02.03 0 .05 0h.06s.03-.02.05 0l.04.02v.04l-.02.02v.02h-.02l-.08.07h-.02l-.03.02h-.07c-.02 0-.04 0-.06-.02h-.02s0-.02-.02-.03c-.02 0-.03-.02-.04-.03 0-.03 0-.06.02-.07v-.04l.02-.02.02-.04v-.02c.02 0 .02 0 .03-.02l.04-.02.07-.03.04-.02.02-.03c0-.02-.02-.02-.02-.03l-.1.02s0-.02-.02-.02c0-.02 0-.05.02-.07h.02v-.02l.04-.03s.02 0 0 0h.07m-.4.7.07-.02s.02 0 0 0c0 0 .02 0 .02.02h.04l.02.02-.03.02-.03.02c-.03 0-.05.02-.08 0h-.04s0-.02-.02-.02c0-.02 0-.03.02-.05s0-.02.02-.02Zm-.2-2.12h.02l.03-.03.04-.02h.04c.02 0 .04 0 .06.02 0 0 .03.03 0 .04v.02l-.04.08-.04.03-.07.04h-.03l-.14.08h-.02l-.02.02-.04.02h-.04c-.02 0-.07.02-.08-.02 0-.02 0-.03.02-.04l.02-.02h.02l.03-.02.17-.15c.02 0 .02-.02.04-.03m-.81.37.02-.03.06-.06a.63.63 0 0 0 .12-.11l.13-.11.02-.02s.02 0 .02-.02c0 0 .02 0 .02-.02h.02l.03-.03h.02l.06-.04c.02 0 .02-.02.04-.03l.02-.02h.02s.06-.03.1-.02c.02 0 .05.03.02.07h-.02l-.02.03-.1.08-.05.03h-.02v.02h-.03l-.02.02-.05.02-.02.02h-.02l-.09.07-.1.07-.02.02-.04.02-.04.02-.07.05h-.02s-.05.04-.08 0v-.04m.04.23s0-.02-.02-.02c0 0 0-.02.02-.02h.02l.02-.02.04-.02c.02 0 .02-.02.05 0l.02.02c0 .04 0 .05-.03.07l-.02.02-.07.02s-.02 0-.03-.02m-1.21.12.1-.07s.02 0 .03-.02h.04l.02-.02.06-.03.03-.02h.05s.03 0 .04-.02h.03l.13-.03h.19s.03 0 .05.02l.04.02h.02l.02.02s.02 0 .02.02c.02.02.02.04.03.07l.02.02.02.02.02.02.02.02c.02.02.03.07.06.09v.13s0 .04-.02.05v.04l-.04.07s0 .02-.02.02c0 .02-.02.02-.03.04 0 .02-.03.05-.05.03v-.02s0-.06-.02-.07v-.05l-.02-.05s0-.02-.02-.02c0-.02 0-.02-.02-.03l-.06-.06a1 1 0 0 1-.14-.15c-.02 0-.02-.02-.04-.03l-.05-.06h-.02c-.02-.02-.03-.02-.07-.03-.07 0-.12.02-.18.04s-.02 0-.03 0l-.03.02c-.02 0-.04 0-.06.02-.02 0-.08.05-.12 0 0-.02.02-.02.02-.02m1.04.81.04-.04c0-.02.02-.02.05-.03.02-.02.03-.02.06-.02.02-.02.04-.02.07-.02l.03-.02s.02 0 .02-.02l.04.02.03.03.02.04c0 .02-.03.04-.06.05l-.06.02h-.07s-.02 0-.02.02h-.02s-.07.02-.1 0v-.02m-1.07-.56s.02-.03.04-.03c0-.03.04-.04.05-.07.03 0 .07-.03.1-.04h.12l.07-.02h.05l.04.02a.1.1 0 0 1 .07.02s0 .02.02.02.04.03.07.05l.04.03.02.02v.02h.02v.02s0 .02.02.02c.02.02.02.03.05.04l.03.06v.04l.02.06c0 .02-.02.02-.03.03 0 .02 0 .02-.02.03h-.02s-.02 0-.02.02c-.02 0-.02.02-.03.03l-.06.03-.04.02s-.02 0-.02.02h-.03l-.05.02h-.15l-.06-.02h-.02l-.05-.02-.07-.06-.02-.02-.03-.03-.05-.07c-.02-.02-.02-.03-.03-.07l-.02-.12c0-.04.02-.06.04-.08m-.92.52s-.06.03-.1.03c-.02 0-.08 0-.11-.02-.03 0-.04-.02-.07-.03l-.02-.02h-.02l-.03-.02h-.02s-.02 0-.02-.02v-.02l-.02-.03s-.02 0-.02-.02l-.02-.06-.03-.06c0-.02.02-.02.03-.02l.05.02.07.04h.06l.03.03h.02l.04.02c.02 0 .03.02.05.03.02 0 .03 0 .05.02s.02 0 .02 0h.02s.02 0 .03.02v.02s.02 0 .02.02v.05m.42-.48v.02l-.11.06-.06.02h-.04c-.02 0-.02.02-.03.02 0 0-.02 0-.03.02 0 .03.02.07.07.07 0 .02-.03.02-.05.02-.02 0-.04 0-.06.02h-.1l-.06-.02s-.02 0-.02-.02h-.02l-.04-.02-.02-.02h-.02l-.04-.02s-.02 0-.02-.02c0 0 0-.02-.02-.02h-.04v-.09s.02 0 .03-.02l.02-.02s.02 0 .02-.02h.02l.08-.06h.02l.06-.03h.02v-.02h.02l.02-.02.07-.05h-.03c-.02 0-.04 0-.06.02l-.07.03c-.03 0-.06.02-.09.04h-.06l-.07.02h-.02l-.05.02h-.03s-.06.02-.08 0c-.02 0-.02 0-.03-.02h-.02l.02-.04.02-.02h.02c.02 0 .02-.02.04-.03 0 0 .02 0 .02-.02.02 0 .03-.02.05-.03h.02v-.02h.02l.03-.03a.22.22 0 0 1 .08-.05c-.03 0-.07 0-.1.02h-.02s-.05 0-.07.02l-.02.02c-.02 0-.04.02-.05.03-.03 0-.06.03-.08 0l.03-.07s0-.02.02-.02a.32.32 0 0 1 .15-.09c.02 0 .03 0 .05-.02l.06-.02.03-.02h.06c.02 0 .02 0 .03-.02h.1s.02-.02.02 0h.06s.06 0 .09.02h.08l.09.06c.02 0 .02.02.04.03h.02l.02.03.02.02.03.03c.02.02 0 .04.02.06l.02.08v.07l-.03.07-.06.05v.02h-.02m1.11.85-.02.02h-.02c-.02.02-.02.03-.05.03v.02h-.04l-.02.02c-.02.02-.05.02-.08.03l-.05.02-.07.02-.14.02h-.06c-.04 0-.07 0-.11-.02h-.02c-.02 0-.03 0-.05-.02l-.05-.02c-.02 0-.02-.02-.04-.03 0 0-.02 0-.02-.02l-.03-.02-.03-.02s0-.02-.02-.02-.02-.04-.02-.06l-.05-.05c0-.03 0-.07-.02-.1v-.17s0-.04.03-.05l.02-.04c.02 0 .02-.02.02-.03 0 0 .02 0 .02-.02v-.02l.05-.03s.02 0 .03-.02c.02 0 .03 0 .05-.02 0 0 .02 0 .02-.02 0 .02.03 0 .04 0 .02 0 .02.02.02.02 0 .02-.02.02-.02.06l-.02.03-.02.02-.02.03h-.02v.02s-.05.03-.06.06h.07l.11-.03.08-.03c.04 0 .09-.03.12-.02h.02s0 .02.02.02l.02.02c0 .02 0 .07-.02.08v.02h-.02l-.04.02h-.02s-.03 0-.04.02l-.04.02-.06.04s0 .02-.02.02c0 0 0 .02-.02.02h.07l.06-.02h.07l.02-.02h.03l.05-.03.06-.02.05-.02h.04c.02-.02.03-.04.08-.03l.13-.06h.03s.05-.02.07 0v.03l-.03.02-.05.04-.04.03-.02.02-.06.06h-.02l-.1.06c.02.02.03 0 .06 0 .02-.02.07-.02.12-.04l.04-.02.16-.07h.04l.02-.02.03-.02.04-.03h.05l-.05.09s0 .02-.02.02-.02.02-.03.03l-.02.03s0 .02-.02.02c0 .02-.02.04-.05.04 0 .02-.02.03-.05.05m1.26.3v.02l-.02.02c-.02.02-.02.03-.05.04l-.08.1c-.05.03-.08.07-.12.12l-.02.02-.02.02-.07.07c-.02 0-.02 0-.03.02-.03 0-.08 0-.12.02h-.29l-.04-.02h-.02l-.03-.02s-.03 0-.04-.02h-.02l-.04-.02-.04-.02-.04-.02-.03-.05c-.02-.04-.03-.04-.04-.11v-.06s0-.02.02-.03l.02-.02.02.06c0 .02.03.03.04.05l.05.02h.05l.06.03h.14c.05 0 .12.02.18 0 .02 0 .03 0 .05-.02.03 0 .05 0 .07-.02s.02 0 .02 0a.7.7 0 0 0 .09-.07l.02-.02.03-.03.02-.03-.09.02h-.02l-.13.05-.12.03-.14.02h-.02l-.03-.04c0-.02 0-.03.02-.03l.04-.02.04-.02.04-.02.07-.03c.02 0 .04 0 .06-.02h.04c.02 0 .02 0 .02-.02 0 0 .02 0 .02-.02l.1-.03h.08l.04-.02.06-.02c.02-.02.05-.02.07-.03 0-.02.03-.02.04-.04l-.21.06c-.03.02-.07.02-.11.03l-.1.03-.21.06-.21.05h-.19c0-.02.02-.02.03-.04l.06-.03h.05l.03-.02h.06c.02 0 .03 0 .05-.02.02 0 .03 0 .05-.02h.05l.06-.02.06-.02c.02 0 .04 0 .06-.02l.05-.02.15-.07c.02 0 .06-.02.07-.04-.02-.02-.05 0-.07 0-.04.02-.09.02-.14.03l-.17.04h-.03s-.05 0-.07.02h-.07s-.05 0-.07.02c-.02 0-.05 0-.07.02l-.07.02h-.07l.02-.04h.02l.02-.02h.08l.08-.03.05-.02h.06l.06-.02h.1s.02 0 .02-.02h.04l.1-.02c.02 0 .03-.02.06 0h.03l.05.02h.04s.02 0 .02.02c.02 0 .04 0 .04.02h.13s.04 0 .06-.02h.03l.02-.02.03-.02s.02 0 .03-.02c0 0 0-.02.02-.02l.02-.02s0-.02.02-.02v-.02l.02-.02v-.02l.03-.04.02-.02.04-.06.02-.04.02-.03v-.02s0-.02.02-.03v-.02l.02-.02s0-.02.02-.03l.02-.05c-.02-.08-.1-.12-.14-.17l-.03-.02v-.02c-.02 0-.02-.02-.03-.03l-.04-.02-.02-.02h-.02c-.02-.02-.04-.02-.07-.03-.03-.02-.07-.02-.11-.03l-.05-.02h-.11l-.05.03h-.02c-.02 0-.02.02-.04.03 0 0-.02 0-.02.02l-.02.03-.03.04c0 .02 0 .03-.02.05h-.02l-.08.13-.06.12-.03.09v.07l-.07.03c-.02 0-.02.02-.05.02-.02 0-.05.02-.07 0v-.04l.02-.03v-.03l.02-.02.03-.07v-.04s0-.02.02-.03c0 0 0-.02.02-.03s0-.02.02-.02v-.02l.02-.02v-.04l.02-.04v-.03l.02-.02v-.02l.07-.07.02-.03.06-.05.05-.05h.02l.03-.02s.02 0 .03-.02l.03-.02c.02 0 .06 0 .08-.02h.02c.02 0 .04 0 .06-.02h.09c.08 0 .16 0 .22.03l.02.02.02.02s.02 0 .02.02.02.02.04.02l.03.02s.02 0 .02.02h.02l.05.06s0 .02.02.02c0 .02.02.02.03.03l.02.02.03.06v.03s0 .02.02.03c0 .03 0 .06.02.08v.06s0 .03-.02.04c0 .02 0 .02-.02.03 0 .06-.03.1-.06.13v.02l-.02.04v.03s-.03.05-.03.08l-.02.05v.03l-.04.06-.06.08-.02.02v.02l-.02.04-.05.04v.04l-.02.02v.02l-.07.07v.02l-.02.02v.02l-.02.04s-.02 0-.02.02v.02l-.03.05-.03.06-.02.02m.38-1.1s0 .03-.02.05l-.03.02h-.02l-.02.02h-.03s-.02 0-.02.02l-.16.05s-.02 0-.03.02h-.04v.02s0 .02.02.02l.02.02h.06c.07 0 .14-.03.18-.03 0 .02 0 .02-.02.03l-.06.06c-.02.02-.02.04-.05.05v.02l-.04.03-.06.02c-.03.02-.05.04-.1.02l-.05-.03h-.02l-.02-.02-.06-.03c-.03-.02-.07-.04-.09-.07l-.02-.02-.03-.03v-.02l-.03-.06v-.1l.03-.1.03-.07.04-.07s.02 0 .02-.02l.02-.02a.12.12 0 0 1 .09-.08c.05 0 .12 0 .16.02s.02 0 .03.02l.05.02c.02.02.05.02.07.03l.02.02h.02l.02.03s.02 0 .02.02l.05.05.02.03.02.02v.03-.02Zm.64 1.43s0 .03-.02.05l-.02.05-.02.05-.02.02c0 .02 0 .03-.02.05 0 0 0 .02-.02.03s-.02.02-.02.03h-.02l-.03.02c-.02 0-.03.02-.05.03 0 0-.02 0-.02.02h-.02l-.04.02h-.03l-.05.02-.04.02-.05.02c-.02 0-.04.02-.05.03h.16c.02 0 .05 0 .07-.02h.28v.05l-.02.02h-.02l-.07.02h-.06l-.2.03h-.2s-.04 0-.06-.02c-.02 0-.04 0-.06-.02s-.03 0-.05 0h-.02v-.02l-.03-.02-.03-.03v-.02c0-.02.04-.03.07-.03h.14l.04-.02h.04s.02 0 .03-.02c.06 0 .1-.03.14-.05l.08-.06.06-.03s.02 0 .02-.02c.02 0 .02-.02.02-.02s.02 0 .02-.02-.02 0-.04 0h-.02l-.06.03-.04.02c-.02 0-.05 0-.07.02l-.07.03h-.24c-.07 0-.13 0-.18-.03 0-.02.03-.02.05-.04.04 0 .07-.03.11-.04l.06-.03h.02l.03-.02h.12l.11-.04c.02 0 0 0 0-.02h.02l.02-.02h.02l.05-.02s.02 0 .02-.02c0 0 .02 0 .02-.02-.08 0-.16.03-.23.04h-.09l-.07.02h-.29v-.02s0-.03.02-.05h.02l.04-.03c.02 0 .03-.02.05-.03a.52.52 0 0 1 .2-.06h.02l.06-.02h.02c.06-.02.14-.03.18-.07l.07-.07.15-.14v-.02l.02-.02.02-.02.03-.05v-.02l.03-.05.02-.05.05-.09v-.12l-.03-.04-.15-.15-.07-.04-.04-.02c0-.02-.02-.02-.03-.04v-.08c0-.03.02-.04.04-.07h.09s.03 0 .05.02c.02 0 .02.02.03.02.04.02.08.04.12.08l.05.04s0 .02.02.02 0 .02.02.03l.04.04v.03l.02.03.03.07.03.06v.3s-.02.05 0 .07a.16.16 0 0 0-.04.07v.06s0 .03-.02.05l-.02.03v.02l-.02.04c0 .02-.02.05-.04.06 0 .03-.02.05-.03.07 0 0 0 .02-.02.02v.03l-.02.02m1.38.39s0 .03-.02.04 0 .03 0 .04l-.04.03s-.02 0-.02.02l-.02.02-.02.02-.05.04-.02.02h-.02l-.02.02s-.02 0-.03.02l-.04.02-.04.02c-.02 0-.02.02-.03.02h-.07c-.05 0-.11 0-.15-.02h-.03l-.04-.02h-.07l-.02-.02h-.02l-.02-.02h-.04s0-.02-.02-.02h-.04c-.03-.02-.07-.06-.12-.08h-.02l-.02-.02h-.02l-.02-.02h-.02l-.02-.02h-.02l-.03-.02-.03-.02h-.02s0-.02-.02-.02h-.04c0-.04.03-.07.06-.11l.02-.04v-.05c0-.02 0-.03.02-.04v-.05c0-.02.02-.03.03-.05v-.06l.02-.05v-.02l.04-.02s0-.02.02-.02a.16.16 0 0 0 .04-.07l.05-.03s0-.02.02-.02c0 0 .02 0 .02-.02.08-.03.2-.03.29-.04.02.02.07.03.09.06 0 .02 0 0-.02.02 0 0-.02 0-.02.02s-.02.02-.03.03v.02h-.02l-.02.02v.02s-.04.03-.06.07c-.02 0-.03.02-.05.03 0 0-.02 0-.02.02h-.02s-.06.03-.08.06l-.06.03-.04.03c.02.02.05 0 .07 0l.06-.02s.02 0 .03-.02l.07-.04h.02l.04-.02s.02 0 .02-.02h.03l.1-.07H22c.02 0 .02 0 .03-.02.02 0 .03-.02.04-.03 0 0 .02 0 .02-.02 0 0 .02 0 .02-.02l.04-.02h.02s0-.02.02-.02.03-.02.05-.03h.02l.05.02-.02.09c-.02 0-.02.02-.03.02 0 .02-.02.02-.04.03h-.02v.02c0 .02-.02.02-.03.03l-.02.02c-.02.02-.04.02-.05.05-.02 0-.03.02-.05.03 0 0-.02 0-.02.02h-.02l-.09.06-.06.04s-.03 0-.04.03c.02.02.04 0 .06 0 .02 0 .03 0 .05-.02h.04c.02 0 .05-.03.07-.05h.02l.04-.02s.02 0 .02-.02h.03l.07-.04.03-.02h.02c.02 0 .02 0 .03-.02.02 0 .03-.02.05-.03l.02-.02h.02l.02-.02h.04s.04-.05.07-.05c.02-.02.04-.06.08-.05v.05l-.03.06c0 .02-.02.02-.02.03 0 0 0 .02-.02.02-.02.02-.04.03-.05.06l-.07.07-.05.05-.02.03h-.02s-.02 0-.02.02c-.02 0-.02.02-.04.04h-.02s-.02 0-.03.02h-.02v.02h-.02s-.02 0-.02.02h.06c.02 0 .02-.02.04 0 0 0 .02 0 .02-.02h.02s.03 0 .05-.02h.05l.04-.02s.02-.02.03 0l.07-.04h.02l.03-.02.02-.03a.32.32 0 0 1 .06-.05l.03-.02c.02-.03.07-.07.08-.02s-.02.02-.02.04v.02l-.02.04a.43.43 0 0 0-.06.07l-.04.04s0 .02-.02.02l-.02.02-.07.07a.43.43 0 0 0-.06.07c.03 0 .07-.02.09-.04l.04-.02.04-.02.04-.03a.1.1 0 0 1 .07-.03c.02 0 .03-.02.05-.03.02-.02.04-.05.07-.02.02.02.02.07 0 .11m1.02-.71v.02l-.02.03v.04l-.05.05-.02.03-.02.02-.04.03-.08.05-.04.02s-.02 0-.03.02c-.02 0-.02.02-.03.02h-.07c-.05 0-.11 0-.15-.02-.04 0-.05-.02-.08-.04h-.03s-.02 0-.02-.02c-.02 0-.02 0-.03-.02h-.02s-.02 0-.03-.02h-.04v-.02h-.03l-.18-.12h-.02s-.02 0-.03-.02l-.02-.02s-.02 0-.02-.02l-.04-.02a.44.44 0 0 0-.1-.06l-.09-.07h-.04s-.02 0-.03-.02c0 0-.02 0-.02-.02l-.03-.02c-.03-.02-.06-.06-.09-.07 0-.02-.03-.03-.04-.05l.07-.04c.02 0 .04 0 .06-.02h.04l.06-.02h.04v.06c-.02.02-.07.02-.1.02 0 .02.02.02.03.03l.04.02h.06l.05.02h.11s.02 0 .03-.02h.07s.02 0 .03-.02l.07-.03s.02 0 .03-.02h.03l.08-.04h.06s.04-.03.07-.03c.02 0 .02-.02.04-.03h.02l.07-.05s0-.02.02 0l.02-.02h.02l.03-.02h.02l.02-.03h.02c.02 0 .02-.02.04-.03h.02v-.02h.02s0-.02.02-.02v.06l-.03.05v.02l-.02.04c-.02 0-.02.02-.03.02-.02 0-.02.02-.04.04h-.02v.02l-.05.04-.02.02-.05.05c-.02 0-.03.02-.05.03 0 0-.02 0-.02.02h-.02l-.09.06-.06.04-.04.03c.02.02.05 0 .06 0l.05-.02c.02 0 .04 0 .06-.02 0 0 .02 0 .03-.02l.08-.03s.02 0 .02-.02c.03 0 .06-.02.07-.03l.07-.04h.02c.02 0 .02-.02.03-.02l.05-.03.03-.02h.02s.04-.05.07-.05c.02 0 .02-.04.05-.05h.05s0 .02-.02.03v.02l-.02.02v.02c0 .02-.02.03-.03.05-.02.02-.04.03-.05.07l-.07.07a.32.32 0 0 1-.06.05l-.02.02h-.04s-.02 0-.02.02l-.04.04h-.02l-.03.02h-.02l-.02.02h-.02s-.02 0-.02.02h.06s.03-.02.04 0l.02-.02.07-.02s.02 0 .03-.02l.07-.04h.02l.07-.04h.02s.02 0 .03-.02l.02-.02a.32.32 0 0 1 .06-.05l.03-.02c.02-.02.06-.07.08-.02v.02l-.02.04-.05.07v.02l-.04.03-.03.03v.02l-.02.03v.02l-.07.06a.43.43 0 0 0-.06.07c.03 0 .07-.02.09-.04l.04-.02.04-.02.02-.02.04-.02.04-.02h.02c.02 0 .02-.02.04-.03.02-.02.03-.03.05-.03.03 0 .05.05.04.09m1.73-1.24-.02.02-.02.04v.02l-.02.04s0 .02-.02.02v.02l-.02.02s0 .02-.02.02h-.02l-.03.02-.06.03c-.03.02-.07.02-.12.03-.02 0-.12.03-.12-.02 0-.03.06-.03.08-.05l.02-.03h.02s0-.02.02-.02h.02l.05-.02.11-.08h.02l.07-.07c.02 0 .03-.02.05-.04h.02v.02Z"/><path fill="#002f6c" fill-rule="evenodd" d="m32.24 23.38-.03.03-.04.02-.03.02c-.02 0-.02.02-.04.03-.02 0-.03 0-.04.02-.02.02-.06.03-.07.06 0 0-.02 0-.03.02l-.04.02-.02.02-.04.03-.02.03-.02.05h.07l.04-.02c.02 0 .03-.02.05 0 0 0 0-.02.02-.02l.06-.02h.02l.03-.02.02-.02.04-.02s0-.02.02-.02l.11-.07v-.17l-.02.02Zm0-.43-.09.07-.21.16c-.07.06-.16.12-.25.17h-.02l-.06.04-.02.02-.09.06c-.02 0-.02 0-.02.02h-.02l-.06.06-.04.05-.05.04c-.02.02-.04.03-.04.06h.13l.18-.07a.34.34 0 0 1 .09-.08l.02-.02s.02 0 .02-.02l.05-.06.04-.03s.02 0 .02-.02l.02-.02c.02 0 .02-.02.04-.04l.04-.03.16-.16.07-.07c.02 0 .02-.02.04-.03.02 0 .02-.03.03-.04v-.07Z"/><path fill="#1b1b1b" d="M114.82 28.98h-5.68l-1.74-4.19h-9.47l-1.58 4.19h-5.59l8.53-21.16h6.11l9.4 21.16Zm-12.38-16.11-3.11 8.22h6.52l-3.41-8.22Zm19.99-5.05h-5.27v21.17h5.27V7.82Zm13.87 0c7.73 0 11.7 4.81 11.7 10.61s-3.85 10.55-12.29 10.55h-8.75V7.82h9.34Zm-4.06 17.28h3.44c5.31 0 6.89-3.6 6.89-6.71 0-3.63-1.95-6.71-6.95-6.71h-3.39v13.4Z"/><path fill="#ba0c2f" d="M12.06 31.92s.11 1.37 1.69 2.43v-2.43h-1.69Zm2.57 0h2.32v3.75s-1.46-.33-2.32-.8v-2.95Zm3.21 0v3.93s.82.15.96.16c.13 0 .99.13 1.36.3v-4.39h-2.32Zm14.44 0s-.11 1.37-1.69 2.43v-2.43h1.69Zm-2.57 0h-2.32v3.75s1.46-.33 2.32-.8v-2.95Zm-3.17 0v3.93s-.82.15-.96.16c-.13 0-.99.13-1.36.3v-4.39h2.32Zm-4.35 5.85a3.07 3.07 0 0 0-1.13-1.08v-4.78h2.25v4.78s-.71.35-1.13 1.08"/><path fill="#fff" d="M14.1 29.61h.79l-.64.48.25.75-.63-.46-.63.46.26-.75-.64-.48h.78l.24-.74.23.74Zm2.79 0h.79l-.63.48.24.75-.63-.46-.63.46.25-.75-.64-.48h.79l.23-.74.23.74Zm2.78 0h.79l-.63.48.25.75-.63-.46-.63.46.25-.75-.64-.48h.79l.23-.74.23.74Zm2.79 0h.79l-.63.48.25.75-.63-.46-.63.46.25-.75-.64-.48h.79l.24-.74.23.74Zm2.78 0h.79l-.63.48.25.75-.63-.46-.63.46.26-.75-.64-.48h.78l.24-.74.22.74Zm2.79 0h.78l-.63.48.25.75-.63-.46-.63.46.26-.75-.64-.48h.78l.24-.74.23.74Zm2.79 0h.79l-.64.48.25.75-.63-.46-.63.46.25-.75-.64-.48h.79l.23-.74.23.74ZM17.58 11.2v1.89c0 1.1-.75 1.48-1.66 1.48-.96 0-1.66-.44-1.66-1.47v-1.9h.83v1.91c0 .48.35.77.82.77.44 0 .84-.23.84-.82v-1.85h.83Zm2.95.86a2.7 2.7 0 0 0-1.05-.3c-.3 0-.49.11-.49.27 0 .5 1.7.36 1.7 1.52 0 .64-.54 1.01-1.28 1.01-.58 0-.87-.15-1.2-.32v-.72c.48.31.77.43 1.14.43.31 0 .49-.12.49-.3 0-.54-1.69-.35-1.69-1.54 0-.58.49-.96 1.27-.96.37 0 .71.08 1.13.26v.65Zm4.14 2.46h-.89l-.27-.66h-1.48l-.25.66h-.88l1.34-3.33h.96l1.47 3.33Zm-1.94-2.53-.49 1.29h1.02l-.54-1.29Zm3.19-.79h-.83v3.33h.83V11.2Zm2.22 0c1.21 0 1.84.76 1.84 1.66 0 .96-.6 1.66-1.93 1.66h-1.38v-3.33h1.47Zm-.63 2.72h.54c.83 0 1.08-.57 1.08-1.05 0-.57-.3-1.05-1.1-1.05h-.53v2.11Z"/></g></svg>