<svg xmlns="http://www.w3.org/2000/svg" width="24" height="24" viewBox="0 0 24 24"><path d="m20.02,7.71l-5.24-5.24s-.02-.01-.02-.02c-.01,0-.02-.02-.03-.03,0,0-.01-.01-.02-.02-.01,0-.02-.02-.04-.03,0,0-.01,0-.02-.01-.01,0-.03-.02-.05-.03,0,0,0,0-.01,0-.02,0-.04-.02-.05-.03,0,0,0,0,0,0-.02,0-.04-.02-.06-.02,0,0,0,0,0,0-.02,0-.04-.01-.06-.02,0,0-.01,0-.02,0-.02,0-.03,0-.05,0-.02,0-.05,0-.07,0H5.25c-.4,0-.78.16-1.06.44-.28.28-.44.66-.44,1.06v16.5c0,.4.16.78.44,1.06.28.28.66.44,1.06.44h13.5c.4,0,.78-.16,1.06-.44s.44-.66.44-1.06v-11.99s0,0,0-.01c0-.1-.02-.2-.06-.29-.04-.09-.1-.18-.17-.25Zm-4.87,7.44l-2.62,2.62s0,0,0,0c-.02.01-.03.03-.05.04,0,0-.02.01-.03.02-.01,0-.02.02-.03.02-.01,0-.02.01-.03.02,0,0-.02.01-.03.02-.01,0-.02.01-.03.02-.01,0-.02.01-.03.01-.01,0-.02,0-.03.01-.01,0-.02,0-.04.01-.01,0-.02,0-.03,0-.01,0-.02,0-.04,0-.01,0-.03,0-.04,0-.01,0-.02,0-.03,0-.02,0-.05,0-.07,0s-.05,0-.07,0c-.01,0-.02,0-.03,0-.01,0-.03,0-.04,0-.01,0-.02,0-.04,0-.01,0-.02,0-.03,0-.01,0-.02,0-.04-.01-.01,0-.02,0-.03-.01-.01,0-.02,0-.03-.01-.01,0-.02-.01-.03-.02-.01,0-.02-.01-.03-.02-.01,0-.02-.01-.03-.02-.01,0-.02-.01-.03-.02,0,0-.02-.01-.03-.02-.02-.01-.03-.03-.05-.04,0,0,0,0,0,0l-2.62-2.62c-.14-.14-.22-.33-.22-.53s.08-.39.22-.53c.14-.14.33-.22.53-.22s.39.08.53.22l1.34,1.34v-4.19c0-.2.08-.39.22-.53.14-.14.33-.22.53-.22s.39.08.53.22c.14.14.22.33.22.53v4.19l1.34-1.34c.07-.07.15-.12.24-.16.09-.04.19-.06.29-.06s.2.02.29.06c.09.04.17.09.24.16.07.07.12.15.16.24.04.09.06.19.06.29s-.02.2-.06.29c-.04.09-.09.17-.16.24h0Zm-.91-6.91v-4.19l4.19,4.19h-4.19Z"/></svg>