<svg xmlns="http://www.w3.org/2000/svg" width="24" height="24" viewBox="0 0 24 24"><path d="m16.47,9.78c-.29-.29-.77-.29-1.06,0l-2.66,2.66V3.75c0-.41-.34-.75-.75-.75s-.75.34-.75.75v8.69l-2.66-2.66c-.29-.29-.77-.29-1.06,0s-.29.77,0,1.06l3.94,3.94c.29.29.77.29,1.06,0l3.94-3.94c.29-.29.29-.77,0-1.06Z" fill-rule="evenodd"/><path d="m3.75,13.5c.41,0,.75.34.75.75v5.25h15v-5.25c0-.41.34-.75.75-.75s.75.34.75.75v5.25c0,.4-.16.78-.44,1.06s-.66.44-1.06.44H4.5c-.4,0-.78-.16-1.06-.44-.28-.28-.44-.66-.44-1.06v-5.25c0-.41.34-.75.75-.75Z" fill-rule="evenodd"/></svg>