<svg xmlns="http://www.w3.org/2000/svg" width="24" height="24" viewBox="0 0 24 24"><path d="m21.75,5.23s0-.03,0-.04c0-.01,0-.02,0-.03,0-.01,0-.03,0-.04,0-.01,0-.02,0-.03,0-.01,0-.02,0-.04,0-.01,0-.02-.01-.03,0-.01,0-.02-.01-.04,0-.01,0-.02-.01-.03,0-.01-.01-.02-.02-.03,0-.01-.01-.02-.02-.03,0-.01-.01-.02-.02-.03,0-.01-.01-.02-.02-.03,0,0-.01-.02-.02-.03,0-.01-.02-.02-.03-.03,0,0,0,0-.01-.01,0,0,0,0-.01-.01,0,0-.02-.02-.03-.03,0,0-.02-.02-.03-.02,0,0-.02-.01-.03-.02-.01,0-.02-.02-.03-.02,0,0-.02-.01-.03-.02-.01,0-.02-.01-.03-.02-.01,0-.02-.01-.03-.02-.01,0-.02-.01-.03-.02-.01,0-.02,0-.03-.01-.01,0-.02,0-.03-.01-.01,0-.02,0-.04-.01-.01,0-.02,0-.03,0-.01,0-.02,0-.04,0-.01,0-.02,0-.04,0-.01,0-.02,0-.04,0-.01,0-.03,0-.04,0,0,0-.01,0-.02,0H3s0,0-.01,0c-.01,0-.03,0-.04,0-.01,0-.02,0-.03,0-.01,0-.03,0-.04,0-.01,0-.02,0-.04,0-.01,0-.02,0-.04,0-.01,0-.02,0-.04.01-.01,0-.02,0-.03.01-.01,0-.02,0-.03.01-.01,0-.02.01-.04.02,0,0-.02,0-.03.02-.01,0-.02.01-.03.02,0,0-.02.01-.03.02-.01,0-.02.02-.03.02,0,0-.02.01-.03.02,0,0-.02.02-.03.02,0,0-.02.02-.03.03,0,0,0,0-.01.01,0,0,0,0-.01.01,0,.01-.02.02-.03.03,0,0-.01.02-.02.03,0,.01-.01.02-.02.03,0,.01-.01.02-.02.03,0,.01-.01.02-.02.03,0,.01-.01.02-.02.03,0,.01,0,.02-.01.03,0,.01,0,.02-.01.04,0,.01,0,.02-.01.03,0,.01,0,.02,0,.04,0,.01,0,.02,0,.03,0,.01,0,.03,0,.04,0,.01,0,.02,0,.03,0,.01,0,.03,0,.04,0,0,0,.01,0,.02v12.75c0,.4.16.78.44,1.06.28.28.66.44,1.06.44h16.5c.4,0,.78-.16,1.06-.44s.44-.66.44-1.06V5.25s0-.01,0-.02ZM3.75,6.95l5.5,5.05-5.5,5.05V6.95Zm1.18,11.05l5.44-4.98,1.13,1.04c.14.13.32.2.51.2s.37-.07.51-.2l1.13-1.04,5.44,4.98H4.93Zm9.82-6l5.5-5.05v10.09s-5.5-5.05-5.5-5.05Z"/></svg>