<svg id="Layer_1" data-name="Layer 1" xmlns="http://www.w3.org/2000/svg" width="24" height="24" viewBox="0 0 24 24"><path d="M17.57,22.1h-.28a11,11,0,0,1-4-1.18,21.52,21.52,0,0,1-7.19-5.62A19.85,19.85,0,0,1,2.6,9.44,7.61,7.61,0,0,1,2,6.11,3.17,3.17,0,0,1,3,4.1L4.54,2.52a1.9,1.9,0,0,1,2.81,0c.29.26.57.55.86.85l1.7,1.7a2,2,0,0,1,.66,1.44,2,2,0,0,1-.66,1.43l-.51.52a1.73,1.73,0,0,1-.24.22A.86.86,0,0,0,9,8.81H9A9.3,9.3,0,0,0,10.35,11a16,16,0,0,0,3.87,3.51,4.59,4.59,0,0,0,.48.26l.54.29.88-.93a1.9,1.9,0,0,1,2.84,0l2.53,2.53a2.3,2.3,0,0,1,.2,2.61,1.1,1.1,0,0,1-.2.28c-.44.43-1.21,1.2-1.4,1.42A3.26,3.26,0,0,1,17.57,22.1ZM6,4H6L4.39,5.53A1.13,1.13,0,0,0,4,6.28,5.56,5.56,0,0,0,4.5,8.74,17.94,17.94,0,0,0,7.67,14a19.56,19.56,0,0,0,6.51,5.08,9.07,9.07,0,0,0,3.24,1h.15a1.27,1.27,0,0,0,1-.41c.22-.27,1-1,1.34-1.38A.74.74,0,0,0,20,18L17.53,15.6l-.89.88a2,2,0,0,1-1.42.62,2,2,0,0,1-.91-.23l-.12-.07c-.11-.07-.23-.12-.36-.19a5.08,5.08,0,0,1-.69-.38,17.86,17.86,0,0,1-4.37-4,11.27,11.27,0,0,1-1.65-2.7l0-.1A2,2,0,0,1,7.55,7.4l.1-.09.27-.24.15-.16.41-.4h0L6.76,4.78C6.49,4.5,6.23,4.24,6,4ZM20.78,18.86h0Zm0,0h0Zm-.72-.73Z"/></svg>