<svg id="Layer_1" data-name="Layer 1" xmlns="http://www.w3.org/2000/svg" width="24" height="24" viewBox="0 0 24 24"><path d="M12,22a1,1,0,0,1-1-1V11.38l-3.11,3a1,1,0,0,1-1.38-1.44L11.3,8.32a1.26,1.26,0,0,1,.28-.19h0A1.23,1.23,0,0,1,12,8H12a1.07,1.07,0,0,1,.32.07l.05,0a1.07,1.07,0,0,1,.28.19l4.8,4.59a1,1,0,0,1-1.38,1.44l-3.11-3V21A1,1,0,0,1,12,22ZM4.22,4.58a1,1,0,0,1-.71-.29,1,1,0,0,1,0-1.42A3,3,0,0,1,5.7,2H18.3a3,3,0,0,1,2.19.91,1,1,0,1,1-1.42,1.41A1.06,1.06,0,0,0,18.3,4H5.7a1.06,1.06,0,0,0-.77.32A1,1,0,0,1,4.22,4.58Z"/></svg>